<?xml version="1.0" encoding="UTF-8" standalone="no"?>
<!-- Generator: Adobe Illustrator 23.1.1, SVG Export Plug-In . SVG Version: 6.00 Build 0)  -->

<svg
   version="1.1"
   id="Layer_1"
   x="0px"
   y="0px"
   viewBox="0 0 695.89929 630.81152"
   xml:space="preserve"
   sodipodi:docname="angler-fish.svg"
   width="695.89929"
   height="630.81152"
   inkscape:version="1.1.2 (0a00cf5339, 2022-02-04)"
   xmlns:inkscape="http://www.inkscape.org/namespaces/inkscape"
   xmlns:sodipodi="http://sodipodi.sourceforge.net/DTD/sodipodi-0.dtd"
   xmlns="http://www.w3.org/2000/svg"
   xmlns:svg="http://www.w3.org/2000/svg"><defs
   id="defs281" /><sodipodi:namedview
   id="namedview279"
   pagecolor="#ffffff"
   bordercolor="#666666"
   borderopacity="1.0"
   inkscape:pageshadow="2"
   inkscape:pageopacity="0.0"
   inkscape:pagecheckerboard="0"
   showgrid="false"
   inkscape:zoom="0.775"
   inkscape:cx="358.06452"
   inkscape:cy="389.67742"
   inkscape:window-width="1920"
   inkscape:window-height="947"
   inkscape:window-x="0"
   inkscape:window-y="32"
   inkscape:window-maximized="1"
   inkscape:current-layer="g276" />
<style
   type="text/css"
   id="style2">
	.st0{fill:#5FD6D0;}
	.st1{fill:#442753;}
	.st2{fill:#83EAE0;}
	.st3{opacity:0.79;fill:url(#XMLID_80_);}
	.st4{fill:#00B763;}
	.st5{fill:#07AD5A;}
	.st6{opacity:0.8;fill:none;stroke:#442753;stroke-width:4;stroke-linecap:round;stroke-linejoin:round;stroke-miterlimit:10;}
	.st7{fill:none;stroke:#0F7C46;stroke-width:6;stroke-linecap:round;stroke-linejoin:round;stroke-miterlimit:10;}
	.st8{fill:#F4E834;}
	.st9{fill:#F4E834;stroke:#D3A548;stroke-width:6;stroke-miterlimit:10;}
	.st10{opacity:0.66;fill:#F99338;}
	.st11{fill:#00F0B5;}
	.st12{fill:#12CC9B;}
	.st13{opacity:0.76;}
	.st14{fill:#FFFFFF;}
	.st15{fill:none;stroke:#0A8E6B;stroke-width:6;stroke-linecap:round;stroke-linejoin:round;stroke-miterlimit:10;}
	.st16{fill:none;stroke:#FFFFFF;stroke-width:3;stroke-linecap:round;stroke-linejoin:round;stroke-miterlimit:10;}
	.st17{opacity:0.3;fill:none;stroke:#212121;stroke-width:6;stroke-linecap:round;stroke-linejoin:round;stroke-miterlimit:10;}
	.st18{fill:none;stroke:#442753;stroke-width:6;stroke-linecap:round;stroke-linejoin:round;stroke-miterlimit:10;}
</style>


<path
   id="XMLID_1_"
   class="st2"
   d="m 473.17558,25.866583 c 63.8,48.9 20.9,135.299997 88,181.999997 44.7,31.1 92.7,12.9 120.6,54.3 15.8,23.5 14.8,50.1 13.4,65.5 -14,150.2 -147.2,342.2 -332.6,296.2 -185.4,-46 -101,-168 -229.7,-212.5 -52.900003,-18.3 -109.800003,-33.2 -129.3000034,-125.2 -12,-56.6 6,-140.8 57.1000004,-161.1 47.400003,-18.8 77.700003,31.6 131.800003,13.5 54.3,-18.2 44.4,-77.899997 104.7,-114.699997 49.7,-30.2999999 129.1,-34 176,2 z"
   style="fill:#2e3039;fill-opacity:1" />
<path
   id="XMLID_16_"
   class="st2"
   d="m 135.11698,483.70812 c 20.2,23.6 27.7,50.8 18,69.9 -2,4 -5.3,9.6 -11.1,11.6 -26.7,9.2 -73.100003,-65.5 -55.100003,-83.6 6.1,-6.1 15.800003,-11.2 25.300003,-10.4 13.1,1 21.1,10.3 22.9,12.5 z"
   style="fill:#2e3039;fill-opacity:1" />
<g
   id="g276"
   transform="matrix(-1,0,0,1,830.96376,-216.20923)">
	<radialGradient
   id="XMLID_80_"
   cx="271.81711"
   cy="530.83301"
   r="71.386803"
   gradientUnits="userSpaceOnUse">
		<stop
   offset="0"
   style="stop-color:#FFFF00"
   id="stop221" />
		<stop
   offset="1"
   style="stop-color:#FFFF00;stop-opacity:0"
   id="stop223" />
	</radialGradient>
	<ellipse
   id="XMLID_17_"
   class="st3"
   cx="271.79999"
   cy="530.79999"
   rx="102.9"
   ry="99.400002"
   style="fill:url(#XMLID_80_)" />
	<path
   id="XMLID_21_"
   class="st4"
   d="m 633.1,464.7 c 0,0 15.2,-3.7 44.2,-32.7 29,-29 77.8,-54.5 95.7,3.7 10.6,34.4 3.1,112.3 -31.6,120.5 -23.3,5.6 -47.9,-13.1 -63.4,-28.6 -15.5,-15.5 -45,-23.2 -45,-23.2 v -39.7 z" />
	<path
   id="XMLID_61_"
   class="st5"
   d="m 633.1,464.7 v 39.8 c 0,0 29.5,7.7 45,23.2 4.7,4.7 10.3,9.8 16.4,14.3 4.3,-5.2 12.7,-16.5 15.6,-24.8 13.2,-39 5.8,-83.5 -27.8,-90 -1.7,1.6 -3.4,3.2 -5,4.8 -29,29 -44.2,32.7 -44.2,32.7 z" />
	<path
   id="XMLID_46_"
   class="st6"
   d="m 647.7,470.9 c 0,0 49.5,-13.9 82.5,-46.9" />
	<path
   id="XMLID_47_"
   class="st6"
   d="m 649.1,481.5 c 0,0 72.2,-9.5 99.5,-21.4" />
	<path
   id="XMLID_48_"
   class="st6"
   d="m 649.4,501.5 c 0,0 40.4,9.9 80.8,33.8" />
	<path
   id="XMLID_49_"
   class="st6"
   d="m 649.4,493.5 c 0,0 70.2,6.2 99.2,6.2" />
	<path
   id="XMLID_20_"
   class="st4"
   d="m 487.1,362.2 c 0,0 4.7,-19 12.5,-26.5 7.8,-7.5 20.7,-9.7 47.8,-4.7 27,5 46.7,14.2 46.7,24.7 0,5 -19.6,21.9 -24.4,21.9 -4.8,0 -69,-17.2 -82.6,-15.4 z" />
	<path
   id="XMLID_104_"
   class="st5"
   d="m 532.2,345 c -23.2,0 -33.5,10.3 -37.4,17.4 21.8,2.2 70.8,15.2 74.9,15.2 3.6,0 15.8,-9.8 21.4,-16.6 -9.2,-11.1 -35.9,-16 -58.9,-16 z" />
	<path
   id="XMLID_40_"
   class="st6"
   d="m 510.3,357 c 0,0 5.1,-12 15.2,-17" />
	<path
   id="XMLID_90_"
   class="st6"
   d="m 548.9,345 c -11.5,3.5 -20.5,16 -20.5,16" />
	<path
   id="XMLID_94_"
   class="st6"
   d="m 548.9,363.7 c 0,0 9,-10.8 24,-10.8" />
	<path
   id="XMLID_8_"
   class="st7"
   d="m 487.1,362.2 c 0,0 4.7,-19 12.5,-26.5 7.8,-7.5 20.7,-9.7 47.8,-4.7 27,5 46.7,14.2 46.7,24.7 0,5 -19.6,21.9 -24.4,21.9 -4.8,0 -69,-17.2 -82.6,-15.4 z" />
	<path
   id="XMLID_5_"
   class="st7"
   d="m 633.1,464.7 c 0,0 15.2,-3.7 44.2,-32.7 29,-29 77.8,-54.5 95.7,3.7 10.6,34.4 3.1,112.3 -31.6,120.5 -23.3,5.6 -47.9,-13.1 -63.4,-28.6 -15.5,-15.5 -45,-23.2 -45,-23.2 v -39.7 z" />
	<path
   id="XMLID_19_"
   class="st4"
   d="m 461,620.2 c 0,0 24.5,31.5 37,44 12.5,12.5 110,-11 121,-22 11,-11 14,-36 -44,-50 0.1,0 -52.4,43.8 -114,28 z" />
	<path
   id="XMLID_63_"
   class="st5"
   d="m 486.9,652 c 37.5,-1.5 106.5,-7.3 137.6,-29.8 -3.3,-10.5 -16.6,-22 -49.5,-29.9 0,0 -49.2,41 -108.2,29.3 -1,0.9 -1.9,1.7 -2.7,2.6 4.7,5.9 14.2,17.8 22.8,27.8 z" />
	<path
   id="XMLID_27_"
   class="st6"
   d="m 501.4,636.2 c 0,0 13,9.9 17.9,19.9" />
	<path
   id="XMLID_28_"
   class="st6"
   d="m 525.5,635 c 0,0 11,8.5 15.6,17.4" />
	<path
   id="XMLID_30_"
   class="st6"
   d="m 543.2,628.7 c 0,0 12.3,5.6 19.5,17.4" />
	<path
   id="XMLID_31_"
   class="st6"
   d="m 558.4,623.5 c 0,0 22.1,6.3 26.6,15.2" />
	<path
   id="XMLID_35_"
   class="st6"
   d="m 576.6,614.5 c 0,0 23.5,5.4 28.1,14.3" />
	<path
   id="XMLID_10_"
   class="st7"
   d="m 461,620.2 c 0,0 24.5,31.5 37,44 12.5,12.5 110,-11 121,-22 11,-11 14,-36 -44,-50 0.1,0 -52.4,43.8 -114,28 z" />
	<path
   id="XMLID_13_"
   class="st8"
   d="m 244.1,517.2 c 0,0 6,27.1 27.6,25 16.1,-1.5 20,-35.4 -4.1,-48.3 -24.2,-12.8 -23.5,23.3 -23.5,23.3 z" />
	<path
   id="XMLID_12_"
   class="st9"
   d="m 244.1,517.2 c 0,0 6,27.1 27.6,25 16.1,-1.5 20,-35.4 -4.1,-48.3 -24.2,-12.8 -23.5,23.3 -23.5,23.3 z" />
	<circle
   id="XMLID_55_"
   class="st8"
   cx="262.89999"
   cy="515.20001"
   r="10.2" />
	<circle
   id="XMLID_18_"
   class="st10"
   cx="262.89999"
   cy="515.20001"
   r="9" />
	<path
   id="XMLID_2_"
   class="st11"
   d="M 648.3,474.3 C 637,398.1 560.7,346.2 478,358.5 c -15.5,2.3 -30.1,6.7 -43.5,12.7 -15.7,7.1 -34.3,3.1 -45.6,-9.9 -5,-5.8 -9.7,-10.9 -12.2,-13.1 -7.1,-6.2 -15.3,-12.5 -24.7,-18 -4.7,-2.8 -9.7,-5.4 -15,-7.7 -5.3,-2.3 -10.9,-4.4 -16.7,-6 -1.5,-0.4 -2.9,-0.8 -4.4,-1.2 -1.5,-0.3 -3,-0.7 -4.5,-1 -1.5,-0.3 -3.1,-0.5 -4.6,-0.8 -1.5,-0.3 -3.1,-0.4 -4.7,-0.6 -6.3,-0.7 -12.7,-0.8 -19.2,-0.1 -6.5,0.6 -13,2 -19.3,4.3 l -1.2,0.4 -0.6,0.2 -0.3,0.1 c -0.8,0.3 -0.3,0.1 -0.5,0.2 l -0.1,0.1 -2,0.9 -2,0.9 -1,0.5 c -0.3,0.2 -0.8,0.4 -1.1,0.6 -1.6,0.8 -3.1,1.7 -4.6,2.5 -1.5,0.9 -2.8,1.8 -4.2,2.7 -5.4,3.8 -10.4,8.1 -14.7,12.8 -4.3,4.8 -8.2,9.9 -11.5,15.1 -3.3,5.3 -6.2,10.8 -8.6,16.5 l -0.4,1.1 -0.4,1.1 -0.8,2 c -0.2,0.6 -0.5,1.4 -0.8,2.2 l -0.7,2.2 c -0.5,1.5 -0.8,2.9 -1.3,4.4 -0.4,1.5 -0.7,2.9 -1.1,4.4 -2.6,11.7 -3,23.2 -2,34 1.1,10.7 3.5,20.7 6.6,29.4 3.1,8.8 6.9,16.4 10.7,22.9 3.8,6.5 7.6,11.8 10.9,16 1.6,2.1 3.2,3.9 4.5,5.5 0.7,0.8 1.3,1.5 1.9,2.1 -2.6,7.1 -6,21.1 2.9,29.9 8.2,8.2 10.8,-22.7 28.5,-25.5 5.6,-0.9 7,-8.3 1.3,-14 -4.8,-4.8 -16.2,-5.6 -26.3,1.5 -0.1,-0.2 -0.3,-0.3 -0.4,-0.5 -1.2,-1.5 -2.6,-3.3 -4,-5.3 -2.9,-4 -6.3,-9.1 -9.6,-15.2 -3.3,-6.1 -6.5,-13.2 -9,-21.3 -2.6,-8.1 -4.4,-17.1 -5,-26.6 -0.6,-9.6 0.2,-19.7 2.8,-29.7 0.4,-1.2 0.7,-2.5 1.1,-3.7 0.4,-1.2 0.8,-2.5 1.2,-3.7 l 0.7,-1.8 c 0.2,-0.6 0.4,-1.2 0.7,-1.8 l 0.8,-2 0.4,-0.8 0.4,-0.9 c 2.2,-4.8 4.9,-9.5 7.9,-14 3,-4.5 6.5,-8.7 10.2,-12.5 3.8,-3.8 7.9,-7.2 12.3,-10 1.1,-0.7 2.2,-1.4 3.3,-2 1.1,-0.5 2.1,-1.1 3.2,-1.6 0.3,-0.1 0.5,-0.3 0.8,-0.4 l 1,-0.4 2.1,-0.8 2,-0.8 0.2,-0.1 0.5,-0.1 0.9,-0.3 c 4.9,-1.6 10,-2.5 15.1,-2.8 5.1,-0.3 10.3,-0.1 15.4,0.7 1.3,0.2 2.5,0.4 3.8,0.6 1.3,0.3 2.5,0.5 3.8,0.8 1.2,0.3 2.5,0.6 3.7,1 1.2,0.3 2.4,0.7 3.6,1.1 4.8,1.6 9.5,3.5 13.9,5.6 4.4,2.2 8.6,4.5 12.6,7.1 8,5.1 14.9,10.8 21,16.5 1.9,1.7 5.2,5.7 9,10.4 11,13.7 11.6,32.9 1.4,47.2 -19.8,27.8 -29.3,62 -24.1,97.1 11.3,76.2 87.6,128.1 170.3,115.8 82.7,-12.3 140.9,-84 129.6,-160.3 z" />
	<path
   id="XMLID_43_"
   class="st12"
   d="m 380.7,583.6 c 0,0 0.9,4 16.1,-1.7 15.2,-5.7 27.9,-24.6 27.9,-24.6 l -35.6,13.4 -18.7,3.3 z" />
	<path
   id="XMLID_42_"
   class="st12"
   d="m 377.4,352.9 c 0,0 12.4,25.7 33.3,30.7 20.7,5 32.3,-11.7 50.4,-20 -15.7,3.1 -34.6,12 -34.6,12 0,0 -24.2,3.2 -40.1,-14.7 -15.9,-17.8 -9,-8 -9,-8 z" />
	<g
   id="XMLID_54_"
   class="st13">
		<path
   id="XMLID_84_"
   class="st12"
   d="M 648.3,474.3 C 639,412 586.3,366 522.1,358 c 43,19 99.7,31.5 100.2,112.9 0.7,100.2 -70.5,152.7 -146.8,157.8 -15.2,1 -30.7,-4 -45,-5.7 26.4,11.7 56.8,16.2 88.3,11.6 82.8,-12.3 140.8,-84 129.5,-160.3 z" />
	</g>
	<ellipse
   id="XMLID_4_"
   class="st1"
   cx="457.10001"
   cy="485.70001"
   rx="30"
   ry="31.5" />
	<ellipse
   id="XMLID_6_"
   class="st14"
   cx="449.10001"
   cy="477.70001"
   rx="12.4"
   ry="13" />
	<ellipse
   id="XMLID_7_"
   class="st14"
   cx="468.29999"
   cy="496.89999"
   rx="7.3000002"
   ry="7.5999999" />
	<path
   id="XMLID_34_"
   class="st4"
   d="m 553.4,492.4 c -0.5,-1.2 -3.3,-7.4 -9.9,-10.9 -11.4,-6.1 -24.8,0.6 -31.6,3.9 -4.8,2.4 -10.6,5.2 -10.9,9.5 -0.3,4.6 5.5,6.7 6,11.1 -0.5,4.5 -6.3,6.6 -6,11.2 0.3,4.3 6.1,7.2 10.9,9.5 6.7,3.3 20.2,10 31.6,3.9 6.6,-3.5 9.4,-9.7 9.9,-10.9 0.8,-1.9 2.1,-7.8 2.1,-13.7 0,-5.9 -1.3,-11.7 -2.1,-13.6 z" />
	<path
   id="XMLID_33_"
   class="st6"
   d="m 513.5,498.6 c 0,0 17.5,-4.3 28.6,-4.3" />
	<path
   id="XMLID_38_"
   class="st6"
   d="m 513.5,507.7 c 0,0 17.1,-2.4 24.6,1.1" />
	<path
   id="XMLID_9_"
   class="st7"
   d="m 553.4,492.4 c -0.5,-1.2 -3.3,-7.4 -9.9,-10.9 -11.4,-6.1 -24.8,0.6 -31.6,3.9 -4.8,2.4 -10.6,5.2 -10.9,9.5 -0.3,4.6 5.5,6.7 6,11.1 -0.5,4.5 -6.3,6.6 -6,11.2 0.3,4.3 6.1,7.2 10.9,9.5 6.7,3.3 20.2,10 31.6,3.9 6.6,-3.5 9.4,-9.7 9.9,-10.9 0.8,-1.9 2.1,-7.8 2.1,-13.7 0,-5.9 -1.3,-11.7 -2.1,-13.6 z" />
	<path
   id="XMLID_23_"
   class="st15"
   d="M 648.3,474.3 C 637,398.1 560.7,346.2 478,358.5 c -15.5,2.3 -30.1,6.7 -43.5,12.7 -15.7,7.1 -34.3,3.1 -45.6,-9.9 -5,-5.8 -9.7,-10.9 -12.2,-13.1 -7.1,-6.2 -15.3,-12.5 -24.7,-18 -4.7,-2.8 -9.7,-5.4 -15,-7.7 -5.3,-2.3 -10.9,-4.4 -16.7,-6 -1.5,-0.4 -2.9,-0.8 -4.4,-1.2 -1.5,-0.3 -3,-0.7 -4.5,-1 -1.5,-0.3 -3.1,-0.5 -4.6,-0.8 -1.5,-0.3 -3.1,-0.4 -4.7,-0.6 -6.3,-0.7 -12.7,-0.8 -19.2,-0.1 -6.5,0.6 -13,2 -19.3,4.3 l -1.2,0.4 -0.6,0.2 -0.3,0.1 c -0.8,0.3 -0.3,0.1 -0.5,0.2 l -0.1,0.1 -2,0.9 -2,0.9 -1,0.5 c -0.3,0.2 -0.8,0.4 -1.1,0.6 -1.6,0.8 -3.1,1.7 -4.6,2.5 -1.5,0.9 -2.8,1.8 -4.2,2.7 -5.4,3.8 -10.4,8.1 -14.7,12.8 -4.3,4.8 -8.2,9.9 -11.5,15.1 -3.3,5.3 -6.2,10.8 -8.6,16.5 l -0.4,1.1 -0.4,1.1 -0.8,2 c -0.2,0.6 -0.5,1.4 -0.8,2.2 l -0.7,2.2 c -0.5,1.5 -0.8,2.9 -1.3,4.4 -0.4,1.5 -0.7,2.9 -1.1,4.4 -2.6,11.7 -3,23.2 -2,34 1.1,10.7 3.5,20.7 6.6,29.4 3.1,8.8 6.9,16.4 10.7,22.9 3.8,6.5 7.6,11.8 10.9,16 1.6,2.1 3.2,3.9 4.5,5.5 0.7,0.8 1.3,1.5 1.9,2.1 -2.6,7.1 -6,21.1 2.9,29.9 8.2,8.2 10.8,-22.7 28.5,-25.5 5.6,-0.9 7,-8.3 1.3,-14 -4.8,-4.8 -16.2,-5.6 -26.3,1.5 -0.1,-0.2 -0.3,-0.3 -0.4,-0.5 -1.2,-1.5 -2.6,-3.3 -4,-5.3 -2.9,-4 -6.3,-9.1 -9.6,-15.2 -3.3,-6.1 -6.5,-13.2 -9,-21.3 -2.6,-8.1 -4.4,-17.1 -5,-26.6 -0.6,-9.6 0.2,-19.7 2.8,-29.7 0.4,-1.2 0.7,-2.5 1.1,-3.7 0.4,-1.2 0.8,-2.5 1.2,-3.7 l 0.7,-1.8 c 0.2,-0.6 0.4,-1.2 0.7,-1.8 l 0.8,-2 0.4,-0.8 0.4,-0.9 c 2.2,-4.8 4.9,-9.5 7.9,-14 3,-4.5 6.5,-8.7 10.2,-12.5 3.8,-3.8 7.9,-7.2 12.3,-10 1.1,-0.7 2.2,-1.4 3.3,-2 1.1,-0.5 2.1,-1.1 3.2,-1.6 0.3,-0.1 0.5,-0.3 0.8,-0.4 l 1,-0.4 2.1,-0.8 2,-0.8 0.2,-0.1 0.5,-0.1 0.9,-0.3 c 4.9,-1.6 10,-2.5 15.1,-2.8 5.1,-0.3 10.3,-0.1 15.4,0.7 1.3,0.2 2.5,0.4 3.8,0.6 1.3,0.3 2.5,0.5 3.8,0.8 1.2,0.3 2.5,0.6 3.7,1 1.2,0.3 2.4,0.7 3.6,1.1 4.8,1.6 9.5,3.5 13.9,5.6 4.4,2.2 8.6,4.5 12.6,7.1 8,5.1 14.9,10.8 21,16.5 1.9,1.7 5.2,5.7 9,10.4 11,13.7 11.6,32.9 1.4,47.2 -19.8,27.8 -29.3,62 -24.1,97.1 11.3,76.2 87.6,128.1 170.3,115.8 82.7,-12.3 140.9,-84 129.6,-160.3 z" />
	<path
   id="XMLID_22_"
   class="st14"
   d="m 400.9,566.8 c -6.2,2.4 -12.5,4.3 -18.7,5.6 -12.2,-11.9 -19.4,-29.9 -18.1,-49.6 0.9,-12.7 5.1,-24.2 11.7,-33.5 -0.8,3.8 -1.4,7.8 -1.6,11.8 -1.9,26 8.8,50 26.7,65.7 z" />
	<path
   id="XMLID_25_"
   class="st16"
   d="m 400.9,566.8 c -6.2,2.4 -12.5,4.3 -18.7,5.6 -12.2,-11.9 -19.4,-29.9 -18.1,-49.6 0.9,-12.7 5.1,-24.2 11.7,-33.5 -0.8,3.8 -1.4,7.8 -1.6,11.8 -1.9,26 8.8,50 26.7,65.7 z" />
	<path
   id="XMLID_14_"
   class="st14"
   d="m 419.2,558 c -3.3,1.9 -6.7,3.7 -10.2,5.3 -0.8,0.4 -1.7,0.8 -2.5,1.1 -6,-8.4 -9.7,-19.1 -9.7,-30.8 0,-10.3 2.8,-19.8 7.6,-27.6 -0.4,3.1 -0.7,6.3 -0.7,9.6 0,16.3 5.9,31.2 15.5,42.4 z" />
	<path
   id="XMLID_26_"
   class="st16"
   d="m 419.2,558 c -3.3,1.9 -6.7,3.7 -10.2,5.3 -0.8,0.4 -1.7,0.8 -2.5,1.1 -6,-8.4 -9.7,-19.1 -9.7,-30.8 0,-10.3 2.8,-19.8 7.6,-27.6 -0.4,3.1 -0.7,6.3 -0.7,9.6 0,16.3 5.9,31.2 15.5,42.4 z" />
	<path
   id="XMLID_36_"
   class="st17"
   d="m 483,538 c 0,0 0,21.1 -19.5,33.1" />
	<path
   id="XMLID_37_"
   class="st17"
   d="m 499.7,546.3 c 0,0 7.6,15.2 -0.5,31.9" />
	<path
   id="XMLID_15_"
   class="st15"
   d="m 430.8,550.5 c -6.6,4.9 -13.9,9.3 -21.8,12.9 -11.9,5.5 -24.1,9 -36.1,10.6" />
	<path
   id="XMLID_24_"
   class="st7"
   d="M 501.4,636.2" />
	<path
   id="XMLID_29_"
   class="st18"
   d="M 548.9,363.7" />
	<path
   id="XMLID_39_"
   class="st6"
   d="m 513.5,515.6 c 0,0 13.4,1.3 16.2,4.1" />
	<path
   id="XMLID_3_"
   class="st2"
   d="m 632.29129,268.68846 c 0,0 -7.6,28 21.2,28 28.8,0 10.8,-40 -21.2,-28 z"
   style="fill:#2e3039;fill-opacity:1" />
</g>
</svg>
