<?xml version="1.0" encoding="UTF-8" standalone="no"?>
<!-- Generator: Adobe Illustrator 23.1.1, SVG Export Plug-In . SVG Version: 6.00 Build 0)  -->

<svg
   version="1.1"
   id="Layer_1"
   x="0px"
   y="0px"
   viewBox="0 0 838.61762 594.30006"
   xml:space="preserve"
   sodipodi:docname="cat.svg"
   width="838.61761"
   height="594.30005"
   inkscape:version="1.1.2 (0a00cf5339, 2022-02-04)"
   xmlns:inkscape="http://www.inkscape.org/namespaces/inkscape"
   xmlns:sodipodi="http://sodipodi.sourceforge.net/DTD/sodipodi-0.dtd"
   xmlns="http://www.w3.org/2000/svg"
   xmlns:svg="http://www.w3.org/2000/svg"><defs
   id="defs298"><rect
     x="203.85571"
     y="-89.986664"
     width="333.082"
     height="97.896957"
     id="rect3629" /></defs><sodipodi:namedview
   id="namedview296"
   pagecolor="#ffffff"
   bordercolor="#666666"
   borderopacity="1.0"
   inkscape:pageshadow="2"
   inkscape:pageopacity="0.0"
   inkscape:pagecheckerboard="0"
   showgrid="false"
   inkscape:zoom="0.719"
   inkscape:cx="298.33102"
   inkscape:cy="356.05007"
   inkscape:window-width="1920"
   inkscape:window-height="1043"
   inkscape:window-x="1920"
   inkscape:window-y="0"
   inkscape:window-maximized="1"
   inkscape:current-layer="Layer_1" />
<style
   type="text/css"
   id="style2">
	.st0{fill:#F4F5F8;}
	.st1{fill:none;stroke:#E5E5E5;stroke-width:6;stroke-linecap:round;stroke-linejoin:round;stroke-miterlimit:10;}
	.st2{fill:#E5E5E5;}
	.st3{fill:none;stroke:#E5E5E5;stroke-width:4;stroke-linecap:round;stroke-linejoin:round;stroke-miterlimit:10;}
	.st4{fill:none;stroke:#E5E5E5;stroke-width:8;stroke-linecap:round;stroke-linejoin:round;stroke-miterlimit:10;}
	.st5{fill:none;stroke:#A83727;stroke-width:6;stroke-linecap:round;stroke-linejoin:round;stroke-miterlimit:10;}
	.st6{fill:#6DCCA3;}
	.st7{fill:none;stroke:#465172;stroke-width:6;stroke-linecap:round;stroke-linejoin:round;stroke-miterlimit:10;}
	.st8{fill:#2359B2;}
	.st9{opacity:0.67;fill:none;stroke:#1E2A54;stroke-width:6;stroke-linecap:round;stroke-linejoin:round;stroke-miterlimit:10;}
	.st10{fill:#D6D6D6;}
	.st11{fill:#F78A21;}
	.st12{opacity:0.26;fill:#9B463D;}
	.st13{fill:#A83727;}
	.st14{opacity:0.24;}
	.st15{fill:none;stroke:#A83727;stroke-width:2;stroke-linecap:round;stroke-linejoin:round;stroke-miterlimit:10;}
</style>

<g
   id="XMLID_278_"
   transform="translate(-131.8,-192.89999)">
	<polyline
   id="XMLID_285_"
   class="st1"
   points="243.9,634.7 243.9,665.6 182,665.6  " />
	<polyline
   id="XMLID_284_"
   class="st1"
   points="305.7,665.6 243.9,665.6 243.9,634.7  " />
	<rect
   id="XMLID_283_"
   x="212.89999"
   y="665.59998"
   class="st1"
   width="61.900002"
   height="30.9" />
	<polyline
   id="XMLID_282_"
   class="st1"
   points="261.4,727.5 243.9,727.5 243.9,696.5 305.7,696.5  " />
	<polyline
   id="XMLID_281_"
   class="st1"
   points="182,696.5 243.9,696.5 243.9,727.5 193.7,727.5  " />
	<polyline
   id="XMLID_280_"
   class="st1"
   points="160.9,665.6 212.9,665.6 212.9,696.5 182,696.5  " />
	<polyline
   id="XMLID_279_"
   class="st1"
   points="319.4,696.5 274.8,696.5 274.8,665.6 296.2,665.6  " />
</g>
<g
   id="XMLID_2_"
   transform="translate(-131.8,-192.89999)">
	<polyline
   id="XMLID_49_"
   class="st1"
   points="817.6,441.4 817.6,472.3 879.5,472.3  " />
	<polyline
   id="XMLID_38_"
   class="st1"
   points="755.8,472.3 817.6,472.3 817.6,441.4  " />
	
		<rect
   id="XMLID_37_"
   x="786.70001"
   y="472.29999"
   transform="rotate(180,817.6429,487.8145)"
   class="st1"
   width="61.900002"
   height="30.9" />
	<polyline
   id="XMLID_26_"
   class="st1"
   points="800.1,534.2 817.6,534.2 817.6,503.3 755.8,503.3  " />
	<polyline
   id="XMLID_8_"
   class="st1"
   points="879.5,503.3 817.6,503.3 817.6,534.2 867.8,534.2  " />
	<polyline
   id="XMLID_4_"
   class="st1"
   points="900.6,472.3 848.6,472.3 848.6,503.3 879.5,503.3  " />
	<polyline
   id="XMLID_3_"
   class="st1"
   points="742.1,503.3 786.7,503.3 786.7,472.3 765.3,472.3  " />
</g>

<g
   id="XMLID_23_"
   transform="translate(-131.8,-192.89999)">
	<rect
   id="XMLID_22_"
   x="135.8"
   y="252.89999"
   class="st4"
   width="123.3"
   height="125.3" />
	
		<rect
   id="XMLID_114_"
   x="154.3"
   y="271.20001"
   transform="rotate(90,197.48925,315.60495)"
   class="st3"
   width="86.5"
   height="88.900002" />
	<rect
   id="XMLID_18_"
   x="289.20001"
   y="213"
   class="st4"
   width="108.6"
   height="77.800003" />
	
		<rect
   id="XMLID_122_"
   x="320.60001"
   y="213.5"
   transform="rotate(90,343.54,251.8508)"
   class="st3"
   width="45.900002"
   height="76.699997" />
	
		<rect
   id="XMLID_115_"
   x="292.70001"
   y="352.60001"
   transform="rotate(90,329.014,376.4334)"
   class="st3"
   width="72.599998"
   height="47.700001" />
	<rect
   id="XMLID_17_"
   x="289.20001"
   y="324.20001"
   class="st4"
   width="79.599998"
   height="104.5" />
</g>
<line
   id="XMLID_59_"
   class="st5"
   x1="702"
   y1="591.30005"
   x2="709.90002"
   y2="591.30005" />
<line
   id="XMLID_56_"
   class="st5"
   x1="670.5"
   y1="591.30005"
   x2="689"
   y2="591.30005" />
<line
   id="XMLID_54_"
   class="st5"
   x1="341.20001"
   y1="591.30005"
   x2="656.5"
   y2="591.30005" />
<line
   id="XMLID_53_"
   class="st5"
   x1="68.199997"
   y1="591.30005"
   x2="320.20001"
   y2="591.30005" />
<line
   id="XMLID_52_"
   class="st5"
   x1="24.699989"
   y1="591.30005"
   x2="46.699989"
   y2="591.30005" />
<line
   id="XMLID_57_"
   class="st5"
   x1="-5.3000088"
   y1="591.30005"
   x2="6.6999912"
   y2="591.30005" />
<g
   id="g49"
   transform="translate(-131.8,-192.89999)">
	<path
   id="XMLID_28_"
   class="st6"
   d="m 330.9,674.4 c -18.2,-11.6 -50.3,-32 -64.2,-74.4 -9.7,-29.6 -9.9,-66.8 0.5,-70.3 12.1,-4 33.2,38.8 40.9,35.1 6.1,-2.9 -6.6,-29.4 -8.3,-74.3 -1.2,-30.6 3.2,-56.9 17,-80.3 6.3,-10.7 10.9,-18.6 16,-18 20.9,2.4 15,144 37.3,146.7 10.5,1.3 18.9,-29.2 30.7,-26.7 10,2.1 16.7,26.8 18.5,42.8 0.1,0.8 0.2,1.4 0.2,1.9 5.2,51.9 -25.1,89.3 -35.3,102 -15.3,18.8 -25.6,22.6 -33.6,22.7 -8.4,-0.1 -14.8,-4 -19.7,-7.2 z" />
	<path
   id="XMLID_41_"
   class="st7"
   d="m 325.5,477 c 3.5,37 24.5,93.3 27.6,141 2,31.1 0.1,58.5 -3,81" />
	<path
   id="XMLID_25_"
   class="st8"
   d="M 422,784.2 H 267 v 0 c -15.6,-27.6 -15,-61.5 1.5,-88.5 l 22.8,-37.3 h 106.3 l 22.1,34.5 c 16.4,25.5 18.3,57.8 5.2,85.1 z" />
	<path
   id="XMLID_44_"
   class="st7"
   d="m 375,561.9 c 0,0 -0.4,17 -23.8,39.1" />
	<path
   id="XMLID_47_"
   class="st7"
   d="m 301.1,601 c 0,0 15.7,32 52.8,32" />
	<path
   id="XMLID_48_"
   class="st9"
   d="m 382.3,684.8 c 0,0 23.6,15.4 23.6,52.3" />
</g>

<g
   id="g293"
   transform="translate(-131.8,-192.89999)">
	<path
   id="XMLID_14_"
   class="st10"
   d="m 523.6,794 c 0,29.2 49.9,53 111.4,53 48.2,0 89.2,-14.5 104.7,-34.9 l -116.5,8.4 z" />
	<path
   id="XMLID_15_"
   class="st11"
   d="m 723.7,791.1 c -2.9,-0.6 -6,-0.3 -8.7,0.8 -17.6,6.9 -48.4,11.5 -83.4,11.5 -54.7,0 -99,-11.2 -99,-25 0,-12.2 34.7,-22.4 80.6,-24.6 l 3.2,-16.7 c -62.9,3.9 -110.7,23.4 -110.7,46.8 0,26.2 60,47.5 134,47.5 32.4,0 62.1,-4.1 85.3,-10.9 15,-4.5 14.1,-26.2 -1.3,-29.4 z" />
	<path
   id="XMLID_51_"
   class="st12"
   d="m 671.1,801.3 48,-10.5 c 0,0 12.6,1.3 14.9,8 4,11.4 -4.2,18.4 -4.2,18.4 0,0 -3.1,-26.4 -58.7,-15.9 z" />
	<path
   id="XMLID_21_"
   class="st5"
   d="m 723.7,791.1 c -2.9,-0.6 -6,-0.3 -8.7,0.8 -17.6,6.9 -48.4,11.5 -83.4,11.5 -54.7,0 -99,-11.2 -99,-25 0,-12.2 34.7,-22.4 80.6,-24.6 l 3.2,-16.7 c -62.9,3.9 -110.7,23.4 -110.7,46.8 0,26.2 60,47.5 134,47.5 32.4,0 62.1,-4.1 85.3,-10.9 15,-4.5 14.1,-26.2 -1.3,-29.4 z" />
	<path
   id="XMLID_27_"
   class="st11"
   d="m 714.3,439.9 c -16,-5.1 -33.7,-8 -52.2,-8 -18.4,0 -35.9,2.8 -51.9,7.8 -9.7,-22.7 -22.9,-41.2 -36.8,-52.7 -2.2,-1.8 -5.5,-1.2 -6.9,1.3 -27.7,50.1 -40.1,107.4 -34.9,169.9 4.8,69.8 31.7,146.5 57.2,225.8 h 146.8 c 25.6,-79.2 52.2,-155.1 57.2,-224 5.5,-62.9 -7.1,-120.4 -35.6,-171 -1.4,-2.5 -4.7,-3.1 -6.9,-1.3 -13.6,11.6 -26.5,29.8 -36,52.2 z" />
	<path
   id="XMLID_55_"
   class="st12"
   d="m 674.4,533.9 c 0,3.7 -5.5,6.7 -12.4,6.7 -6.8,0 -12.4,-3 -12.4,-6.7 l 12.5,-2.8 z" />
	<path
   id="XMLID_40_"
   class="st12"
   d="m 713.3,782.6 c 0,0 0,-7.9 1.5,-14.5 13.2,-58.7 4.5,-76.8 4.5,-76.8 l -27.8,91.5 z" />
	<path
   id="XMLID_42_"
   class="st12"
   d="m 608.8,782.6 c 0,0 0,-7.9 -1.5,-14.5 -13.2,-58.7 -4.5,-76.8 -4.5,-76.8 l 27.8,91.5 z" />
	<path
   id="XMLID_16_"
   class="st5"
   d="m 714.3,439.9 c -16,-5.1 -33.7,-8 -52.2,-8 -18.4,0 -35.9,2.8 -51.9,7.8 -9.7,-22.7 -22.9,-41.2 -36.8,-52.7 -2.2,-1.8 -5.5,-1.2 -6.9,1.3 -27.7,50.1 -40.1,107.4 -34.9,169.9 4.8,69.8 31.7,146.5 57.2,225.8 h 146.8 c 25.6,-79.2 52.2,-155.1 57.2,-224 5.5,-62.9 -7.1,-120.4 -35.6,-171 -1.4,-2.5 -4.7,-3.1 -6.9,-1.3 -13.6,11.6 -26.5,29.8 -36,52.2 z" />
	<circle
   id="XMLID_6_"
   class="st13"
   cx="620.59998"
   cy="479.79999"
   r="8" />
	<circle
   id="XMLID_12_"
   class="st13"
   cx="703.59998"
   cy="479.79999"
   r="8" />
	<path
   id="XMLID_13_"
   class="st13"
   d="m 668.8,506.7 c -4.4,-0.4 -8.8,-0.4 -13.2,0 -2.1,0.2 -2.8,2.3 -1.2,3.4 1.4,0.9 2.8,1.8 4.2,2.8 2,1.4 5.3,1.4 7.3,0 1.4,-1 2.8,-1.9 4.2,-2.8 1.5,-1.1 0.7,-3.2 -1.3,-3.4 z" />
	<g
   id="XMLID_32_">
		<path
   id="XMLID_39_"
   class="st11"
   d="m 719.1,694.2 c -1.7,29.5 -15.4,60.5 -24.8,90 -9.7,0 -32.2,0 -32.2,0 l 0.2,-83.1" />
		<path
   id="XMLID_34_"
   class="st11"
   d="m 605,694.2 c 1.7,29.5 18.4,60.5 27.8,90 9.7,0 29.2,0 29.2,0 l -0.2,-83.1" />
	</g>
	<g
   id="XMLID_5_">
		<path
   id="XMLID_10_"
   class="st5"
   d="m 680.5,533 c -1.8,1 -4,1.6 -6.2,1.6 -6.7,0 -12.1,-4.9 -12.1,-10.9" />
		<path
   id="XMLID_7_"
   class="st5"
   d="m 643.7,533 c 1.8,1 4,1.6 6.2,1.6 6.7,0 12.1,-4.9 12.1,-10.9" />
	</g>
	<g
   id="XMLID_29_">
		<path
   id="XMLID_11_"
   class="st5"
   d="m 719.1,694.2 c -1.7,29.5 -18.4,60.5 -27.8,90 -9.7,0 -29.2,0 -29.2,0 l 0.2,-83.1" />
		<path
   id="XMLID_30_"
   class="st5"
   d="m 605,694.2 c 1.7,29.5 15.4,60.5 24.8,90 9.7,0 32.2,0 32.2,0 l -0.2,-83.1" />
	</g>
	<path
   id="XMLID_31_"
   class="st12"
   d="m 729.1,451.4 c 7.4,-22.7 18.2,-28.5 18.2,-28.5 0,0 7.8,2.9 7.8,33.8" />
	<path
   id="XMLID_33_"
   class="st12"
   d="m 595.1,451.4 c -7.4,-22.7 -18.2,-28.5 -18.2,-28.5 0,0 -7.8,2.9 -7.8,33.8" />
	<line
   id="XMLID_45_"
   class="st5"
   x1="644.29999"
   y1="772.20001"
   x2="646.79999"
   y2="783.5" />
	<line
   id="XMLID_46_"
   class="st5"
   x1="679.90002"
   y1="772.20001"
   x2="677.40002"
   y2="783.5" />
	<g
   id="XMLID_1_"
   class="st14">
		<path
   id="XMLID_19_"
   class="st15"
   d="m 707,528.7 c 12.1,3.2 24.6,3.8 36.6,2" />
		<path
   id="XMLID_20_"
   class="st15"
   d="m 703.6,536.3 c 11,7 22.4,11.8 33.4,14.3" />
		<path
   id="XMLID_35_"
   class="st15"
   d="m 707,517.9 c 9.9,-0.7 20.1,-3.4 30,-8.1" />
		<path
   id="XMLID_50_"
   class="st15"
   d="m 617.2,528.7 c -12.1,3.2 -24.6,3.8 -36.6,2" />
		<path
   id="XMLID_43_"
   class="st15"
   d="m 620.6,536.3 c -11,7 -22.4,11.8 -33.4,14.3" />
		<path
   id="XMLID_36_"
   class="st15"
   d="m 617.2,517.9 c -9.9,-0.7 -20.1,-3.4 -30,-8.1" />
	</g>
</g>
<g
   aria-label="THE END"
   transform="translate(60.686005,7.1870343)"
   id="text3627"
   style="font-size:74.6667px;line-height:1.25;white-space:pre;shape-inside:url(#rect3629)"><path
     d="m 478.33631,20.932051 13.39103,5.11871 -14.63633,38.289996 11.7869,4.50554 14.63633,-38.289996 13.46078,5.14538 4.02566,-10.53149 -38.63872,-14.76963 z"
     style="font-weight:bold;font-family:Jost;-inkscape-font-specification:'Jost Bold';fill:#ffffff;fill-opacity:1"
     id="path74050" /><path
     d="m 518.79837,56.862204 36.89508,14.103129 4.05232,-10.601237 -36.89509,-14.103129 z m 40.35273,-17.109033 -18.66199,48.821481 11.78691,4.50554 18.66199,-48.821483 z M 526.37096,27.222981 507.70897,76.04446 519.49588,80.55 538.15787,31.728521 Z"
     style="font-weight:bold;font-family:Jost;-inkscape-font-specification:'Jost Bold';fill:#ffffff;fill-opacity:1"
     id="path74052" /><path
     d="m 570.33992,99.985108 24.61997,9.410972 3.70574,-9.694552 -24.61998,-9.410972 z m 14.95625,-39.126932 24.61997,9.410972 3.70574,-9.694551 -24.61997,-9.410972 z m -6.95826,18.203439 23.22508,8.877774 3.62576,-9.485317 -23.22508,-8.877774 z m 2.85256,-30.883908 -18.66199,48.821483 11.29868,4.31892 18.66199,-48.821488 z"
     style="font-weight:bold;font-family:Jost;-inkscape-font-specification:'Jost Bold';fill:#ffffff;fill-opacity:1"
     id="path74054" /><path
     d="m 633.3195,124.05902 24.61997,9.41097 3.70574,-9.69455 -24.61997,-9.41097 z m 14.95625,-39.12693 24.61997,9.410972 3.70574,-9.694552 -24.61997,-9.410971 z m -6.95826,18.20344 23.22508,8.87777 3.62576,-9.48531 -23.22508,-8.877778 z m 2.85256,-30.883909 -18.66199,48.821479 11.29868,4.31892 18.66199,-48.821484 z"
     style="font-weight:bold;font-family:Jost;-inkscape-font-specification:'Jost Bold';fill:#ffffff;fill-opacity:1"
     id="path74056" /><path
     d="m 719.913,101.20433 -10.50403,27.47952 -22.2497,-42.79737 -19.59508,51.26256 11.29869,4.31892 10.50403,-27.47952 22.31943,42.82402 19.59509,-51.26256 z"
     style="font-weight:bold;font-family:Jost;-inkscape-font-specification:'Jost Bold';fill:#ffffff;fill-opacity:1"
     id="path74058" /><path
     d="m 741.6036,109.49555 -18.66199,48.82148 12.13562,4.63884 18.66199,-48.82149 z m -1.22575,55.48648 q 8.02067,3.06589 15.02563,2.3063 7.00496,-0.7596 12.29271,-4.97334 5.3144,-4.2835 8.16702,-11.74621 2.87928,-7.53246 1.75049,-14.19893 -1.12879,-6.66646 -5.84099,-11.90494 -4.7122,-5.23847 -12.73287,-8.30437 l -9.6248,-3.67907 -3.999,10.46174 9.20633,3.51912 q 2.7898,1.0664 5.10377,2.75027 2.3837,1.71053 3.72339,4.06114 1.40942,2.37727 1.55535,5.55055 0.17258,3.10353 -1.34704,7.07899 -1.51962,3.97546 -3.74502,6.2423 -2.19875,2.19709 -4.83453,3.02808 -2.56604,0.85766 -5.48294,0.54203 -2.84717,-0.28897 -5.63697,-1.35537 l -9.20633,-3.51912 -3.999,10.46175 z"
     style="font-weight:bold;font-family:Jost;-inkscape-font-specification:'Jost Bold';fill:#ffffff;fill-opacity:1"
     id="path74060" /></g></svg>
