<?xml version="1.0" encoding="UTF-8" standalone="no"?>
<!-- Generator: Adobe Illustrator 23.1.1, SVG Export Plug-In . SVG Version: 6.00 Build 0)  -->

<svg
   version="1.1"
   id="Layer_1"
   x="0px"
   y="0px"
   viewBox="0 0 785.29999 802.69733"
   xml:space="preserve"
   sodipodi:docname="day97-champagne.svg"
   width="785.29999"
   height="802.69733"
   inkscape:version="1.1.2 (0a00cf5339, 2022-02-04)"
   xmlns:inkscape="http://www.inkscape.org/namespaces/inkscape"
   xmlns:sodipodi="http://sodipodi.sourceforge.net/DTD/sodipodi-0.dtd"
   xmlns="http://www.w3.org/2000/svg"
   xmlns:svg="http://www.w3.org/2000/svg"><defs
   id="defs354" /><sodipodi:namedview
   id="namedview352"
   pagecolor="#ffffff"
   bordercolor="#666666"
   borderopacity="1.0"
   inkscape:pageshadow="2"
   inkscape:pageopacity="0.0"
   inkscape:pagecheckerboard="0"
   showgrid="false"
   inkscape:zoom="0.775"
   inkscape:cx="390.32258"
   inkscape:cy="356.12903"
   inkscape:window-width="1920"
   inkscape:window-height="947"
   inkscape:window-x="0"
   inkscape:window-y="32"
   inkscape:window-maximized="1"
   inkscape:current-layer="Layer_1" />
<style
   type="text/css"
   id="style2">
	.st0{fill:#5A5E63;}
	.st1{fill:#EEF2F4;}
	.st2{opacity:0.28;}
	.st3{fill:none;stroke:#434955;stroke-width:8;stroke-linecap:round;stroke-linejoin:round;stroke-miterlimit:10;}
	.st4{fill:#71777C;}
	.st5{fill:#7D9D6B;}
	.st6{fill:#6E8F5D;}
	.st7{opacity:0.5;fill:none;stroke:#FFFFFF;stroke-width:14;stroke-linecap:round;stroke-linejoin:round;stroke-miterlimit:10;}
	.st8{fill:none;stroke:#246D49;stroke-width:8;stroke-linecap:round;stroke-linejoin:round;stroke-miterlimit:10;}
	.st9{fill:#F2A356;}
	.st10{fill:#D6954B;}
	.st11{fill:#806940;}
	.st12{opacity:0.3;fill:#806940;}
	.st13{fill:#FCFFFA;}
	.st14{fill:#CE7657;}
	.st15{opacity:0.13;fill:none;stroke:#434955;stroke-width:2;stroke-linecap:round;stroke-linejoin:round;stroke-miterlimit:10;}
	.st16{fill:#97B8A3;}
	.st17{fill:#FFEEEE;}
	.st18{fill:#434955;}
</style>


<g
   id="XMLID_1_"
   class="st2"
   transform="translate(-109.7,-143.50492)">
	<g
   id="XMLID_238_">
		<polyline
   id="XMLID_244_"
   class="st3"
   points="210.1,535.4 210.1,583.6 113.7,583.6   " />
		<polyline
   id="XMLID_243_"
   class="st3"
   points="306.5,583.6 210.1,583.6 210.1,535.4   " />
		<rect
   id="XMLID_242_"
   x="161.89999"
   y="583.59998"
   class="st3"
   width="96.400002"
   height="48.200001" />
		<polyline
   id="XMLID_241_"
   class="st3"
   points="237.5,680 210.1,680 210.1,631.8 306.5,631.8   " />
		<polyline
   id="XMLID_239_"
   class="st3"
   points="327.9,631.8 258.3,631.8 258.3,583.6 291.8,583.6   " />
	</g>
</g>
<g
   id="XMLID_10_"
   class="st2"
   transform="translate(-109.7,-143.50492)">
	<g
   id="XMLID_289_">
		<polyline
   id="XMLID_296_"
   class="st3"
   points="761.7,236.2 761.7,284.4 858.2,284.4   " />
		<polyline
   id="XMLID_295_"
   class="st3"
   points="665.3,284.4 761.7,284.4 761.7,236.2   " />
		
			<rect
   id="XMLID_294_"
   x="713.5"
   y="284.39999"
   transform="rotate(180,761.73925,308.50605)"
   class="st3"
   width="96.400002"
   height="48.200001" />
		<polyline
   id="XMLID_293_"
   class="st3"
   points="734.3,380.8 761.7,380.8 761.7,332.6 665.3,332.6   " />
		<polyline
   id="XMLID_292_"
   class="st3"
   points="858.2,332.6 761.7,332.6 761.7,380.8 839.9,380.8   " />
		<polyline
   id="XMLID_291_"
   class="st3"
   points="891,284.4 809.9,284.4 809.9,332.6 858.2,332.6   " />
		<polyline
   id="XMLID_290_"
   class="st3"
   points="644,332.6 713.5,332.6 713.5,284.4 680.1,284.4   " />
	</g>
</g>
<g
   id="XMLID_171_"
   transform="translate(-109.7,-143.50492)">
	<g
   id="g234">
		<path
   id="XMLID_116_"
   class="st4"
   d="m 238.1,772.7 c -25,-52.3 44.4,-90.7 44,-181.8 -0.5,-124 -129.6,-159.8 -122,-238 14.7,-151.7 523.4,-257.2 560,-187.4 13.8,26.3 -53.1,51.4 -60,123.7 -12,124.8 176.3,170 180,286.7 3.8,121 -193.2,244.5 -366,260.5 -74.2,6.8 -205.8,-0.4 -236,-63.7 z" />
	</g>
</g>
<path
   id="XMLID_45_"
   class="st5"
   d="m 336.6,248.19508 -14,-124.1 c -1.4,-12.6 0.2,-25.299995 4.7,-37.299995 v 0 H 251 v 0 c 4.5,12 6.1,24.699995 4.7,37.299995 l -14,124.1 c -3.6,32 -14.8,62.9 -32.8,90.5 v 0 c -25.1,38.6 -36.8,83.4 -33.5,128.3 l 11.1,149.3 c 1.3,17.8 16.5,31.9 35.8,33.3 l 32.9,2.4 c 22.6,1.6 45.2,1.6 67.8,0 l 32.9,-2.4 c 19.2,-1.4 34.4,-15.6 35.8,-33.3 l 11.1,-149.3 c 3.3,-44.9 -8.3,-89.7 -33.5,-128.3 v 0 c -17.9,-27.6 -29.1,-58.5 -32.7,-90.5 z" />
<path
   id="XMLID_62_"
   class="st6"
   d="m 306.3,652.09508 32.6,-2.4 c 19,-1.4 34.1,-15.6 35.4,-33.3 l 11,-149.3 c 3.3,-44.9 -5.3,-86.7 -30.2,-125.3 0,0 -23.7,-29.5 -27.5,-96.5 l -12.8,-124.1 c -1.3,-11.6 2.9,-23.199995 6.6,-34.299995 h 6.2 c -4.5,12 -6.1,24.699995 -4.6,37.299995 l 13.8,124.1 c 3.6,32 14.6,62.9 32.4,90.5 v 0 c 24.9,38.6 36.5,83.4 33.2,128.3 l -11,149.3 c -1.3,17.8 -16.4,31.9 -35.4,33.3 l -32.6,2.4 c -14,1 -28,1.4 -42,1.1 8.2,-0.1 16.6,-0.5 24.9,-1.1 z" />
<g
   id="XMLID_98_"
   transform="translate(-109.7,-143.50492)">
	<g
   id="g244">
		<g
   id="XMLID_225_">
			<path
   id="XMLID_226_"
   class="st5"
   d="m 432.1,251.9 c 0.6,-7.4 2.3,-14.6 4.9,-21.6 h -3.8 c -1.3,7.1 -1.7,14.4 -1.1,21.6 z" />
		</g>
		<g
   id="XMLID_223_">
			<path
   id="XMLID_224_"
   class="st5"
   d="m 364.6,230.3 h -3.8 c 2.6,7 4.3,14.3 4.9,21.6 0.6,-7.2 0.2,-14.5 -1.1,-21.6 z" />
		</g>
		<path
   id="XMLID_220_"
   class="st6"
   d="m 512.6,597 -11.1,149.3 c -1.3,17.8 -16.5,31.9 -35.8,33.3 l -32.9,2.4 c -22.6,1.6 -45.2,1.6 -67.8,0 l -32.9,-2.4 C 312.9,778.2 297.7,764 296.3,746.3 L 285.2,597 c -0.2,-2.7 -0.4,-5.5 -0.4,-8.2 -0.2,7.2 -0.1,14.5 0.4,21.8 l 11.1,149.3 c 1.3,17.8 16.5,31.9 35.8,33.3 l 32.9,2.4 c 22.6,1.6 45.2,1.6 67.8,0 l 32.9,-2.4 c 19.2,-1.4 34.4,-15.6 35.8,-33.3 l 11.1,-149.3 c 0.5,-7.3 0.7,-14.5 0.4,-21.8 0,2.7 -0.2,5.4 -0.4,8.2 z" />
	</g>
</g>
<path
   id="XMLID_16_"
   class="st7"
   d="m 252.2,356.49508 c -6.8,15.7 -14.4,36.6 -16.8,55.4 -5.8,44 0,78.1 0,78.1" />
<path
   id="XMLID_9_"
   class="st7"
   d="m 264,331.69508 c 0,0 0.4,-1.5 -3.3,6.4" />
<path
   id="XMLID_6_"
   class="st8"
   d="m 336.6,248.19508 -14,-124.1 c -1.4,-12.6 0.2,-25.299995 4.7,-37.299995 v 0 H 251 v 0 c 4.5,12 6.1,24.699995 4.7,37.299995 l -14,124.1 c -3.6,32 -14.8,62.9 -32.8,90.5 v 0 c -25.1,38.6 -36.8,83.4 -33.5,128.3 l 11.1,149.3 c 1.3,17.8 16.5,31.9 35.8,33.3 l 32.9,2.4 c 22.6,1.6 45.2,1.6 67.8,0 l 32.9,-2.4 c 19.2,-1.4 34.4,-15.6 35.8,-33.3 l 11.1,-149.3 c 3.3,-44.9 -8.3,-89.7 -33.5,-128.3 v 0 c -17.9,-27.6 -29.1,-58.5 -32.7,-90.5 z" />
<g
   id="XMLID_59_"
   transform="translate(-109.7,-143.50492)">
	<g
   id="XMLID_139_">
		<path
   id="XMLID_140_"
   class="st9"
   d="m 450.7,420.7 c -6.7,1 -13.3,1.8 -20,2.5 -6.9,8.8 -19,14.8 -32.8,14.8 -13.9,0 -26,-6 -32.8,-14.8 -6.7,-0.6 -13.4,-1.5 -20,-2.5 0.3,-1.2 0.6,-2.4 0.9,-3.6 1.2,-4.8 2.2,-9.6 3,-14.4 0,0 0,-0.1 0,-0.1 0.2,-1.1 0.4,-2.2 0.5,-3.3 0,-0.2 0.1,-0.3 0.1,-0.5 0.2,-1.2 0.3,-2.3 0.5,-3.5 0.2,-1.2 0.3,-2.5 0.5,-3.7 l 1.7,-15.2 12.3,-108.9 c 0.3,-3 0.5,-5.9 0.5,-8.9 0,-9.6 -1.8,-19.2 -5.2,-28.4 H 436 c -4.5,12 -6.1,24.7 -4.7,37.3 l 12.3,108.9 1.7,15.2 c 0.1,1.2 0.3,2.5 0.5,3.7 0.8,6.1 1.9,12.2 3.2,18.2 0.3,1.2 0.5,2.4 0.8,3.6 0.3,1.3 0.6,2.4 0.9,3.6 z" />
	</g>
</g>
<path
   class="st10"
   d="m 321.4,86.795085 c -3.7,11.1 -7.9,22.699995 -6.6,34.299995 l 12.8,124.1 c 0.7,12.4 2.1,23.5 3.9,33.3 3.2,-0.4 6.4,-0.8 9.6,-1.3 -0.3,-1.2 -0.6,-2.4 -0.9,-3.6 -0.3,-1.2 -0.6,-2.4 -0.8,-3.6 -1.4,-6 -2.4,-12.1 -3.2,-18.2 -0.2,-1.2 -0.3,-2.5 -0.5,-3.7 l -1.7,-15.2 -12.3,-108.9 c -1.4,-12.6 0.2,-25.299995 4.7,-37.299995 h -5 z"
   id="path253" />
<path
   id="XMLID_56_"
   class="st11"
   d="m 336.6,248.19508 -1.7,-15.2 c -6.1,0.9 -12.2,1.7 -18.3,2.2 -7.4,-6.6 -17,-10.6 -27.5,-10.6 -10.5,0 -20.1,4 -27.5,10.6 -6.1,-0.5 -12.2,-1.3 -18.3,-2.2 l -1.7,15.2 c -1.1,9.8 -2.9,19.5 -5.4,29 6.7,1 13.3,1.8 20,2.5 6.9,8.8 19,14.8 32.8,14.8 13.9,0 26,-6 32.8,-14.8 6.7,-0.6 13.4,-1.5 20,-2.5 -2.2,-9.5 -4.1,-19.2 -5.2,-29 z" />
<path
   class="st12"
   d="m 326.5,234.09508 1.1,11.1 c 0.7,12.4 2.1,23.5 3.9,33.3 3.2,-0.4 6.4,-0.8 9.6,-1.3 -0.3,-1.2 -0.6,-2.4 -0.9,-3.6 -0.3,-1.2 -0.6,-2.4 -0.8,-3.6 -1.4,-6 -2.4,-12.1 -3.2,-18.2 -0.2,-1.2 -0.3,-2.5 -0.5,-3.7 l -1.7,-15.1 c -2.6,0.5 -5.1,0.8 -7.5,1.1 z"
   id="path256" />
<ellipse
   id="XMLID_4_"
   class="st12"
   cx="288.19998"
   cy="258.09509"
   rx="19.6"
   ry="15.4" />
<line
   id="XMLID_5_"
   class="st7"
   x1="276.89999"
   y1="144.99509"
   x2="274.79999"
   y2="205.09509" />
<path
   id="XMLID_75_"
   class="st13"
   d="m 271.5,652.09508 -32.6,-2.4 c -19,-1.4 -34.1,-15.6 -35.4,-33.3 l -11,-149.3 c -3.3,-44.9 5.3,-86.7 30.2,-125.3 0,0 23.7,-29.5 27.5,-96.5 l 12.8,-124.1 c 1.3,-11.6 -2.9,-23.199995 -6.6,-34.299995 h -6.1 c 4.5,12 6.1,24.699995 4.6,37.299995 l -13.8,124.1 c -3.6,32 -14.6,62.9 -32.4,90.5 v 0 c -24.9,38.6 -36.5,83.4 -33.2,128.3 l 11,149.3 c 1.3,17.8 16.4,31.9 35.4,33.3 l 32.6,2.4 c 14,1 28,1.4 42,1.1 -8.3,-0.1 -16.7,-0.5 -25,-1.1 z" />
<path
   id="XMLID_175_"
   class="st5"
   d="m 254.3,102.79508 c 0,0 19.3,13.6 21.6,13.6 2.3,0 12.3,-6.8 12.3,-6.8 l 8.3,11.4 c 0,0 2.5,-4.2 4.9,-4.2 2.4,0 10.6,0.8 11.8,0.8 1.2,0 9.4,0 9.4,0 v -11.8 -13.899995 h -68.9 z" />
<g
   id="XMLID_266_"
   transform="translate(-109.7,-143.50492)">
	<g
   id="XMLID_311_">
		<g
   id="XMLID_314_">
			<path
   id="XMLID_315_"
   class="st13"
   d="m 372.3,249.1 -0.5,-11 h 60.6 v -2.8 h -68.9 l 0.5,11 c 0,0 19.3,13.6 21.6,13.6 0.4,0 1.1,-0.2 1.9,-0.6 -6.4,-4 -15.2,-10.2 -15.2,-10.2 z" />
		</g>
		<g
   id="XMLID_312_">
			<path
   id="XMLID_313_"
   class="st13"
   d="m 406.2,255.9 c 0,0 -1.9,1.3 -4.2,2.7 l 4.3,5.8 c 0,0 1.6,-2.7 3.5,-3.7 z" />
		</g>
	</g>
</g>
<path
   id="XMLID_170_"
   class="st3"
   d="m 254.3,102.79508 c 0,0 19.3,13.6 21.6,13.6 2.3,0 12.3,-6.8 12.3,-6.8 l 8.3,11.4 c 0,0 2.5,-4.2 4.9,-4.2 2.4,0 10.6,0.8 11.8,0.8 1.2,0 9.4,0 9.4,0 v -11.8 -13.899995 h -68.9 z" />
<g
   id="XMLID_13_"
   transform="translate(-109.7,-143.50492)">
	<path
   id="XMLID_55_"
   class="st9"
   d="m 459.5,595.6 c -16,-5.7 -33.9,-10 -53,-10 -19.1,0 -37,4.3 -53,10 -13.9,5 -28.4,7.5 -43.1,7.5 -5,0 -8.9,4.4 -8.7,9.6 l 6.5,125.7 c 0.2,4.6 3.8,8.3 8.2,8.6 9.3,0.5 26.3,2.3 46,8 13.6,3.9 28.5,7.1 44.1,7.1 15.6,0 30.4,-3.2 44.1,-7.1 16.9,-4.8 34.3,-7.6 51.8,-7.8 l 7.3,-97.7 2.6,-46.3 h -9.6 c -14.7,-0.1 -29.3,-2.7 -43.2,-7.6 z" />
	<path
   class="st10"
   d="m 511.4,618.7 0.9,-15.6 h -9.6 c -2.4,0 -4.8,-0.1 -7.2,-0.2 -0.1,2.5 -0.3,5.1 -0.4,7.6 l -10.2,137.7 c 5.7,-0.6 11.4,-0.9 17.1,-1 z"
   id="path270" />
	<path
   id="XMLID_72_"
   class="st11"
   d="m 505.8,724.8 c -66.3,4.3 -132.8,4.3 -199.1,0 0.3,-5.9 0.7,-11.7 1,-17.6 65.6,4.3 131.4,4.3 197,0 0.4,5.9 0.7,11.7 1.1,17.6 z" />
	<g
   id="XMLID_87_">
		<path
   id="XMLID_71_"
   class="st14"
   d="m 505.8,724.8 c -66.3,4.3 -132.8,4.3 -199.1,0 0.3,-5.9 0.7,-11.7 1,-17.6 65.6,4.3 131.4,4.3 197,0 0.4,5.9 0.7,11.7 1.1,17.6 z" />
		<path
   id="XMLID_196_"
   class="st3"
   d="m 505.8,724.8 c -66.3,4.3 -132.8,4.3 -199.1,0 0.3,-5.9 0.7,-11.7 1,-17.6 65.6,4.3 131.4,4.3 197,0 0.4,5.9 0.7,11.7 1.1,17.6 z" />
		<g
   id="XMLID_44_">
			<path
   id="XMLID_70_"
   class="st14"
   d="m 444.1,719.1 c 0.2,7.4 -16.8,13.6 -37.9,13.6 -21.1,0 -38.1,-6.2 -37.9,-13.6 0.2,-7.4 17.2,-13.3 37.9,-13.3 20.8,0 37.7,5.8 37.9,13.3 z" />
			<path
   id="XMLID_63_"
   class="st3"
   d="m 444.1,719.1 c 0.2,7.4 -16.8,13.6 -37.9,13.6 -21.1,0 -38.1,-6.2 -37.9,-13.6 0.2,-7.4 17.2,-13.3 37.9,-13.3 20.8,0 37.7,5.8 37.9,13.3 z" />
		</g>
	</g>
	<path
   id="XMLID_25_"
   class="st3"
   d="m 459.5,595.6 c -16,-5.7 -33.9,-10 -53,-10 -19.1,0 -37,4.3 -53,10 -13.9,5 -28.4,7.5 -43.1,7.5 -5,0 -8.9,4.4 -8.7,9.6 l 6.5,125.7 c 0.2,4.6 3.8,8.3 8.2,8.6 9.3,0.5 26.3,2.3 46,8 13.6,3.9 28.5,7.1 44.1,7.1 15.6,0 30.4,-3.2 44.1,-7.1 16.9,-4.8 34.3,-7.6 51.8,-7.8 l 7.3,-97.7 2.6,-46.3 h -9.6 c -14.7,-0.1 -29.3,-2.7 -43.2,-7.6 z" />
	<path
   id="XMLID_203_"
   class="st15"
   d="m 406.5,754 c -12.5,0 -25.8,-2.2 -41.9,-6.8 -19.8,-5.7 -36.9,-7.7 -47.7,-8.3 -0.2,0 -0.6,-0.4 -0.7,-1 l -6.5,-125.7 c 0,-0.5 0.2,-0.8 0.3,-1 0.2,-0.2 0.3,-0.2 0.3,-0.2 15.5,0 30.9,-2.7 45.8,-8 17.9,-6.4 34.3,-9.5 50.3,-9.5 16,0 32.4,3.1 50.3,9.5 14.9,5.3 30.3,8 45.8,8 h 1.2 l -2.1,37.8 -6.7,90.5 c -15.3,0.7 -30.9,3.4 -46.6,7.9 -10.1,2.9 -25.5,6.8 -41.8,6.8 z" />
</g>
<path
   id="XMLID_46_"
   class="st3"
   d="m 336.6,248.19508 -1.7,-15.2 c -6.1,0.9 -12.2,1.7 -18.3,2.2 -7.4,-6.6 -17,-10.6 -27.5,-10.6 -10.5,0 -20.1,4 -27.5,10.6 -6.1,-0.5 -12.2,-1.3 -18.3,-2.2 l -1.7,15.2 c -1.1,9.8 -2.9,19.5 -5.4,29 6.7,1 13.3,1.8 20,2.5 6.9,8.8 19,14.8 32.8,14.8 13.9,0 26,-6 32.8,-14.8 6.7,-0.6 13.4,-1.5 20,-2.5 -2.2,-9.5 -4.1,-19.2 -5.2,-29 z" />
<g
   id="XMLID_61_"
   transform="translate(-109.7,-143.50492)">
	<g
   id="XMLID_287_">
		<g
   id="XMLID_288_">
			<path
   id="XMLID_297_"
   class="st3"
   d="m 451.7,420.7 c -6.7,1 -13.3,1.8 -20,2.5 -6.9,8.8 -19,14.8 -32.8,14.8 -13.9,0 -26,-6 -32.8,-14.8 -6.7,-0.6 -13.4,-1.5 -20,-2.5 0.3,-1.2 0.6,-2.4 0.9,-3.6 1.2,-4.8 2.2,-9.6 3,-14.4 0,0 0,-0.1 0,-0.1 0.2,-1.1 0.4,-2.2 0.5,-3.3 0,-0.2 0.1,-0.3 0.1,-0.5 0.2,-1.2 0.3,-2.3 0.5,-3.5 0.2,-1.2 0.3,-2.5 0.5,-3.7 l 1.7,-15.2 12.3,-108.9 c 0.3,-3 0.5,-5.9 0.5,-8.9 0,-9.6 -1.8,-19.2 -5.2,-28.4 H 437 c -4.5,12 -6.1,24.7 -4.7,37.3 l 12.3,108.9 1.7,15.2 c 0.1,1.2 0.3,2.5 0.5,3.7 0.8,6.1 1.9,12.2 3.2,18.2 0.3,1.2 0.5,2.4 0.8,3.6 0.3,1.3 0.6,2.4 0.9,3.6 z" />
		</g>
	</g>
</g>
<g
   id="XMLID_60_"
   transform="translate(-109.7,-143.50492)">
	<path
   id="XMLID_57_"
   class="st3"
   d="m 446.3,391.7 -14,-124.1 c -1.4,-12.6 0.2,-25.3 4.7,-37.3 v 0 h -76.3 v 0 c 4.5,12 6.1,24.7 4.7,37.3 l -14,124.1 c -3.6,32 -14.8,62.9 -32.8,90.5 v 0 c -25.1,38.6 -36.8,83.4 -33.5,128.3 l 11.1,149.3 c 1.3,17.8 16.5,31.9 35.8,33.3 l 32.9,2.4 c 22.6,1.6 45.2,1.6 67.8,0 l 32.9,-2.4 c 19.2,-1.4 34.4,-15.6 35.8,-33.3 l 11.1,-149.3 c 3.3,-44.9 -8.3,-89.7 -33.5,-128.3 v 0 c -17.9,-27.6 -29.1,-58.5 -32.7,-90.5 z" />
</g>
<g
   id="XMLID_12_"
   transform="translate(-109.7,-143.50492)">
	<g
   id="XMLID_21_">
		<path
   id="XMLID_20_"
   class="st16"
   d="m 628.6,614.2 -29.5,38.2 -29.5,-38.2 C 554.1,594.1 546,568.3 546.9,542 l 6.5,-139.3 h 91.5 l 6.5,139.3 c 0.8,26.3 -7.3,52.1 -22.8,72.2 z" />
		<path
   id="XMLID_66_"
   class="st9"
   d="m 648.3,476.9 h -98.4 l -3,65.1 c -0.9,26.3 7.2,52.1 22.7,72.2 l 29.5,38.2 29.5,-38.2 c 15.5,-20.1 23.6,-45.9 22.7,-72.2 z" />
		<path
   id="XMLID_193_"
   class="st13"
   d="m 578.3,614.2 c -8.7,-11.3 -15.1,-24.4 -18.9,-38.4 -2.5,-9.3 -3.8,-19 -3.9,-28.9 0,-1.6 0,-3.3 0.1,-4.9 l 0.5,-10.2 6,-129 h -8.8 l -6,129 -0.5,10.2 c -0.1,1.6 -0.1,3.3 -0.1,4.9 0.1,9.8 1.4,19.5 3.9,28.9 3.7,14 10.1,27.1 18.9,38.4 l 29.5,38.2 2.4,-4.7 z" />
		<line
   id="XMLID_23_"
   class="st3"
   x1="599.09998"
   y1="652.40002"
   x2="599.09998"
   y2="789.79999" />
		<line
   id="XMLID_22_"
   class="st3"
   x1="550.09998"
   y1="789.79999"
   x2="648.09998"
   y2="789.79999" />
		<polygon
   id="XMLID_165_"
   class="st13"
   points="552.8,470.1 552.2,494.4 645.9,494.4 645.3,470.1 " />
		<circle
   id="XMLID_67_"
   class="st13"
   cx="568.40002"
   cy="474"
   r="17" />
		<circle
   id="XMLID_153_"
   class="st13"
   cx="592.59998"
   cy="478.10001"
   r="17" />
		<circle
   id="XMLID_163_"
   class="st13"
   cx="612.59998"
   cy="476.89999"
   r="13.6" />
		<circle
   id="XMLID_164_"
   class="st13"
   cx="627.59998"
   cy="468.60001"
   r="9.5" />
		<circle
   id="XMLID_166_"
   class="st13"
   cx="639.40002"
   cy="471"
   r="7.0999999" />
		<circle
   id="XMLID_169_"
   class="st13"
   cx="619.59998"
   cy="427.20001"
   r="4.3000002" />
		<path
   id="XMLID_24_"
   class="st3"
   d="m 628.6,614.2 -29.5,38.2 -29.5,-38.2 C 554.1,594.1 546,568.3 546.9,542 l 6.5,-139.3 h 91.5 l 6.5,139.3 c 0.8,26.3 -7.3,52.1 -22.8,72.2 z" />
	</g>
	<line
   id="XMLID_17_"
   class="st7"
   x1="579.40002"
   y1="420.60001"
   x2="579.40002"
   y2="448" />
	<circle
   id="XMLID_114_"
   class="st17"
   cx="625"
   cy="521.90002"
   r="5.6999998" />
	<circle
   id="XMLID_201_"
   class="st18"
   cx="627.59998"
   cy="571"
   r="4.3000002" />
	<circle
   id="XMLID_77_"
   class="st17"
   cx="594.79999"
   cy="538.70001"
   r="1.6" />
	<circle
   id="XMLID_83_"
   class="st17"
   cx="586.90002"
   cy="559.59998"
   r="1.6" />
	<circle
   id="XMLID_85_"
   class="st17"
   cx="604.29999"
   cy="578.59998"
   r="1.6" />
	<path
   id="XMLID_37_"
   class="st7"
   d="m 571.5,546.5 c 0.5,16 4.9,33.5 20,49" />
	<line
   id="XMLID_28_"
   class="st7"
   x1="572.70001"
   y1="516.5"
   x2="572.70001"
   y2="523.70001" />
</g>
<g
   id="XMLID_14_"
   transform="translate(-109.7,-143.50492)">
	<g
   id="XMLID_91_">
		<path
   id="XMLID_130_"
   class="st16"
   d="M 701.1,614.2 671.6,652.4 642,614.2 C 626.5,594.1 618.4,568.3 619.3,542 l 6.5,-139.3 h 91.5 l 6.5,139.3 c 0.9,26.3 -7.2,52.1 -22.7,72.2 z" />
		<path
   id="XMLID_121_"
   class="st9"
   d="m 720.7,476.9 h -98.4 l -3,65.1 c -0.9,26.3 7.2,52.1 22.7,72.2 l 29.5,38.2 29.5,-38.2 c 15.5,-20.1 23.6,-45.9 22.7,-72.2 z" />
		<path
   id="XMLID_120_"
   class="st13"
   d="m 650.8,614.2 c -8.7,-11.3 -15.1,-24.4 -18.9,-38.4 -2.5,-9.3 -3.8,-19 -3.9,-28.9 0,-1.6 0,-3.3 0.1,-4.9 l 0.5,-10.2 6,-129 h -8.8 l -6,129 -0.5,10.2 c -0.1,1.6 -0.1,3.3 -0.1,4.9 0.1,9.8 1.4,19.5 3.9,28.9 3.7,14 10.1,27.1 18.9,38.4 l 29.5,38.2 2.4,-4.7 z" />
		<line
   id="XMLID_117_"
   class="st3"
   x1="671.5"
   y1="652.40002"
   x2="671.5"
   y2="789.79999" />
		<line
   id="XMLID_111_"
   class="st3"
   x1="622.5"
   y1="789.79999"
   x2="720.59998"
   y2="789.79999" />
		<polygon
   id="XMLID_106_"
   class="st13"
   points="625.3,470.1 624.7,494.4 718.4,494.4 717.8,470.1 " />
		<circle
   id="XMLID_105_"
   class="st13"
   cx="640.79999"
   cy="474"
   r="17" />
		<circle
   id="XMLID_104_"
   class="st13"
   cx="665.09998"
   cy="478.10001"
   r="17" />
		<circle
   id="XMLID_103_"
   class="st13"
   cx="685.29999"
   cy="485.60001"
   r="17" />
		<circle
   id="XMLID_102_"
   class="st13"
   cx="700.09998"
   cy="468.60001"
   r="9.5" />
		<circle
   id="XMLID_101_"
   class="st13"
   cx="711.90002"
   cy="471"
   r="7.0999999" />
		<circle
   id="XMLID_100_"
   class="st13"
   cx="695.90002"
   cy="447.60001"
   r="3.9000001" />
		<path
   id="XMLID_92_"
   class="st3"
   d="M 701.1,614.2 671.6,652.4 642,614.2 C 626.5,594.1 618.4,568.3 619.3,542 l 6.5,-139.3 h 91.5 l 6.5,139.3 c 0.9,26.3 -7.2,52.1 -22.7,72.2 z" />
	</g>
	<line
   id="XMLID_84_"
   class="st7"
   x1="651.90002"
   y1="420.60001"
   x2="651.90002"
   y2="448" />
	<circle
   id="XMLID_79_"
   class="st17"
   cx="697.40002"
   cy="521.90002"
   r="5.6999998" />
	<circle
   id="XMLID_54_"
   class="st17"
   cx="667.29999"
   cy="538.70001"
   r="1.6" />
	<circle
   id="XMLID_53_"
   class="st17"
   cx="700.09998"
   cy="564.70001"
   r="1.6" />
	<circle
   id="XMLID_52_"
   class="st17"
   cx="676.79999"
   cy="578.59998"
   r="1.6" />
	<path
   id="XMLID_49_"
   class="st7"
   d="m 644,546.5 c 0.5,16 4.9,33.5 20,49" />
	<line
   id="XMLID_15_"
   class="st7"
   x1="645.20001"
   y1="516.5"
   x2="645.20001"
   y2="523.70001" />
</g>
<path
   id="XMLID_147_"
   class="st13"
   d="m 763.3,653.29508 h -742 l 34,78.2 h 66 c 0,0 53.7,-28 53.7,-20 0,8 82,76 82,76 0,0 26,28 62.2,8 36.2,-20 69.3,-28.4 76.9,-36 14.1,-14.1 -6.1,-36.4 -0.2,-40.2 11.8,-7.5 64.4,69.5 89.3,58.5 10.2,-4.5 7.3,-20.2 19.9,-25.1 13.5,-5.3 21.1,10.9 46.7,14.4 25.4,3.5 53.1,-7.6 53.6,-7.7 v 0 c 0,0 -4.3,-11.2 16,-31.5 20.3,-20.3 29,-27.5 46,-10.5 17,17 15,33 24,42 7.2,7.2 10.1,16.9 13,16 6.3,-1.9 -1.9,-44.8 2.1,-45.7 3.4,-0.7 11,30.4 19.8,29.7 1.2,-0.1 3.6,-2.5 8.9,-6.9 2.2,-1.8 4.7,-4.1 8.2,-7.6 12.8,-12.8 20,-17.6 20,-33.6 0,-16 -0.1,-58 -0.1,-58 z" />
<line
   id="XMLID_138_"
   class="st3"
   x1="763.29999"
   y1="653.29504"
   x2="21.299999"
   y2="653.29504" />
<g
   id="XMLID_160_"
   transform="translate(-109.7,-143.50492)">
	<path
   id="XMLID_188_"
   class="st5"
   d="m 422.8,209.2 h -49.7 c -6.3,0 -11.5,-5.1 -11.5,-11.5 v -4.2 c 0,-6.3 5.1,-11.5 11.5,-11.5 h 49.7 c 6.3,0 11.5,5.1 11.5,11.5 v 4.2 c 0,6.4 -5.2,11.5 -11.5,11.5 z" />
	<path
   id="XMLID_277_"
   class="st13"
   d="m 371.8,197.7 v -4.2 c 0,-6.3 5.1,-11.5 11.5,-11.5 h -10.1 c -6.3,0 -11.5,5.1 -11.5,11.5 v 4.2 c 0,6.3 5.1,11.5 11.5,11.5 h 10.1 c -6.4,0 -11.5,-5.1 -11.5,-11.5 z" />
	<path
   id="XMLID_168_"
   class="st3"
   d="m 422.8,209.2 h -49.7 c -6.3,0 -11.5,-5.1 -11.5,-11.5 v -4.2 c 0,-6.3 5.1,-11.5 11.5,-11.5 h 49.7 c 6.3,0 11.5,5.1 11.5,11.5 v 4.2 c 0,6.4 -5.2,11.5 -11.5,11.5 z" />
</g>
<line
   id="XMLID_81_"
   class="st7"
   x1="271"
   y1="49.095093"
   x2="271"
   y2="51.79509" />
<g
   id="XMLID_157_"
   transform="translate(-109.7,-143.50492)">
	<g
   id="XMLID_156_">
		<path
   id="XMLID_155_"
   class="st5"
   d="m 420.2,236.2 h -51.5 c -8.7,0 -15.7,-7 -15.7,-15.7 v 0 c 0,-8.7 7,-15.7 15.7,-15.7 h 51.5 c 8.7,0 15.7,7 15.7,15.7 v 0 c 0,8.7 -7,15.7 -15.7,15.7 z" />
		<path
   id="XMLID_275_"
   class="st13"
   d="m 365.2,220.5 v 0 c 0,-8.7 6.5,-15.7 14.5,-15.7 h -12.1 c -8,0 -14.5,7 -14.5,15.7 v 0 c 0,8.7 6.5,15.7 14.5,15.7 h 12.1 c -8,0 -14.5,-7 -14.5,-15.7 z" />
		<path
   id="XMLID_128_"
   class="st3"
   d="m 420.2,236.2 h -51.5 c -8.7,0 -15.7,-7 -15.7,-15.7 v 0 c 0,-8.7 7,-15.7 15.7,-15.7 h 51.5 c 8.7,0 15.7,7 15.7,15.7 v 0 c 0,8.7 -7,15.7 -15.7,15.7 z" />
	</g>
</g>
<path
   id="XMLID_204_"
   class="st13"
   d="m 337.5,26.195085 c 0.1,-0.8 0.2,-1.5 0.2,-2.3 0,-10.4 -8.4,-18.8000002 -18.8,-18.8000002 -4.4,0 -8.4,1.5 -11.6,4 -2.2,-0.9 -4.6,-1.4 -7.2,-1.4 -6.9,0 -12.9,3.7000002 -16.2,9.3000002 -2.2,-1 -4.7,-1.3 -7.3,-1 -6,0.8 -10.8,5.8 -11.5,11.9 -0.8,8.1 5.5,14.9 13.4,14.9 3.1,0 6,-1.1 8.3,-2.9 3.4,3.4 8.1,5.5 13.3,5.5 0.7,0 1.3,0 2,-0.1 v 0.1 0 c 5.1,0 9.3,4.2 9.3,9.3 v 63.299995 c 0,7.3 5.9,13.2 13.2,13.2 v 0 c 7.3,0 13.2,-5.9 13.2,-13.2 V 28.595085 c 0,-0.8 -0.1,-1.6 -0.3,-2.4 z" />
<path
   id="XMLID_47_"
   class="st3"
   d="m 337.5,26.195085 c 0.1,-0.8 0.2,-1.5 0.2,-2.3 0,-10.4 -8.4,-18.8000002 -18.8,-18.8000002 -4.4,0 -8.4,1.5 -11.6,4 -2.2,-0.9 -4.6,-1.4 -7.2,-1.4 -6.9,0 -12.9,3.7000002 -16.2,9.3000002 -2.2,-1 -4.7,-1.3 -7.3,-1 -6,0.8 -10.8,5.8 -11.5,11.9 -0.8,8.1 5.5,14.9 13.4,14.9 3.1,0 6,-1.1 8.3,-2.9 3.4,3.4 8.1,5.5 13.3,5.5 0.7,0 1.3,0 2,-0.1 v 0.1 0 c 5.1,0 9.3,4.2 9.3,9.3 v 63.299995 c 0,7.3 5.9,13.2 13.2,13.2 v 0 c 7.3,0 13.2,-5.9 13.2,-13.2 V 28.595085 c 0,-0.8 -0.1,-1.6 -0.3,-2.4 z" />
<line
   id="XMLID_11_"
   class="st7"
   x1="268"
   y1="74.095093"
   x2="268"
   y2="79.495087" />
<ellipse
   class="st13"
   cx="296.5"
   cy="506.1951"
   rx="38.900002"
   ry="24.1"
   id="ellipse349" />
</svg>
