<?xml version="1.0" encoding="utf-8"?>
<!-- Generator: Adobe Illustrator 25.1.0, SVG Export Plug-In . SVG Version: 6.00 Build 0)  -->
<svg version="1.1" id="Layer_1" xmlns="http://www.w3.org/2000/svg" xmlns:xlink="http://www.w3.org/1999/xlink" x="0px" y="0px"
	 viewBox="0 0 917.5 1173.9" style="enable-background:new 0 0 917.5 1173.9;" xml:space="preserve">
<style type="text/css">
	.st0{fill:#C2C469;}
	.st1{fill:#866441;}
	.st2{fill:#F9D782;}
	.st3{fill:none;stroke:#969636;stroke-width:2;stroke-miterlimit:10;}
	.st4{fill:#B75D2D;}
	.st5{fill:#C9814F;}
	.st6{fill:#EAD8CC;}
	.st7{fill:#C3A03D;}
	.st8{fill:#825534;}
	.st9{fill:#663F23;}
	.st10{fill:#E8A650;}
	.st11{fill:#B29784;}
	.st12{fill:#A95D29;}
	.st13{fill:#447755;}
	.st14{fill:#778E46;}
	.st15{fill:#C6D353;}
	.st16{fill:#D8693C;}
	.st17{fill:#767D33;}
	.st18{fill:#D6C868;}
	.st19{fill:#A56234;}
	.st20{fill:#B34E2A;}
	.st21{fill:#94482E;}
	.st22{fill:#FFFFFF;}
	.st23{fill:#AFBF54;}
	.st24{fill:#CB9B55;}
	.st25{fill:#E2AF6D;}
	.st26{fill:#9B5131;}
	.st27{fill:#C68741;}
</style>
<g>
	<path class="st0" d="M806.7,797.9c-3.7-33.1-7.5-66.3-14.7-98.9c-7.1-32-17.4-64.9-35.1-92.8c-7.1-11.3-16.7-21.3-29.2-25.7
		c1.1-1,0.4-3.3-1.3-3.3c-0.1,0-0.3,0-0.4,0s-0.1,0-0.2,0c-1.7,0.1-3.2,0.3-4.7,0.7c-1,0.1-1.9,0.3-2.9,0.4s-1.4,0.8-1.4,1.5
		c-0.2,0.4-0.2,0.8-0.1,1.3c-0.6,0-1.2,0-1.8,0.1c-4.8-0.8-9.7-0.8-14.5-0.6c-5.1,0.1-10.4,0.3-15.5,0.9c-9.8,0.4-20.1,0.8-27.9,7.4
		c-0.7,0.6-0.7,1.3-0.5,1.9c-0.9,1.1-1.8,2.3-2.5,3.5c-0.4,0.8-0.3,1.5,0.1,2.1c-20,14.7-32.1,38.1-44.3,59.3
		c-13,22.6-24.4,46.5-29.6,72.2c-4.9,13.9-9,28.1-12.2,42.6c-0.1,0.2-0.1,0.3-0.2,0.5h0.1c-0.4,2.3,2.7,3,3.6,0.9
		c0.3-0.9,0.7-1.7,1-2.6c0.5,0.2,1.1,0.1,1.5-0.5c0.1-0.1,0.1-0.2,0.2-0.4c0.1-0.1,0.1-0.1,0.2-0.2c0.2,0.5,0.5,0.9,0.8,1.4
		c-1.3,0.8-1.7,2.7-0.8,4c0.1,0.2,0.3,0.4,0.5,0.5c-0.1,0.5-0.2,1-0.3,1.5c-0.1,0.4-0.3,0.8-0.4,1.2h0.1c0,0,0,0,0,0.1
		c-0.3,1.6,2,2.2,2.4,0.7c0.2-0.6,0.3-1.1,0.5-1.7c0.6,0.3,1.3,0.4,1.8,0.2c0,0.6,0.5,1.1,1,1.2c-0.7,2.9-1.5,5.8-2.2,8.8
		c-0.6,2.4,2.7,3.2,3.6,1.1c0-0.1,0.1-0.2,0.1-0.3c0.9-2.5,1.8-4.9,2.6-7.4c0.4,0.3,0.8,0.4,1.2,0.4c-0.4,2.9-0.7,5.8-0.9,8.7
		c-0.2,2.4,3.6,2.4,3.8,0c2.9-36.2,16.2-71.7,28.6-105.5c11.2-30.6,26.1-61.2,51.7-82.1c1.3-0.7,2.6-1.4,4-2c0.3,0.1,0.6,0.1,0.9,0
		c2.2-0.8,4.4-1.6,6.5-2.6c11.6-3.3,23.8-2.8,35.1,1.4c1.8,1,3.5,2.1,5.1,3.2c13.3,9.7,22.7,24.5,30.3,38.9
		c16.2,30.6,23.9,64.8,31.2,98.4c4.6,20.9,8.7,41.9,12.4,63c0.3,1.7,2.1,1.7,3.1,0.7c2.5-0.6,4.9-1.1,7.4-1.6
		c0.5-0.1,0.9-0.4,1.1-0.7C806.3,799.4,806.8,798.8,806.7,797.9z M598.4,725.8C598.4,725.8,598.3,725.8,598.4,725.8
		c0-0.1,0.1-0.2,0.1-0.4C598.4,725.6,598.4,725.7,598.4,725.8z M749,613.6c0.2,0.2,0.3,0.5,0.5,0.7c0,0.1,0,0.2,0,0.3
		C749.4,614.3,749.2,614,749,613.6z M755,623.5c-0.1-0.5-0.3-0.9-0.4-1.4c0.2,0.4,0.5,0.8,0.7,1.3
		C755.2,623.5,755.1,623.5,755,623.5z M740.4,607.1c0,0.1,0.1,0.1,0.1,0.2c-0.1-0.1-0.1-0.2-0.2-0.3
		C740.3,607,740.3,607.1,740.4,607.1z M797.5,757.8c-0.1-0.3-0.1-0.7-0.2-1c0.2,0.2,0.4,0.4,0.7,0.5c0,0.2,0,0.4,0.1,0.5
		C797.9,757.8,797.7,757.8,797.5,757.8z M584.3,756.9c0.2-0.7,0.4-1.5,0.6-2.2c0.1-0.1,0.2-0.1,0.3-0.2c-0.1,0.7-0.2,1.4-0.3,2.1
		c-0.1,0.3-0.1,0.5-0.2,0.8C584.6,757.2,584.5,757,584.3,756.9z M631.4,635.2c0.1,0,0.1,0,0.2,0c-0.8,1.3-1.6,2.5-2.4,3.8
		C630,637.8,630.7,636.5,631.4,635.2z M644.7,616.2c0.8-0.9,1.6-1.9,2.5-2.8c-2.8,3.4-5.4,6.9-8,10.5
		C640.9,621.3,642.8,618.7,644.7,616.2z M778.2,663.1c-0.1-0.6-0.3-1.1-0.4-1.7c0.2,0.5,0.3,1,0.5,1.5
		C778.3,662.9,778.2,663,778.2,663.1z M767.3,635c-0.5-1.4-1-2.9-1.5-4.3c1.1,2.3,2.1,4.6,3.1,6.9
		C768.4,636.7,767.8,635.9,767.3,635z M766.9,667.8c0.4,1.5,0.9,3.1,1.2,4.6c-0.8-2.3-1.6-4.7-2.5-7
		C766.1,666.2,766.5,667,766.9,667.8z M782.8,720.8c0.2,1.4,0.4,2.8,0.6,4.1c0,0.2,0,0.3,0.1,0.5v0.1c0.5,3.3,1.2,6.5,1.9,9.8
		c0.1,0.6,0.1,1.1,0.2,1.7c-1.2-5.4-2.4-10.7-3.6-16C782.2,721.1,782.5,721,782.8,720.8z M790.9,762.6c0.2,1.3,0.4,2.6,0.5,3.9
		c-0.2-1.2-0.5-2.5-0.7-3.7C790.8,762.8,790.9,762.7,790.9,762.6z M746,597.8c-2.4-2.4-4.9-4.6-7.6-6.6c-2.7-2.5-5.8-4.5-9.1-6.1
		C735.7,587.9,741.3,592.4,746,597.8z M575.5,771.4L575.5,771.4C575.5,771.5,575.5,771.5,575.5,771.4c0,0.2,0,0.3,0,0.4v0.1
		C575.3,771.7,575.4,771.5,575.5,771.4z M585.9,775.7C585.9,775.7,585.9,775.6,585.9,775.7l0.1-0.2C586,775.6,586,775.7,585.9,775.7
		C586,775.7,586,775.7,585.9,775.7z"/>
	<path class="st1" d="M257.9,2.7c0,48.8,0.1,97.6,0.1,146.3c0,7.2,0,14.3,0,21.5c0,2.4,3.8,2.4,3.8,0c0-48.8-0.1-97.6-0.1-146.3
		c0-7.2,0-14.3,0-21.5C261.7,0.3,257.9,0.2,257.9,2.7z"/>
	<path class="st1" d="M706.7,2.7c0,48.8,0.1,97.6,0.1,146.3c0,7.2,0,14.3,0,21.5c0,2.4,3.8,2.4,3.8,0c0-48.8-0.1-97.6-0.1-146.3
		c0-7.2,0-14.3,0-21.5C710.5,0.3,706.7,0.2,706.7,2.7z"/>
	<path class="st2" d="M536.9,78.4c0.9-2.2-2.7-3.2-3.6-1c0,0.1-0.1,0.2-0.1,0.3c-2.5,0.2-4.9,0.6-7.4,0.8c-1.6-1-3.8-1.1-5.5,0.1
		c-0.5-0.2-1-0.3-1.7-0.2c-26.1,0.2-52.2-0.6-78.2-2.4c-0.6,0-1.2,0.1-1.8,0.3c-1.2,0-2.4,0.5-3.4,1.3c-0.4,0.1-0.7,0.3-1,0.6
		c-0.2,0.1-0.3,0.1-0.5,0.2c-1.6-0.2-3.2-0.3-4.8-0.5c-0.5-0.5-1.1-0.6-1.7-0.4c-1.1,0.1-2.2,1-1.9,2.4c2.5,11.5,8.5,21.8,18.8,27.9
		c10.9,6.4,24.5,8.1,36.9,8c11.1-0.1,22.5-2.3,32.3-7.8c12.7-5.4,23.2-14.6,23.5-28.6c0-0.3-0.1-0.5-0.2-0.8
		C536.8,78.5,536.9,78.5,536.9,78.4z"/>
	<path class="st1" d="M260,4c15.3,0,30.5,0,45.8,0c35.5,0,71.1,0,106.6,0c42.6,0,85.3,0,127.9,0c37,0,74,0,111,0
		c12.4,0,24.8,0,37.2,0c6.1,0,12.3,0.4,18.3,0c0.3,0,0.7,0,1.1,0c2.4,0,2.4-3.8,0-3.8c-15.3,0-30.5,0-45.8,0c-35.5,0-71.1,0-106.6,0
		c-42.6,0-85.3,0-127.9,0c-37,0-74,0-111,0c-12.4,0-24.8,0-37.2,0c-6.1,0-12.3-0.4-18.3,0c-0.3,0-0.7,0-1.1,0
		C257.5,0.2,257.5,4,260,4z"/>
	<path class="st1" d="M707.9,25.2c-15.3,0-30.5,0-45.8,0c-35.5,0-71.1,0-106.6,0c-42.6,0-85.3,0-127.9,0c-37,0-74,0-111,0
		c-12.4,0-24.8,0-37.2,0c-6.1,0-12.3-0.4-18.3,0c-0.3,0-0.7,0-1.1,0c-2.5,0.1-2.5,3.8,0,3.8c15.3,0,30.5,0,45.8,0
		c35.5,0,71.1,0,106.6,0c42.6,0,85.3,0,127.9,0c37,0,74,0,111,0c12.4,0,24.8,0,37.2,0c6.1,0,12.3,0.4,18.3,0c0.3,0,0.7,0,1.1,0
		C710.3,29,710.3,25.2,707.9,25.2z"/>
	<path class="st1" d="M707.9,50.2c-15.3,0-30.5,0-45.8,0c-35.5,0-71.1,0-106.6,0c-42.6,0-85.3,0-127.9,0c-37,0-74,0-111,0
		c-12.4,0-24.8,0-37.2,0c-6.1,0-12.3-0.4-18.3,0c-0.3,0-0.7,0-1.1,0c-2.5,0.1-2.5,3.8,0,3.8c15.3,0,30.5,0,45.8,0
		c35.5,0,71.1,0,106.6,0c42.6,0,85.3,0,127.9,0c37,0,74,0,111,0c12.4,0,24.8,0,37.2,0c6.1,0,12.3,0.4,18.3,0c0.3,0,0.7,0,1.1,0
		C710.3,54,710.3,50.2,707.9,50.2z"/>
	<path class="st1" d="M707.9,168.6c-15.3,0-30.5,0-45.8,0c-35.5,0-71.1,0-106.6,0c-42.6,0-85.3,0-127.9,0c-37,0-74,0-111,0
		c-12.4,0-24.8,0-37.2,0c-6.1,0-12.3-0.4-18.3,0c-0.3,0-0.7,0-1.1,0c-2.5,0-2.5,3.8,0,3.8c15.3,0,30.5,0,45.8,0
		c35.5,0,71.1,0,106.6,0c42.6,0,85.3,0,127.9,0c37,0,74,0,111,0c12.4,0,24.8,0,37.2,0c6.1,0,12.3,0.4,18.3,0c0.3,0,0.7,0,1.1,0
		C710.3,172.4,710.3,168.6,707.9,168.6z"/>
	<path class="st1" d="M707.9,75.3c-15.3,0-30.5,0-45.8,0c-35.5,0-71.1,0-106.6,0c-42.6,0-85.3,0-127.9,0c-37,0-74,0-111,0
		c-12.4,0-24.8,0-37.2,0c-6.1,0-12.3-0.4-18.3,0c-0.3,0-0.7,0-1.1,0c-2.5,0-2.5,3.8,0,3.8c15.3,0,30.5,0,45.8,0
		c35.5,0,71.1,0,106.6,0c42.6,0,85.3,0,127.9,0c37,0,74,0,111,0c12.4,0,24.8,0,37.2,0c6.1,0,12.3,0.4,18.3,0c0.3,0,0.7,0,1.1,0
		C710.3,79.1,710.3,75.3,707.9,75.3z"/>
	<circle class="st3" cx="599.5" cy="772.7" r="317"/>
	<path class="st4" d="M812.6,356.8c-1.8-9.1-7.9-16-16.7-18.5c-2.9-0.5-4.2,4.3-1.1,5.2c0.1,0,0.2,0.1,0.3,0.1
		c-0.3,0.4-0.4,0.8-0.4,1.3c0.6,12.9,1.2,25.7,1.9,38.5c0,2.1,0,4.1,0,6.2c0.1,0,0.2,0,0.3,0c0,0.1,0,0.1,0,0.2c0.1,1,0.5,1.6,1.2,2
		c0,1.7,0,3.3,0.1,5c0,0.5,0.2,0.9,0.4,1.2c-0.4,5.7-0.9,11.4-1.7,17.1c0,0,0,0,0,0.1v0.1c-0.2,1.2,0.4,2.1,1.1,2.6
		c-0.4,1.7-0.8,3.3-1.1,5c-0.1,0-0.2-0.1-0.3-0.1c0.2-1.1-0.2-1.9-0.8-2.4c0-0.1,0.1-0.3,0.1-0.4c1.7-3-3.1-4.4-3.9-1.2
		c-0.6,2.3-1.2,4.5-1.8,6.8c-0.4,1-0.8,2-1.3,3.1c-0.8-0.7-2-0.9-3-0.4c-1-0.6-2.3-0.6-3,0.4c0.2-0.8,0.5-1.6,0.7-2.3
		c0.8-2.7-3.3-4.5-4.6-1.9c-0.1,0.2-0.2,0.5-0.4,0.7c-0.1,0-0.2-0.1-0.3-0.1c-0.2,0.7-0.4,1.3-0.6,2c-1.3,2.7-2.7,5.3-4,8
		c-0.8-0.1-1.6,0.3-2,1.3c-4.4,9.3-8.8,18.6-13.2,27.9c-1,2,0.8,3.8,2.4,3.8c-0.5,1.3-1,2.5-1.5,3.8c-0.3,0.5-0.6,1-0.9,1.4
		c0.1,0,0.2,0.1,0.3,0.1c-0.1,0.2-0.1,0.3-0.2,0.5c-0.6,1.5,0.4,2.6,1.7,2.9c-0.5,0.7-0.9,1.4-1.4,2.1c0.1,0.1,0.2,0.1,0.3,0.2
		c-0.6,1.3-0.1,2.4,0.8,3c-2.2,4-4.3,8.1-6.3,12.2c-1.1,2.3,1.2,4.3,3.1,3.5c-2.1,3.6-4.2,7.1-6.4,10.7c-1.3,2.2,0.9,4.1,2.8,3.5
		c0.4,0,0.9-0.1,1.3-0.4c0.5-0.4,0.9-0.8,1.4-1.1c0.1,0.1,0.2,0.2,0.2,0.2c0.2-0.3,0.4-0.6,0.6-0.9c0.4-0.3,0.8-0.6,1.1-0.9
		c0.3,0.8,0.5,1.6,0.8,2.3c-0.2,0.3-0.4,0.8-0.5,1.3c0,0.4-0.1,0.8-0.2,1.1c0,0,0,0,0,0.1c-0.3,0.8-0.7,1.6-1,2.4
		c-0.4,0.1-0.9,0.3-1.2,0.5c-0.8-0.5-1.9-0.6-2.8,0.4c-5.8,6.2-11.7,12.4-17.6,18.6c-0.2,0.1-0.5,0.3-0.7,0.5
		c-2.7,2.6-5.5,5.1-8.2,7.7c-0.5,0.5-0.8,1-0.8,1.6c-0.1,0-0.1,0.1-0.2,0.1c-0.2,0.1-0.4,0.3-0.6,0.4l-0.1-0.1
		c-0.4,0.4-0.8,0.7-1.3,1.1c-0.2,0.2-0.5,0.4-0.8,0.5c-1.9,1.2-3.8,2.3-5.7,3.5c-0.7-0.9-1.8-1.3-3-0.5c-4.7,3-9.3,6-13.8,9.2
		c-6.1,3.8-12.2,7.6-18.5,11.3c-1.2,0.6-2.3,1.2-3.5,1.9c0,0.1,0.1,0.1,0.1,0.2c-0.6,0.4-1,0.9-1.1,1.5c-5.5,1.9-11,3.7-16.5,5.6
		c-0.6,0.2-1.1,0.7-1.4,1.2c-6.2,1.3-12.3,2.4-18.6,3.3c-3,0.4-1.9,4.7,0.7,4.9c1.9,0.2,3.7,0.3,5.6,0.3c0,0.1,0,0.2,0,0.4
		c-1.2,0-2.4-0.1-3.6-0.1c-3.2-0.1-3.2,4.9,0,5c16.1,0.5,32.5,0.4,48.4-2.4c16.7-3,31.5-9.5,45.3-19.3c11.9-8.3,21.6-17.7,26-31.9
		c3.7-11.9,3.1-24.7-1.5-36.2c8-7.5,14.6-16.2,20.3-25.7c5-8.4,10.8-18.1,13.8-28.2c4.3-9,8.4-18.1,11.6-27.5
		c3.7-11,5.6-22.5,6.3-34.1C814.2,379.1,814.7,367.4,812.6,356.8z M744,550.8L744,550.8c0.4-0.5,0.8-1,1.2-1.4
		c-0.4,0.5-0.8,1.1-1.2,1.6C744,550.9,744,550.8,744,550.8z M728.2,551.7c0.1,0.1,0.2,0.3,0.3,0.4c-0.9,0.6-1.9,1.3-2.8,1.9
		C726.5,553.3,727.3,552.5,728.2,551.7z M688.3,583.3c0.8-0.2,1.5-0.3,2.3-0.5c0.4,0,0.7,0.1,1.1,0.1c-1.3,0.2-2.5,0.5-3.8,0.7
		C688,583.5,688.2,583.4,688.3,583.3z M809.1,382.6c-0.1,3.7-0.3,7.4-0.6,11.1C808.8,390,809,386.3,809.1,382.6z M777.5,478.5
		L777.5,478.5z M802.3,422.7c0.1,0,0.1,0,0.2,0c-0.2,0.7-0.5,1.5-0.7,2.2C801.9,424.2,802.1,423.4,802.3,422.7z"/>
	<path class="st5" d="M437.1,402.5c0-0.1-0.1-0.1-0.1-0.2c-0.5,0.3-1.1,0.6-1.6,0.9c0-0.1,0-0.1,0-0.2c0.3-0.1,0.5-0.2,0.8-0.4
		c0,0,0,0,0.1,0c0,0,0.1,0,0.1-0.1c1.8-1.1,0.2-3.8-1.9-3.2c-0.1,0.1-0.2,0.1-0.4,0.2c-0.4-0.1-0.9-0.1-1.3,0.1c0,0-0.1,0-0.1,0.1
		h-0.1c-0.5,0.2-1,0.5-1.5,0.7c-0.2-0.6-0.6-1.1-1.2-1.3c-0.2-0.7-0.9-1.1-1.7-0.6c-0.1,0.1-0.2,0.2-0.4,0.3c-0.3-0.1-0.7-0.1-1,0
		c-8.8,4.3-18.7,8-27,13.5c-1.2,0.5-2.5,1.1-3.7,1.6c-0.2,0.1-0.4,0.2-0.6,0.4c-1,0.5-2,1.2-2.7,2.2c-0.6,0.9-0.1,1.9,0.7,2.1
		c0.2,1,1.1,2,2.3,1.6c0.1,0,0.3-0.1,0.4-0.1c0.4,0.2,1,0.3,1.6,0.1c0.1,0,0.1-0.1,0.2-0.1c0.4,0.5,1,0.7,1.8,0.5
		c0.2-0.1,0.4-0.1,0.5-0.2c0.4,0.3,0.9,0.5,1.5,0.3c0,0,0,0,0,0.1c0.3-0.1,0.6-0.2,0.9-0.3c0.4,0.7,1.1,1.1,2,0.8
		c0,0.1,0,0.1,0.1,0.2c10.5-3.3,21-6.4,31.6-9.2c0-0.1,0-0.1-0.1-0.2c2.2-0.7,1.2-4.2-1-3.6c-1,0.3-1.9,0.5-2.9,0.8v-0.1
		c0.2-0.1,0.4-0.2,0.6-0.3c1.1-0.4,2.3-0.9,3.4-1.3c0.6-0.2,0.9-0.6,1.1-1.1c0.5-0.2,0.9-0.5,1.4-0.7
		C441.1,404.5,439.3,401.6,437.1,402.5z"/>
	<path class="st6" d="M798.4,349.3c-2.2-17.5-4.9-36.3-14.8-51c-1-1.8-1.6-3.5-2.1-5.5c-0.2-0.6-0.6-1-1.1-1.2
		c-0.6-0.6-1.2-1.2-1.9-1.8c-0.6-0.6-1.5-0.8-2.2-0.6c-4.7-5.1-10.8-9.1-17.2-11.9c-2.6-1.2-5.8-2.5-9.1-3.6
		c-0.4,23.4-0.1,46.7,0.9,70c0.1,0.8-1.2,0.8-1.2,0c-0.9-21.8-1.2-43.7-1-65.5c0-1.6,0-3.2,0.1-4.8c0-0.1,0-0.1,0-0.1
		c-1.1-0.3-2.1-0.7-3.2-1c-4.6-2.1-9.4-3.7-14.2-3.9c-0.2,0-0.4,0-0.5,0.1c-0.3-0.2-0.7-0.2-1.1,0.1c-5.8,4.3-11.8,8.7-18.9,10.3
		c-4.5,1-9.4,0.9-13.6-1.1s-9.6-6.6-8.1-11.9c0-0.1,0.1-0.2,0.1-0.3c0.3-0.1,0.6-0.2,0.9-0.2c0.4-0.1,0.6-0.3,0.7-0.5
		c0.3-0.1,0.5-0.2,0.8-0.3c0.6-0.2,0.6-1.3-0.2-1.2c-0.4,0-0.7,0.1-1.1,0.1c0-0.3-0.3-0.7-0.7-0.5c-1.6,0.4-3.2,0.8-4.8,1.2
		c-0.1,0-0.1,0-0.2,0c-2.7,0.3-5.4,0.8-8.1,1.3c-2.8,0.3-5.5,0.7-8.1,1.5c-22,3-39.7,18.1-54.7,33.9c-5.5,5.7-11,11.4-16.5,17
		c0.3-0.1,0.7,0.1,0.7,0.6c0.4,23.2,1.1,46.4,2.2,69.5c0,0.2,0,0.3-0.1,0.4c1.4,0.1,2.7,0.2,4.1,0.2c6.3,0,12.7-1,19,0.3
		c5.3,1.1,10.1,3.8,14.6,6.6c-5.9,9.8-11.1,32.3,4.3,35.5c0.6,0.1,1.1,0.1,1.6-0.1c2.7,2.1,5.4,4.2,8.2,6.2
		c-0.8,2.4,2.2,4.4,3.9,2.8c2.8,2,5.6,4,8.4,5.9c-0.1,0.2-0.2,0.5-0.3,0.7c-1,2.5,3,4.4,4.5,2.1c0.5,0.3,1,0.6,1.5,1
		c-0.2,0.7-0.5,1.4-0.7,2.1c-0.9,2.7,3.3,4.5,4.6,1.9c0.1-0.2,0.2-0.3,0.2-0.5c0.2,0.1,0.3,0.1,0.5,0.2c0.1-0.2,0.1-0.4,0.2-0.7
		c0.1,0.1,0.2,0.1,0.3,0.2c-0.4,1.4-0.8,2.9-1.3,4.3c-0.8,2.6,3.3,4.4,4.5,2c0.9,0.3,2,0.1,2.7-1.1c0.1,0.1,0.3,0.2,0.4,0.3
		c0-0.1,0.1-0.2,0.1-0.3c0.7,0.4,1.5,0.5,2.3,0.1c0.2,0.1,0.3,0.2,0.5,0.3c0.5,0.6,1.2,1.1,2,1.2c2.3,1.3,4.6,2.6,6.9,3.9
		c-0.3,0.7-0.7,1.3-1,2c-1.5,2.9,2.4,5.2,4.3,2.5c0.1,0.1,0.3,0.2,0.4,0.3c0.4-0.7,0.7-1.4,1.1-2.2c3.6,1.9,7.3,3.8,11,5.6
		c1.5,0.7,3-0.1,3.5-1.3c0.6,0.3,1.3,0.3,2.1-0.2c2.3-1.5,3.5-3.3,4.6-5.8c1.6-3.6,3.2-6.8,5.5-10c4.3-6,8.4-11.6,9-19.2
		c0-0.5-0.1-1-0.3-1.3c3.1-5.4,6.2-10.9,9.2-16.3c0.2-0.4,0.3-0.7,0.3-1c0.5-0.8,1.1-1.6,1.6-2.4c5.3,1.5,10.3,3.5,15.3,6
		c11.6,5.7,22.7,12.4,35.6,14.4c-0.2-0.1-0.4-0.3-0.4-0.6c-0.7-32.8,0.7-65.6,0-98.3c0-0.8,1.2-0.8,1.2,0c0.7,32.8-0.7,65.6,0,98.3
		c0,0.4-0.2,0.6-0.5,0.6c0.8,0.1,1.7,0.2,2.5,0.3c1.3,0.1,2.1-0.6,2.3-1.6c0.5-0.4,0.8-1,0.9-1.7
		C804.4,404.1,801.8,376.6,798.4,349.3z M642.9,310.1L642.9,310.1c-0.1,0.2-0.2,0.4-0.3,0.5C642.7,310.4,642.8,310.2,642.9,310.1z
		 M618.2,375.8c-0.4-0.1-0.7-0.2-1.1-0.3c0.2-0.3,0.5-0.6,0.7-0.9c0.2,0.3,0.4,0.5,0.7,0.7C618.4,375.5,618.3,375.7,618.2,375.8z
		 M622.4,352.2c-0.1,0.1-0.2,0.1-0.3,0.2c-0.3,0-0.6,0.1-0.8,0.1c0.5-0.7,1.1-1.4,1.6-2.1c0.2-0.2,0.4-0.5,0.6-0.7
		c0.1-0.1,0.1-0.1,0.2-0.2c0.2-0.1,0.4-0.2,0.6-0.3C623.6,350.2,623,351.2,622.4,352.2z M625.7,388.2c0,0.8-1.3,0.8-1.2,0
		c1.4-20.2,2.3-40.5,3.3-60.8c-0.2,0.3-0.3,0.5-0.5,0.8c-1.6,1.8-3.1,3.6-4.7,5.4c0.5-0.8,1.1-1.6,1.6-2.4c0.9-1.1,1.8-2.2,2.6-3.3
		c0.3-0.2,0.6-0.4,0.9-0.6c0.7-13.6,1.4-27.2,2.3-40.8c0-0.8,1.3-0.8,1.2,0C629,320.3,628,354.3,625.7,388.2z M631.7,362.4
		c-0.1-0.1-0.1-0.1-0.2-0.1c0.2-0.4,0.4-0.7,0.6-1.1c0.1,0.1,0.2,0.2,0.2,0.3C632.1,361.8,631.9,362.1,631.7,362.4z M634.5,388
		L634.5,388c1.8,0.8,3.4,1.8,5,2.9C637.9,389.9,636.2,388.9,634.5,388z M641.4,368.3c-0.2,0.1-0.4,0.3-0.6,0.5
		c-0.3,0.4-0.5,0.7-0.8,1.1c0,0-0.1,0-0.1-0.1c0,0.1,0,0.2-0.1,0.3c-0.1,0.2-0.3,0.3-0.4,0.5c-0.1-0.1-0.2-0.3-0.3-0.4
		c1-1.6,2-3.3,3.1-4.9C641.9,366.3,641.6,367.3,641.4,368.3z M642.7,425.3L642.7,425.3c0-0.1,0.1-0.1,0.2-0.1
		C642.8,425.3,642.7,425.3,642.7,425.3z M642.9,326.2c-0.2,0.3-0.5,0.6-0.7,0.8c-0.1,0-0.1,0.1-0.2,0.1c0.4-0.4,0.7-0.8,1.1-1.2
		C643,326.1,643,326.2,642.9,326.2z M643.6,402.3c0.1-0.4,0.3-0.7,0.4-1.1c0.1,0.4,0.2,0.7,0.3,1.1
		C644.1,402.2,643.9,402.2,643.6,402.3z M653.4,421.1L653.4,421.1C653.5,421.1,653.5,421.1,653.4,421.1z M656.3,424.5
		c-0.1-0.1-0.1-0.3-0.2-0.5c0.1,0.1,0.2,0.2,0.3,0.3C656.3,424.4,656.3,424.5,656.3,424.5z M658.1,320.3c-0.8,15.2-1,30.6-3.2,45.6
		c-3.2,22.3-4.6,44.6-5.8,67.1c0,0.8-1.2,0.8-1.2,0c1.1-21.6,2.3-43.2,5.4-64.7c2.4-16.2,2.7-32.6,3.6-48.9
		c0.9-16.2,1.8-32.5,2.7-48.7c0.1-0.8,1.3-0.8,1.2-0.1C659.9,287.2,659,303.7,658.1,320.3z M667.9,296.1c0.4-0.8,0.8-1.7,1.2-2.5
		c0.1,0.2,0.2,0.4,0.4,0.6C669,294.9,668.5,295.5,667.9,296.1z M686.4,267.4C686.4,267.4,686.5,267.3,686.4,267.4
		c0,0.6,0.1,1.2,0.1,1.8c-0.2-0.1-0.4-0.2-0.6-0.2C686.2,268.4,686.4,267.9,686.4,267.4z M685.7,277.2c0,0.1,0.1,0.1,0.1,0.2
		c-0.1,0-0.1,0-0.2-0.1C685.6,277.3,685.6,277.2,685.7,277.2z M679.6,301.3c0,0.2,0.1,0.4,0.1,0.6c-0.1,0-0.1-0.1-0.2-0.1
		C679.5,301.6,679.6,301.5,679.6,301.3z M674.7,340.4L674.7,340.4c0,0.1,0,0.1-0.1,0.2C674.6,340.5,674.6,340.5,674.7,340.4z
		 M671.4,447.1c0,0.8-1.3,0.8-1.2,0c5.7-58.1,9.8-116.3,12.1-174.7c0,0.1-0.1,0.2-0.1,0.3c-0.2-0.1-0.4-0.1-0.6-0.1
		c0.2-0.5,0.2-1,0.1-1.4c0.1-0.2,0.2-0.5,0.2-0.8c0.1,0,0.3,0,0.5-0.1c0.1-1.4,0.1-2.9,0.2-4.3c0-0.8,1.3-0.8,1.2,0
		C681.4,326.5,677.3,386.9,671.4,447.1z M684.2,283.1c-0.2-0.2-0.5-0.4-0.7-0.5c0-0.2,0-0.4,0-0.6c1.1,0.5,2.3,1.1,3.4,1.6
		C686,283.4,685.1,283.2,684.2,283.1z M692.3,294.7c1.7,0.3,3.3,0.6,5,0.9c-0.6,0.1-1.1,0.2-1.7,0.2
		C694.4,295.5,693.3,295.1,692.3,294.7z M695,400.9c-0.8,1.3-1.7,2.6-2.6,4c0.7-1.4,1.4-2.8,2.1-4.2
		C694.7,400.7,694.8,400.8,695,400.9z M703.9,304.4c-0.3,0.1-0.7,0.2-1,0.4c-0.4,0.1-0.8,0.2-1.2,0.3c-1.4,30.7-3.1,61.5-5.1,92.2
		c0-0.1,0.1-0.1,0.1-0.2c1.3-1.9,2.6-3.8,3.9-5.8l0.1,0.1c-1.4,2.3-2.8,4.6-4.2,6.9c-1.3,19.7-2.7,39.4-4.2,59.1
		c0,0.8-1.3,0.8-1.2,0c1.5-19,2.8-38,4-56.9c-0.1,0.1-0.1,0.2-0.2,0.3c0.1-0.1,0.1-0.2,0.2-0.4c2.6-39.4,4.7-78.9,6.3-118.4
		c-1.3-0.1-2.7-0.3-4-0.6c-1.3-0.8-2.6-1.6-3.8-2.6c2.5,1.5,5.2,2.6,7.8,3.1c0-0.1,0-0.3,0-0.4c0-0.8,1.2-0.8,1.2,0
		c0,0.2,0,0.4,0,0.6c0.4,0,0.7,0.1,1.1,0.1c-0.4,0-0.7,0-1.1,0c-0.3,7.5-0.6,15.1-1,22.6c0.4-0.2,0.7-0.4,1.1-0.6
		C703.1,304.3,703.5,304.4,703.9,304.4C704,304.4,704,304.4,703.9,304.4z M715.4,361c-1.1,1.8-2.2,3.6-3.3,5.4
		c-0.5,0.8-1,1.5-1.5,2.3c1.3-2.6,2.6-5.2,3.9-7.8c0.4-0.1,0.8-0.4,1.1-0.8C715.6,360.4,715.5,360.7,715.4,361z M722.1,277
		c-0.1,0.1-0.1,0.2-0.2,0.3c-0.1,0-0.3,0.1-0.4,0.1C721.6,277.2,721.8,277.1,722.1,277z M721.3,314.9c0.9-0.5,1.8-1,2.6-1.5
		c-0.1,0.2-0.2,0.3-0.3,0.5c-1.1,0.9-2.1,1.8-3.2,2.7C720.7,316.1,721,315.5,721.3,314.9z M717.2,465.7c0,0.8-1.3,0.8-1.2,0
		c5-60.3,8-120.8,8.9-181.3c-0.6,0.1-1.2,0.2-1.9,0.3c0.5-0.2,1-0.5,1.5-0.7c0.2,0,0.3,0,0.4,0c0-2.9,0.1-5.9,0.1-8.8
		c0-0.8,1.3-0.8,1.2,0C725.4,338.7,722.4,402.3,717.2,465.7z M725.9,398.9c0.2-0.3,0.3-0.7,0.5-1c0,0,0,0,0.1,0
		C726.3,398.2,726.1,398.6,725.9,398.9z M730.9,413.8c0.1-0.3,0.3-0.5,0.4-0.8c0,0.1,0,0.1,0,0.2
		C731.2,413.4,731.1,413.6,730.9,413.8z M732.5,297.5c-0.4,0.4-0.7,0.7-1.1,1.1c0-0.3,0-0.7,0-1c0.5-0.3,1-0.7,1.5-1
		C732.7,296.9,732.6,297.2,732.5,297.5z M742.8,331.9c0,0.2-0.1,0.4-0.1,0.5c-0.1-0.1-0.2-0.1-0.4-0.2
		C742.5,332.1,742.7,332,742.8,331.9z M741.2,279.4c0.2,0.1,0.4,0.2,0.6,0.3c-0.2,0.1-0.4,0.1-0.6,0.2
		C741.2,279.8,741.2,279.6,741.2,279.4z M742.3,412.4c0,0.8-1.2,0.8-1.2,0c0.5-14.2,1.4-28.3,0.8-42.5c0-0.8,1.2-0.8,1.2,0
		C743.7,384.1,742.7,398.3,742.3,412.4z M747.6,277.8c-0.2,0-0.4,0-0.6,0.1c-0.2-0.1-0.3-0.3-0.5-0.4
		C746.9,277.6,747.2,277.7,747.6,277.8z M747,311.3c0,0.1,0,0.2-0.1,0.3c-0.1,0-0.3,0-0.4,0.1C746.7,311.6,746.8,311.4,747,311.3z
		 M746.6,340c-0.1,0-0.1-0.1-0.2-0.1c0.2-0.7,0.5-1.3,0.7-2C746.9,338.6,746.8,339.3,746.6,340z M747.4,409.7
		c0.1-0.2,0.2-0.3,0.3-0.5c0.9,0.5,1.9,1,2.8,1.5C749.5,410.4,748.4,410.1,747.4,409.7z M752.8,348.1c0.1-1,0.3-2,0.4-3
		c0,0.6,0,1.2,0,1.7C753.1,347.2,753,347.7,752.8,348.1z M751.9,289.7L751.9,289.7c0.2-1.3,0.4-2.5,0.7-3.7c0.2,0.3,0.4,0.5,0.6,0.8
		c-0.1,0.4-0.1,0.8,0,1.3c0.2,0.7,0.3,1.4,0.4,2.1C753.1,289.8,752.5,289.7,751.9,289.7z M756.8,283c-0.5-0.6-0.9-1.3-1.4-1.9
		c0.6,0.3,1.2,0.6,1.8,0.9C757,282.3,756.9,282.6,756.8,283z M759.3,286.5c-0.2-0.3-0.4-0.5-0.6-0.8c1.7,1.5,3.4,3,5.1,4.6
		c0,0.2,0,0.5,0.1,0.8C762.6,289.2,761.1,287.7,759.3,286.5z M775.1,396.6c0-0.4,0-0.7,0-1.1c0.1,0,0.1,0,0.2,0
		C775.2,395.9,775.1,396.2,775.1,396.6z M775,390.5c0-0.8,0-1.6,0-2.4c0-0.1,0-0.2,0-0.2c0.1-0.9,0.3-1.7,0.4-2.6
		c0.1,1.7,0.1,3.5,0.2,5.2C775.4,390.5,775.2,390.5,775,390.5z M778.9,418.7L778.9,418.7z M779.6,406.6c-0.3,0.9-0.6,1.9-1,2.8
		c-0.2,0-0.3,0-0.5,0.1c-0.3-0.7-0.6-1.4-1-2c0-0.1,0-0.1,0.1-0.2c0.9,0.1,1.8-0.1,2.4-0.8C779.6,406.5,779.6,406.5,779.6,406.6z
		 M780.3,405.4L780.3,405.4c-0.1,0.2-0.1,0.2-0.2,0.3C780.1,405.6,780.2,405.5,780.3,405.4L780.3,405.4c0-0.3,0-0.6,0-0.9
		c0-0.6,0.1-1.2,0.2-1.9C780.4,403.5,780.4,404.4,780.3,405.4z M780.9,322.2c-2.4-4.8-4.9-9.4-7.5-14.1c0.4,39.6,0.8,79,1.2,118.5
		c0.1,0.8-1.2,0.8-1.2,0c0-3.8-0.1-7.5-0.1-11.3c0,0-0.1,0-0.1-0.1h0.1c-0.2-15-0.3-30-0.5-44.9c-0.1,0.8-0.3,1.7-0.4,2.5
		c0-1.5,0-3.1,0-4.6c0.1-0.1,0.2-0.2,0.4-0.3c-0.2-20.7-0.4-41.4-0.6-62c-1.1-1.9-2.2-3.9-3.3-5.8c-0.2-0.3-0.4-0.5-0.6-0.7
		c-0.3-0.8-0.6-1.5-1-2.3c1.6,2.8,3.2,5.6,4.8,8.3c0-3.1-0.1-6.1-0.1-9.2c0-0.8,1.2-0.8,1.2,0c0,3.8,0.1,7.5,0.1,11.3
		c2.5,4.4,5.1,8.8,7.6,13.1C781,321.2,781,321.7,780.9,322.2z M783.7,314.6c-0.2-0.3-0.4-0.6-0.5-0.9c-0.2-0.4-0.4-0.8-0.6-1.2
		c0.2-0.1,0.4-0.1,0.6-0.2c0.3,0.8,0.5,1.5,0.7,2.3C783.8,314.6,783.7,314.6,783.7,314.6z M784.6,407.9c0,0.1-0.1,0.2-0.1,0.4
		C784.5,408.2,784.5,408.1,784.6,407.9c0,0,0,0,0.1-0.1C784.6,407.8,784.6,407.8,784.6,407.9z M785.5,406.8
		c-0.1,0.1-0.3,0.2-0.4,0.3c0-0.1,0.1-0.1,0.1-0.2c0.1-0.4,0.2-0.7,0.4-1.1c0,0.2,0,0.4-0.1,0.6
		C785.5,406.5,785.5,406.6,785.5,406.8z M788,423.3C788,423.3,788.1,423.2,788,423.3C788.1,423.2,788.1,423.3,788,423.3
		C788.1,423.3,788,423.3,788,423.3z M789.6,329.7c0.2-0.1,0.3-0.3,0.4-0.4c0.3,1.4,0.6,2.8,0.8,4.2C790.4,332.2,790,331,789.6,329.7
		z M792.9,393.4c-0.1,0-0.2-0.1-0.4-0.1c0.1-0.7,0.3-1.4,0.4-2.1C792.9,391.9,792.9,392.6,792.9,393.4z M796.4,413.5
		c0.1-0.5,0.1-0.9,0.2-1.4c0,0.8,0,1.6,0,2.5C796.5,414.2,796.4,413.9,796.4,413.5z"/>
	<path class="st6" d="M596.8,318.6c0-0.1,0-0.1,0-0.2c-13.8,14-27.9,27.7-42.2,41.2c-2.4,2.2,1.2,5.7,3.5,3.5c0.7-0.7,1.5-1.4,2.2-2
		c0.6,0.6,1.7,0.8,2.6,0c0.3-0.2,0.5-0.5,0.8-0.7c0.3,0.3,0.7,0.5,1.1,0.5c0.3,0.2,0.7,0.3,1.1,0.3c-0.1,0.1-0.1,0.1-0.2,0.2
		c0.1,0.1,0.1,0.1,0.2,0.2c-0.1,0.1-0.1,0.1-0.2,0.2c-0.9,1-0.5,2.3,0.4,2.9c-0.2,0.3-0.5,0.6-0.7,0.8c-1.1,1.3,0,3.1,1.3,3.3
		c-0.2,1.1,0.6,2.2,1.6,2.3c-0.8,1.8,1.2,3.6,2.9,2.2c-0.1,0.7,0.2,1.5,0.7,1.9c-3.1,0.3-3.1,5.2,0.1,5.1c6.2-0.1,11.2,3.3,16.7,5.6
		c3.4,1.4,6.8,2.2,10.3,2.6c-0.1-0.1-0.1-0.2-0.1-0.3C598,364.9,597.2,341.8,596.8,318.6z M570,371.7c-0.5-8.5-0.6-17-0.4-25.5
		c0-0.8,1.3-0.8,1.2,0c-0.2,8.5-0.1,17,0.4,25.5C571.3,372.5,570,372.5,570,371.7z M584.8,349.7c-0.3,0.5-0.7,1-1,1.4
		c-0.1-0.1-0.1-0.1-0.2-0.2C584,350.6,584.4,350.2,584.8,349.7z M576,373.7L576,373.7c-0.3,0.2-0.5,0.4-0.7,0.5c0,0,0,0.1,0.1,0.1
		c-0.1,0.1-0.2,0.2-0.4,0.3c-0.2,0.2-0.4,0.4-0.4,0.6c-0.1,0-0.3,0-0.4,0c0.1-0.1,0.2-0.1,0.2-0.2c0.6-0.5,1.1-1,1.7-1.5
		C576.1,373.6,576,373.6,576,373.7z M579.9,376.4c-0.2-0.1-0.4-0.1-0.6-0.2c0.3-0.2,0.6-0.4,0.9-0.6
		C580.1,375.9,580,376.1,579.9,376.4z M583.3,374c-0.1,0.1-0.2,0.2-0.4,0.3c-0.2,0.1-0.3,0.3-0.4,0.5c-0.1,0-0.1,0-0.2-0.1
		c-0.2-0.1-0.4-0.1-0.6-0.1c1.2-0.8,2.4-1.6,3.6-2.3C584.6,372.8,583.9,373.4,583.3,374C583.2,373.9,583.2,374,583.3,374z
		 M586.7,376c0.4-0.3,0.7-0.5,1.1-0.8c0,0.4,0,0.7,0.1,1.1C587.5,376.2,587.1,376.1,586.7,376z M595.1,341.4
		c0.2,0.1,0.4,0.2,0.5,0.2c-0.8,0.8-1.6,1.6-2.4,2.4C593.8,343.2,594.5,342.3,595.1,341.4z M594.4,360.8c-0.2,0.2-0.2,0.5-0.2,0.8
		c-0.1-0.2-0.2-0.4-0.3-0.6c0.1-0.1,0.2-0.2,0.3-0.3c-0.1-0.1-0.2-0.2-0.3-0.3l0.1-0.1c0.3-0.4,0.5-0.8,0.5-1.3c0,0,0.1,0,0.1-0.1
		c0.4-0.1,0.7-0.1,1.1-0.2C595.2,359.4,594.8,360.1,594.4,360.8z"/>
	<path class="st7" d="M702.8,282.1C702.8,282.1,702.8,282,702.8,282.1c0-0.3,0-0.5,0-0.7c0-0.8-1.2-0.8-1.2,0c0,0.1,0,0.3,0,0.4v0.1
		c-1.6,39.5-3.7,78.9-6.3,118.4v0.1c-1.2,19-2.6,38-4,56.9c-0.1,0.8,1.2,0.8,1.2,0c1.5-19.7,2.9-39.4,4.2-59.1c0-0.3,0-0.7,0.1-1
		c2-30.7,3.7-61.5,5.1-92.2c0-0.1,0-0.3,0-0.4C702.1,297.1,702.5,289.6,702.8,282.1z"/>
	<path class="st7" d="M682.6,266c-0.1,1.4-0.1,2.9-0.2,4.3c0,0.7-0.1,1.4-0.1,2.1c-2.3,58.4-6.4,116.6-12.1,174.7
		c-0.1,0.8,1.2,0.8,1.2,0c5.9-60.2,10-120.6,12.4-181.1C683.9,265.2,682.6,265.2,682.6,266z"/>
	<path class="st7" d="M659.6,270.7c-0.9,16.2-1.8,32.5-2.7,48.7c-0.9,16.3-1.2,32.7-3.6,48.9c-3.1,21.5-4.3,43.1-5.4,64.7
		c0,0.8,1.2,0.8,1.2,0c1.2-22.5,2.6-44.8,5.8-67.1c2.2-15,2.4-30.4,3.2-45.6c0.9-16.6,1.8-33.1,2.7-49.7
		C660.9,269.9,659.7,269.9,659.6,270.7z"/>
	<path class="st7" d="M630.1,286.5c-0.9,13.6-1.6,27.2-2.3,40.8v0.1c-1,20.3-1.9,40.6-3.3,60.8c-0.1,0.8,1.2,0.8,1.2,0
		c2.3-33.9,3.3-67.9,5.6-101.7C631.4,285.7,630.1,285.7,630.1,286.5z"/>
	<path class="st7" d="M725,275.1c0,2.9-0.1,5.9-0.1,8.8c0,0.1,0,0.3,0,0.4c-0.9,60.5-3.8,121-8.9,181.3c-0.1,0.8,1.2,0.8,1.2,0
		c5.2-63.4,8.2-127,9-190.6C726.3,274.3,725,274.3,725,275.1z"/>
	<path class="st7" d="M748.7,278.2L748.7,278.2c-0.3,21.8,0,43.7,1,65.5c0,0.8,1.3,0.8,1.2,0c-1-23.3-1.3-46.6-0.9-70
		c0-0.1,0-0.2,0-0.3c0-0.7-1-0.8-1.2-0.1v0.1C748.8,275,748.8,276.6,748.7,278.2z"/>
	<path class="st7" d="M773.3,296.3c0-0.8-1.2-0.8-1.2,0c0,3.1,0.1,6.1,0.1,9.2c0,0.1,0,0.3,0,0.4c0.2,20.7,0.4,41.4,0.6,62
		c0,0.8,0,1.6,0,2.4c0.1,15,0.3,30,0.5,44.9v0.1c0,3.8,0.1,7.5,0.1,11.3c0,0.8,1.3,0.8,1.2,0c-0.4-39.5-0.7-79-1.2-118.5
		c0-0.2,0-0.3,0-0.5C773.4,303.8,773.3,300.1,773.3,296.3z"/>
	<path class="st7" d="M741.9,369.9c0.6,14.2-0.3,28.3-0.8,42.5c0,0.8,1.2,0.8,1.2,0c0.4-14.1,1.4-28.3,0.8-42.5
		C743.1,369.1,741.9,369.1,741.9,369.9z"/>
	<path class="st7" d="M796.1,434c-0.7-32.7,0.7-65.5,0-98.3c0-0.8-1.2-0.8-1.2,0c0.7,32.7-0.7,65.5,0,98.3c0,0.3,0.2,0.5,0.4,0.6
		c0.1,0,0.2,0,0.3,0C795.9,434.6,796.1,434.4,796.1,434z"/>
	<path class="st7" d="M745.8,488.8c-0.1,1.1-0.1,2.2-0.1,3.2c-0.2-0.6-1.2-0.6-1.2,0.2c0.2,11,0.4,22.1,0.5,33.1
		c0,0.8,1.3,0.8,1.2,0c0-0.3,0-0.6,0-0.9c0.3-0.1,0.5-0.2,0.4-0.6c-0.3-11.7-0.2-23.4,0.4-35C747,488,745.8,488,745.8,488.8z"/>
	<path class="st7" d="M598,318.6c0-0.5-0.4-0.7-0.7-0.6c-0.2,0-0.4,0.2-0.4,0.4c0,0,0,0.1,0,0.2c0.4,23.2,1.2,46.3,2.2,69.5
		c0,0.1,0,0.2,0.1,0.3c0.2,0.3,0.7,0.4,1,0.1c0.1-0.1,0.2-0.2,0.1-0.4C599.1,365,598.4,341.8,598,318.6z"/>
	<path class="st7" d="M570.8,346.2c0.1-0.8-1.2-0.8-1.2,0c-0.2,8.5-0.1,17,0.4,25.5c0,0.8,1.3,0.8,1.2,0
		C570.7,363.2,570.6,354.7,570.8,346.2z"/>
	<path class="st7" d="M747.5,488.8c0.1,12.1,0.4,24.3,0.7,36.4c0,0.8,1.3,0.8,1.2,0c-0.4-12.1-0.6-24.3-0.7-36.4
		C748.7,488,747.5,488,747.5,488.8z"/>
	<path class="st8" d="M686.7,480.1c2.2-0.4,4.1-1.1,6-2.1c4.6-2.4,2.2-9.1-2.5-9.3c-2.8-0.1-5.4,0.1-8.1,0.5
		c-5.5,0.8-4.3,10.3,1.3,9.8c6.2-0.6,12.3,0.8,18.4,1c4.2,0.1,6.7-5.6,3.5-8.5c-1.9-1.7-3.9-3.2-6.2-4.3c-0.8,3.1-1.7,6.2-2.5,9.3
		c1.7,0.2,3.3,1,4.8,1.6c4.6,1.9,8.5-5.2,4.9-8.4c-7-6-16-14.1-25.6-14.5c-6.4-0.3-6.4,9.7,0,10c3.4,0.2,6.7,2.8,9.4,4.6
		c3.2,2.1,6.2,4.4,9.1,6.9c1.6-2.8,3.2-5.6,4.9-8.4c-2.5-1.1-4.8-1.6-7.5-2c-4.9-0.7-6.8,7.2-2.5,9.3c1.5,0.8,2.9,1.6,4.1,2.7
		c1.2-2.8,2.4-5.7,3.5-8.5c-6.2-0.2-12.2-1.6-18.4-1c0.4,3.3,0.9,6.5,1.3,9.8c1.8-0.3,3.6-0.2,5.4-0.2c-0.8-3.1-1.7-6.2-2.5-9.3
		c-1.2,0.6-2.3,0.9-3.6,1.1C677.7,471.6,680.4,481.2,686.7,480.1z"/>
	<path class="st8" d="M588.6,513.7c-10.2,5.4-22.6,3.2-33,8.3c-5.8,2.8-0.7,11.4,5,8.6c10.4-5,22.6-2.7,33-8.3
		C599.4,519.3,594.3,510.7,588.6,513.7z"/>
	<path class="st8" d="M437.9,422.4c9.1,21.3,19.6,41.8,34.8,59.6c12.3,14.4,27.3,26,44.9,33.2c0.9,0.4,1.7,0.4,2.4,0.3
		c0.3,0.2,0.6,0.4,0.9,0.6c1,0.3,2.1,0.6,3.1,0.9v-0.1c1,0.2,1.8-0.1,2.4-0.8c0.4,0,0.7-0.1,1.1-0.2c0.8-0.3,1.4-0.5,2-0.9
		c0,0.1,0.1,0.2,0.1,0.3c0.7-0.4,1.4-0.9,2.1-1.3c-0.1,0-0.1,0-0.2,0c-3.8-0.9-7.1-2.9-9.5-5.9c-0.5-0.6,0.3-1.5,0.9-0.8
		c2.3,2.8,5.3,4.7,8.9,5.5c0.5,0.1,0.5,0.5,0.4,0.9c2.4-1.5,4.8-3,7.1-4.5c1.1-0.7,1.7-1.6,2-2.6c1.5-0.3,2.7-1.4,3.1-3.5
		c0.3-1.6,0.5-3.2,0.7-4.7c-0.4,0.1-0.8-0.1-0.7-0.6c1.8-35.9-9.5-70.6-25.3-102.4c-15.7-31.5-35.1-61.1-53.4-91.1
		c-0.4-0.7,0.7-1.3,1.1-0.6c18.9,31,39.1,61.7,55,94.4c14.9,30.9,25.4,64.7,23.8,99.4c0.8,0.9,1.7,1.9,2.6,2.7c1,1,2.2,1.5,3.2,1.5
		c1,1.2,2,2.3,3,3.5c1.8,2.1,4.5,1.8,6.4,0.4c0.3,0.1,0.6,0.1,0.9,0.1c0.2,0,0.5,0,0.7,0c0,0,0,0,0.1,0c12.1-0.3,24.2-3.3,36.1-5.9
		c24.9-3,49.6-7,74.2-12.1c0.4-0.1,0.8-0.1,1.2-0.2c0,0,0,0,0-0.1c0.1,0,0.1,0,0.2,0c4.5-0.9,4.4-5.7,1.9-8.2c2.5-0.5,5-1,7.5-1.4
		c3.1-0.6,4.1-3.7,3.3-6.3c3.4,0.8,6.8,1.5,10.3,1.9c5,0.6,6.7-7.1,2.5-9.3c-1.8-1-3.6-1.9-5.4-2.8c-0.4-0.7-1-1.4-1.9-1.8
		c-0.3-0.2-0.7-0.3-1-0.5c0-0.1,0.1-0.1,0.1-0.2c-0.6-0.2-1.2-0.5-1.8-0.7c-15.9-8.2-31.6-16.6-45.8-27.6c-1.3-1-2.8-1-4.1-0.5
		c-1.2-0.6-2.8-0.7-4.5,0v-0.1c-0.1,0.1-0.2,0.2-0.3,0.2c-2,0.9-4,1.7-6,2.6c-1.5,0.6-2.2,1.9-2.4,3.4
		c-30-33.1-55.3-70.2-84.7-103.8c-4.9-5.6-9.9-11.1-15.1-16.5c-18.2-24.7-38.8-48.6-65.8-62.6c-13.6-7.1-31.2-9.7-44.2-2.4
		c-0.5,0.1-1,0.3-1.5,0.6c-13.1,8-20,22.6-19.3,37.2c-1.2,5.6-1.3,11.3-0.2,17.2c0.1,0.3,0.1,0.5,0.2,0.8c0.2,6.6,1.4,13.2,3.2,19.5
		c3.3,19.4,10.9,38.1,19.8,56.1C424.3,396.1,430.7,409.5,437.9,422.4z M539.3,501.6c0.5,1.2,1,2.5,1.5,3.8c0.3,0.7-0.9,1-1.2,0.3
		c-0.5-1.2-1-2.5-1.5-3.8C537.8,501.2,539,500.9,539.3,501.6z M532.7,505.4c1.1,1.5,2.2,3,3.3,4.5c0.5,0.6-0.6,1.2-1.1,0.6
		c-1.1-1.5-2.2-3-3.3-4.5C531.2,505.4,532.2,504.8,532.7,505.4z M519.3,459.6c0.1,0.5,0.1,1,0.1,1.5c-0.3-0.3-0.6-0.6-0.8-0.9
		C518.9,460,519.1,459.8,519.3,459.6z M509.6,499.7c1,0.8,2.1,1.6,3.1,2.4c-1.2-0.6-2.5-1.3-3.7-2
		C509.2,500,509.4,499.8,509.6,499.7z M482.6,360.4c-0.1-0.1-0.2-0.1-0.2-0.2c-0.2-0.4-0.4-0.8-0.5-1.2
		C482.1,359.4,482.4,359.9,482.6,360.4z M467.2,456.6c2.9,4.7,5.9,9.3,8.9,13.9c-3.5-4.5-6.8-9.2-9.8-14
		C466.6,456.6,466.9,456.6,467.2,456.6z M664.6,465.7C664.6,465.7,664.6,465.6,664.6,465.7C664.7,465.6,664.7,465.6,664.6,465.7
		C664.7,465.7,664.6,465.7,664.6,465.7z M665.2,463.8c0-0.2,0-0.4,0-0.5c0.1,0,0.2,0.1,0.3,0.2C665.4,463.6,665.3,463.7,665.2,463.8
		z M658.7,466.7c2.7-3,3.4-7.6,7.1-9.6c3.6-1.8,8.4-0.7,11.1-4.1c0.5-0.6,1.4,0.3,0.9,0.9c-2.3,2.8-5.7,2.7-9,3.5
		c-5.4,1.4-5.8,6.6-9.2,10.2C659,468.2,658.2,467.3,658.7,466.7z M626.3,437c2.4,3,4.8,6.1,7.2,9.1c0.5,0.6-0.4,1.5-0.9,0.9
		c-2.4-3-4.8-6.1-7.2-9.1C624.9,437.3,625.7,436.4,626.3,437z M586.9,474.8c0.1,0,0.2,0,0.3,0.1C587.1,474.9,587,474.9,586.9,474.8
		C586.9,474.9,586.9,474.8,586.9,474.8z M553.5,449.3c0.1,0.2,0.3,0.3,0.4,0.5c-0.5,0.4-0.8,0.8-1.1,1.4c-0.4-0.1-0.8-0.2-1.2-0.2
		C552.4,450.6,553,450,553.5,449.3z M548.7,451.6c-0.1,0.1-0.1,0.2-0.2,0.2c-0.3,0.1-0.6,0.3-0.8,0.4c-0.2-0.4-0.4-0.7-0.5-1.1
		C547.7,451.4,548.2,451.5,548.7,451.6z M512.2,327.5c-0.1,0.1-0.2,0.3-0.3,0.4c-0.5-0.8-1.1-1.5-1.6-2.3
		C510.9,326.2,511.6,326.9,512.2,327.5z M458.7,442.1c0.3,0.6,0.7,1.2,1,1.8c0,0.6,0.1,1.3,0.2,1.9c-0.6-1-1.1-2.1-1.7-3.1
		C458.4,442.5,458.6,442.3,458.7,442.1z M454.7,359.4c-0.4,0-0.7,0.1-1.1,0.2c-0.4-1.2-0.8-2.3-1.3-3.5
		C453.2,357.3,454,358.3,454.7,359.4z M446.5,417.5c-0.3-0.7-0.6-1.4-0.9-2.1c0.3-0.2,0.6-0.5,0.8-0.8c0.9,2.7,2,5.5,3.1,8.2
		C448.5,421,447.5,419.3,446.5,417.5z M447.6,267.5c0,0.1-0.1,0.2-0.1,0.3c-0.3-0.2-0.6-0.5-0.9-0.7
		C446.9,267.2,447.2,267.4,447.6,267.5z M446.8,285.9c-0.6-0.3-1.2-0.5-1.8-0.5c-0.2-0.6-0.4-1.1-0.6-1.7
		C445.2,284.4,446,285.1,446.8,285.9z M431.8,304.9L431.8,304.9C431.7,304.9,431.7,304.9,431.8,304.9
		C431.7,304.9,431.8,304.9,431.8,304.9z M428.5,285.7c0.3-0.6,0.5-1.2,0.8-1.8c0.2,0.1,0.4,0.1,0.6,0.2c-1.4,4.1-2.5,8.2-3.5,12.4
		c-0.5-0.2-1.1-0.4-1.6-0.4C426,292.7,427.2,289.2,428.5,285.7z M414.4,340.1L414.4,340.1c0.1,0.1,0.1,0.2,0.1,0.3
		C414.4,340.3,414.4,340.2,414.4,340.1z"/>
	<path class="st8" d="M749.7,520.8c-0.2-1.9-1.2-3.9-2.6-5.8c-0.3-1.4-1.1-2.7-2.3-3.5c-0.7-0.5-1.4-1-2.1-1.4
		c-0.1-0.1-0.3-0.3-0.4-0.4c-3.6-3.5-7.9-6-12.5-7.8c-0.1,0-0.3-0.1-0.4-0.1c-0.4-0.2-0.7-0.5-1.1-0.7c-1.4-0.8-2.9-0.9-4.2-0.4
		c-0.4,0-0.7-0.1-1.1,0c-52,4.1-103.8,11.2-154.9,21.5c-6.4,0.4-12.7,1.5-18.8,3.1c-0.9-1.9-2.9-3.1-5.6-2.5
		c-18.1,4.3-34.8,11.7-51.1,20.2c-28,12.1-55.4,25.8-81.9,40.9c-3,1.7-3,4.8-1.5,6.9c0.6,2,2.1,3.5,4.4,3.4
		c-0.2,0.7-0.1,1.5,0.1,2.4c0.9,2.5,1.7,5,2.6,7.5c-0.3,1.8,0.4,3.8,1.8,5c6.7,19,13.3,38.1,20,57.1c0.1,1.3,0.3,2.6,0.5,3.9
		c0.2,1.7,1.1,3,2.2,3.8c5,14.3,10,28.5,15,42.8c0.8,2.4,3,3.5,5,3.5c3.7,19.1,9.8,37.7,16,56.2c7.8,23.1,15.6,46.1,23.5,69.2
		c0.4,1.3,1.2,2.2,2.1,2.7c-0.6,2-0.1,4.2,2.2,5.6c21.9,13.1,46.8,20.6,72.3,21.6c2.7,0.1,6.2-0.6,8.8,0c1.1,0.2,1.3,0.2,1.3,0.3
		c0.1,0.5,0.3,1,0.8,1.4c0.6,0.9,0.8,2,1.6,2.8c1,1.1,2.1,1.9,3.4,2.6c2.5,3,5.4,4.2,8.3,4c0.7,0.2,1.4,0.1,2-0.3
		c8.5-1.9,17.3-13.3,21.1-19.3c3.1-5,9.3-13.5,4.7-19c-0.3-0.4-0.7-0.8-1.1-1.2c-0.3-1.1-0.9-2.1-2-2.9c-0.9-0.7-1.8-1.4-2.7-2.1
		c-2.6-2.5-5.4-5-8.2-7.3c-1.1-1.2-2.3-2.4-3.4-3.6c-0.9-1-1.8-1.5-2.7-1.6c-0.1-0.4-0.3-0.8-0.4-1.2c-2.6-7.3-4.5-14.7-7.6-21.8
		c-6.9-16.2-17-30.2-28.4-43.5c-14.9-17.3-29.9-34.7-45.1-51.8c-0.1-0.1-0.1-0.3-0.2-0.4c-3.5-6.3-8.5-11.3-14.1-15.5
		c-5-5.5-9.9-10.9-15-16.3c-3.1-3.3-6.2-6.5-9.4-9.7c-0.2,0.3-0.6,0.4-0.9,0.1c-3.1-3.4-6.4-6.8-9.7-10.1c-0.1,0-0.2,0.1-0.3,0.1
		c-0.1-0.1-0.3-0.2-0.4-0.3c0.2,0,0.4,0,0.6,0.1c-6.3-6.3-12.9-12.4-19.6-18.2c-0.6-0.5,0.3-1.4,0.9-0.9
		c9.7,8.4,18.9,17.3,27.7,26.6c16.9-6.3,33.2-13.9,49.5-21.4c17.2-7.9,34.3-16,51.2-24.4c2.9-1.4,5.8-2.9,8.6-4.4
		c35.6-15.4,70.4-32.5,103.6-52.9c9.2-5.7,18.3-11.6,27.1-17.8c6.9-4.9,13.9-10.1,18.4-17.3C747.7,526.1,750,523.6,749.7,520.8z
		 M448.7,663.9c0-1.2,0-2.3,0-3.5c0.1,0,0.1,0,0.2-0.1c0.6,3.1,1.2,6.2,1.8,9.2C450,667.7,449.3,665.8,448.7,663.9z M607.9,833.3
		c3.7,2.9,7.1,6.1,10.1,9.8c1.4,1.7,2.7,3.6,3.9,5.5c1.2,2,2.5,6.2,5.2,6.7c0.8,0.1,0.5,1.3-0.3,1.2c-3.4-0.6-4.6-5.3-6.3-7.9
		c-3.5-5.6-8-10.3-13.2-14.3C606.7,833.8,607.3,832.8,607.9,833.3z M603.5,840.5c6.8,7.2,13.7,14.5,20.5,21.7
		c0.5,0.6-0.3,1.5-0.9,0.9c-6.8-7.2-13.7-14.5-20.5-21.7C602.1,840.8,603,839.9,603.5,840.5z M601.6,852.7L601.6,852.7
		C601.5,852.7,601.5,852.7,601.6,852.7z M597.7,849.5c6.8,6.7,14.1,12.7,21.9,18.2c0.7,0.5,0.1,1.6-0.6,1.1
		c-7.9-5.5-15.2-11.7-22.1-18.4C596.3,849.8,597.2,849,597.7,849.5z M593.3,857.9c6.9,6.2,13.8,12.6,20.5,19.1
		c0.6,0.6-0.3,1.5-0.9,0.9c-6.7-6.5-13.5-12.9-20.5-19.1C591.8,858.3,592.6,857.4,593.3,857.9z M590.5,865.5c0.2,0,0.4,0,0.7,0
		c0.1,0.3,0.2,0.5,0.3,0.8c-0.4-0.2-0.7-0.3-1.1-0.4c-0.3-0.1-0.6-0.1-0.9-0.2C589.8,865.6,590.2,865.6,590.5,865.5z M588.7,870.9
		c4.7,5.1,10.4,9,17,11.3c0.8,0.3,0.5,1.5-0.3,1.2c-6.7-2.4-12.7-6.3-17.5-11.6C587.4,871.2,588.2,870.3,588.7,870.9z M581.8,855.1
		C581.8,855.2,581.8,855.2,581.8,855.1C581.7,855.2,581.7,855.2,581.8,855.1z M574.2,854.5L574.2,854.5c0,0.1-0.1,0.1-0.2,0.1
		C574.1,854.5,574.1,854.5,574.2,854.5z M571.8,781.8c-0.1,0.1-0.1,0.1-0.2,0.2l-0.1-0.1C571.6,781.8,571.7,781.8,571.8,781.8z
		 M555.4,862.8c0.4,0.1,0.8,0.2,1.2,0.3C556.2,863.1,555.8,863,555.4,862.8C555.4,862.9,555.4,862.9,555.4,862.8z M537.6,845.2
		c-0.1,0-0.3-0.1-0.4-0.1C537.3,845.1,537.5,845.1,537.6,845.2z M534.9,800c0.1,0.2,0.2,0.3,0.4,0.5c0,0.3-0.1,0.6-0.1,0.8
		c-0.2-0.3-0.4-0.6-0.6-0.9C534.7,800.3,534.8,800.2,534.9,800z M523.6,841.9c-0.1,0-0.2,0-0.2-0.1c-0.1-0.3-0.1-0.5-0.2-0.8
		C523.3,841.3,523.5,841.6,523.6,841.9z M519.6,803.3c0.3,0.6,0.6,1.1,1,1.7c-0.4,0.1-0.9,0.3-1.2,0.5c-0.2-0.5-0.3-0.9-0.5-1.4
		C519.1,803.8,519.4,803.6,519.6,803.3z M514.3,788.1c-0.2,0.3-0.4,0.6-0.5,1c-0.4-1.2-0.8-2.4-1.2-3.7
		C513.2,786.3,513.7,787.2,514.3,788.1z M510.3,735.1c0.2,0.2,0.5,0.5,0.7,0.7C510.8,735.6,510.5,735.4,510.3,735.1L510.3,735.1z
		 M502.7,700c-0.2,0-0.4,0-0.6,0c-0.3-0.3-0.6-0.6-0.9-0.9C501.7,699.3,502.2,699.6,502.7,700z M483.2,763.1c1.5,4.9,3,9.9,4.6,14.8
		c-0.5-1.4-1-2.9-1.5-4.3c-1.4-4.1-2.7-8.2-4.1-12.2C482.6,761.9,482.9,762.5,483.2,763.1z M480.8,675.4c-2.3-1.7-4.4-3.4-6.3-5.4
		c-0.3-0.4-0.6-0.8-1-1.2C476,670.9,478.5,673.1,480.8,675.4z M466.2,662.7C466.3,662.7,466.3,662.8,466.2,662.7z M483.3,652.2
		C483.3,652.2,483.3,652.3,483.3,652.2c-0.1,0.1-0.1,0-0.2,0C483.3,652.2,483.3,652.2,483.3,652.2z M478.1,568.9
		c-0.1,0-0.2,0.1-0.3,0.1c0.2-0.1,0.3-0.2,0.5-0.3C478.3,568.8,478.2,568.9,478.1,568.9z M481.3,657.7c0.8-0.6,1.5-1.5,1.8-2.4
		c0.1,0.5,0.3,1,0.5,1.5C482.9,657.1,482.1,657.4,481.3,657.7z M506.3,557.7c-2.7,1.1-5.4,2.2-8.1,3.3c0-0.2,0-0.4,0-0.6
		c2.7-1,5.4-2,8.2-2.9C506.3,557.5,506.3,557.6,506.3,557.7z M529,609.6c1.6-1.1,3.1-2.1,4.7-3.2c1.9-0.8,3.9-1.5,5.8-2.3
		C536,605.9,532.5,607.8,529,609.6z M581.3,533.3c0-0.1,0-0.2,0-0.3c0.9,0,1.7-0.1,2.6-0.1C583,533,582.2,533.2,581.3,533.3z
		 M592.5,532.8c-1-0.1-1.9-0.1-2.9-0.2c1.1-0.1,2.3-0.1,3.4-0.2C592.8,532.5,592.7,532.7,592.5,532.8z M608,541.6
		c0.9-0.4,1.7-0.8,2.6-1.1c0.6-0.1,1.3-0.1,1.9-0.2C611,540.8,609.5,541.2,608,541.6z M614.7,594.7c0.6-0.4,1.3-0.7,1.9-1.1l0.1,0.1
		C616.1,594,615.4,594.3,614.7,594.7z M679.3,528.2c-0.1-0.4-0.2-0.7-0.4-1.1c1.6-0.3,3.2-0.6,4.9-0.9
		C682.3,526.9,680.8,527.5,679.3,528.2z M712.6,514.6c-0.4,0-0.8,0-1.2,0c1.1-0.3,2.1-0.6,3.2-0.9
		C713.9,514,713.2,514.3,712.6,514.6z"/>
	<path class="st9" d="M521.8,398.1c-15.9-32.7-36.1-63.4-55-94.4c-0.4-0.7-1.5-0.1-1.1,0.6c18.3,30,37.7,59.6,53.4,91.1
		c15.8,31.8,27.1,66.5,25.3,102.4c-0.1,0.5,0.4,0.7,0.7,0.6c0.2-0.1,0.5-0.2,0.5-0.6c0-0.1,0-0.2,0-0.3
		C547.2,462.8,536.7,429,521.8,398.1z"/>
	<path class="st9" d="M632.6,447c0.5,0.6,1.4-0.3,0.9-0.9c-2.4-3-4.8-6.1-7.2-9.1c-0.6-0.6-1.4,0.3-0.9,0.9
		C627.8,440.9,630.2,444,632.6,447z"/>
	<path class="st9" d="M659.6,467.6c3.4-3.6,3.8-8.8,9.2-10.2c3.3-0.8,6.7-0.7,9-3.5c0.5-0.6-0.4-1.5-0.9-0.9
		c-2.7,3.4-7.5,2.3-11.1,4.1c-3.7,2-4.4,6.6-7.1,9.6C658.2,467.3,659,468.2,659.6,467.6z"/>
	<path class="st9" d="M459.2,639.8c-0.6-0.5-1.5,0.4-0.9,0.9c6.7,5.8,13.3,11.9,19.6,18.2l0.1,0.1c3.3,3.3,6.5,6.6,9.7,10.1
		c0.3,0.3,0.7,0.2,0.9-0.1c0.2-0.2,0.2-0.6,0-0.8c-0.6-0.6-1.1-1.2-1.7-1.8C478.1,657.1,468.9,648.2,459.2,639.8z"/>
	<path class="st9" d="M620.5,848.6c1.7,2.6,2.9,7.3,6.3,7.9c0.8,0.1,1.1-1.1,0.3-1.2c-2.7-0.5-4-4.7-5.2-6.7
		c-1.2-1.9-2.5-3.8-3.9-5.5c-3-3.7-6.4-6.9-10.1-9.8c-0.6-0.5-1.2,0.5-0.6,1C612.5,838.3,617,843,620.5,848.6z"/>
	<path class="st9" d="M623.1,863.1c0.6,0.6,1.4-0.3,0.9-0.9c-6.8-7.2-13.7-14.5-20.5-21.7c-0.5-0.6-1.4,0.3-0.9,0.9
		C609.4,848.6,616.3,855.9,623.1,863.1z"/>
	<path class="st9" d="M619,868.8c0.7,0.5,1.3-0.6,0.6-1.1c-7.8-5.5-15.1-11.5-21.9-18.2c-0.5-0.5-1.4,0.3-0.8,0.9
		C603.8,857.1,611.1,863.3,619,868.8z"/>
	<path class="st9" d="M612.9,877.9c0.6,0.6,1.5-0.3,0.9-0.9c-6.7-6.5-13.6-12.9-20.5-19.1c-0.7-0.5-1.5,0.4-0.9,0.9
		C599.4,865,606.2,871.4,612.9,877.9z"/>
	<path class="st9" d="M605.4,883.4c0.8,0.3,1.1-0.9,0.3-1.2c-6.6-2.3-12.3-6.2-17-11.3c-0.5-0.6-1.3,0.3-0.8,0.9
		C592.7,877.1,598.7,881,605.4,883.4z"/>
	<path class="st9" d="M531.8,512.8c-3.6-0.8-6.6-2.7-8.9-5.5c-0.6-0.7-1.4,0.2-0.9,0.8c2.4,3,5.7,5,9.5,5.9c0.1,0,0.1,0,0.2,0
		c0.3,0,0.5-0.1,0.5-0.3C532.3,513.3,532.3,512.9,531.8,512.8z"/>
	<path class="st9" d="M534.9,510.5c0.5,0.6,1.6,0,1.1-0.6c-1.1-1.5-2.2-3-3.3-4.5c-0.5-0.6-1.5,0-1.1,0.6
		C532.7,507.5,533.8,509,534.9,510.5z"/>
	<path class="st9" d="M539.6,505.7c0.3,0.7,1.5,0.4,1.2-0.3c-0.5-1.3-1-2.6-1.5-3.8c-0.3-0.7-1.5-0.4-1.2,0.3
		C538.6,503.2,539.1,504.5,539.6,505.7z"/>
	<path class="st10" d="M527.2,880.3c0-0.5-0.3-1-0.7-1.5c1,1-0.3-1.1,0-0.3c-0.4-1.1-0.9-2.1-1.3-3.2c-1.4-3.7-2.8-7.4-4.2-11.1
		c-4.9-13.3-9.7-26.6-14.4-39.9c-15.4-43.2-30.7-86.4-45.9-129.6c-18.3-51.8-36.4-103.7-54.6-155.6c-15.7-44.9-31.4-89.8-47-134.8
		c-7.7-22.2-15-44.6-23-66.8c-0.1-0.4-0.3-0.8-0.4-1.2c-0.1-0.8-0.5-1.3-1-1.5c-0.5-1-1.5-1.8-2.9-1.6c-0.9,0.1-0.2,0-0.6,0.1
		c-0.8,0.1-1.6,0.2-2.3,0.3c-2.5,0.3-4.9,0.6-7.4,0.9c-8.3,0.9-16.5,1.8-24.8,2.7c-25.9,2.8-51.8,5.6-77.8,8.4
		c-57.7,6.2-115.4,12.3-173.1,18.5c-13.9,1.5-27.9,2.4-41.6,4.6c-1.5-1.4-4.6-0.1-4.1,2.6c1,5.3,3,10.5,4.5,15.7
		c4,13.5,8,27,12,40.5c5,16.7,9.9,33.3,14.9,50c0,17.4,0,34.8,0,52.2c0,44.4,0,88.8,0,133.3c0,11.7,0,23.4,0,35.1
		c0,4.8,7.5,4.8,7.5,0c0-29.6,0-59.2,0-88.8c0-35.5,0-71.1,0-106.7c5.6,18.7,11.2,37.4,16.8,56.2c15.8,52.7,31.6,105.3,47.4,158
		c13.7,45.4,27.4,90.9,41.3,136.2c4.6,15,9.2,29.9,13.9,44.8c2.2,7,4,14.5,6.9,21.2c0.3,0.7,0.5,1.4,1.1,2c0.6,0.6,1.2,0.8,1.8,0.7
		c0.2,0,0.4,0,0.6,0c0.3-0.1,0.4-0.1,0.4-0.1s-0.1,0,0.3,0c0.8-0.1,1.6-0.2,2.4-0.3c2.6-0.3,5.3-0.6,7.9-0.9
		c6.5-0.7,13-1.4,19.5-2.1c0,27.9,0,55.8,0,83.6c0,44.4,0,88.8,0,133.3c0,11.7,0,23.4,0,35.1c0,4.8,7.5,4.8,7.5,0
		c0-29.6,0-59.2,0-88.8c0-44.4,0-88.8,0-133.3c0-10.2,0-20.5,0-30.7c28-3.1,56-6.1,84-9.1c33.7-3.6,67.4-7.2,101.1-10.8
		c14.8-1.6,29.5-3.1,44.3-4.7c0,27.2,0,54.5,0,81.7c0,44.4,0,88.8,0,133.3c0,11.7,0,23.4,0,35.1c0,4.8,7.5,4.8,7.5,0
		c0-29.6,0-59.2,0-88.8c0-44.4,0-88.8,0-133.3c0-9.6,0-19.2,0-28.8c11.8-1.3,23.7-2.6,35.5-3.9c14.8-1.6,29.9-2.6,44.6-5
		c0.6-0.1,1.2-0.1,1.7-0.2C527,882.8,527.5,881.5,527.2,880.3z M137,811.4c0.9,2.2,1.9,4.4,2.8,6.6c-0.2,0.3-0.4,0.6-0.6,0.9
		C138.5,816.4,137.8,813.9,137,811.4z M25,438.4c-0.9-3.2-1.9-6.4-2.8-9.6c1.2,3.4,2.4,6.7,3.6,10.1c-0.2,0.3-0.3,0.5-0.4,0.8
		C25.2,439.2,25.1,438.8,25,438.4z M132.4,679.8c-0.7-3-1.4-6.1-2.1-9.1c1.4,2.7,2.8,5.3,4.2,8C133.7,679,133,679.4,132.4,679.8z
		 M322.9,501.7L322.9,501.7c-0.1-0.7-0.2-1.4-0.3-2.1c-0.7-8.8-1.3-17.7-2-26.5c0.1,0.2,0.3,0.4,0.5,0.5
		C321.6,483,322.2,492.3,322.9,501.7z M162.4,556.7c0-0.2-0.1-0.4-0.1-0.7c0.1,0.2,0.2,0.4,0.2,0.6
		C162.5,556.7,162.5,556.7,162.4,556.7z M337.5,800.1c0.3-1.2,0.6-2.4,0.9-3.6c0,0.4,0.1,0.9,0.1,1.3
		C338.2,798.6,337.9,799.4,337.5,800.1z M303.3,762.2c0.1-0.2,0.2-0.3,0.3-0.5c0.2,1,0.3,2.1,0.5,3.1
		C303.9,763.9,303.6,763.1,303.3,762.2z M289.1,788.5c-0.9,1.4-1.8,2.7-2.7,4.1c0.1-1.3,0.2-2.7,0.2-4
		C287.5,788.6,288.3,788.6,289.1,788.5z M309.2,666.2c0.2,0.1,0.3,0.1,0.5,0.2c0,2.8,0,5.6,0.1,8.3c-0.5-3-1-6-1.4-9
		C308.6,665.9,308.9,666.1,309.2,666.2z M248.1,542.5c0,0.7-0.1,1.3-0.1,2c-0.1-0.4-0.2-0.8-0.2-1.2c-0.1-0.3-0.1-0.5-0.2-0.8
		C247.8,542.5,248,542.5,248.1,542.5z M306.4,654.1c0-0.2-0.1-0.3-0.1-0.5c0-1.4,0-2.8,0-4.3c0.3,1.8,0.6,3.5,1,5.3
		C307,654.4,306.7,654.3,306.4,654.1z M247.4,526.9c0-0.1,0.1-0.2,0.1-0.3c0,0.1,0,0.2,0,0.3C247.6,526.9,247.5,526.9,247.4,526.9z
		 M353.1,696.1c-0.9-0.2-1.7-0.3-2.6-0.5c-0.4-1.4-0.7-2.7-1.1-4.1c0.2-0.1,0.3-0.3,0.4-0.4c1,1.3,2.1,2.5,3.1,3.8
		C353,695.4,353.1,695.7,353.1,696.1z M183.7,447.7c-0.1-0.1-0.1-0.3-0.2-0.4c0.2-0.2,0.5-0.3,0.7-0.5
		C184.1,447.1,183.9,447.4,183.7,447.7z M252.2,473.1c0-0.2,0.1-0.3,0.1-0.5h0.1C252.3,472.8,252.3,473,252.2,473.1z M267.1,487.6
		C267.1,487.6,267.1,487.5,267.1,487.6c-0.1-0.1,0-0.2,0-0.3C267.1,487.4,267.1,487.5,267.1,487.6z M219.2,432.9c-1,0.8-2,1.6-3,2.4
		c0.9-1.1,1.7-2.3,2.6-3.4C218.9,432.3,219,432.6,219.2,432.9z M299.1,464.3c0.1-1.2,0.3-2.5,0.4-3.7c0.1,1.6,0.2,3.3,0.4,4.9
		C299.6,465.2,299.3,464.7,299.1,464.3z M133.7,443.7c-0.7-0.3-1.4-0.6-2.1-0.9c0-0.1,0-0.2,0-0.2c0.6,0,1.1,0,1.7,0
		C133.4,442.9,133.5,443.3,133.7,443.7z M228.6,855.2c0.1,0,0.1,0,0.2,0c-0.5,2-1,4-1.5,6c-0.5,0.5-1,1-1.6,1.5
		c-0.3-0.3-0.5-0.6-0.8-0.9C226.2,859.6,227.4,857.4,228.6,855.2z M148.4,413c-0.2-0.6-0.4-1.1-0.6-1.7c2.1,0,4.2,0.1,6.3,0.1
		C152.3,411.9,150.4,412.4,148.4,413z M251.7,387.8c-0.3-0.7-0.7-1.3-1-2c1-0.2,2.1-0.5,3.1-0.7C253,386,252.4,386.9,251.7,387.8z
		 M184.2,834.2c-0.1-0.4-0.2-0.9-0.3-1.3c0.3,0,0.5,0,0.8,0c0.3,1.9,0.6,3.8,0.9,5.8C185.1,837.2,184.7,835.7,184.2,834.2z
		 M367.1,863.9c1.9,0.3,3.9,0.7,5.8,1c-2-0.1-4-0.1-6-0.2C367.1,864.4,367.1,864.1,367.1,863.9z M40.7,488.9
		c-0.2,0.1-0.4,0.2-0.6,0.3c-0.4-1.3-0.8-2.6-1.1-3.8c0-0.2,0-0.4,0-0.5C39.6,486.2,40.1,487.5,40.7,488.9z M507.5,847.4
		c0.1-1.9,0.2-3.8,0.1-5.7c0.9,2.4,1.7,4.8,2.6,7.1C509.3,848.2,508.4,847.8,507.5,847.4z M480,765c-0.4-1.3-0.7-2.6-1.1-3.9
		c3.9,11.1,7.9,22.2,11.8,33.3C486.5,784.9,482.9,775.2,480,765z M453.6,689.8c-0.3-1.1-0.6-2.2-0.9-3.2c0.5,1.4,1,2.7,1.5,4.1
		C453.9,690.4,453.7,690.1,453.6,689.8z M437,643.3c0-0.5-0.1-1-0.1-1.5c0.3,0.8,0.6,1.6,0.9,2.4C437.5,643.9,437.3,643.6,437,643.3
		z M388.5,505c-0.4-1.8-0.9-3.6-1.3-5.3c0.7,2.1,1.4,4.1,2.2,6.2C389,505.5,388.7,505.2,388.5,505z M152.3,358.8
		c-7.1,0.4-14.2,0.7-21.3,1.1c12.5-1.3,25-2.7,37.5-4c-3.7,0.6-7.4,1.2-11.1,2C155.7,358.1,154,358.4,152.3,358.8z M77.4,605.5
		c-0.3,3-0.1,6.1,0.2,9.2c-1.1-3.6-2.2-7.2-3.3-10.8C75.4,604.6,76.4,605.1,77.4,605.5z M129.9,787.1c0.1,0.6,0.1,1.1,0.2,1.7
		c-0.3-0.9-0.6-1.9-0.9-2.8C129.5,786.4,129.7,786.8,129.9,787.1z M145,836.8c0.1,0.8,0.3,1.7,0.5,2.5c-0.3-1-0.6-1.9-0.9-2.9
		C144.7,836.5,144.9,836.6,145,836.8z M369.4,894.8c0.3,0,0.6,0,1,0c3.7-0.4,7.4-0.7,11.1-1.1c-5.9,0.6-11.8,1.3-17.7,1.9
		C365.7,895.3,367.5,895.1,369.4,894.8z M459.9,884.3c1.2,0.3,2.4,0.5,3.6,0.6c-4,0.4-7.9,0.9-11.9,1.3
		C454.4,885.7,457.2,885,459.9,884.3z M515.3,863.2c-1.1-2.1-2.2-4.2-3.2-6.2c0.2-0.3,0.4-0.7,0.6-1.1c0.4,1.1,0.8,2.2,1.2,3.2
		C514.4,860.4,514.9,861.8,515.3,863.2z M331.2,338.3c0.4,1.5,0.8,3.1,1.3,4.6c-1.7-2-4.2-3.4-6.9-3.8
		C327.4,338.9,329.3,338.6,331.2,338.3z M315.2,340.4c-25.6,4.3-51.5,6.1-77.3,8c17.5-1.9,35-3.7,52.6-5.6
		C298.7,341.9,307,341.3,315.2,340.4z M155.9,873c1.1,2.6,2.3,5.1,3.6,7.7c1.7,6.4,3.5,12.9,5.2,19.3c0.1,0.4,0.1,0.8,0.2,1.3h0.1
		c0,0.1,0.1,0.2,0.1,0.3c0.1,0.4,0.3,0.8,0.4,1.2c-0.1,0.2-0.1,0.4-0.2,0.7c-0.1-0.3-0.2-0.6-0.3-0.9
		C162,892.8,158.9,882.9,155.9,873z M169.7,916.6c-0.2-0.7-0.5-1.5-0.8-2.2c1.2,0.8,2.7,1.4,4.1,1.7
		C172,916.3,170.8,916.4,169.7,916.6z M480.1,883.1c1.2-0.4,2.5-0.9,3.7-1.4c2.1-0.1,4.2-0.1,6.4-0.2c1.9,0,3.8,0,5.7,0
		c-3.2,0.3-6.3,0.7-9.5,1C484.3,882.6,482.2,882.9,480.1,883.1z"/>
	<path class="st6" d="M357.4,425.3c-20.1-3.6-43.1-2.2-57.6,13.8c-6.3,3-4.8,11.5,0.8,13.6c2.1,0.9,4.6,1,6.6,0
		c13.3-2.4,26.5-4.8,40.1-5.7c6.2-0.4,13.4-0.8,15.1-8.1c0.3-1.5,0.3-2.9,0.1-4.2C363.5,430.8,361.8,426.1,357.4,425.3z"/>
	<path class="st6" d="M348.4,497.6c-21.3-0.5-42.8-1-64.1-1.5c-2.2-0.1-2.9,2.2-2.1,3.7c-23.9,59.2-50.6,117.1-80.3,173.6
		c-0.4,0.7-0.4,1.4-0.2,2c-0.8,1.3-0.6,3.3,1.3,3.9c19.3,6.5,38.5,13.9,58.8,16.2c1.8,0.2,2.6-1.2,2.4-2.6c0.8,0,1.6-0.3,2-1.3
		c30.7-62.8,59.3-126.6,85.6-191.3C352.7,498.1,350.2,496.8,348.4,497.6z M238.7,685c2,0.9,3.9,1.7,5.9,2.4
		c-5.2-1.3-10.4-2.8-15.6-4.5c1.5,0.3,3,0.6,4.6,1C235.3,684.3,237,684.6,238.7,685z M267.3,654.4c0.2-0.1,0.4-0.2,0.6-0.2
		C267.7,654.3,267.5,654.3,267.3,654.4z M294.2,508.6c0,0.2-0.1,0.3-0.2,0.4c0.1-0.1,0.3-0.3,0.4-0.4c-0.1,0.2-0.2,0.3-0.4,0.4
		C294.1,508.9,294.1,508.7,294.2,508.6z M286.6,502.2c0.1-0.3,0.3-0.7,0.4-1h0.1C286.9,501.5,286.7,501.8,286.6,502.2z M291.2,627.4
		c0.8-1.7,1.5-3.5,2.2-5.3c1.4-3.2,2.7-6.3,4.1-9.5c0,0,0,0-0.1,0c1.3-2.4,2.6-4.9,3.9-7.4C298,612.6,294.6,620,291.2,627.4z"/>
	<path class="st11" d="M331.5,518.7c-2.5-0.5-5-0.9-7.5-1.1c2.2-4.5,4.4-9.1,6.2-13.8c0.3-0.7-0.9-1-1.2-0.3
		c-1.7,4.6-4.1,9.3-6.3,13.9c-5.1-0.5-10.2-0.8-15.3-1c2.3-4.7,4.6-9.5,6.5-14.3c0.3-0.7-0.9-1-1.2-0.3c-1.8,4.8-4.3,9.7-6.6,14.6
		c-4.7-0.2-9.5-0.4-14.2-0.8c2.6-5.4,5.4-10.9,7.5-16.5c0.3-0.7-0.9-1-1.2-0.3c-2,5.5-5,11.2-7.6,16.6c-0.4,0-0.8-0.1-1.3-0.1
		c-0.7,0-0.7,1.3,0.1,1.3c0.2,0,0.4,0,0.6,0.1c-0.1,0.3-0.3,0.6-0.4,0.8c-2.2,4.8-4.5,9.6-6.7,14.4c-0.1,0-0.1,0-0.2,0
		c-0.6-0.1-0.7,0.7-0.3,1.1c-4.2,9-8.4,18-12.5,27c-14.7,31.7-29.4,63.3-44.1,95c-3.4,7.4-7.4,14.7-10.3,22.3
		c-0.3,0.8,0.9,1.1,1.2,0.3c1.7-4.7,4.1-9.4,6.4-14.1c4.4,0.9,8.8,1.8,13.3,2.7c-2.3,4.7-4.5,9.3-6.4,14.1c-0.3,0.8,0.9,1.1,1.2,0.3
		c1.7-4.7,4.2-9.5,6.4-14.2c4.8,1,9.6,1.9,14.4,2.9c-2,4.2-4,8.4-5.7,12.7c-0.3,0.8,0.9,1.1,1.2,0.3c1.6-4.2,3.7-8.5,5.7-12.7
		c3.5,0.7,6.9,1.4,10.4,2.1c0.8,0.2,1.1-1,0.3-1.2c-3.4-0.7-6.7-1.4-10.1-2c0.8-1.6,1.6-3.3,2.3-4.9c1.8-3.9,3.6-7.8,5.4-11.7
		c3.7,0.7,7.3,1.5,11,2.2c0.8,0.2,1.1-1,0.3-1.2c-3.6-0.7-7.1-1.4-10.7-2.2c2.7-5.9,5.4-11.7,8.2-17.6c3.4,0.7,6.9,1.4,10.3,2.1
		c0.8,0.2,1.1-1,0.3-1.2c-3.3-0.7-6.7-1.3-10-2c1.7-3.6,3.4-7.3,5-10.9c1.2-2.5,2.4-5.1,3.5-7.6c3.8,0.8,7.6,1.5,11.4,2.3
		c0.8,0.2,1.1-1,0.3-1.2c-3.7-0.7-7.4-1.5-11.1-2.2c2.7-5.8,5.4-11.5,8-17.3c3.4,0.7,6.8,1.4,10.2,2.1c0.8,0.2,1.1-1,0.3-1.2
		c-3.3-0.7-6.6-1.3-10-2c2.9-6.3,5.8-12.5,8.7-18.8c3.8,0.8,7.5,1.5,11.3,2.3c0.8,0.2,1.1-1,0.3-1.2c-3.7-0.7-7.3-1.5-11-2.2
		c2.9-6.3,5.9-12.6,8.8-19c3.6,0.5,7.1,1,10.6,1.7c0.8,0.2,1.1-1.1,0.3-1.2c-3.4-0.7-6.9-1.2-10.4-1.7c2.9-6.2,5.8-12.4,8.6-18.6
		c3,0.3,6,0.7,8.9,1.3c0.8,0.2,1.1-1.1,0.3-1.2c-2.9-0.6-5.8-1-8.7-1.3c1.2-2.6,2.5-5.3,3.7-7.9c1.1-2.5,2.3-4.9,3.5-7.3
		c2.6,0.3,5.2,0.7,7.8,1.1C332,520.1,332.3,518.8,331.5,518.7z M289,521.4c0.7-1.5,1.4-3.1,2.2-4.6c4.7,0.4,9.4,0.7,14.2,0.8
		c-0.5,1-0.9,1.9-1.4,2.9c-1.9,4.1-3.8,8.3-5.8,12.4c-4.7-0.2-9.5-0.4-14.2-0.9C285.7,528.5,287.4,525,289,521.4z M297.6,534.2
		c-2.7,5.9-5.5,11.8-8.2,17.6c-4.6-0.5-9.1-1.2-13.6-2c2.6-5.5,5.1-11,7.7-16.5C288.2,533.8,292.9,534,297.6,534.2z M275.3,550.9
		c4.5,0.9,9.1,1.5,13.6,2c-1.5,3.3-3.1,6.7-4.6,10c-1.2,2.5-2.3,5-3.5,7.6c-4.2-0.9-8.5-1.7-12.7-2.6c-0.8-0.1-1.1,1.1-0.3,1.2
		c4.1,0.8,8.3,1.7,12.5,2.5c-2.9,6.3-5.8,12.5-8.7,18.8c-4.5-0.9-8.9-1.8-13.4-2.7C263.9,575.5,269.6,563.2,275.3,550.9z
		 M257.7,588.9c4.4,0.9,8.9,1.8,13.4,2.7c-2.7,5.8-5.4,11.5-8,17.3c-4.2-0.8-8.4-1.7-12.6-2.5c-0.8-0.2-1.1,1-0.3,1.2
		c4.1,0.8,8.2,1.7,12.3,2.5c-2.9,6.2-5.7,12.3-8.6,18.5c-4.5-0.9-8.9-1.8-13.3-2.7c1.5-3.2,2.9-6.3,4.4-9.5
		C249.2,607.2,253.4,598.1,257.7,588.9z M240,627c4.4,0.9,8.9,1.8,13.3,2.7c-2.7,5.9-5.4,11.7-8.2,17.6c-4.3-0.9-8.6-1.8-13-2.6
		c-0.2,0-0.3,0-0.5,0.1C234.5,638.9,237.2,632.9,240,627z M223.6,662.4c0.6-1.2,1.1-2.3,1.6-3.5c2.1-4.5,4.2-9,6.2-13.4
		c0,0.2,0.2,0.4,0.5,0.4c4.2,0.8,8.5,1.7,12.7,2.6c-1.5,3.2-2.9,6.4-4.4,9.5c-1.1,2.4-2.2,4.7-3.4,7
		C232.4,664.1,228,663.2,223.6,662.4z M256.6,659.7c-1.3,2.8-2.7,5.7-4.1,8.5c-4.8-1-9.6-1.9-14.4-2.9c0.5-1.1,1.1-2.3,1.6-3.4
		c2-4.4,4.1-8.8,6.1-13.2c4.8,1,9.7,2,14.5,2.9C259.1,654.3,257.8,657,256.6,659.7z M260.9,650.5c-4.8-1-9.7-2-14.5-2.9
		c2.7-5.9,5.4-11.7,8.2-17.6c4.8,1,9.7,2,14.5,2.9C266.3,638.8,263.6,644.6,260.9,650.5z M269.6,631.7c-4.8-1-9.7-2-14.5-2.9
		c1.4-3.1,2.9-6.3,4.3-9.4c1.4-3,2.8-6,4.2-9.1c4.9,1,9.7,2,14.5,2.9C275.3,619.4,272.4,625.6,269.6,631.7z M278.7,612.1
		c-4.9-1-9.7-2-14.5-2.9c2.7-5.8,5.4-11.5,8-17.3c4.9,1,9.7,2,14.5,2.9C284,600.6,281.4,606.3,278.7,612.1z M287.3,593.7
		c-4.9-1-9.7-2-14.5-2.9c2.9-6.3,5.8-12.5,8.7-18.8c4.9,1,9.7,2,14.5,2.9C293.1,581.1,290.2,587.4,287.3,593.7z M300.7,564.7
		c-1.4,3-2.8,6-4.2,9c-4.9-1-9.7-2-14.5-2.9c2.7-5.9,5.5-11.8,8.2-17.7c5,0.6,10.1,1.1,15.1,1.7
		C303.7,558.1,302.2,561.4,300.7,564.7z M305.8,553.7c-5-0.6-10.1-1.2-15.1-1.7c2.7-5.9,5.5-11.8,8.2-17.7
		c5.2,0.2,10.3,0.4,15.5,0.9C311.5,541.3,308.7,547.5,305.8,553.7z M320.4,522.2c-1.8,3.9-3.6,7.8-5.4,11.7
		c-5.1-0.5-10.3-0.7-15.4-0.9c1.3-2.9,2.7-5.7,4-8.6c1-2.2,2.1-4.5,3.2-6.7c5.1,0.2,10.3,0.4,15.4,0.9
		C321.5,519.8,320.9,521,320.4,522.2z"/>
	<path class="st11" d="M120.4,278.4c-0.3,0-0.5,0.2-0.5,0.6c0.1,1.2,1.5,2.3,2.7,1.6c1-0.6,1.3-2.1,0.4-2.8
		C122.2,277.1,120.8,277.5,120.4,278.4z"/>
	<path class="st11" d="M142.7,267c-3.5,2.3-7.2,4.3-11.1,5.8c-0.8,0.3-0.4,1.5,0.3,1.2c4-1.6,7.8-3.5,11.4-5.9
		C144,267.7,143.3,266.6,142.7,267z"/>
	<path class="st6" d="M289.7,429.2c0-1.8-0.2-3.7-0.6-5.6c0-0.1,0-0.1,0-0.2v-0.1c-0.8-5.7-1.7-11.3-2.6-17
		c-2.8-24.5-8-48.4-14.1-72.5c-6.7-26.2-11.2-52.8-17.5-79.1c-2.1-8.7-4.4-17.3-6.8-25.8c-0.3-1.4-0.6-2.8-1-4.2
		c-1.2-4.9-2.2-9.9-3.7-14.7c-1.7-5.4-4.4-9.9-10.4-10.7c-3.8-0.5-7.6,0.4-11.1,2c-3.1,0.7-6.1,2.1-8.9,3.9c-2.9,1.5-5.6,3-8.1,4.5
		c-0.8,0.5-1.2,1.2-1.2,1.8c-3.1,1.9-6.2,3.9-9.3,5.8c-13,7.9-25.9,15.9-38.9,23.9c-28.6,17.7-57.3,35.5-85.8,53.4
		c-7.3,4.6-15.2,8.9-22.1,14.2c-0.2,0.2-0.4,0.3-0.5,0.5c-0.9,0.7-1.8,1.4-2.6,2.1c-2.7,1.8-5.2,3.8-7.3,6.1c-0.4,0.3-0.7,0.7-1.1,1
		c-0.3,0.3-0.5,0.6-0.6,1c-2,2.7-3.4,5.7-3.9,9.3c-0.9,6.1,0.3,12.7,1.5,19.1c0.6,12.8,3.6,26,5.3,36.3
		c5.5,34.1,11.5,68.1,18.1,102.1c6.6,33.6,13.7,67.1,21.5,100.4c1.8,7.8,3.2,16,5.7,23.6c1.6,4.8,4.9,9,10.5,8.5
		c3.4-0.3,6.5-2,9.2-4.1c0.2-0.2,0.5-0.4,0.7-0.5c0.6-0.5,1.2-1,1.8-1.5c18.6-15.8,35.8-33.3,53.4-50.2c26-25,51.8-50.1,77.6-75.2
		c4.9-4.8,9.8-9.6,14.8-14.4c9.2-7.1,18.6-14.2,27-22.2c3-2.9,5.8-6.2,7.8-9.8c1.2-0.9,2.1-2.2,2.6-3.6c0.8-0.7,0.9-1.6,0.6-2.4
		C289.9,433.1,289.9,431.1,289.7,429.2z M45,394.9c-0.1-0.7-0.2-1.3-0.3-2c0.1,0.2,0.3,0.4,0.4,0.6C45,393.9,45,394.4,45,394.9z
		 M63.3,338.8c0.1-0.9,0.2-1.8,0.2-2.6c0.2,0.2,0.4,0.5,0.5,0.7C63.8,337.6,63.6,338.2,63.3,338.8z M74.9,475.2c0.3,0,0.7,0.1,1,0.1
		c0.5,0,0.9,0,1.3-0.1c0.1,3.6,0.2,7.3,0.3,10.9C76.6,482.5,75.7,478.9,74.9,475.2z M93.8,528.2c-0.1-2.2-0.2-4.5-0.3-6.7
		c0.8,0.1,1.5,0,2.3-0.1C95.2,523.7,94.5,526,93.8,528.2z M103.5,456.4c0.1,0,0.2,0,0.2,0c-0.1,0.5-0.2,1-0.3,1.5
		C103.5,457.4,103.5,456.9,103.5,456.4z M124.5,476.4c0-0.1-0.1-0.2-0.1-0.3c0.1-0.1,0.2-0.2,0.3-0.2
		C124.6,476,124.6,476.2,124.5,476.4z M156.8,377.5c-0.2,0.4-0.4,0.9-0.6,1.3c-0.1,0-0.1,0-0.2-0.1c-0.2,0.6-0.4,1.3-0.6,1.9
		c-0.6,1.4-1.2,2.7-1.8,4.1c1.2-3.5,2.4-7.1,3.6-10.6C157,375.2,156.9,376.3,156.8,377.5z M222.6,208.6c0.5-0.6,0.5-1.3,0.3-1.9
		c1-0.4,2.1-0.8,3.2-1.1c0.8,0,1.6,0,2.4,0.2c-0.4,0.1-0.7,0.3-1.1,0.5C225.9,207,224.3,207.8,222.6,208.6z M224.2,224.4
		c0,0.1,0,0.3,0,0.4c-0.1-0.1-0.3-0.2-0.4-0.2C223.9,224.6,224.1,224.5,224.2,224.4z M239.4,221.4c0.1,0.2,0.1,0.4,0.2,0.6
		c0,0-0.1,0-0.1-0.1C239.4,221.7,239.4,221.6,239.4,221.4z M175.3,421.3c0.2,0.1,0.5,0.2,0.7,0.3c-0.6,1-1.1,2-1.7,3.1
		C174.6,423.5,175,422.4,175.3,421.3z M192.6,224.2c0.6-0.4,1.3-0.8,1.9-1.2l0.1,0.1C193.9,223.4,193.2,223.8,192.6,224.2z
		 M209.7,504.4c-3.4,4.1-7.5,7.4-12.2,10c-0.7,0.4-1.3-0.7-0.7-1.1c4.6-2.5,8.6-5.8,12-9.8C209.3,502.9,210.2,503.8,209.7,504.4z
		 M236,481.3c0-0.1,0-0.1,0-0.2c0.4-0.3,0.7-0.6,1.1-0.9C236.8,480.6,236.4,481,236,481.3z M249,432.8c0-0.1,0.1-0.2,0.1-0.2
		s0-0.1,0.1-0.1c0,0.1,0,0.1,0,0.2C249.1,432.7,249.1,432.8,249,432.8z M249.7,264.1c0,0.2,0.1,0.4,0.1,0.6h-0.1
		C249.7,264.5,249.7,264.3,249.7,264.1z"/>
	<path class="st11" d="M208.8,503.5c-3.4,4-7.4,7.3-12,9.8c-0.6,0.4,0,1.5,0.7,1.1c4.7-2.6,8.8-5.9,12.2-10
		C210.2,503.8,209.3,502.9,208.8,503.5z"/>
	<path class="st11" d="M299.9,451c1-2.3,2.3-4.2,4.1-5.9c0.6-0.5-0.3-1.4-0.9-0.9c-1.9,1.7-3.3,3.8-4.3,6.1
		C298.5,451.1,299.6,451.8,299.9,451z"/>
	<path class="st6" d="M376.3,681.5c-3.3-6.3-13.5-7.9-19.8-8.4c-2.8-0.2-5.4,1.7-6.7,4.1c-0.6,0.3-1.3,0.8-1.8,1.4
		c-7.8,7.7-15.6,16.3-21.4,25.6c-2.7,4.4-2.5,9.2,1.8,12.5c3.3,2.5,8,5.4,12.4,5.2c4.4,2.5,9.7,1.3,13.7-3.1
		c5.1-5.6,9.7-11.8,14.3-17.9C372.7,695.7,380,688.6,376.3,681.5z"/>
	<path class="st11" d="M375.3,684.7c-5.3-3.2-10.9-6.2-16.6-8.6c-4.3-1.8-4.6-0.7-7.6,2.9c-7.5,8.9-16.6,17.7-22.1,28.1
		c-0.1,0.2-0.1,0.4,0.1,0.6c-0.1,0.3,0,0.7,0.4,0.8c7.1,2.5,13.6,6.1,19.6,10.7c0.2,0.1,0.6,0.1,0.8-0.1c8.5-10.9,17-21.8,25.5-32.7
		c0.1-0.2,0.1-0.5,0-0.7C375.7,685.4,375.7,684.9,375.3,684.7z M348.3,717.1c-1.6-0.2-4.3-3-5.8-3.9c-3.9-2.3-8-4.2-12.3-5.7
		c4.6-8.6,11.9-15.8,18.2-23.3c1.5-1.8,3-4.2,4.8-5.7c0.7-1.4,1.8-2,3.4-1.9c1.7,0.7,3.3,1.4,5,2.2c4.4,2,8.6,4.4,12.7,6.8
		c-6.9,8.8-13.8,17.6-20.5,26.4C352.5,713.6,350.7,717.4,348.3,717.1z"/>
	<path class="st11" d="M332.6,712.9c-0.8,0-0.8,1.2,0,1.2C333.4,714.1,333.4,712.9,332.6,712.9z"/>
	<path class="st11" d="M337.5,715.4c-0.9-0.2-1.2,1-0.4,1.2c1,0.2,1.8,0.6,2.6,1.3c0.6,0.5,1.5-0.3,0.9-0.9
		C339.7,716.2,338.6,715.6,337.5,715.4z"/>
	<path class="st12" d="M340.1,875.1c-0.7-3.2-1.8-6.3-3.5-9.1c0,0,0,0-0.1,0c-7.6-23.1-15.6-46.1-27-67.7c-0.9-1.7-2.8-1.5-3.9-0.5
		c-45.8,6.3-91.5,12.6-137.3,18.9c-1.8-1-4.5,0.3-3.6,2.6c4.8,12,9.7,24,14.5,36c3.6,9,7.5,18,10.7,27.1c-0.1,0.1-0.1,0.2,0,0.4
		c0.2,0.8,0.5,1.6,0.7,2.4c0,0.2,0,0.5,0,0.8c0.2,1.2,0.5,2.2,0.9,3.2c0,0.2,0.1,0.4,0.1,0.6c0,0.8,0.2,1.7,0.5,2.5
		c0.1,0.5,0.2,0.9,0.3,1.4c0.1,0,0.1,0,0.2,0c0.1,0.4,0.4,0.5,0.6,0.5c0.1,0,0.2,0,0.3,0c1.1,0.9,2.5,1.4,4.3,1.1
		c44.8-8,90-14.1,135.3-18.2c0.7-0.1,1.3-0.3,1.9-0.5c0.1,0.1,0.2,0.1,0.4,0.1c1.3,0,2.6-0.1,3.9-0.1c0.5,0,0.7-0.5,0.5-0.9
		C340.1,875.5,340.2,875.3,340.1,875.1z M233.2,848.3c-0.3-0.3-0.7-0.6-1.1-0.8c0.3-0.2,0.6-0.4,0.9-0.7c0.2,0,0.4,0,0.5,0
		c1.6-0.2,3.1-0.4,4.6-0.7C236.5,846.8,234.8,847.6,233.2,848.3z M261.4,831.8c-0.2,0.1-0.5,0.1-0.7,0.2c0.3-0.2,0.7-0.4,1-0.6
		C261.6,831.5,261.5,831.6,261.4,831.8z M230.8,836.5c-0.5,0.4-1,0.7-1.5,1.1c-0.1-0.2-0.3-0.4-0.4-0.6
		C229.5,836.9,230.1,836.7,230.8,836.5z M210.2,870c0.3,0.2,0.5,0.4,0.8,0.6c-0.4,0-0.9,0-1.3-0.1C209.9,870.3,210,870.1,210.2,870z
		 M194.7,854.6L194.7,854.6c-0.1,0-0.1-0.1-0.1-0.2C194.6,854.5,194.6,854.5,194.7,854.6z M337.9,872.9c0-0.1,0-0.2,0.1-0.3
		c0,0.1,0.1,0.2,0.1,0.3C338,872.9,337.9,872.9,337.9,872.9z M308.3,807.1c0-0.1,0-0.1,0-0.2c0,0.1,0.1,0.1,0.1,0.2
		C308.4,807.1,308.4,807.1,308.3,807.1z M252,810.7c-2.9,0.3-5.8,0.5-8.7,0.7c-0.3,0-0.5,0-0.8,0c3.8-0.5,7.5-1,11.3-1.6
		C253.2,810.2,252.6,810.5,252,810.7z M171.2,822.1c-0.1-0.3-0.2-0.5-0.3-0.8c0.2,0,0.4-0.1,0.6-0.1
		C171.3,821.5,171.2,821.8,171.2,822.1z M192,873.2c0,0.2-0.1,0.3-0.1,0.5c-0.3-0.7-0.5-1.3-0.8-2
		C191.4,872.2,191.7,872.7,192,873.2z M198.4,885.1c0-0.2-0.1-0.3-0.1-0.5c0.5,0,1,0.1,1.5,0.1c0,0,0.1,0,0.1,0.1
		C199.4,885,198.9,885.1,198.4,885.1z M284.3,872.3c0.3-0.1,0.7-0.3,0.9-0.5c0,0,0,0,0.1,0c0,0.1,0,0.3,0,0.4
		C284.9,872.2,284.6,872.3,284.3,872.3C284.2,872.3,284.3,872.3,284.3,872.3z M286.8,872L286.8,872z"/>
	<path class="st13" d="M384.5,861.2c1.3-0.5,2.6-1.1,3.9-1.7c0.4-0.2,0.8,0.1,0.8,0.4c0-0.4,0-0.8-0.2-1.1
		c-8.2-13.5-16.7-26.6-25.8-39.4c0.2-0.2,0.2-0.5,0.1-0.7c-0.1-0.1-0.1-0.2-0.2-0.2c0.1-0.1,0.1-0.1,0.2-0.2c-2-2.4-4.5-4.2-7.4-5.4
		c-0.6-0.2-1.1,0.3-0.9,0.9c0.1,0.2,0.2,0.3,0.2,0.5c0,0,0,0,0.1,0c0.7,1.5,1.6,3,2.5,4.4c-0.3,0.5-0.4,1.2-0.1,1.9
		c3.1,5.9,6.5,11.6,9.9,17.3c0.7,1.3,1.4,2.5,2.2,3.8c0.1-0.2,0.2-0.4,0.4-0.5c1.9-0.5,3.5-1.3,5.1-2.4c0.6-0.4,1.3,0.6,0.6,1.1
		c-1.7,1.2-3.5,2-5.4,2.6c-0.1,0-0.1,0-0.2,0c2.1,3.5,4.2,7,6.4,10.5c0.3-0.1,0.7-0.1,0.8,0.2c0.6,1.1,1.2,2.2,1.9,3.3
		c0.3,0.4,0.7,0.9,1,1.3c0.5,0.5,0.9,1,1.2,1.6c0.3,0.4,0.8,2,1.5,2c0.6,0,0.8,0.7,0.4,1.1c0.4,0.1,0.8,0,1.2-0.2
		C384.2,862.3,383.9,861.5,384.5,861.2z M359.9,817.2L359.9,817.2z M357.1,815.2C357.1,815.3,357.1,815.3,357.1,815.2
		c-0.1,0-0.2,0-0.2-0.1C357,815.2,357.1,815.2,357.1,815.2z"/>
	<path class="st13" d="M389.1,862.2c-0.2-0.3-0.4-0.6-0.5-0.9c0.3-0.2,0.5-0.5,0.6-0.9c0,0.1-0.1,0.1-0.1,0.2
		c-0.9,0.6-1.9,1.2-2.9,1.6c-0.2,0.1-0.4,0-0.5-0.1c-0.2,0.1-0.3,0.1-0.5,0.2c-0.1,0.1-0.3,0.1-0.4,0.1c0.4,0.6,0.7,1.2,1.1,1.7
		c0.5,0.8,1.7,1.2,2.6,0.7C389.2,864.3,389.6,863.1,389.1,862.2z"/>
	<path class="st14" d="M385.1,862.3c0.2-0.1,0.3-0.1,0.5-0.2c0.1,0.1,0.3,0.2,0.5,0.1c1-0.4,2-1,2.9-1.6c0.1-0.1,0.1-0.1,0.1-0.2
		c0.1-0.2,0.1-0.4,0.1-0.5c-0.1-0.3-0.4-0.6-0.8-0.4c-1.3,0.6-2.6,1.2-3.9,1.7c-0.6,0.3-0.3,1.1,0.2,1.2
		C384.8,862.4,385,862.4,385.1,862.3z"/>
	<path class="st14" d="M383.1,861.4c-0.7,0-1.2-1.6-1.5-2c-0.3-0.6-0.7-1.1-1.2-1.6c-0.3-0.4-0.7-0.9-1-1.3
		c-0.6-1.1-1.2-2.2-1.9-3.3c-0.2-0.3-0.5-0.3-0.8-0.2c-0.2,0.1-0.4,0.4-0.3,0.7v0.1c0,0.1,0.1,0.1,0.1,0.2c0.4,1.2,1.1,2.1,1.8,3.1
		c0.9,1.5,1.7,3.1,2.6,4.6c0.1,0.2,0.4,0.3,0.6,0.3c0.4,0.5,0.9,0.8,1.5,0.8c0.2,0,0.4-0.2,0.5-0.3
		C383.9,862.1,383.7,861.4,383.1,861.4z"/>
	<path class="st14" d="M375.9,839.9c0.7-0.5,0-1.5-0.6-1.1c-1.6,1.1-3.2,1.9-5.1,2.4c-0.2,0.1-0.4,0.3-0.4,0.5
		c-0.1,0.4,0.1,0.9,0.5,0.9c0.1,0,0.1,0,0.2,0C372.4,841.9,374.2,841.1,375.9,839.9z"/>
	<path class="st15" d="M403.6,868.3c-5.2-15.8-10.5-31.5-15.7-47.3c-0.4-1.3-2.2-1-2.4,0.1c-0.3,0.2-0.5,0.5-0.5,1
		c1.8,16.8,9.9,31.6,14.9,47.5c0.4,1.1,1.9,1.1,2.3,0.2C403,869.9,403.9,869.3,403.6,868.3z"/>
	<path class="st15" d="M400.5,869.7c0.1,0.4,0.3,0.9,0.4,1.3c0.5,1.5,2.9,0.9,2.4-0.7c-0.1-0.4-0.3-0.9-0.4-1.3
		C402.5,867.5,400,868.1,400.5,869.7z"/>
	<path class="st16" d="M383.6,792c-0.3-1.7-1-3-2.4-3.7c-0.2-0.4-0.4-0.8-0.6-1.2c0-1.4-0.1-2.7-0.1-4.1c-0.1-0.9-0.7-1.3-1.6-1.2
		c-0.5,0.1-1,0.1-1.4,0.2c-0.7,0.1-1,0.9-0.9,1.5c0.1,0.4,0.1,0.9,0.2,1.3c-0.7,0-1.4,0.4-1.3,1.2c0,0.1,0,0.1,0,0.2
		c-0.4,0.2-0.6,0.7-0.6,1.1c0.1,2.4,0.2,4.8,0.4,7.3c-0.1,0.2-0.2,0.4-0.1,0.7c0.9,12.8,2.4,25.6,4.3,38.3c0.2,1,1.4,1.1,2.1,0.6
		c2.9-2.3,1.2-9.2,1.1-12.4c-0.1-6.5-0.2-13-0.3-19.5c0-0.2,0-0.5,0-0.8c0.7,0.1,1.5-0.3,1.5-1.2C383.8,797.6,384,794.8,383.6,792z
		 M379.8,804.3c-0.1-2.8-0.1-5.6-0.4-8.4c0.2,0,0.3-0.1,0.4-0.2C380.1,798.5,379.8,801.5,379.8,804.3z"/>
	<path class="st17" d="M219.9,729.3c0.2-2.6,0.5-5.1,0.8-7.6c0.9-0.6,1.6-1.5,1.9-2.9c0.1-0.4,0.2-0.9,0.3-1.3h0.1
		c0-0.3,0-0.6,0-0.9c1-4.8,2.5-9.5,4.4-13.9c1.8,0.4,3.8-0.2,5.2-2.2c0.1,0,0.2,0.1,0.2,0.1c0.3-0.5,0.5-1.1,0.8-1.6
		c2.9-4.2,5.8-8.4,8.6-12.5c0.5-0.3,1-0.6,1.4-1.1c0.3-0.3,0.5-0.6,0.8-1c0,0,0.1,0,0.1,0.1c0.2-0.3,0.3-0.5,0.5-0.8
		c4.2-5,8.9-9.6,14-13.6c1.1,0,2.3-0.4,3.3-1.5c1.8-1.9,3.6-3.4,5.8-4.7c0,0,0,0,0-0.1c5.5-3.3,0.5-11.9-5-8.6
		c-1.2,0.7-2.2,1.4-3.2,2.2c-3.4,2.2-6.6,4.6-9.6,7.2c-2-0.7-4.4-0.3-5.9,1.9c-0.1,0-0.2-0.1-0.2-0.1c-1.8,2.8-3.6,5.6-5.4,8.4
		c-1.2,1.7-2.3,3.4-3.5,5.1c-2.2-0.8-5.3-0.1-6.8,1.8c-3.1,4-5.7,8.2-7.9,12.7c-1.3,0.2-2.5,0.9-3.2,2.4c-1.3,2.9-2.2,5.9-3,8.8
		c-0.6,2.1-1.2,4.2-1.7,6.4c-1.7-0.6-3.6-0.1-5,1c-0.3-3.4-0.7-6.7-1-10.1c0.1-0.4,0.1-0.9,0-1.4c-0.4-3.5-0.8-6.9-1.2-10.4
		c0-0.2,0-0.5-0.1-0.7c-0.2-1.3-0.8-2.3-1.5-3.1c-0.2-4.1-0.6-8.2-1.4-12.2c-1.1-5.6-9.8-4.2-9.8,1.3c0,5,0.4,9.9,1.3,14.7
		c0,0.3,0,0.6,0,0.9c0,1.2,0.3,2.1,0.8,2.8c0.5,2.3,1.1,4.5,1.9,6.8c1.2,12.3,2.5,24.6,3.7,36.9c-2.8-5.2-6.3-10.1-10.3-14.7
		c-1.8-2.1-4.2-1.9-6-0.7c-7.3-8.8-15.3-17-23.8-24.7c-0.9-0.8-1.9-1.3-2.8-1.4c-5.8-6-11.9-11.8-18.4-17.2c-2.1-1.8-5.1-1.5-7,0
		c-5.7-3.8-11.8-7-18.4-9.6c-5.1-2-7.8,5-4.9,8.4c5,5.9,11.1,10,18.2,12.9c1.6,0.7,2.9,0.5,3.9-0.3c1.6,1.2,3.1,2.4,4.6,3.7
		c3.2,5,7.3,9.3,12.4,12.8c1.7,1.2,3.8,0.8,5.3-0.3c0.5,0.5,1,1.1,1.5,1.7c3.6,6.5,8.3,12.2,14.2,17c0,0,0,0.1,0.1,0.1
		c0.3,0.3,0.6,0.6,1,0.8c1.3,1,3,1.2,4.6,0.9c7.6,8.9,14.6,18.4,20.9,28.4c0.4,0.7,0.9,1.2,1.4,1.6c0.5,1.7,0.9,3.4,1.3,5.1
		c1.3,4.9,8.1,4,9.7,0c2.9,1.9,7.8,0.5,7.8-4.1c0-8.3,0-16.5,0.1-24.8C217.8,733.5,219.8,731.8,219.9,729.3z M205.8,749.4
		c0,0.6,0,1.2,0,1.9c-0.2-0.7-0.4-1.3-0.7-2C205.4,749.3,205.6,749.4,205.8,749.4z"/>
	<path class="st17" d="M278.5,691.7c-2.9,2.4-5.6,4.9-8.3,7.4c-1.5-0.3-3.1,0-4.5,1.3c-2.6,2.6-5.2,5.2-7.8,7.9
		c-1.8-2.1-5.2-3-7.3-0.5c-3.5,4.3-7,8.7-10.5,13c-2-0.5-4.4,0.2-5.6,2.2c-6.6,10.7-12.6,21.8-17.8,33.3c-2.7,5.7,5.9,10.8,8.6,5
		c3.6-8,7.6-15.8,11.9-23.3c1.2,0,2.3-0.5,3.3-1.7c1.2-1.5,2.4-3,3.7-4.5c1.8,1.7,4.6,2.2,6.6-0.2c3.6-4.4,7.3-8.7,11.2-12.9
		c1.3,0.2,2.8-0.1,4.2-1.2c1.6-1.3,3-2.8,4.2-4.4c4.8-5,9.9-9.8,15.2-14.3C290.5,694.7,283.4,687.6,278.5,691.7z"/>
	<path class="st17" d="M159.3,725c-1.1-0.3-2.2-0.1-3.2,0.3c-4.3-2.4-8.8-4.3-13.5-5.8c-1.3-0.4-2.6-0.2-3.8,0.5
		c-4.1-1.7-8.4-3.2-12.6-4.5c-1.5-0.5-2.9-0.1-4,0.7c-2.5-1.1-5-2.1-7.6-3.1c-6-2.3-8.6,7.4-2.7,9.6c7.5,2.8,14.7,6.4,21.5,10.6
		c2.8,1.7,5.4,0.4,6.6-1.8c0.8,0.4,1.6,0.7,2.4,1.1c2.7,2.2,5.8,3.8,9.4,4.7c1.5,0.4,2.9,0,3.9-0.7c1.5,1,3,2.1,4.5,3.3
		c1,1,2.1,2,3.2,2.9c2.8,2.3,6.2,1.1,7.8-1.1c7.2,5.6,12.4,13.6,14.6,22.8c1.4,6.3,11,3.6,9.5-2.6C191,744.1,177,729.8,159.3,725z"
		/>
	<path class="st2" d="M248,763.5c0.1-0.6,0.1-1.3,0.1-1.9c0.2-3.8,0-8.7-3.7-10.9c-4.1-2.4-10.8-0.1-15.1,0.4
		c-11.9,1.3-23.8,2.1-35.7,2.4c-10.6,0.3-22.3-1.4-32,3.5c-3.2,1.6-3,5.5-1,7.7c-0.7,3.5,0.4,7.9,1.3,11c1.3,5,3.6,9.8,6.7,13.8
		c5.4,11.4,19.1,16.3,32.1,16c3.8,0.2,7.6,0.1,11.4,0c8.8-0.3,16-2.8,22.5-9c4.8-4.6,8.2-10.4,10.2-16.6
		C247.6,774.6,249.1,768.9,248,763.5z M226.5,783.5c0-0.3,0-0.6,0-1c0.4-0.2,0.7-0.3,1.1-0.5C227.2,782.5,226.9,783,226.5,783.5z"/>
	<path class="st18" d="M291.9,838.8c-1.3-4.6-2.7-9.3-4-13.9c-0.5-1.9-2.7-3.9-4.8-3.7c-14.6,1.7-29,4-43.3,7.2
		c-0.7,0.2-1.2,0.4-1.7,0.8c-2.2,1.3-3.1,3.9-2.5,6c0,0.4,0.1,0.9,0.2,1.3c1.3,4.9,2.2,10.1,4,14.8c1,2.7,2.8,4.6,5.9,4.7
		c3.6,0.1,7.8-1.7,11.4-2.4c4.9-1,9.8-1.6,14.8-1.7c5.5-0.1,17,1.9,20.5-4C294.1,845,292.7,841.7,291.9,838.8z"/>
	<path class="st19" d="M245.9,759.9c-27.7,4.4-55.6,6-83.6,4.6c-0.9,0-0.8,1.3,0,1.3c28.1,1.4,56.2-0.2,83.9-4.7
		C247,761,246.7,759.8,245.9,759.9z"/>
	<path class="st19" d="M165.6,768c0.1,1.1,0.3,2.2,0.4,3.4c0.1,0.8,1.3,0.8,1.2,0c-0.1-1.1-0.3-2.2-0.4-3.4
		C166.8,767.2,165.5,767.2,165.6,768z"/>
	<path class="st19" d="M174.2,768.4c0.2,1.2,0.4,2.5,0.7,3.7c0.1,0.8,1.3,0.5,1.2-0.3c-0.2-1.2-0.4-2.5-0.7-3.7
		C175.2,767.3,174,767.7,174.2,768.4z"/>
	<path class="st19" d="M185.2,768.3c0.1,1.1,0.3,2.2,0.4,3.4c0.1,0.8,1.3,0.8,1.2,0c-0.1-1.1-0.3-2.2-0.4-3.4
		C186.3,767.5,185.1,767.5,185.2,768.3z"/>
	<path class="st19" d="M196.1,768.3c0-0.8-1.3-0.8-1.2,0c0.1,1,0.3,2,0.4,3c0.1,0.8,1.4,0.8,1.2,0
		C196.4,770.3,196.2,769.3,196.1,768.3z"/>
	<path class="st19" d="M205.5,768.1c0.2-0.9-1.1-0.9-1.2-0.1c-0.1,1.3,0,2.6,0.3,3.9c0.2,0.8,1.4,0.4,1.2-0.3
		C205.5,770.4,205.4,769.3,205.5,768.1z"/>
	<path class="st19" d="M213.7,767.3c0,1.3,0,2.7,0,4c0,0.8,1.2,0.8,1.2,0c0-1.3,0-2.7,0-4C215,766.5,213.7,766.5,213.7,767.3z"/>
	<path class="st19" d="M221.5,766.9c0,1.5,0.1,3,0.3,4.5c0.1,0.8,1.3,0.5,1.2-0.3c-0.2-1.4-0.3-2.8-0.3-4.2
		C222.8,766.1,221.6,766.1,221.5,766.9z"/>
	<path class="st19" d="M230.3,766.4c0.3,1.3,0.4,2.6,0.2,3.9c-0.1,0.8,1.2,0.8,1.2,0c0.2-1.4,0.1-2.8-0.3-4.2
		C231.3,765.3,230.1,765.6,230.3,766.4z"/>
	<path class="st19" d="M239.6,763.9c0,1.6,0,3.1,0,4.7c0,0.8,1.2,0.8,1.2,0c0-1.6,0-3.1,0-4.7C240.9,763.1,239.6,763.1,239.6,763.9z
		"/>
	<path class="st20" d="M393.4,594.9c0-0.1,0-0.1-0.1-0.2c-0.4-0.9-1.2-1.3-2-1.2c-0.1-0.2-0.3-0.3-0.5-0.5
		c-2.5-1.8-7.8-0.3-10.6-0.1c-4.5,0.4-9,0.8-13.5,1.2c-9.6,0.8-19.3,1.7-28.9,2.5c-0.8,0.1-1.6,0.5-2.1,1.1c0.2-0.1,0.5-0.2,0.8-0.1
		c1.4,0.7,3,1.1,4.6,1.5c-0.3,0.3-0.5,0.8-0.6,1.2c-1.6-0.3-3.2-0.8-4.8-1.6c-0.2-0.1-0.3-0.2-0.3-0.3c-0.1,0.2-0.1,0.5-0.1,0.7
		c0.5,8.7,4.5,19.2,9.8,26.1c3.2,4.1,7.9,6.6,13,7.9c5.1,1.7,10.6,2.1,15.6,0.8c0.1,0,0.2,0,0.3-0.1c2.3-0.4,4.5-1.2,6.5-2.3
		c4.9-2.5,8.9-6.4,11.5-11.1c7.8,1,15.2-4.6,15.1-12.9C407,599.8,400.5,594.6,393.4,594.9z M386,598.8c0.2,0,0.4-0.1,0.6-0.1
		c0.1,0.1,0.2,0.1,0.3,0.2c0.2,0.2,0.3,0.5,0.4,0.8C386.9,599.3,386.5,599,386,598.8z M375.6,627.6c-1.3,0.6-2.7,1.1-4.1,1.4
		c-1,0.1-2,0.2-3.1,0.2C370.8,628.9,373.3,628.4,375.6,627.6z M371.3,617.1c0.1,0,0.1,0,0.1-0.1v0.1H371.3z M377.6,604.1
		c-0.4-0.1-0.8-0.2-1.1-0.3c0,0,0-0.1,0.1-0.1c0.4,0,0.9,0,1.3-0.1C377.8,603.7,377.7,603.9,377.6,604.1z M356.1,620.1
		c-0.2,0.2-0.3,0.6-0.3,0.9c-0.2-0.2-0.4-0.3-0.5-0.5c-0.3-0.4-0.6-0.8-0.8-1.3c0.1,0,0.1,0,0.2,0C355,619.7,355.5,620,356.1,620.1z
		 M351,608.5c-0.1,0.6-0.3,1-0.5,1.4c-0.2-0.5-0.5-1.1-0.8-1.6h0.1C350.2,608.4,350.6,608.5,351,608.5z M344.6,604.3
		C344.6,604.4,344.7,604.4,344.6,604.3c0.3,0.8,0.6,1.4,1.1,2c-0.3,0.1-0.6,0.3-0.8,0.5C344.8,605.9,344.7,605.1,344.6,604.3z
		 M391.3,593.9c0.7-0.2,1,0.8,0.5,1.1c-0.4,0.1-0.8,0.2-1.2,0.3c-0.1,0-0.2,0-0.2,0c-0.1,0-0.2,0-0.3,0.1c-0.1,0-0.2,0.1-0.2,0.1
		c-0.3-0.4-0.7-0.8-1.2-1.1C389.5,594.2,390.4,594.1,391.3,593.9z M394.5,614.6c1.2-3.8,1.5-8,0.9-12.1c2.5,0.4,4.6,2.8,4.4,5.9
		C399.6,611.6,397.3,613.7,394.5,614.6z"/>
	<path class="st9" d="M398.6,602.4c-0.9-1-2.1-1.4-3.4-1.5c-0.5-0.1-0.9-0.1-1.4-0.1c-1.1,0-2.3,0-3.3-0.4c-1.8-0.8-1.8-3.1-0.1-4
		c0.5-0.3,0.3-0.8-0.1-1.1c0.4-0.1,0.9-0.2,1.3-0.2c0.8-0.2,0.5-1.4-0.3-1.2c-9.3,1.8-18.6,3.2-27.9,4.2c-8.4,0.9-19,3.2-26.9-0.5
		c-0.3-0.1-0.6,0-0.8,0.1c-0.3,0.2-0.4,0.5-0.4,0.7c0,0.1,0.1,0.2,0.3,0.3c7.8,3.7,17.4,1.7,25.7,0.9c2.7-0.3,5.3-0.6,8-0.9h0.1
		c6.7-0.9,13.3-1.9,19.9-3.2c-1.9,1.2-2.2,4.2-0.3,5.6c1.8,1.3,4.3,0.7,6.3,1c0.9,0.1,1.6,0.5,2.3,1.2
		C398.2,603.9,399.1,603,398.6,602.4z"/>
	<path class="st9" d="M247.8,801.2c28.8-5,57.7-9.1,86.8-12.2c0.1,0,0.2-0.1,0.3-0.1c7.5,19.9,14.1,40.1,19.9,60.7
		c0.2,0.8,1.4,0.4,1.2-0.3c-5.8-20.7-12.5-41.1-20.1-61.3c-0.2-0.6-0.9-0.5-1.1-0.2c0,0-0.1,0-0.2,0c-29.2,3.2-58.2,7.3-87.1,12.3
		c-0.2,0-0.3,0.1-0.4,0.2c-0.3-0.4-1.2-0.1-1.1,0.6c0.2,1.6,0.4,3.2,0.7,4.8c0.1,0.8,1.3,0.5,1.2-0.3c-0.2-1.5-0.4-2.9-0.6-4.4
		C247.4,801.2,247.6,801.2,247.8,801.2z"/>
	<path class="st9" d="M355.8,851.2c-7.6,1.3-15.1,2.5-22.7,3.8c-0.8,0.2-0.5,1.4,0.3,1.2c7.6-1.3,15.1-2.5,22.7-3.8
		C356.9,852.3,356.6,851.1,355.8,851.2z"/>
	<path class="st9" d="M354.8,850.4c0.2,0.4,0.4,0.8,0.6,1.3c0.4,0.7,1.4,0.1,1.1-0.6c-0.2-0.4-0.4-0.8-0.6-1.3
		C355.5,849,354.4,849.7,354.8,850.4z"/>
	<path class="st21" d="M331.3,885c0.8,0,0.8-1.2,0-1.2C330.5,883.8,330.5,885,331.3,885z"/>
	<path class="st21" d="M341,877.4c0-0.1-0.1-0.2-0.1-0.2c-0.1-0.4-0.5-0.5-0.8-0.4c-0.2-0.5-0.8-0.4-1-0.1H339
		c-18.3,1-36.8,3.3-55.1,5.6c-29.1,3.1-58.1,6.8-87.1,11.1c-0.8,0.1-1.4,0.4-1.9,0.7c-0.4,0-0.7,0.1-1.1,0.1c-0.1,0-0.2,0.1-0.3,0.1
		c-0.3-0.1-0.7,0.1-0.7,0.6c0.2,2.8,0.7,5.6,1.6,8.3c0.1,0.2,0.3,0.4,0.4,0.4c0.1,0,0.2,0.1,0.3,0.1c3.5,0.3,6.7-1.1,10.1-1.5h0.1
		c43.7-6.3,87.5-11.3,131.4-14.9c0.3,0,0.5-0.1,0.8-0.1c0.9,0,1.8,0,2.7-0.1c0.2,0,0.4-0.1,0.5-0.2c0.4,0,0.6-0.3,0.5-0.6
		c0-0.1,0.1-0.1,0.1-0.2C341.8,883.2,341.7,880.3,341,877.4z M340,885.7L340,885.7z M195.4,902.5c-0.1-0.2-0.1-0.5-0.2-0.7
		c0.3,0.3,0.7,0.5,1,0.7C195.9,902.5,195.7,902.5,195.4,902.5z"/>
	<path class="st21" d="M195.7,902.8c0.8,0,0.8-1.2,0-1.2C194.8,901.6,194.8,902.8,195.7,902.8z"/>
	<path class="st5" d="M403.6,419.7c-0.2-0.4-0.6-0.7-1-0.6c-1.3,0.1-2.6,0.3-4,0.5c-0.5,0-0.9,0.1-1.4,0.1c-0.3-0.3-0.7-0.5-1.3-0.4
		c-0.1,0-0.3,0.1-0.4,0.1s-0.2,0.1-0.4,0.1c0.1-0.2,0.1-0.4,0.1-0.7c0.7,0,1.5,0,2.2-0.1c1.6,0,1.6-2.5,0-2.5c-0.2,0-0.3,0-0.5,0
		c0.1-0.8-0.6-1.7-1.5-1.4c-0.9,0.2-1.8,0.4-2.7,0.6c-16.3,0.2-32.6,0.3-48.9,0.5c-0.1,0-0.2,0-0.3,0.1c-0.2-0.1-0.5-0.1-0.8,0h-0.1
		c-0.9,0.3-1.8,0.7-2.7,1c-0.1,0-0.1,0.1-0.2,0.1c-0.1,0-0.2,0.1-0.2,0.1c-0.8,0.1-1.6,0.2-2.4,0.4c-6.7,1.5-12.9,5.2-18.8,9.3
		c-3.7,2.1-7.2,4.5-10.4,7.3c-0.1,0-0.1,0.1-0.2,0.1c-0.1,0.1-0.1,0.1-0.2,0.2c-1.1,0.9,0.3,2.7,1.5,2c0.1-0.1,0.2-0.1,0.3-0.2
		c-2,1.6-3.9,3.3-5.8,5c-1.1,1,0.3,2.6,1.5,2c0,0,0,0,0.1,0l0.1-0.1c4.9-2.4,9.5-5.3,14.1-8.2c-0.5-0.1-0.8-0.6-0.4-0.9
		c5.1-4.6,10.6-9,16.5-12.4c5.5-3.2,13.1-1.9,19.2-1.9c0.8,0,0.8,1.2,0,1.2c-6.6,0-14.2-1-20,2.6c-5.2,3.4-10.1,7.2-14.8,11.3
		c0,0-0.1,0-0.1,0.1c-2.8,2.5-5.4,5.4-7.6,8.7c-0.8,1.2,1,2.6,2,1.5c0.1-0.1,0.3-0.3,0.4-0.4l0.1-0.1c5.3-5.6,10.7-11.5,17.8-15
		c2.5-1.2,5-2,7.7-2.6c1.5,0.1,2.9,0.2,4.4,0.2h-0.1c-0.6,0-1,0.5-1.1,0.9c-2.1,0-4.2,0.1-6.3,0.1c-1.6,0-1.6,2.4,0,2.5
		c0.4,0,0.7,0.1,1.1,0.1c0.2,0,0.5,0.1,0.7,0.1c0.1,0.5,0.5,0.9,1.2,0.9c0.1,0,0.1,0,0.2,0v0.1c1.2,0,2.5,0,3.7-0.1
		c10,0,19.9-0.9,29.7-2.6c6.4-0.6,12.8-1.8,18.7-4c3-0.8,5.8-1.8,8.6-3c0.2-0.1,0.4-0.2,0.6-0.2c0.2,0,0.4-0.1,0.5-0.1
		c0,0,0,0,0-0.1c0.2,0,0.4,0,0.6,0C403.8,421.8,404.2,420.4,403.6,419.7z M309,436.2c-0.7,0.3-1.3-0.8-0.6-1.1
		c6.9-3,12.2-8.4,18.8-11.9c0.7-0.4,1.3,0.7,0.6,1.1C321.2,427.7,315.8,433.1,309,436.2z M344.3,427.8c3.7-0.2,7.5-0.3,11.2-0.2
		c0.8,0,0.8,1.2,0,1.2c-3.7-0.2-7.5-0.1-11.2,0.2C343.5,429.1,343.5,427.8,344.3,427.8z"/>
	<path class="st19" d="M344.3,429c3.7-0.3,7.5-0.4,11.2-0.2c0.8,0,0.8-1.2,0-1.2c-3.7-0.1-7.5,0-11.2,0.2
		C343.5,427.8,343.5,429.1,344.3,429z"/>
	<path class="st19" d="M334.5,423.6c5.8-3.6,13.4-2.6,20-2.6c0.8,0,0.8-1.2,0-1.2c-6.1,0-13.7-1.3-19.2,1.9
		c-5.9,3.4-11.4,7.8-16.5,12.4c-0.4,0.4-0.1,0.9,0.4,0.9c0.1,0,0.3,0,0.4-0.1c0,0,0.1,0,0.1-0.1C324.4,430.8,329.3,427,334.5,423.6z
		"/>
	<path class="st19" d="M327.2,423.2c-6.6,3.5-11.9,8.9-18.8,11.9c-0.7,0.3-0.1,1.4,0.6,1.1c6.8-3.1,12.2-8.5,18.8-11.9
		C328.5,423.9,327.9,422.8,327.2,423.2z"/>
	<path class="st22" d="M262.9,412.5c-3.1-15.2-6.2-30.3-9.3-45.5c-7.1-34.5-14.3-68.9-21.4-103.4c-1.2-6-2.4-12-3.6-18
		c-0.4-1.8-0.7-3.6-1.1-5.4c-0.1-0.7-0.4-2.8-0.4-2c-0.1-1.4-1.2-2.2-2.3-2.4c-0.7-0.7-1.8-1-2.9-0.3c-19.5,11.4-38.4,24-57.6,36
		c-30,18.8-60,37.5-90,56.3c-7.2,4.5-14.2,9.2-21.5,13.4c-1,0.6-1.3,1.5-1.2,2.4c-0.1,0.3-0.2,0.7-0.1,1.1c1,8.6,3.3,17.2,5,25.7
		c3.8,18.8,7.7,37.7,11.6,56.5c8.8,42.7,17.6,85.4,26.4,128.1c1.5,7.5,3,14.9,4.5,22.4c0.4,2.2,0.9,4.3,1.3,6.5
		c0.1,0.6,0.6,3.6,0.5,2.5c0.2,1.7,1.6,2.4,2.9,2.4c0.3,1.8,3.3,2.9,4.8,0.9c-0.6,0.8,1-1.1,1.4-1.4c1.2-1.2,2.3-2.4,3.5-3.6
		c3.9-4,7.9-8,11.9-11.9c12.2-12.1,24.4-24.1,36.6-36.2c27.3-26.9,54.7-53.8,82-80.7c6.8-6.7,14.1-13.1,20.4-20.3
		c1.4,0.2,2.8-0.6,2.6-2.4C266.3,426.3,264.3,419.3,262.9,412.5z M97.1,444.3c-0.1,0.2-0.1,0.5-0.2,0.7c0-0.1,0-0.2-0.1-0.3
		c0-0.2-0.1-0.3-0.1-0.5C96.8,444.2,97,444.2,97.1,444.3z M62.9,341c-0.1,0.5-0.2,0.9-0.3,1.4c-2,1-4,2-6,3c0-0.2-0.1-0.5-0.1-0.6
		C58.6,343.5,60.8,342.3,62.9,341z M57.6,350.4c0.2-0.1,0.4-0.1,0.6-0.2c0,0,0.1,0,0.1-0.1c-0.2,0.6-0.3,1.1-0.5,1.7
		C57.8,351.3,57.7,350.9,57.6,350.4z M62.8,376.1c-0.1-0.7-0.3-1.3-0.4-2c0.3,1.2,0.7,2.3,1,3.4c0.1,0.7,0.1,1.4,0.2,2.1
		C63.2,378.5,63,377.3,62.8,376.1z M100.8,560.7c-2.3-11.4-4.6-22.8-7-34.3c0.2,0.1,0.3,0.2,0.5,0.2c0.3,1.3,0.5,2.5,0.8,3.8
		c1,7.9,3,15.7,6,23.2c0.4,4.4,0.8,8.8,1,13.2C101.6,564.9,101.2,562.8,100.8,560.7z M105.6,585.4c-0.1-1.1-0.3-2.2-0.5-3.2
		c0.6,0.5,1.3,1,2.1,1.3C106.7,584.1,106.1,584.8,105.6,585.4z M112.4,310.1c-0.2,0-0.4,0-0.5,0.1c0.3-0.2,0.7-0.4,1-0.6
		c1-0.6,1.9-1.2,2.9-1.8C114.6,308.5,113.5,309.3,112.4,310.1z M116.9,552c-0.2-0.6-0.4-1.3-0.6-1.9c0-0.6,0-1.1,0-1.7
		c0.2,0,0.3-0.1,0.5-0.1c0.6,0.6,1.2,1.1,1.9,1.4C118.1,550.5,117.5,551.2,116.9,552z M119.3,571.3c0-0.2,0.1-0.5,0.1-0.7
		c0.4-0.2,0.9-0.4,1.3-0.6C120.2,570.5,119.8,570.9,119.3,571.3z M222.4,241c0,0.3,0.1,0.6,0.1,0.8c-0.3-0.1-0.6-0.3-0.9-0.4
		C221.8,241.3,222.1,241.2,222.4,241z M194.9,323.3c0.2,0.4,0.4,0.8,0.7,1.2c-0.4-0.1-0.7-0.1-1.1-0.1
		C194.7,324,194.8,323.6,194.9,323.3z M148.5,313.4c-0.2,0.4-0.5,0.7-0.7,1.1c0-0.1,0-0.1,0-0.2C147.9,314,148.2,313.7,148.5,313.4z
		 M175.6,445.2c0.9-1.5,1.9-3,2.8-4.5c0.2,0.3,0.4,0.6,0.6,0.8C177.9,442.8,176.7,444,175.6,445.2z M212.6,295.8c-0.1,0-0.2,0-0.3,0
		c0.1-0.2,0.2-0.4,0.3-0.6C212.6,295.4,212.6,295.6,212.6,295.8z M214.5,376.5c0.2-0.4,0.3-0.8,0.5-1.2c0-0.1,0.1-0.2,0.1-0.2
		c0.3,0.5,0.7,0.9,1.1,1.2C215.6,376.2,215,376.3,214.5,376.5z M218.3,429.6L218.3,429.6c-0.1-0.2,0-0.3,0-0.4
		C218.3,429.3,218.3,429.5,218.3,429.6z M219.2,455.9c1.2-2.7,2.3-5.4,3.3-8.1c0.1,0,0.1,0,0.2,0c-0.9,1.9-0.6,3.8,0.3,5.1
		C221.7,453.9,220.4,454.9,219.2,455.9z M225.7,257.1c-0.1,0-0.1,0-0.2,0c0-0.3,0-0.7,0-1C225.5,256.4,225.6,256.8,225.7,257.1z
		 M226.1,342.6c-0.3-0.2-0.5-0.4-0.8-0.6c0.3-1.2,0.6-2.5,0.9-3.8c0.1-0.1,0.2-0.1,0.3-0.2c0.2,1.4,0.5,2.9,0.9,4.3
		C227,342.3,226.5,342.4,226.1,342.6z M233.2,298.3c0.1-1.4,0.1-2.7,0.1-4.1c0.5,2.7,1.1,5.3,1.6,8
		C234.5,300.9,233.9,299.6,233.2,298.3z M236.8,397c0.1-0.4,0.1-0.9,0.2-1.3c0.1,0.4,0.3,0.7,0.4,1.1
		C237.2,396.9,237,396.9,236.8,397z M238.5,323.4c-0.2-2.3-0.4-4.6-0.6-6.8c0.9,4.2,1.7,8.5,2.6,12.7
		C239.9,327.3,239.2,325.3,238.5,323.4z M251.3,384.7c-0.1-1.7-0.3-3.4-0.4-5.2c0.9,4.5,1.9,9,2.8,13.5
		C252.9,390.3,252.1,387.5,251.3,384.7z"/>
	<path class="st23" d="M214.3,394.6c-9.5-12.1-19.6-23.7-30-35.1c1.8-4.1,3.3-8.2,4.4-12.4c0.1-0.2,0.1-0.4,0-0.5
		c0.3-0.3,0.1-1-0.5-1c-9.8-0.2-19.3-1.8-28.7-4.6c-0.1-0.2-0.4-0.3-0.7-0.2c-0.6,0-0.8,0.7-0.4,1.1c0.3,3.5-1.6,6.6-4.7,8.1
		c-3.3,1.6-7.1,1.1-10.5-0.1c-0.3,0-0.5,0.2-0.7,0.4c-0.2,0-0.5,0.1-0.5,0.4c-2.5,9.8-6,19.3-10.4,28.4c-0.1,0.2-0.1,0.4,0,0.6
		c-0.3,0.3-0.2,0.9,0.3,0.9c3.9,0.5,7.7,1.1,11.6,1.6c0.1,0,0.3,0,0.4-0.1c-0.6,18.1-0.7,36.2-0.3,54.4c0,0,0,0,0,0.1
		c-0.2,0.3-0.2,0.8,0.3,0.9c6.5,1.8,12.5,0,18.4-2.8c7.8-3.8,15.4-8.3,23-12.5c11.4-6.4,23-13.9,28.4-26.3c0-0.1,0-0.1,0-0.2
		C214.2,395.7,214.7,395.1,214.3,394.6z M212.6,395.3c-5.1,11.8-15.8,19-26.6,25.1c-5.9,3.4-12,6.6-18,9.9
		c-7.1,3.9-14.8,8.3-23.2,6.2c-0.5-20.2-0.3-40.4,0.5-60.6c0-0.8-1.2-0.8-1.2,0c-0.1,1.7-0.1,3.4-0.2,5.1h-0.1
		c-3.7-0.5-7.3-1-11-1.5c4.4-9,7.8-18.5,10.4-28.2c4.1,1.4,8.9,1.6,12.6-1.1c2.6-1.9,4-4.8,3.9-7.9c9.1,2.7,18.3,4.2,27.8,4.5
		c-1,4-2.5,7.9-4.2,11.7c-0.3-0.3-0.6-0.7-0.9-1c-0.5-0.5-1.4,0.4-0.9,0.9c10.9,11.7,21.5,24,31.5,36.6
		C212.8,395,212.7,395.1,212.6,395.3z"/>
	<path class="st23" d="M170.1,370.2c-2.8,2.8-6.3,4.7-10.2,5.6c-0.7,0.2-0.4,1.4,0.4,1.2c4.1-0.9,7.7-2.9,10.7-5.9
		C171.6,370.5,170.7,369.6,170.1,370.2z"/>
	<path class="st11" d="M184.3,289c-22.2,17.6-46.3,32.8-71.7,45.3c-0.8,0.4-0.2,1.4,0.6,1.1c25.6-12.6,49.7-27.8,72-45.5
		C185.8,289.4,184.9,288.5,184.3,289z"/>
	<path class="st11" d="M157.4,464.2c3.3-3.1,6.9-6,10.7-8.5c0.7-0.4,0-1.5-0.6-1.1c-3.9,2.6-7.6,5.4-11,8.7
		C155.9,463.9,156.8,464.8,157.4,464.2z"/>
	<path class="st11" d="M230.3,409.7c-12.5,9.9-25.2,19.6-37.2,30.1c-0.6,0.5,0.3,1.4,0.9,0.9c12-10.5,24.8-20.2,37.2-30.1
		C231.8,410.1,230.9,409.2,230.3,409.7z"/>
	<path class="st11" d="M172.9,477.1c-6.9,5.5-13.9,11-20.9,16.4c-0.6,0.4,0,1.5,0.7,1c7.1-5.4,14.1-11,21.1-16.5
		C174.4,477.5,173.5,476.6,172.9,477.1z"/>
	<path class="st11" d="M207.9,280.3L207.9,280.3c0.1,0.1,0.3,0.2,0.5,0.2c4-0.4,7.5-2.3,9.9-5.5c0.3,0.1,0.8-0.1,0.8-0.6
		c0.2-3.4-0.6-6.7-2.5-9.6c-0.4-0.6-1.4,0.1-1,0.7c1.6,2.6,2.4,5.4,2.3,8.4c-0.2,0-0.4,0.1-0.5,0.3c-1.7,2.2-3.9,3.7-6.4,4.5
		c0-3.4,0-6.9,0-10.2c0.1-0.8-1.2-0.8-1.2,0c0,3.5,0,7,0,10.4c0,0.1,0,0.1,0,0.2c-0.4,0.1-0.8,0.2-1.3,0.2c0,0,0-0.1-0.1-0.1
		c-2.4-1.8-3.9-4.4-4.4-7.3c-0.1-0.7-1.3-0.4-1.2,0.4C203.4,275.6,205.2,278.4,207.9,280.3z"/>
	<path class="st11" d="M250.7,418.3c0-5.7-3.4-8.2-8.8-7.6c-0.5,0.1-0.7,0.6-0.5,0.9c-4.8,0.3-6.1,5.9-5.5,10c0.8,4.8,4.6,6,9,5.4
		C249.8,426.3,250.8,422.8,250.7,418.3z M245.5,425.6c-3.3,0.7-7.2,0.3-8.2-3.5c-0.9-3.2-0.1-9.2,4.2-9.3c0.5,0,0.7-0.6,0.5-0.9
		c1.6-0.2,3.4-0.4,4.9,0.4c2,1.1,2.5,3.4,2.6,5.5C249.7,421.1,249.4,424.8,245.5,425.6z"/>
	<path class="st6" d="M759.1,506c2.5-19.8,7.6-39.4,6.2-59.6c-0.1,0-0.1,0-0.2,0c0-0.1,0-0.3,0-0.4c-0.4-3.1-5.2-3.3-5,0
		c0.2,2.4,0.3,4.8,0.3,7.1c-0.3,3.7-1.1,7.4-1.9,11.1c-1.1-0.1-2.2,0.4-2.7,1.8c-0.8,2.4-1.7,4.7-2.6,7c-0.7,0.2-1.3,0.7-1.5,1.7
		c-0.1,0.8-0.2,1.6-0.3,2.3c-1.9,4-4.1,7.8-6.6,11.5c0-0.4,0-0.8,0-1.3c-0.1-1.7-2.1-3.3-3.8-2.2c-4.3,3.1-6.7,7.5-7.4,12.4
		c-0.1,0.1-0.1,0.3-0.2,0.5c-0.4-0.4-0.8-0.8-1.1-1.2c-0.5-0.6-1.1-0.8-1.7-0.7c-7-10.2-14-20.3-21-30.5c-1.7-2.6-6-0.1-4.2,2.6
		c8.2,11.9,16.4,23.9,24.6,35.8c1.5,2.1,2.9,4.4,4.5,6.6c0.6,1.3,1.2,2.5,1.8,3.6c3.7,6.4,9.6,11.3,16,14.9c1,0.6,2.1,0.3,2.8-0.3
		c0.6,0.3,1.2,0.7,1.9,1c1,1.9,5.1,0.5,4.5-2.4C760.2,520.3,759.4,513.1,759.1,506z M746.1,509.5c0.1,0.5,0.1,1,0.2,1.5
		c0,0.3,0.1,0.5,0.2,0.7c-0.5-0.6-1.1-1.1-1.6-1.7C745.3,510,745.8,509.9,746.1,509.5z"/>
	<path class="st5" d="M664.3,212.9c1.2-0.3,2.3-0.2,3.4,0.1c0.1,0,0.2,0.1,0.2,0.1c0-1.3,0-2.6-0.1-3.9c-1-0.3-2.1-0.3-3.1,0
		c-0.2,0.1-0.4,0-0.6-0.2c-0.1,0.2-0.1,0.4-0.1,0.7c0,1.1,0,2.2,0,3.4C664.1,213,664.2,212.9,664.3,212.9z"/>
	<path class="st5" d="M687.9,235.3C687.9,235.3,688,235.3,687.9,235.3c0.5,0.3,0.8,0.5,1,0.8c0-0.4,0-0.7,0-1.1
		c-0.1-0.4,0.3-0.6,0.6-0.6c0-0.1,0.1-0.3,0.1-0.4C689.1,234.4,688.5,234.8,687.9,235.3z"/>
	<path class="st5" d="M720.3,270.5c-1.4-0.4-2.8-0.8-4.1-1.4c-5-2.3-8.9-6.5-10.9-11.6c-2.8-7.1-0.2-15-4.5-21.7
		c-3.8-5.8-11.6-9-12.3-16.6c-0.6-5.7,3.8-8,7.3-11.6c3-2.4,2-4.8-2.9-7.3c-0.1,0-0.2,0.1-0.3,0.1c0,0.1-0.1,0.1-0.1,0.2
		c0.1,0.1,0.1,0.1,0.2,0.2c-1.4,1.5-2.7,2.3-4.6,3c-0.1,0-0.2,0.1-0.3,0.1c-2.5,0.8-5.2,0.5-7.6-1.2c-0.8-0.6-1.5-1.2-2-1.9
		c-1.8-1.8-2.9-4.3-3-6.9c-0.3-1.6-0.2-3.3,0.2-4.8c0-0.4,0.1-0.7,0.1-1.1c-0.1-0.1-0.3-0.2-0.4-0.3l-0.1,0.1
		c-0.1,0.1-0.2,0.2-0.3,0.3c0,0.1-0.1,0.2-0.1,0.2c-0.1,0.3-0.3,0.4-0.5,0.5c-1.1,1.8-2.3,3.6-3.5,5.3c-0.1,0.1-0.2,0.3-0.2,0.4
		c-0.8,1.5-1.8,2.7-3,3.8c-0.1,0.1-0.2,0.2-0.3,0.3c-0.1,0.4-0.4,0.7-0.7,0.8c-0.3,0.3-0.5,0.5-0.8,0.8l-0.1,0.1
		c-0.4,1.1-0.6,2.2-0.7,3.4c0,0.2,0,0.3,0,0.5c0,0.4,0,0.7,0,1.1c0,0.2,0,0.5-0.1,0.7c-0.1,0.2-0.2,0.5-0.2,0.7c0,0.3,0,0.7,0,1
		c1.4-0.4,2.7-0.3,4,0.1c0.4,0.1,0.5,0.4,0.5,0.8c0.1,0.1,0.1,0.3,0.1,0.4c0.2,2.1,0.2,4.3,0,6.5c-0.2,1.9-1.4,4.8-0.9,6.6
		c0,0.1,0,0.2,0,0.2c1-0.4,2.2-0.7,3.2-1c0.7-0.2,1.1,1,0.3,1.2c-1.1,0.4-2.3,0.7-3.4,1.1c-0.5,0.1-0.8-0.4-0.7-0.8
		c-0.2,0-0.5-0.1-0.6-0.4c-0.5-1.7,0.3-3.4,0.6-5.1c0.2-1.2,0.3-2.3,0.4-3.5c-0.1,0.1-0.3,0.2-0.6,0.1c-0.2,0-0.4-0.1-0.6-0.1
		c0,0.2-0.1,0.4-0.4,0.5c-0.5,0.1-0.9,0.1-1.4-0.2c-0.1-0.1-0.2-0.2-0.3-0.3c-0.3,0.1-0.5,0-0.6-0.2c0,7.3,0.2,16.1,3.9,22
		c0.4,1.4,0.9,2.8,1.6,4.2c0.3,0.5,1,1,1.6,0.9c2-0.3,3.9-0.7,5.7-1.4c1-0.2,2.1-0.6,3.1-1.1c2.3-0.7,4.5-1.8,6.5-3.1
		c0-0.2,0.1-0.3,0.3-0.4c1.5-1.1,2.9-2.2,4.4-3.3c0.1-0.6,0.3-1.2,0.4-1.7c0.1-0.7,1.2-0.5,1.2,0.2c0,0.1,0,0.1,0,0.2
		c-0.1,5-0.5,10-1.4,15.1c0,0.3-0.2,0.4-0.5,0.5c-0.2,0.5-1.1,0.3-1.1-0.3c-0.2-0.1-0.5-0.2-0.5-0.6c-0.3-3.2-1-6.1-2-9.1v-0.1
		c-0.2,0.1-0.3,0.1-0.4,0c1.6,4.9,2.7,9.9,3.4,15c0,3.4,0,6.9,0,10.3c0,0.4,0.1,0.7,0.2,0.9c-0.3,0.9-0.6,1.9-0.8,2.8
		c0,0.1-0.1,0.1-0.1,0.2c-2.6,8.6,6.5,13.5,13.7,14.4c8.4,1,16.1-2.3,22.7-7.2C724,271.9,722.1,271.3,720.3,270.5z M684.6,212.9
		c0.8,0,0.8,1.1,0,1.2c-2,0.2-4,0.3-6,0.3c0.2,0.3,0.2,0.6-0.2,0.8c-1.1,0.4-1.9,0.1-2.2-0.9c-0.4,0.1-0.8,0.2-1.1,0.4
		c-0.2,0.2-0.4,0.3-0.7,0.5c0,0,0-0.1-0.1-0.1c-0.7,0.4-1.2-0.6-0.6-1.1c0.2-0.2,0.5-0.4,0.7-0.6c0.3-0.3,0.6-0.2,0.8,0
		C678.1,212.2,681.5,212.9,684.6,212.9z M675.8,235.3c-0.3,0-0.5,0-0.8,0c0-0.3,0-0.6,0-0.9C675.2,234.8,675.5,235.1,675.8,235.3z
		 M684.1,209.6c-3-0.5-11.1-1.8-11.3,3c-0.1,0.9-1.3,0.9-1.3,0.1c0.1-1.9,1-3.1,2.3-3.8c-0.1,0-0.2,0-0.4-0.1
		c0.1-0.1,0.1-0.2,0.1-0.3c0.1,0,0.2,0,0.3,0.1c0.1,0,0.1,0.1,0.2,0.1c0,0,0,0,0,0.1c2.9-1.5,7.7-0.8,10.4-0.3
		C685.2,208.5,684.9,209.7,684.1,209.6z M678.8,234.6c0.3-0.2,0.6-0.4,0.8-0.6c0.1,0.1,0.2,0.1,0.2,0.2c-0.1,0.1-0.3,0.1-0.4,0.1
		C679.3,234.4,679,234.4,678.8,234.6z M689.5,227.4c0-0.1-0.1-0.3-0.1-0.4c0.1,0.1,0.2,0.2,0.3,0.3
		C689.6,227.3,689.5,227.3,689.5,227.4z M685.4,208.4c-0.1-0.1-0.2-0.3-0.3-0.4c0.3,0,0.6,0,1-0.1
		C685.8,208.1,685.6,208.3,685.4,208.4z M671.4,233.5c-0.1-0.1-0.2-0.2-0.2-0.3c0.1,0,0.2,0,0.2,0
		C671.4,233.3,671.4,233.4,671.4,233.5z M699.6,236.4c-0.3,0-0.6,0-0.8,0.1c0-0.1-0.1-0.3-0.1-0.4c0-0.3,0-0.6,0-0.9
		c-0.1,0-0.2,0-0.3,0c-0.1-0.2-0.2-0.4-0.2-0.6v-0.1c0-0.1-0.1-0.2-0.1-0.3C698.6,234.9,699.1,235.6,699.6,236.4z M667.5,226
		c0.3,0,0.6,0.2,0.7,0.5c0.1,0,0.2,0,0.3-0.1c0.3-0.1,0.6,0.1,0.7,0.3c0.1,0,0.2,0,0.3,0.1c0.3-0.4,0.7-0.6,1.3-0.6
		c0.5,0,0.9,0.2,1.3,0.4c0.7,0.2,1.3,0.4,2,0.4c0.1,0,0.1,0,0.2,0c0,0,0,0,0,0.1c0.1,0,0.2,0,0.3,0c0.7,0,0.9,1,0.2,1.2
		c-0.4,0.2-0.7,0.2-1.1,0.2c0,0.8,0.4,2-0.5,2.5c0,0-0.1,0-0.1,0.1c0.2,0.3,0.1,0.8-0.4,0.8c-1.2,0.1-2.5,0.3-3.8,0.2
		c-0.6-0.1-1.4-0.2-1.4-1c0-0.1,0-0.2,0-0.2c-0.1-0.3-0.2-0.6-0.2-0.8c-0.1-0.2-0.1-0.5,0-0.7c-0.1,0-0.3-0.1-0.4-0.2
		C666.4,228.4,665.8,226,667.5,226z"/>
	<path class="st5" d="M779.3,429.9C779.3,429.8,779.2,429.8,779.3,429.9c-0.3-0.2-0.6-0.3-0.8-0.4c-0.4-0.4-0.9-0.6-1.4-0.6
		c-1.1-0.5-2.3-1-3.4-1.5c-9.2-4.5-18-10.1-27.8-13.2c-0.7-1.3-3-1.5-3.5,0.3c0,0.1-0.1,0.1-0.1,0.2c-0.1,0.4-0.3,0.8-0.4,1.2
		c-1.5,3.9-4,7.5-6.2,11c0,0.1-0.1,0.1-0.1,0.2c-2.8,4.5-5.3,9.3-7.7,14c-4.8,9-9.1,18.4-12.8,28c-39.8,5-79.5,12.2-116.6,27.7
		c-1.2,0.2-2.4,0.5-3.5,0.8c-1.4,0.2-2.6,0.5-3.8,1c-1.3,0.3-2.7,0.6-4,1h-0.1c-3.5-0.6-6.7-0.3-9.9,0.7c-0.3-0.1-0.6,0-0.8,0.2
		c-0.1,0.1-0.2,0.2-0.3,0.3c-0.1,0-0.2,0.1-0.2,0.1c-0.1,0-0.3,0.1-0.4,0.1c-0.1,0.1-0.3,0.1-0.4,0.2c-0.4,0.2-0.6,0.4-0.7,0.7
		c-2.1,0.4-4.1,0.8-6.2,1.2c-2.9,0.5-5.9,1-8.8,1.7c-0.1,0-0.2,0-0.3,0c-0.1,0-0.3,0.1-0.4,0.1c-0.3-0.2-0.6-0.3-1.1-0.2
		c-0.7,0.1-1.4,0.3-2,0.4c-2.3,0.2-4.6,0.3-6.9,0.5c-0.4,0-0.6,0.2-0.9,0.4c-0.2,0-0.5,0-0.7,0.2c-0.9,0.6-1.7,1.3-2.6,1.9
		c-0.2,0.1-0.3,0.3-0.4,0.5c-0.2,0.2-0.4,0.3-0.6,0.5c-0.3-1.2-1.6-2.2-2.8-1.3c-0.1,0.1-0.2,0.2-0.3,0.3c0,0,0,0-0.1-0.1
		c-1.7,1.6-4,2.7-5.9,4c-1.8,1.2-3.5,2.6-5.3,3.9c-0.1,0-0.2,0.1-0.3,0.1c0,0,0,0-0.1,0c-0.2,0.1-0.3,0.1-0.5,0.2
		c-2,0.6-1.7,3.1,0.1,3.6c0.3,0.2,0.6,0.3,0.9,0.3c-3.8,3-7.6,5.9-11.4,8.9c-0.9,0.7-1.9,1.4-2.8,2.2c-0.1,0.1-0.1,0.1-0.2,0.2
		c-0.2,0.2-0.3,0.4-0.4,0.7c-1.2,1-2.4,2.1-3.5,3.1c-1.2,1.1,0.6,2.8,1.8,1.8c1.8-1.6,3.7-3.1,5.7-4.5c2.2-1,4.1-2.5,6.1-3.9
		c-0.5,0-0.8-0.8-0.3-1.2c4.1-3.2,8.3-6.3,12.5-9.4c0.8-0.6,1.6-1.3,2.4-1.9c-0.5,0.4-1,0.8-1.5,1.2c0.6-0.5,1.2-0.9,1.8-1.4
		c3.3-2.6,7.1-6.8,11.6-6.6c0.8,0,0.8,1.2,0.1,1.3c-4.8-0.2-10.5,6-14.1,8.7c-4.1,3.1-8,6-12.1,9.1c-3.8,3.6-7.4,7.5-10.5,11.7
		c-0.1,0.2-0.2,0.3-0.2,0.5c-0.3,0.4-0.6,0.8-0.9,1.1c-0.1,0.1-0.2,0.1-0.3,0.2c0,0,0,0,0.1,0.1c-0.1,0.2-0.2,0.4-0.3,0.6
		c-0.1,0.1-0.1,0.2-0.2,0.3c-0.8,1,0.2,2.8,1.5,2c1.4-0.9,2.4-2,3.3-3.4c1.1-1.7,2.3-2.6,3.9-3.9c3.3-2.8,6.5-5.7,9.5-8.7
		c0.2-0.1,0.3-0.2,0.5-0.4c-2,2.4-3.6,4.9-4.8,7.7c-0.1,0.1-0.3,0.3-0.3,0.6c-0.3,1.1-0.6,2.2-1,3.3c-0.7,1.3-1.4,2.6-1.8,4
		c-0.4,1.4,1.6,2.2,2.3,1c0.1-0.1,0.1-0.2,0.2-0.3v-0.1c0.1-0.1,0.1-0.2,0.2-0.3c0.2-0.1,0.3-0.3,0.4-0.5c0.1-0.2,0.1-0.3,0.2-0.5
		c0.3-0.5,0.5-1,0.8-1.5c1.6-2.7,3.2-5.6,4.9-8.2c1.8-2.7,4.2-4.5,6.7-6.3c-2.3,2.4-4,5.3-5.3,8.6c-0.5,1.2,1.3,2.1,2.1,1.2
		c2-2.2,3.9-4.4,5.9-6.6c2.4-2.7,5.2-3.2,8.6-4.1c0.1,0,0.3,0,0.4,0c7.5-1.8,14.9-3.6,22.1-6.6c-0.1-0.2-0.1-0.5,0.1-0.7
		c0.8-0.7,1.3-1.4,1.8-2.3c0.3-0.8,1.4-0.1,1.1,0.6c-0.3,0.7-0.8,1.3-1.2,1.8c0.3,0.3,0.7,0.4,1.2,0.4c31.8-2.9,63.5-5,95.1-9.7
		c16.2-2.4,32.5-4.9,48.9-5.7c0.9-0.1,1.7-0.1,2.6-0.1c0.2,0.1,0.4,0.1,0.7,0.1c0.6,0,1.2-0.1,1.8-0.2c5.3-0.2,10.7-0.5,15.3-3.1
		c6.2-3.4,9.2-11.1,12.6-17c8.8-15.4,17-31.2,24.2-47.5c0.6-0.9,1.2-1.8,1.7-2.7c0.1-0.1,0.1-0.2,0.2-0.3c0.2-0.3,0.3-0.6,0.4-0.9
		c0.2-0.5,0.5-1,0.7-1.4C780.2,430.3,779.7,429.8,779.3,429.9z M553,508.4c0.4,0,0.9-0.1,1.4-0.1s1-0.1,1.5-0.1
		c0,0.1,0.1,0.1,0.2,0.2c-0.9,0.1-1.8,0.3-2.7,0.4C553.3,508.6,553.2,508.5,553,508.4z M746.2,415.5c0.5,0.2,1,0.3,1.4,0.5
		c-0.1,0-0.1,0-0.2,0c-0.2,0-0.4,0-0.6,0c-0.3-0.1-0.5-0.1-0.8-0.2c-0.1,0-0.1,0-0.2,0c0-0.1,0-0.1,0.1-0.2
		C746.1,415.6,746.2,415.6,746.2,415.5z M727,462.9c0.1,0,0.2,0,0.3,0c-0.1,0.3-0.2,0.5-0.4,0.8c-0.1,0.1-0.2,0.2-0.3,0.3
		c0.1-0.3,0.1-0.5,0.2-0.8C727,463.1,727,463,727,462.9z M735.7,462c0.1,0,0.2-0.1,0.4-0.2c0.1-0.1,0.2-0.2,0.4-0.2
		c-0.3,0.6-0.7,1.2-1.1,1.7C735.5,462.9,735.6,462.4,735.7,462z M753.5,433L753.5,433c-0.5-0.3-1.1-0.6-1.8-0.5
		c0.1-0.1,0.1-0.2,0.1-0.3C752.4,432.5,753,432.7,753.5,433z M575.8,508.8c0.2,0,0.4,0,0.6,0c-0.1,0-0.3,0-0.4,0.1
		C575.9,508.8,575.9,508.8,575.8,508.8z M727.6,463.1c-0.1-0.1-0.1-0.1-0.2-0.1C727.5,463,727.6,463,727.6,463.1
		C727.7,463,727.6,463,727.6,463.1z M765,437.2c0.2,0,0.4,0.1,0.6,0.1c-0.2,0.2-0.4,0.4-0.6,0.6C765,437.7,765,437.4,765,437.2z
		 M721,491.7C721,491.7,721,491.6,721,491.7c0.3-0.2,0.5-0.5,0.6-0.8c0.6-0.1,1.2-0.2,1.8-0.3C722.6,491,721.8,491.3,721,491.7z
		 M742.3,479.2c0.4-0.7,0.7-1.4,1.1-2.1c0.2,0.2,0.3,0.3,0.6,0.4C743.4,478.1,742.9,478.7,742.3,479.2
		C742.3,479.3,742.3,479.3,742.3,479.2z M585.8,503.8c-0.1,0-0.2,0-0.2,0v-0.1c0.1,0,0.1,0,0.2-0.1
		C585.7,503.7,585.8,503.7,585.8,503.8z M763.4,446.3c0.1,0.2,0.3,0.3,0.5,0.4c-0.2,0.3-0.5,0.6-0.7,0.9
		C763.3,447.1,763.3,446.7,763.4,446.3z M747.9,422.3L747.9,422.3C747.9,422.2,747.9,422.2,747.9,422.3
		C748,422.2,748,422.3,747.9,422.3z M737.7,488.9c0.6-0.5,1.1-1,1.7-1.6c-0.4,0.7-0.8,1.4-1.2,2C738.1,489.2,737.9,489,737.7,488.9z
		 M746.7,476.8L746.7,476.8c0.1-0.4,0.4-0.8,0.6-1.3l0.1,0.1c-0.2,0.3-0.5,0.7-0.7,1c0,0,0.1,0,0.1,0.1L746.7,476.8z M679.3,501.5
		c0.4,0,0.8,0,1.3,0l0.1,0.1c-0.5,0-1.1,0-1.6,0.1C679.2,501.6,679.3,501.5,679.3,501.5z M711.1,496.2c-0.1,0.1-0.2,0.1-0.3,0.2
		c-0.1,0-0.2,0-0.3,0C710.6,496.3,710.8,496.2,711.1,496.2z M712.3,474.1c-0.1-0.2-0.2-0.4-0.4-0.5c1.3-0.2,2.6-0.4,3.9-0.6
		C714.6,473.4,713.4,473.8,712.3,474.1z M559.4,515.5c0.2,0,0.3-0.1,0.5-0.1C559.8,515.5,559.6,515.5,559.4,515.5z M731,497.7
		c0.1,0,0.1,0.1,0.2,0.1c-0.3,0.2-0.6,0.3-0.9,0.5C730.5,498.1,730.8,497.9,731,497.7z M736.5,494.1c-0.1-0.2-0.2-0.3-0.3-0.5
		c0.4-0.3,0.7-0.7,1.1-1c0.1,0.3,0.3,0.5,0.6,0.7c-0.1,0.1-0.2,0.2-0.3,0.2C737.2,493.8,736.8,494,736.5,494.1z M714.9,470
		c1.1,0.4,2.1,0.8,3.2,1.2c0.8,0.3,0.4,1.5-0.3,1.2c-1.1-0.4-2.1-0.8-3.2-1.2C713.9,470.9,714.2,469.7,714.9,470z M596.7,513.5
		c1.5,0,2.9-0.1,4.4-0.1c-1.4,0.1-2.9,0.2-4.3,0.3C596.7,513.7,596.7,513.6,596.7,513.5z M657.3,507.2c1.1,0,2.3-0.1,3.4-0.1
		c-1.1,0.2-2.2,0.3-3.3,0.5C657.4,507.4,657.4,507.3,657.3,507.2z M707.2,501c0.2,0,0.3-0.1,0.5-0.1C707.5,501,707.3,501,707.2,501z
		 M758,466.3c0.1-0.1,0.2-0.2,0.2-0.3c-0.1,0.1-0.1,0.3-0.2,0.4C758,466.4,758,466.4,758,466.3z M550.9,508.6c0.1,0,0.2,0,0.3,0
		C551.1,508.6,551,508.7,550.9,508.6z M530.8,528.9c4-4.1,8.3-7.8,12.7-11.4c3-2.4,5.9-5.3,10-4.8c0.8,0.1,0.8,1.4,0,1.2
		c-4.8-0.6-9.3,4.6-12.7,7.5c-3.1,2.6-6.2,5.4-9.1,8.4C531.1,530.4,530.2,529.5,530.8,528.9z M538.2,524.7c0.1-0.1,0.2-0.2,0.4-0.3
		c0,0,0,0,0.1,0c0,0,0,0-0.1,0C538.5,524.6,538.4,524.7,538.2,524.7z M538.7,527.9c3-2.2,5.9-4.7,9-6.8c2.6-1.8,5.5-2.2,8.5-2.5
		c0.8-0.1,0.8,1.2,0,1.3c-3.7,0.4-6.5,1.2-9.5,3.5c-2.5,1.8-4.9,3.7-7.4,5.6C538.7,529.5,538.1,528.4,538.7,527.9z"/>
	<path class="st5" d="M678.8,892c-0.2-6.3-3.5-10.1-8.8-10.9c-3.9-1.5-7.5,0-11.5,0.6c-1.7,0-3.5,0-5.2-0.2c-0.1,0-0.1,0-0.1,0
		c-4.1-2.3-7-8-9.7-11.4c-3.6-4.5-7.6-8.6-11.9-12.5c-0.2-0.2-0.5-0.3-0.7-0.3c0-0.1-0.1-0.2-0.2-0.3c-0.3-0.7-1.1-0.3-1.2,0.3
		c-0.1,0.1-0.1,0.1-0.1,0.2c-0.1,0.3-0.2,0.5-0.3,0.8c-0.1,0.1-0.1,0.2-0.2,0.3c-0.2,0.1-0.4,0.3-0.5,0.6c-0.4,1-0.8,2.1-1.2,3.1
		c-4.1,6.4-8.6,12.3-13.6,18c-0.5,0.4-1,0.8-1.5,1.1c-0.1,0-0.2,0-0.3,0.1c-0.1,0.1-0.2,0.1-0.3,0.2c-0.4,0.3-0.7,0.6-1,0.9
		c0,0,0,0.1-0.1,0.1c-0.2,0.3-0.2,0.7,0.2,0.9c0.1,0.1,0.2,0.1,0.4,0.2c0.1,0.2,0.2,0.4,0.4,0.5c8.6,5.8,16,13.1,21.8,21.7
		c0,0.1,0,0.2,0.1,0.3c3.6,12.3-0.4,24.7-0.7,37.1c-0.3,12.2,1.5,24.5,2.5,36.7c-0.1,0.2-0.1,0.5-0.1,0.8c0.8,3.5-1.2,6.5-3.4,9
		c-0.2,0.2-0.3,0.4-0.5,0.5c-2.6,1.2-5.5,1.9-8.3,2.9c-2.2,0.7-4.1,1.4-4.7,3.8c-0.1,0.3,0,0.7,0.1,0.9c-0.1,0.3-0.3,0.7-0.3,1.1
		c-0.1,1.8,1.1,3,2.8,3.2c2.6,0.4,5.5-0.1,8.2-1.1c0.2,0.3,0.4,0.5,0.7,0.6c2.1,0.6,3.8-0.4,5.4-1.6c0.2,0.6,0.9,1,1.5,0.8
		c1.1-0.3,2.2-0.8,3-1.3c0.3,0.4,0.8,0.7,1.4,0.5c1.4-0.4,2.6-1,3.7-1.7c0.1,0,0.1,0,0.1,0c0.6-0.1,1.2-0.2,1.7-0.4
		c-0.4,0-0.7-0.4-0.6-0.8c0.4-1.3,1.2-2.3,2.2-3.3c1.4-1.4,3.4-2.9,3-5.2c-0.1-0.8,1.1-1.1,1.2-0.3c0.7,4.3-4,5.7-5.2,9.2
		c0,0.1-0.1,0.2-0.2,0.3c0.2-0.1,0.4-0.1,0.6-0.2c0.2,0.1,0.5,0.2,0.9,0.1c0,0,0,0,0.1,0v0.1c0.3-0.1,0.5-0.2,0.8-0.3
		c1.7-0.5,3.2-1.2,4.2-2.4c0.7,0.5,1.9,0.1,2.1-1c0.5-4.1,2.4-7.6,3.8-11.4c1.5-3.7,2.1-7.5,2.3-11.4c0.4-9.3-0.3-18.7-1.1-27.9
		c0-0.1,0-0.2-0.1-0.3c0-0.1,0-0.2,0-0.4c0-0.3,0-0.6,0-1c-0.4,0.2-1,0-1-0.5c-0.1-3,0-6,0.3-9c0.1-0.8,1.4-0.8,1.2,0
		c-0.3,2.5-0.4,5-0.4,7.5c0.3-2.2,0.8-4.3,1.6-6.4c1.9-5.1,5.4-8.9,8.8-13.1c2.5-3.1,4.1-6.6,5.1-10.2
		C678.5,904.5,679,898.3,678.8,892z M631,860.5L631,860.5C630.9,860.4,630.9,860.5,631,860.5z M672.5,903.6c0.1-1,0.2-2,0.3-3
		c0.1-0.2,0.1-0.3,0.2-0.5c-0.1,0-0.1,0-0.2,0c0-0.4,0.1-0.8,0.1-1.3c0-0.2,0-0.4-0.1-0.6c0.1-0.5,0.2-1,0.3-1.4c0,0,0.1,0,0.1-0.1
		C673.3,899,673,901.3,672.5,903.6z M661.5,896.2c0,0.2-0.1,0.4-0.1,0.6c-0.1,0.1-0.1,0.2-0.2,0.4l-0.1-0.1
		C661.2,896.8,661.3,896.5,661.5,896.2C661.4,896.2,661.5,896.2,661.5,896.2z M666.9,911.2c0.2-0.1,0.3-0.2,0.4-0.4
		c-0.3,0.9-0.7,1.8-1,2.6C666.5,912.7,666.7,911.9,666.9,911.2z M653,899.7c0.7,0.5,0,1.6-0.6,1.1c-4-3.1,0.2-10.3-5.6-11.8
		c-1.8-0.5-3.8-0.2-5.6-0.9c-2.4-0.8-4.3-2.7-6.2-4.4c-0.6-0.6,0.3-1.5,0.8-1c2.7,2.6,5.1,4.4,8.9,4.8c1.5,0.2,3.1,0.3,4.5,1.1
		C653.4,891.2,649.4,896.9,653,899.7z M625.3,887.9c0.2,0.3,0.5,0.5,0.7,0.8v0.1c0,0.1,0.1,0.2,0.1,0.3c-0.4-0.4-0.9-0.7-1.3-1.1
		C625,887.9,625.1,887.9,625.3,887.9z M638.4,934c0-0.5,0.1-1,0.1-1.4C638.4,933.1,638.4,933.6,638.4,934z M638.4,938.4
		c0,0.1-0.1,0.3-0.1,0.4c0-0.2,0-0.4,0-0.6C638.3,938.4,638.4,938.4,638.4,938.4z M669.6,884.5L669.6,884.5
		C669.6,884.5,669.5,884.5,669.6,884.5c-0.3,0.1-0.5,0.2-0.7,0.2c-0.2-0.2-0.4-0.4-0.6-0.5c0.2,0,0.5,0,0.7,0c0.3,0,0.6,0.1,0.9,0.1
		C669.8,884.4,669.7,884.5,669.6,884.5z M625.4,867.2L625.4,867.2c0.1-0.3,0.3-0.6,0.5-0.9C625.7,866.6,625.6,866.9,625.4,867.2z
		 M636.9,922.5c0.2,0.1,0.4,0.2,0.6,0.3c-0.3,0.4-0.5,0.9-0.8,1.4C636.9,923.6,636.9,923.1,636.9,922.5z M628.2,998.4
		C628.3,998.4,628.3,998.5,628.2,998.4c-0.2,0.2-0.4,0.2-0.7,0.3C627.8,998.6,628,998.5,628.2,998.4z M628.1,1000
		c1.1-1.6,2.4-2.9,4-4c2.4-1.6,5.3-2.5,4.8-6.1c-0.1-0.8,1.1-1.1,1.2-0.3c0.3,2.1-0.3,4.1-1.9,5.5c-0.9,0.8-2.1,1.2-3.2,1.9
		c-1.6,0.9-2.9,2.2-3.9,3.7C628.6,1001.4,627.5,1000.8,628.1,1000z M637.9,998.8c0.3-1.5,1.3-2.4,2.5-3.3c0.8-0.6,1.7-1.1,2.3-1.9
		c1.1-1.2,1-2.7,0.9-4.2c-0.1-0.8,1.1-0.8,1.2,0c0.2,2.1,0,3.9-1.5,5.4c-1.5,1.4-3.8,2.3-4.2,4.4C639,1000,637.8,999.7,637.9,998.8z
		"/>
	<path class="st24" d="M678.1,200.8c-0.4-0.6-0.8-1.2-1-1.9c-0.1-0.2-0.3-0.4-0.4-0.6c-0.1,0-0.1,0-0.2,0.1
		c-0.1-0.3-0.1-0.5-0.2-0.8c-0.6-1.1-1-2.4-1.2-3.6C675.2,196.5,676.3,198.9,678.1,200.8z"/>
	<path class="st25" d="M787.2,296.3c-0.9-10.3-2-21.1-6.1-30.4c0.2-0.5,0.2-1-0.2-1.6c-3.8-6.4-7.8-12.8-14.2-16.9
		c-2.5-1.6-5.2-2.8-8-3.9c-4.9-2.7-10-5.1-14.9-7.4c-2.2-1-4.5-2.1-6.8-3.2c-3-2.7-5.4-6-7.3-10.1c-3.5-7.5-5-15.8-7.2-23.7
		c-1.6-5.9-3.8-11.7-7-16.4c1.6-0.8,2.9-2.1,3.6-3.9c0.1-0.1,0.1-0.3,0.1-0.4c1.5-2.2,2.3-4.8,2.2-7.6c0-0.8-0.2-1.6-0.4-2.5
		c0.8-3.3,0.7-6.8-1.3-9.5c-4-5.5-11-6.2-16.5-3.7c-2.2,0.5-4.4,1.7-6.2,3.8c-2.6,2.9-4.4,7.5-3.7,11.5c0,0.2,0,0.4,0,0.6
		c-0.1-0.1-0.3-0.2-0.5-0.3c-5.3-0.8-10.1,0.2-14.1,2.3c-9.9,4.3-17.2,15.1-16.4,26.3c0.1,0.9,0.9,1.3,1.6,1.2c0.4,0.3,1,0.3,1.5,0
		c0,0,0.1,0,0.1-0.1c0.3-0.3,0.5-0.5,0.8-0.8c0.3-0.1,0.6-0.3,0.7-0.8c0.1-0.1,0.2-0.2,0.3-0.3c1.2-1.1,2.3-2.3,3-3.8
		c0.1-0.1,0.2-0.3,0.2-0.4c1.2-1.7,2.3-3.5,3.5-5.3c0.2-0.1,0.4-0.3,0.5-0.5c0-0.1,0.1-0.2,0.1-0.2c-0.5,0.2-1.1-0.3-0.8-1
		c1.7-3.3,3.7-6.3,6.2-9.1c0.6-0.6,1.4,0.3,0.9,0.9c-2.4,2.7-4.3,5.6-5.9,8.8c0.1,0.1,0.3,0.2,0.4,0.3c-0.1,0.3-0.1,0.7-0.1,1.1
		c-0.4,1.5-0.5,3.2-0.2,4.8c0.2,1.3,0.6,2.5,1.2,3.6c0.1,0.3,0.1,0.5,0.2,0.8c0.1,0,0.1,0,0.2-0.1c0.1,0.3,0.2,0.5,0.4,0.6
		c0.3,0.7,0.6,1.3,1,1.9c0.5,0.7,1.2,1.4,2,1.9c2.4,1.7,5.1,1.9,7.6,1.2c0.1,0,0.2,0,0.3-0.1c1.9-0.7,3.2-1.5,4.6-3
		c-0.1-0.1-0.1-0.1-0.2-0.2c0-0.1,0.1-0.1,0.1-0.2c0.1,0,0.2-0.1,0.3-0.1c4.9,2.5,5.9,4.9,2.9,7.3c-3.5,3.6-7.9,5.9-7.3,11.6
		c0.7,7.6,8.5,10.8,12.3,16.6c4.3,6.7,1.7,14.6,4.5,21.7c2,5.1,5.9,9.3,10.9,11.6c1.3,0.6,2.7,1,4.1,1.4c1.8,0.8,3.7,1.4,5.7,1.9
		c1.3,0.3,2.7,0.6,4.1,0.8c9.7,1.5,19.1,2.8,28.1,6.9c9.4,4.3,17.8,10.4,24.8,18C784.3,299.6,787.4,298.5,787.2,296.3z M700.9,169.4
		c0.1-0.1,0.1-0.1,0.2-0.2c0,0.2-0.1,0.3-0.1,0.5s0,0.4,0,0.6c-0.1-0.2-0.2-0.4-0.3-0.6C700.8,169.6,700.8,169.5,700.9,169.4z
		 M709.4,184c0,0.1,0,0.1,0,0.2c-1-0.2-1.9-0.2-2.6,0.1v-0.1c0-0.2-0.1-0.3-0.2-0.4C707.6,183.9,708.5,184,709.4,184z M714.2,257.9
		c0.6,1.9,1.6,3.7,3.1,5.2c-0.3-0.3-0.6-0.5-0.9-0.8c-1.5-1.5-2.7-3.2-3.7-5.1C713.2,257.5,713.7,257.7,714.2,257.9z M720.6,265.1
		c0,0.1,0.1,0.1,0.1,0.2c-0.4-0.2-0.8-0.4-1.2-0.7C719.9,264.8,720.2,265,720.6,265.1z M717.8,263.4c-0.1-0.1-0.2-0.2-0.3-0.2
		C717.6,263.3,717.7,263.4,717.8,263.4z M759.9,253.9c-0.5-0.4-1-0.8-1.5-1.2c0.5,0.3,1.1,0.7,1.6,1
		C760,253.8,760,253.8,759.9,253.9z M702.8,183c-0.1-0.1-0.2-0.2-0.3-0.3c0.1,0.1,0.3,0.1,0.4,0.2C702.9,182.9,702.9,183,702.8,183z
		 M697.2,215.1L697.2,215.1z M732.3,268.2c0.6,0.2,1.3,0.4,1.9,0.5c-0.7-0.1-1.4-0.2-2.1-0.3C732.2,268.3,732.3,268.3,732.3,268.2z
		 M692.5,219.9c-0.3-1.3-0.2-2.6,0.4-4C692.6,217.2,692.4,218.6,692.5,219.9z M726,223.4c-0.1,0-0.2,0.1-0.3,0.1
		c-0.1-0.1-0.1-0.1-0.2-0.2c-0.3-1.1-0.6-2.2-0.9-3.2c0.1,0.2,0.1,0.3,0.2,0.5C725.2,221.5,725.6,222.4,726,223.4z"/>
	<path class="st19" d="M687.1,235.9L687.1,235.9c1,3.1,1.7,6,2,9.2c0,0.3,0.3,0.5,0.5,0.6c0.1,0.6,0.9,0.8,1.1,0.3
		c0.2,0,0.4-0.2,0.5-0.5c0.9-5,1.3-10,1.4-15.1c0-0.1,0-0.1,0-0.2c0-0.7-1.1-0.9-1.2-0.2c-0.1,0.6-0.3,1.2-0.4,1.7
		c-1.5,1.1-2.9,2.2-4.4,3.3c-0.2,0.1-0.3,0.2-0.3,0.4c0,0.2,0.1,0.4,0.3,0.5C686.8,235.9,686.9,235.9,687.1,235.9z M689.6,234
		c0,0.1-0.1,0.3-0.1,0.4c-0.3,0-0.6,0.2-0.6,0.6c0,0.4,0,0.7,0,1.1c-0.2-0.3-0.5-0.5-0.9-0.8h-0.1
		C688.5,234.8,689.1,234.4,689.6,234z"/>
	<path class="st19" d="M664.7,209.2c1-0.3,2.1-0.3,3.1,0c0.1,1.3,0.2,2.6,0.1,3.9c0.3,0.2,0.3,0.7,0,1c-0.1,1.2-0.2,2.3-0.4,3.5
		c-0.3,1.7-1.1,3.4-0.6,5.1c0.1,0.3,0.3,0.4,0.6,0.4c-0.1,0.4,0.2,0.9,0.7,0.8c1.1-0.4,2.3-0.7,3.4-1.1c0.8-0.2,0.4-1.4-0.3-1.2
		c-1,0.4-2.1,0.7-3.2,1c0-0.1,0-0.1,0-0.2c-0.5-1.8,0.7-4.7,0.9-6.6c0.2-2.2,0.2-4.4,0-6.5c0-0.2-0.1-0.3-0.1-0.4
		c0.1-0.3-0.1-0.7-0.5-0.8c-1.3-0.4-2.6-0.5-4-0.1h-0.1c-0.5,0.1-0.4,0.7-0.2,1C664.3,209.2,664.5,209.3,664.7,209.2z"/>
	<path class="st19" d="M684.4,208.4c-2.7-0.4-7.5-1.1-10.4,0.3c-0.1,0-0.2,0.1-0.2,0.1c-1.3,0.7-2.2,1.9-2.3,3.8
		c0,0.8,1.2,0.8,1.3-0.1c0.2-4.8,8.3-3.5,11.3-3C684.9,209.7,685.2,208.5,684.4,208.4z"/>
	<path class="st19" d="M714.6,471.2c1.1,0.4,2.1,0.8,3.2,1.2c0.7,0.3,1.1-0.9,0.3-1.2c-1.1-0.4-2.1-0.8-3.2-1.2
		C714.2,469.7,713.9,470.9,714.6,471.2z"/>
	<path class="st19" d="M536.9,519c3.6-2.7,9.3-8.9,14.1-8.7c0.7-0.1,0.7-1.3-0.1-1.3c-4.5-0.2-8.3,4-11.6,6.6
		c-0.6,0.5-1.2,0.9-1.8,1.4c-0.3,0.2-0.6,0.5-0.9,0.7c-4.2,3.1-8.4,6.2-12.5,9.4c-0.5,0.4-0.2,1.2,0.3,1.2c0.1,0,0.2,0,0.3-0.1
		l0.1-0.1C528.9,525,532.8,522.1,536.9,519z"/>
	<path class="st19" d="M531.7,529.8c2.9-3,6-5.8,9.1-8.4c3.4-2.9,7.9-8.1,12.7-7.5c0.8,0.2,0.8-1.1,0-1.2c-4.1-0.5-7,2.4-10,4.8
		c-4.4,3.6-8.7,7.3-12.7,11.4C530.2,529.5,531.1,530.4,531.7,529.8z"/>
	<path class="st19" d="M539.3,529c2.5-1.9,4.9-3.8,7.4-5.6c3-2.3,5.8-3.1,9.5-3.5c0.8-0.1,0.8-1.4,0-1.3c-3,0.3-5.9,0.7-8.5,2.5
		c-3.1,2.1-6,4.6-9,6.8C538.1,528.4,538.7,529.5,539.3,529z"/>
	<path class="st19" d="M575.8,517.1c0.3-0.7-0.8-1.4-1.1-0.6c-0.5,0.9-1,1.6-1.8,2.3c-0.2,0.2-0.2,0.5-0.1,0.7
		c0.2,0.3,0.6,0.5,1,0.2c0.3-0.2,0.5-0.5,0.8-0.8C575,518.4,575.5,517.8,575.8,517.1z"/>
	<path class="st19" d="M361.9,425.9c-5.6,1.1-11.1,1.5-16.8,1.2c-0.8,0-0.8,1.3,0,1.3c5.8,0.3,11.5-0.2,17.1-1.3
		C363,426.9,362.7,425.7,361.9,425.9z"/>
	<path class="st19" d="M649.2,888.6c-1.4-0.8-3-0.9-4.5-1.1c-3.8-0.4-6.2-2.2-8.9-4.8c-0.5-0.5-1.4,0.4-0.8,1
		c1.9,1.7,3.8,3.6,6.2,4.4c1.8,0.7,3.8,0.4,5.6,0.9c5.8,1.5,1.6,8.7,5.6,11.8c0.6,0.5,1.3-0.6,0.6-1.1
		C649.4,896.9,653.4,891.2,649.2,888.6z"/>
	<path class="st19" d="M633,997c1.1-0.7,2.3-1.1,3.2-1.9c1.6-1.4,2.2-3.4,1.9-5.5c-0.1-0.8-1.3-0.5-1.2,0.3c0.5,3.6-2.4,4.5-4.8,6.1
		c-1.6,1.1-2.9,2.4-4,4c-0.6,0.8,0.5,1.4,1,0.7C630.1,999.2,631.4,997.9,633,997z"/>
	<path class="st19" d="M643.3,994.8c1.5-1.5,1.7-3.3,1.5-5.4c-0.1-0.8-1.3-0.8-1.2,0c0.1,1.5,0.2,3-0.9,4.2
		c-0.6,0.8-1.5,1.3-2.3,1.9c-1.2,0.9-2.2,1.8-2.5,3.3c-0.1,0.9,1.1,1.2,1.2,0.4C639.5,997.1,641.8,996.2,643.3,994.8z"/>
	<path class="st19" d="M647,997.5c1.2-3.5,5.9-4.9,5.2-9.2c-0.1-0.8-1.3-0.5-1.2,0.3c0.4,2.3-1.6,3.8-3,5.2c-1,1-1.8,2-2.2,3.3
		c-0.1,0.5,0.3,0.8,0.6,0.8c0.2,0,0.3,0,0.4-0.1C646.9,997.7,647,997.6,647,997.5z"/>
	<path class="st19" d="M661,932.3c0.2-0.8-1.1-0.8-1.2,0c-0.3,3-0.4,6-0.3,9c0,0.5,0.6,0.7,1,0.5c0.2-0.1,0.3-0.3,0.2-0.5
		c0-0.5,0-1-0.1-1.5C660.6,937.3,660.7,934.8,661,932.3z"/>
	<path class="st19" d="M245.5,760.2c-27.4,6.1-55.6,5.1-83.4,4c-0.9,0-0.9,1.2-0.1,1.3c28,1.1,56.2,2,83.8-4.1
		C246.6,761.2,246.3,760,245.5,760.2z"/>
	<path class="st9" d="M675.2,213.4c-0.2-0.2-0.5-0.2-0.8,0c-0.2,0.2-0.5,0.4-0.7,0.6c-0.6,0.5-0.1,1.5,0.6,1.1c0,0,0,0.1,0.1,0.1
		c0.4-0.2,0.5-0.3,0.7-0.5c0.4-0.2,0.7-0.3,1.1-0.4c0.2,1,1.1,1.4,2.2,0.9c0.4-0.2,0.4-0.5,0.2-0.8c2,0,4-0.1,6-0.3
		c0.8-0.1,0.8-1.2,0-1.2C681.5,212.9,678.1,212.2,675.2,213.4z"/>
	<path class="st9" d="M664.6,214.1L664.6,214.1c0.1,0.1,0.2,0.2,0.3,0.3c0.5,0.3,0.9,0.3,1.4,0.2c0.3-0.1,0.4-0.3,0.4-0.5
		c0.2,0,0.4,0.1,0.6,0.1c0.3,0.1,0.5,0,0.6-0.1c0.3-0.2,0.4-0.7,0-1c-0.1-0.1-0.1-0.1-0.2-0.1c-1.1-0.3-2.2-0.4-3.4-0.1
		c-0.1,0-0.2,0.1-0.3,0.2c-0.2,0.2-0.2,0.6,0,0.8C664.1,214.1,664.3,214.2,664.6,214.1z"/>
	<path class="st26" d="M667.4,229.3c-0.1,0.2-0.1,0.5,0,0.7c0,0.3,0,0.6,0.2,0.8c0,0.1,0,0.2,0,0.2c0,0.8,0.8,0.9,1.4,1
		c1.3,0.1,2.6-0.1,3.8-0.2c0.5-0.1,0.6-0.5,0.4-0.8c0,0,0.1,0,0.1-0.1c0.9-0.5,0.5-1.7,0.5-2.5c0.4,0,0.7-0.1,1.1-0.2
		c0.7-0.2,0.5-1.2-0.2-1.2c-0.1,0-0.2,0-0.3,0c0,0,0,0,0-0.1c-0.1,0-0.1,0-0.2,0c-0.7-0.1-1.4-0.2-2-0.4c-0.4-0.2-0.8-0.4-1.3-0.4
		c-0.6,0-1,0.2-1.3,0.6c-0.1,0-0.2,0-0.3-0.1c-0.1-0.2-0.4-0.4-0.7-0.3c-0.1,0-0.2,0-0.3,0.1c-0.2-0.3-0.5-0.5-0.7-0.5
		c-1.7,0-1.1,2.4-0.5,3.1C667.1,229.2,667.2,229.3,667.4,229.3z"/>
	<path class="st27" d="M693.2,172.1c1.4,1.2,2.9,2,4.5,2.9c2.7,1.5,4.2,3.2,6.5,5.1c2.9,2.3,6.4,3.2,10,2.9c0.8-0.1,0.8-1.3,0-1.2
		c-5.3,0.5-8.3-1.9-11.8-5.5c-2.3-2.3-5.7-2.9-8.3-5C693.4,170.7,692.6,171.6,693.2,172.1z"/>
	<path class="st27" d="M674.9,187.9l0.1-0.1c1.6-3.1,3.6-6.1,5.9-8.8c0.5-0.6-0.3-1.5-0.9-0.9c-2.5,2.8-4.5,5.8-6.2,9.1
		c-0.2,0.6,0.4,1.1,0.8,1C674.7,188.1,674.8,188,674.9,187.9z"/>
</g>
</svg>
