<?xml version="1.0" encoding="UTF-8" standalone="no"?>
<!-- Generator: Adobe Illustrator 23.1.1, SVG Export Plug-In . SVG Version: 6.00 Build 0)  -->

<svg
   version="1.1"
   id="Layer_1"
   x="0px"
   y="0px"
   viewBox="0 0 258 511.80002"
   xml:space="preserve"
   sodipodi:docname="frankenstein.svg"
   width="258"
   height="511.80002"
   inkscape:version="1.1.2 (0a00cf5339, 2022-02-04)"
   xmlns:inkscape="http://www.inkscape.org/namespaces/inkscape"
   xmlns:sodipodi="http://sodipodi.sourceforge.net/DTD/sodipodi-0.dtd"
   xmlns="http://www.w3.org/2000/svg"
   xmlns:svg="http://www.w3.org/2000/svg"><defs
   id="defs308" /><sodipodi:namedview
   id="namedview306"
   pagecolor="#ffffff"
   bordercolor="#666666"
   borderopacity="1.0"
   inkscape:pageshadow="2"
   inkscape:pageopacity="0.0"
   inkscape:pagecheckerboard="0"
   showgrid="false"
   inkscape:zoom="1.55"
   inkscape:cx="77.741936"
   inkscape:cy="305.16129"
   inkscape:window-width="1920"
   inkscape:window-height="947"
   inkscape:window-x="0"
   inkscape:window-y="32"
   inkscape:window-maximized="1"
   inkscape:current-layer="Layer_1" />
<style
   type="text/css"
   id="style2">
	.st0{fill:#593F7C;}
	.st1{fill:#EEF2F4;}
	.st2{opacity:0.55;fill:#221C58;}
	.st3{fill:#5EA652;}
	.st4{fill:#4B9B56;}
	.st5{fill:none;stroke:#041D31;stroke-width:6;stroke-linecap:round;stroke-linejoin:round;stroke-miterlimit:10;}
	.st6{fill:#70BA61;}
	.st7{fill:#44934C;}
	.st8{fill:#2B323A;}
	.st9{opacity:0.8;fill:#252C33;}
	.st10{fill:#252C33;}
	.st11{opacity:0.8;}
	.st12{fill:#FFFFFF;}
	.st13{fill:#041D31;}
	.st14{fill:#534741;}
	.st15{fill:#4C3E38;}
	.st16{fill:#FFAD57;}
	.st17{opacity:0.83;fill:#E89567;}
	.st18{fill:none;stroke:#041D31;stroke-width:2;stroke-linecap:round;stroke-linejoin:round;stroke-miterlimit:10;}
	.st19{fill:#BBBE93;}
	.st20{fill:#8A8D91;}
	.st21{fill:#9DA0A5;}
	.st22{fill:#ADB3BC;}
	.st23{fill:#686F77;}
	.st24{fill:#727984;}
	.st25{opacity:0.65;fill:none;stroke:#D8865D;stroke-width:3;stroke-linecap:round;stroke-linejoin:round;stroke-miterlimit:10;}
</style>


<ellipse
   id="XMLID_118_"
   class="st2"
   cx="129"
   cy="492.80002"
   rx="118"
   ry="19"
   style="fill:#2e3039;fill-opacity:1" />
<path
   id="XMLID_80_"
   class="st3"
   d="m 151,265.1 h -44 c -39.8,0 -72,-32.4 -72,-72.2 V 85.1 h 188 v 107.8 c 0,39.8 -32.2,72.2 -72,72.2 z" />
<path
   id="XMLID_112_"
   class="st4"
   d="M 79.5,195.5 V 85.1 H 35 v 107.8 c 0,39.8 32.2,72.2 72,72.2 h 26.2 C 102.3,257 79.5,228.9 79.5,195.5 Z" />
<path
   id="XMLID_1_"
   class="st5"
   d="m 151,265.1 h -44 c -39.8,0 -72,-32.4 -72,-72.2 V 85.1 h 188 v 107.8 c 0,39.8 -32.2,72.2 -72,72.2 z" />
<path
   id="XMLID_83_"
   class="st3"
   d="M 210.4,17.9 C 156.8,6.1 101.2,6.1 47.5,17.9 40.2,19.5 34.9,26 34.9,33.5 v 51.4 c 61.7,15.8 126.3,15.8 188,0 V 33.5 C 223,26.1 217.8,19.6 210.4,17.9 Z" />
<path
   id="XMLID_22_"
   class="st6"
   d="m 210.4,17.9 c -1.8,-0.4 -3.6,-0.8 -5.4,-1.2 v 72.4 c 6,-1.2 12,-2.6 18,-4.2 V 33.5 c 0,-7.4 -5.2,-13.9 -12.6,-15.6 z" />
<path
   id="XMLID_120_"
   class="st4"
   d="m 79.5,38.7 c 0,-10.1 3,-19.5 8.2,-27.4 C 74.2,12.8 60.8,15 47.6,17.9 40.3,19.5 35,26 35,33.5 v 51.4 c 14.7,3.8 29.6,6.6 44.5,8.6 z" />
<path
   id="XMLID_115_"
   class="st4"
   d="m 231,182.1 h -8 v -54 h 8 c 6.6,0 12,5.7 12,12.3 v 30 c 0,6.6 -5.4,11.7 -12,11.7 z" />
<path
   id="XMLID_4_"
   class="st5"
   d="m 231,182.1 h -8 v -54 h 8 c 6.6,0 12,5.7 12,12.3 v 30 c 0,6.6 -5.4,11.7 -12,11.7 z" />
<path
   id="XMLID_116_"
   class="st7"
   d="m 27,182.1 h 8 v -54 h -8 c -6.6,0 -12,5.7 -12,12.3 v 30 c 0,6.6 5.4,11.7 12,11.7 z" />
<path
   id="XMLID_11_"
   class="st5"
   d="m 27,182.1 h 8 v -54 h -8 c -6.6,0 -12,5.7 -12,12.3 v 30 c 0,6.6 5.4,11.7 12,11.7 z" />
<path
   id="XMLID_26_"
   class="st5"
   d="m 122.7,235.4 c 1.4,-11.3 11.7,-19.4 23,-18 2.8,0.3 5.5,1.3 7.8,2.6" />
<path
   id="XMLID_93_"
   class="st8"
   d="m 72,387.4 v 90 h 54 v -47.3 c 0,-2.8 2.3,-5 5,-5 0,0 0,0 0,0 v 0 c 0,0 0,0 0,0 2.8,0 5,2.2 5,5 v 47.3 h 54 v -90 z" />
<path
   id="XMLID_253_"
   class="st9"
   d="M 145.5,477.4 H 136 v -52.3 h 1.4 c 4.5,0 8.1,3.6 8.1,8.1 z" />
<g
   id="XMLID_284_"
   transform="translate(-371,-273.9)">
	<g
   id="XMLID_345_">
		<g
   id="XMLID_348_">
			<path
   id="XMLID_349_"
   class="st10"
   d="m 514.3,699 c 0,0 0,0 0,0 0,0 0,0 0,0 z" />
		</g>
		<g
   id="XMLID_346_"
   class="st11">
			<rect
   id="XMLID_347_"
   x="443"
   y="661.29999"
   class="st10"
   width="12.2"
   height="90" />
		</g>
	</g>
</g>
<path
   id="XMLID_75_"
   class="st5"
   d="m 72,387.4 v 90 h 54 v -47.3 c 0,-2.8 2.3,-5 5,-5 0,0 0,0 0,0 v 0 c 0,0 0,0 0,0 2.8,0 5,2.2 5,5 v 47.3 h 54 v -90 z" />
<circle
   id="XMLID_111_"
   class="st3"
   cx="207.79999"
   cy="407.00003"
   r="18.5" />
<path
   id="XMLID_272_"
   class="st4"
   d="m 206.3,408.6 c -0.7,-7.7 3.5,-14.7 9.9,-18 -3,-1.6 -6.5,-2.3 -10.1,-2 -10.2,0.9 -17.7,9.9 -16.8,20.1 0.9,10.2 9.9,17.7 20.1,16.8 2.5,-0.2 4.8,-0.9 6.9,-2 -5.5,-2.9 -9.4,-8.3 -10,-14.9 z" />
<circle
   id="XMLID_123_"
   class="st5"
   cx="207.79999"
   cy="407.00003"
   r="18.5" />
<g
   id="g249"
   transform="translate(-371,-273.9)">
	<circle
   id="XMLID_82_"
   class="st12"
   cx="463.39999"
   cy="432"
   r="32" />
	<circle
   id="XMLID_9_"
   class="st5"
   cx="463.39999"
   cy="432"
   r="32" />
	<circle
   id="XMLID_16_"
   class="st13"
   cx="479.70001"
   cy="433"
   r="14" />
	<circle
   id="XMLID_49_"
   class="st12"
   cx="484.70001"
   cy="433"
   r="5" />
</g>
<path
   id="XMLID_114_"
   class="st14"
   d="M 126,477.4 H 72 v 8 c 0,3.3 2.7,6 6,6 h 42 c 3.3,0 6,-2.7 6,-6 z" />
<path
   id="XMLID_319_"
   class="st15"
   d="m 84.2,485.4 v -8 H 72 v 8 c 0,3.3 2.7,6 6,6 h 12.2 c -3.3,0 -6,-2.7 -6,-6 z" />
<path
   id="XMLID_110_"
   class="st14"
   d="m 142,491.4 h 42 c 3.3,0 6,-2.7 6,-6 v -8 h -54 v 8 c 0,3.3 2.7,6 6,6 z" />
<path
   id="XMLID_323_"
   class="st15"
   d="m 145.5,485.4 v -8 H 136 v 8 c 0,3.3 2.7,6 6,6 h 9.5 c -3.3,0 -6,-2.7 -6,-6 z" />
<path
   id="XMLID_76_"
   class="st5"
   d="M 126,477.4 H 72 v 8 c 0,3.3 2.7,6 6,6 h 42 c 3.3,0 6,-2.7 6,-6 z" />
<path
   id="XMLID_77_"
   class="st5"
   d="m 142,491.4 h 42 c 3.3,0 6,-2.7 6,-6 v -8 h -54 v 8 c 0,3.3 2.7,6 6,6 z" />
<circle
   id="XMLID_113_"
   class="st3"
   cx="54.399994"
   cy="408.60001"
   r="18.700001" />
<path
   id="XMLID_305_"
   class="st4"
   d="m 50.2,407 c 0.6,-7.2 5.2,-13 11.4,-15.6 -1.7,-0.7 -3.6,-1.2 -5.6,-1.4 -10.3,-0.9 -19.4,6.7 -20.3,17 -0.9,10.3 6.7,19.4 17,20.3 3.1,0.3 6.2,-0.3 8.9,-1.4 C 54.3,422.8 49.5,415.3 50.2,407 Z" />
<circle
   id="XMLID_30_"
   class="st5"
   cx="54.399994"
   cy="408.60001"
   r="18.700001" />
<path
   id="XMLID_19_"
   class="st16"
   d="m 226.4,406.6 -7.6,-86.9 C 217.4,304.1 205,292.1 190,290.2 c 0,0 0,0 0,-0.1 -39.2,-4.9 -78.8,-4.9 -118,0 0,0 0,0 0,0.1 -15.1,1.8 -27.4,14 -28.8,29.7 l -7.6,86.9 35.9,3.1 1,-11.7 c 38.8,4.9 78.1,4.9 116.9,0 l 1,11.6 z" />
<path
   id="XMLID_103_"
   class="st17"
   d="M 218.8,318.8 C 217.4,303.1 205,291.1 190,289.2 c 0,0 0,0 0,-0.1 -39.2,-4.9 -78.8,-4.9 -118,0 0,0 0,0 0,0.1 -15.1,1.8 -27.4,14 -28.8,29.7 l -7.6,86.9 1,0.1 6.6,-76 C 44.6,314.2 56.9,302 72,300.2 c 0,0 0,0 0,-0.1 11.2,-1.4 22.4,-2.4 33.7,-3 2,7.1 8.5,12.3 16.2,12.3 h 18.2 c 7.7,0 14.2,-5.2 16.2,-12.3 11.2,0.6 22.5,1.6 33.7,3 0,0 0,0 0,0.1 15,1.9 27.4,13.9 28.8,29.6 l 6.6,76 1,-0.1 z" />
<path
   id="XMLID_109_"
   class="st5"
   d="m 226.4,406.6 -7.6,-86.9 C 217.4,304.1 205,292.1 190,290.2 c 0,0 0,0 0,-0.1 -39.2,-4.9 -78.8,-4.9 -118,0 0,0 0,0 0,0.1 -15.1,1.8 -27.4,14 -28.8,29.7 l -7.6,86.9 35.9,3.1 1,-11.7 c 36.7,5.9 78,6.2 116.9,0 l 1,11.6 z" />
<line
   id="XMLID_108_"
   class="st5"
   x1="71.5"
   y1="409.89999"
   x2="78.299988"
   y2="332.10001" />
<path
   id="XMLID_98_"
   class="st5"
   d="M 180,290.2" />
<path
   id="XMLID_92_"
   class="st5"
   d="M 183.7,332.1" />
<line
   id="XMLID_25_"
   class="st5"
   x1="189.5"
   y1="398.19998"
   x2="183.70001"
   y2="332.10001" />
<path
   id="XMLID_91_"
   class="st13"
   d="M 212.2,10.1 C 184.9,4.1 157,1 129,1 101.1,1 73.1,4 45.8,10.1 34.9,12.5 27,22.4 27,33.5 V 52 l 6,1 c 7.4,1.2 14.9,2.2 22.3,3.2 L 61.2,36.9 H 69 l 1.1,20.9 c 6.8,0.7 13.7,1.2 20.6,1.6 L 93,36.9 96.1,59.8 c 8.7,0.5 17.4,0.8 26.1,0.8 l 3.8,-21.7 3,21.8 14.5,-3.5 6.2,-29.8 17.6,32 c 7.3,-0.5 14.6,-1 21.9,-1.8 V 34.3 l 5.2,-1 8.6,22.7 c 4.4,-0.5 8.9,-1.1 13.3,-1.8 -0.5,-10.5 -1.3,-30.1 0.3,-27 1.6,3.1 7,17.7 9.8,25.4 l 4.5,-0.7 V 33.4 c 0.1,-11 -7.8,-20.9 -18.7,-23.3 z" />
<path
   id="XMLID_15_"
   class="st18"
   d="M 212.2,10.1 C 184.9,4.1 157,1 129,1 101.1,1 73.1,4 45.8,10.1 34.9,12.5 27,22.4 27,33.5 V 52 l 6,1 c 7.4,1.2 14.9,2.2 22.3,3.2 L 61.2,36.9 H 69 l 1.1,20.9 c 6.8,0.7 13.7,1.2 20.6,1.6 L 93,36.9 96.1,59.8 c 8.7,0.5 17.4,0.8 26.1,0.8 l 3.8,-21.7 3,21.8 14.5,-3.5 6.2,-29.8 17.6,32 c 7.3,-0.5 14.6,-1 21.9,-1.8 V 34.3 l 5.2,-1 8.6,22.7 c 4.4,-0.5 8.9,-1.1 13.3,-1.8 -0.5,-10.5 -1.3,-30.1 0.3,-27 1.6,3.1 7,17.7 9.8,25.4 l 4.5,-0.7 V 33.4 c 0.1,-11 -7.8,-20.9 -18.7,-23.3 z" />
<path
   id="XMLID_7_"
   class="st5"
   d="M 210.4,19.7 C 156.8,8.1 101.2,8.1 47.5,19.7 40.2,21.3 34.9,27.6 34.9,35 v 50.2 c 61.7,15.5 126.3,15.5 188,0 V 35 C 223,27.7 217.8,21.3 210.4,19.7 Z" />
<path
   id="XMLID_85_"
   class="st19"
   d="m 65.5,107.1 h -0.6 c -4.2,0 -7.7,-3.4 -7.7,-7.7 V 82.8 c 0,-4.2 3.4,-7.7 7.7,-7.7 h 0.6 c 4.2,0 7.7,3.4 7.7,7.7 v 16.6 c 0,4.3 -3.5,7.7 -7.7,7.7 z" />
<path
   id="XMLID_84_"
   class="st5"
   d="m 65.5,107.1 h -0.6 c -4.2,0 -7.7,-3.4 -7.7,-7.7 V 82.8 c 0,-4.2 3.4,-7.7 7.7,-7.7 h 0.6 c 4.2,0 7.7,3.4 7.7,7.7 v 16.6 c 0,4.3 -3.5,7.7 -7.7,7.7 z" />
<path
   id="XMLID_191_"
   class="st19"
   d="m 105,110.3 h -0.6 c -4.2,0 -7.7,-3.4 -7.7,-7.7 V 86 c 0,-4.2 3.4,-7.7 7.7,-7.7 h 0.6 c 4.2,0 7.7,3.4 7.7,7.7 v 16.6 c 0,4.3 -3.5,7.7 -7.7,7.7 z" />
<path
   id="XMLID_188_"
   class="st5"
   d="m 105,110.3 h -0.6 c -4.2,0 -7.7,-3.4 -7.7,-7.7 V 86 c 0,-4.2 3.4,-7.7 7.7,-7.7 h 0.6 c 4.2,0 7.7,3.4 7.7,7.7 v 16.6 c 0,4.3 -3.5,7.7 -7.7,7.7 z" />
<path
   id="XMLID_210_"
   class="st19"
   d="m 145.9,108.6 h -0.6 c -4.2,0 -7.7,-3.4 -7.7,-7.7 V 84.3 c 0,-4.2 3.4,-7.7 7.7,-7.7 h 0.6 c 4.2,0 7.7,3.4 7.7,7.7 v 16.6 c 0,4.3 -3.5,7.7 -7.7,7.7 z" />
<path
   id="XMLID_195_"
   class="st5"
   d="m 145.9,108.6 h -0.6 c -4.2,0 -7.7,-3.4 -7.7,-7.7 V 84.3 c 0,-4.2 3.4,-7.7 7.7,-7.7 h 0.6 c 4.2,0 7.7,3.4 7.7,7.7 v 16.6 c 0,4.3 -3.5,7.7 -7.7,7.7 z" />
<path
   id="XMLID_217_"
   class="st19"
   d="m 188.4,108.6 h -0.6 c -4.2,0 -7.7,-3.4 -7.7,-7.7 V 84.3 c 0,-4.2 3.4,-7.7 7.7,-7.7 h 0.6 c 4.2,0 7.7,3.4 7.7,7.7 v 16.6 c 0,4.3 -3.5,7.7 -7.7,7.7 z" />
<path
   id="XMLID_214_"
   class="st5"
   d="m 188.4,108.6 h -0.6 c -4.2,0 -7.7,-3.4 -7.7,-7.7 V 84.3 c 0,-4.2 3.4,-7.7 7.7,-7.7 h 0.6 c 4.2,0 7.7,3.4 7.7,7.7 v 16.6 c 0,4.3 -3.5,7.7 -7.7,7.7 z" />
<rect
   id="XMLID_14_"
   x="223"
   y="79.099998"
   class="st20"
   width="16"
   height="12" />
<rect
   id="XMLID_12_"
   x="223"
   y="79.099998"
   class="st5"
   width="16"
   height="12" />
<path
   id="XMLID_18_"
   class="st21"
   d="m 248.6,101.1 h -3.2 c -3.5,0 -6.4,-2.9 -6.4,-6.4 V 75.5 c 0,-3.5 2.9,-6.4 6.4,-6.4 h 3.2 c 3.5,0 6.4,2.9 6.4,6.4 v 19.2 c 0,3.5 -2.9,6.4 -6.4,6.4 z" />
<path
   id="XMLID_275_"
   class="st21"
   d="m 248.6,101.1 h -3.2 c -3.5,0 -6.4,-2.9 -6.4,-6.4 V 75.5 c 0,-3.5 2.9,-6.4 6.4,-6.4 h 3.2 c 3.5,0 6.4,2.9 6.4,6.4 v 19.2 c 0,3.5 -2.9,6.4 -6.4,6.4 z" />
<path
   id="XMLID_278_"
   class="st22"
   d="m 251.4,78.3 h -8.8 c -2,0 -3.6,-1.6 -3.6,-3.6 v -2 c 0,-2 1.6,-3.6 3.6,-3.6 h 8.8 c 2,0 3.6,1.6 3.6,3.6 v 2 c 0,2 -1.6,3.6 -3.6,3.6 z" />
<path
   id="XMLID_17_"
   class="st5"
   d="m 248.6,101.1 h -3.2 c -3.5,0 -6.4,-2.9 -6.4,-6.4 V 75.5 c 0,-3.5 2.9,-6.4 6.4,-6.4 h 3.2 c 3.5,0 6.4,2.9 6.4,6.4 v 19.2 c 0,3.5 -2.9,6.4 -6.4,6.4 z" />
<rect
   id="XMLID_212_"
   x="-35"
   y="-91.099998"
   transform="scale(-1)"
   class="st23"
   width="16"
   height="12" />
<rect
   id="XMLID_119_"
   x="-35"
   y="-91.099998"
   transform="scale(-1)"
   class="st5"
   width="16"
   height="12" />
<path
   id="XMLID_107_"
   class="st24"
   d="m 9.4,101.1 h 3.2 c 3.5,0 6.4,-2.9 6.4,-6.4 V 75.5 C 19,72 16.1,69.1 12.6,69.1 H 9.4 C 5.9,69.1 3,72 3,75.5 v 19.2 c 0,3.5 2.9,6.4 6.4,6.4 z" />
<path
   id="XMLID_233_"
   class="st24"
   d="m 9.4,101.1 h 3.2 c 3.5,0 6.4,-2.9 6.4,-6.4 V 75.5 C 19,72 16.1,69.1 12.6,69.1 H 9.4 C 5.9,69.1 3,72 3,75.5 v 19.2 c 0,3.5 2.9,6.4 6.4,6.4 z" />
<path
   id="XMLID_274_"
   class="st22"
   d="m 7,78.3 h 8 c 2.2,0 4,-1.8 4,-4 v -1.2 c 0,-2.2 -1.8,-4 -4,-4 H 7 c -2.2,0 -4,1.8 -4,4 v 1.2 c 0,2.3 1.8,4 4,4 z" />
<path
   id="XMLID_106_"
   class="st5"
   d="m 9.4,101.1 h 3.2 c 3.5,0 6.4,-2.9 6.4,-6.4 V 75.5 C 19,72 16.1,69.1 12.6,69.1 H 9.4 C 5.9,69.1 3,72 3,75.5 v 19.2 c 0,3.5 2.9,6.4 6.4,6.4 z" />
<path
   id="XMLID_87_"
   class="st4"
   d="m 136.2,301.1 h -10.5 c -8.1,0 -14.8,-6.6 -14.8,-14.8 v -21.2 h 40 v 21.2 c 0.1,8.2 -6.5,14.8 -14.7,14.8 z" />
<path
   id="XMLID_271_"
   class="st7"
   d="M 123.5,286.3 V 265.1 H 111 v 21.2 c 0,8.1 6.6,14.8 14.8,14.8 h 10.5 c 0.3,0 0.7,0 1,-0.1 -7.7,-0.5 -13.8,-6.8 -13.8,-14.7 z" />
<path
   id="XMLID_23_"
   class="st5"
   d="m 136.2,301.1 h -10.5 c -8.1,0 -14.8,-6.6 -14.8,-14.8 v -21.2 h 40 v 21.2 c 0.1,8.2 -6.5,14.8 -14.7,14.8 z" />
<line
   id="XMLID_122_"
   class="st25"
   x1="160"
   y1="363.30002"
   x2="149"
   y2="386.30002" />
<line
   id="XMLID_124_"
   class="st25"
   x1="163"
   y1="372.60001"
   x2="157"
   y2="389.80002" />
<g
   id="XMLID_199_"
   transform="translate(-371,-273.9)">
	<path
   id="XMLID_235_"
   class="st13"
   d="m 498,637.2 c -1.7,0 -3,-1.3 -3,-3 v -20.8 c 0,-1.7 1.3,-3 3,-3 h 13.5 c 1.7,0 3,1.3 3,3 0,1.7 -1.3,3 -3,3 H 501 v 17.8 c 0,1.7 -1.3,3 -3,3 z" />
</g>
<g
   id="XMLID_232_"
   transform="translate(-371,-273.9)">
	<path
   id="XMLID_238_"
   class="st13"
   d="m 506,627.1 c -3,0 -5.3,-0.4 -7,-1.1 -0.7,-0.4 -1.2,-1.3 -1.2,-2.1 0,-0.7 0.5,-1.7 1.2,-2.1 1.7,-0.7 4,-1.1 7,-1.1 2,0.1 4,1.7 4,3.2 0,1.5 -2,3.1 -4,3.2 z" />
</g>
<g
   id="g303"
   transform="translate(-371,-273.9)">
	<circle
   id="XMLID_102_"
   class="st12"
   cx="534.40002"
   cy="429"
   r="27" />
	<circle
   id="XMLID_282_"
   class="st5"
   cx="534.40002"
   cy="429"
   r="27" />
	<circle
   id="XMLID_52_"
   class="st13"
   cx="520.5"
   cy="433"
   r="11" />
	<circle
   id="XMLID_51_"
   class="st12"
   cx="517"
   cy="432.5"
   r="3.5" />
</g>
</svg>
