<?xml version="1.0" encoding="UTF-8" standalone="no"?>
<!-- Generator: Adobe Illustrator 23.1.1, SVG Export Plug-In . SVG Version: 6.00 Build 0)  -->

<svg
   version="1.1"
   id="Layer_1"
   x="0px"
   y="0px"
   viewBox="0 0 497.39999 405.10001"
   xml:space="preserve"
   sodipodi:docname="day38-macintosh.svg"
   width="497.39999"
   height="405.10001"
   inkscape:version="1.1.2 (0a00cf5339, 2022-02-04)"
   xmlns:inkscape="http://www.inkscape.org/namespaces/inkscape"
   xmlns:sodipodi="http://sodipodi.sourceforge.net/DTD/sodipodi-0.dtd"
   xmlns="http://www.w3.org/2000/svg"
   xmlns:svg="http://www.w3.org/2000/svg"><defs
   id="defs259" /><sodipodi:namedview
   id="namedview257"
   pagecolor="#ffffff"
   bordercolor="#666666"
   borderopacity="1.0"
   inkscape:pageshadow="2"
   inkscape:pageopacity="0.0"
   inkscape:pagecheckerboard="0"
   showgrid="false"
   inkscape:zoom="0.775"
   inkscape:cx="229.03226"
   inkscape:cy="220.64516"
   inkscape:window-width="1920"
   inkscape:window-height="947"
   inkscape:window-x="0"
   inkscape:window-y="32"
   inkscape:window-maximized="1"
   inkscape:current-layer="Layer_1" />
<style
   type="text/css"
   id="style2">
	.st0{fill:#FC8E22;}
	.st1{fill:#EEF2F4;}
	.st2{opacity:0.34;fill:#353535;}
	.st3{fill:#F7E4CB;}
	.st4{fill:#E0C5AA;}
	.st5{fill:none;stroke:#353535;stroke-width:6;stroke-linecap:round;stroke-linejoin:round;stroke-miterlimit:10;}
	.st6{fill:#353535;}
	.st7{opacity:0.3;fill:#282828;}
	.st8{fill:none;stroke:#353535;stroke-width:2;stroke-linecap:round;stroke-linejoin:round;stroke-miterlimit:10;}
	.st9{fill:#F2EBE1;}
	.st10{fill:#C6A485;}
	.st11{fill:#CF9742;}
	.st12{fill:#6E9546;}
	.st13{fill:#7C4D83;}
	.st14{fill:#4D8DB9;}
	.st15{fill:#CB6757;}
	.st16{fill:none;stroke:#FFFFFF;stroke-width:8;stroke-linecap:round;stroke-linejoin:round;stroke-miterlimit:10;}
	.st17{fill:#282828;}
</style>


<g
   id="g254"
   transform="translate(-270.7,-278.9)">
	<path
   id="XMLID_38_"
   class="st2"
   d="M 753.1,684 H 285.7 c -8.3,0 -15,-6.7 -15,-15 v 0 c 0,-8.3 6.7,-15 15,-15 h 467.4 c 8.3,0 15,6.7 15,15 v 0 c 0,8.3 -6.7,15 -15,15 z" />
	<path
   id="XMLID_19_"
   class="st3"
   d="m 611.7,622.7 h -236 c -9.9,0 -18,-8.1 -18,-18 V 299.9 c 0,-9.9 8.1,-18 18,-18 h 236 c 9.9,0 18,8.1 18,18 v 304.8 c 0,9.9 -8.1,18 -18,18 z" />
	<path
   id="XMLID_30_"
   class="st4"
   d="m 611.7,622.7 h -236 c -9.9,0 -18,-8.1 -18,-18 V 299.9 c 0,-9.9 8.1,-18 18,-18 h 236 c 9.9,0 18,8.1 18,18 v 304.8 c 0,9.9 -8.1,18 -18,18 z" />
	<path
   id="XMLID_31_"
   class="st3"
   d="m 369.7,589.9 v -280 c 0,-5.7 4.6,-10.2 10.2,-10.2 h 227.5 c 5.7,0 10.2,4.6 10.2,10.2 v 280 c 0,5.7 -4.6,10.2 -10.2,10.2 H 380 c -5.7,0.1 -10.3,-4.5 -10.3,-10.2 z" />
	<path
   id="XMLID_1_"
   class="st5"
   d="m 611.7,622.7 h -236 c -9.9,0 -18,-8.1 -18,-18 V 299.9 c 0,-9.9 8.1,-18 18,-18 h 236 c 9.9,0 18,8.1 18,18 v 304.8 c 0,9.9 -8.1,18 -18,18 z" />
	<path
   id="XMLID_34_"
   class="st4"
   d="m 394.4,498.7 c -5.4,0 -9.7,-4.3 -9.7,-9.7 V 326.4 c 0,-5.4 4.3,-9.7 9.7,-9.7 H 593 c 5.4,0 9.7,4.3 9.7,9.7 V 489 c 0,5.4 -4.3,9.7 -9.7,9.7 z" />
	<path
   id="XMLID_22_"
   class="st6"
   d="m 412.4,488.1 c -9.5,0 -17.2,-7.7 -17.2,-17.2 V 344.4 c 0,-9.5 7.7,-17.2 17.2,-17.2 H 575 c 9.5,0 17.2,7.7 17.2,17.2 v 126.4 c 0,9.5 -7.7,17.2 -17.2,17.2 H 412.4 Z" />
	<path
   id="XMLID_39_"
   class="st7"
   d="m 575,327.2 h -20.2 c 3.5,7.3 5.5,15.5 5.5,24.2 v 0 c 0,57.8 -46.9,104.7 -104.7,104.7 h -36.2 c -8.7,0 -16.9,-2 -24.2,-5.5 v 20.2 c 0,9.5 7.7,17.2 17.2,17.2 H 575 c 9.5,0 17.2,-7.7 17.2,-17.2 V 344.4 c 0.1,-9.5 -7.6,-17.2 -17.2,-17.2 z" />
	<path
   id="XMLID_7_"
   class="st4"
   d="m 564.2,539.7 v -3.1 h -68.7 v -12 h 68.7 v -3.1 c 0,-1 0.8,-1.9 1.9,-1.9 h 36.2 c 1,0 1.9,0.8 1.9,1.9 v 18.2 c 0,1 -0.8,1.9 -1.9,1.9 h -36.2 c -1.1,0 -1.9,-0.8 -1.9,-1.9 z" />
	<rect
   id="XMLID_10_"
   x="594.70001"
   y="527.59998"
   class="st6"
   width="4.3000002"
   height="6" />
	<path
   id="XMLID_5_"
   class="st8"
   d="m 412.8,575.9 h -19.4 c -1,0 -1.9,-0.8 -1.9,-1.9 v -19.4 c 0,-1 0.8,-1.9 1.9,-1.9 h 19.4 c 1,0 1.9,0.8 1.9,1.9 V 574 c 0,1 -0.8,1.9 -1.9,1.9 z" />
	<path
   id="XMLID_4_"
   class="st9"
   d="m 658.4,669 c 0,-9.9 10.5,-18 23.5,-18 13,0 23.5,8.1 23.5,18 z" />
	<path
   id="XMLID_14_"
   class="st5"
   d="m 658.4,669 c 0,-9.9 10.5,-18 23.5,-18 13,0 23.5,8.1 23.5,18 z" />
	<rect
   id="XMLID_24_"
   x="374.70001"
   y="623.90002"
   class="st4"
   width="238"
   height="24" />
	<rect
   id="XMLID_12_"
   x="374.70001"
   y="623.90002"
   class="st10"
   width="238"
   height="9.8999996" />
	<rect
   id="XMLID_9_"
   x="374.70001"
   y="623.90002"
   class="st5"
   width="238"
   height="24" />
	<rect
   id="XMLID_29_"
   x="417.70001"
   y="639"
   class="st4"
   width="152"
   height="12" />
	<rect
   id="XMLID_28_"
   x="607.70001"
   y="639"
   class="st4"
   width="20"
   height="12" />
	<rect
   id="XMLID_27_"
   x="578.70001"
   y="639"
   class="st4"
   width="20"
   height="12" />
	<rect
   id="XMLID_26_"
   x="388.70001"
   y="639"
   class="st4"
   width="20"
   height="12" />
	<rect
   id="XMLID_25_"
   x="359.70001"
   y="639"
   class="st4"
   width="20"
   height="12" />
	<rect
   id="XMLID_23_"
   x="339.5"
   y="651"
   class="st3"
   width="308.29999"
   height="18" />
	<rect
   id="XMLID_11_"
   x="339.5"
   y="651"
   class="st5"
   width="308.29999"
   height="18" />
	<rect
   id="XMLID_13_"
   x="417.70001"
   y="639"
   class="st5"
   width="152"
   height="12" />
	<rect
   id="XMLID_15_"
   x="607.70001"
   y="639"
   class="st5"
   width="20"
   height="12" />
	<rect
   id="XMLID_16_"
   x="578.70001"
   y="639"
   class="st5"
   width="20"
   height="12" />
	<rect
   id="XMLID_18_"
   x="388.70001"
   y="639"
   class="st5"
   width="20"
   height="12" />
	<rect
   id="XMLID_17_"
   x="359.70001"
   y="639"
   class="st5"
   width="20"
   height="12" />
	<path
   id="XMLID_37_"
   class="st11"
   d="m 405.3,562.5 c -0.9,-0.8 -1.5,-1.9 -1.8,-3.1 h -6.3 c -0.7,0.9 -1.3,2 -1.6,3.1 z" />
	<path
   id="XMLID_55_"
   class="st12"
   d="m 403.3,558.1 c 0,-0.5 0.1,-1.1 0.2,-1.5 -0.1,0 -0.3,0 -0.4,0 -2.4,0 -4.5,1.1 -5.9,2.8 h 6.3 c -0.1,-0.5 -0.2,-0.9 -0.2,-1.3 z" />
	<path
   id="XMLID_59_"
   class="st13"
   d="M 397.2,569.3 H 409 c 0.8,-0.9 1.3,-2 1.6,-3.1 h -15 c 0.3,1.1 0.9,2.2 1.6,3.1 z" />
	<path
   id="XMLID_61_"
   class="st14"
   d="m 403.1,572 c 2.4,0 4.5,-1.1 5.9,-2.7 h -11.8 c 1.5,1.7 3.6,2.7 5.9,2.7 z" />
	<path
   id="XMLID_64_"
   class="st15"
   d="m 395.4,564.3 c 0,0.6 0.1,1.3 0.2,1.9 h 15 c 0.1,-0.6 0.2,-1.2 0.2,-1.9 0,-0.1 0,-0.3 0,-0.4 -0.5,0.1 -1,0.2 -1.5,0.2 -1.6,0 -3,-0.6 -4,-1.6 h -9.6 c -0.2,0.6 -0.3,1.2 -0.3,1.8 z" />
	<line
   id="XMLID_20_"
   class="st16"
   x1="423.20001"
   y1="348.20001"
   x2="439.29999"
   y2="348.20001" />
	<line
   id="XMLID_21_"
   class="st16"
   x1="456"
   y1="348.20001"
   x2="513.40002"
   y2="348.20001" />
	<path
   id="XMLID_8_"
   class="st6"
   d="m 599,529.6 h -31.4 v -4.8 c 0,-1 0.8,-1.9 1.9,-1.9 h 27.6 c 1,0 1.9,0.8 1.9,1.9 z" />
	<path
   id="XMLID_32_"
   class="st6"
   d="m 597.1,538.3 h -27.6 c -1,0 -1.9,-0.8 -1.9,-1.9 v -5.8 H 599 v 5.8 c 0,1 -0.9,1.9 -1.9,1.9 z" />
	<path
   id="XMLID_36_"
   class="st5"
   d="M 398.7,622.7" />
	<path
   id="XMLID_6_"
   class="st17"
   d="m 595.1,533.6 h -94.6 c -0.5,0 -1,-0.4 -1,-1 v -4.1 c 0,-0.5 0.4,-1 1,-1 h 94.6 c 0.5,0 1,0.4 1,1 v 4.1 c -0.1,0.6 -0.5,1 -1,1 z" />
</g>
</svg>
