<?xml version="1.0" encoding="utf-8"?>
<!-- Generator: Adobe Illustrator 25.1.0, SVG Export Plug-In . SVG Version: 6.00 Build 0)  -->
<svg version="1.1" id="Layer_1" xmlns:serif="http://www.serif.com/"
	 xmlns="http://www.w3.org/2000/svg" xmlns:xlink="http://www.w3.org/1999/xlink" x="0px" y="0px" viewBox="0 0 337.4 256.7"
	 style="enable-background:new 0 0 337.4 256.7;" xml:space="preserve">
<style type="text/css">
	.st0{fill-rule:evenodd;clip-rule:evenodd;fill:#FFD593;}
	.st1{fill-rule:evenodd;clip-rule:evenodd;fill:#FFFFFF;}
	.st2{fill-rule:evenodd;clip-rule:evenodd;fill:#B5D6D4;}
	.st3{fill-rule:evenodd;clip-rule:evenodd;}
	.st4{fill-rule:evenodd;clip-rule:evenodd;fill:#FDA527;}
	.st5{fill-rule:evenodd;clip-rule:evenodd;fill:#EC7954;}
	.st6{fill-rule:evenodd;clip-rule:evenodd;fill:#95C0BE;}
	.st7{fill-rule:evenodd;clip-rule:evenodd;fill:#FFF3E4;}
	.st8{fill-rule:evenodd;clip-rule:evenodd;fill:#FFB1A6;}
	.st9{fill-rule:evenodd;clip-rule:evenodd;fill:#DD6140;}
	.st10{fill-rule:evenodd;clip-rule:evenodd;fill:url(#SVGID_1_);}
	.st11{fill-rule:evenodd;clip-rule:evenodd;fill:#F49387;}
	.st12{fill-rule:evenodd;clip-rule:evenodd;fill:#FFCCC5;}
	.st13{fill-rule:evenodd;clip-rule:evenodd;fill:#B44335;}
</style>
<g>
	<rect x="217.8" y="10.1" class="st0" width="119.6" height="161.4"/>
	<path class="st1" d="M303.8,18.5c12.5,0,22.7,10.2,22.7,22.7c0,12.5-10.2,22.7-22.7,22.7S281,53.7,281,41.2
		C281,28.6,291.2,18.5,303.8,18.5z"/>
	<circle class="st2" cx="303.9" cy="37.7" r="7.9"/>
	<path class="st2" d="M284.3,52.9c6.1-3.8,19.6-9.2,37.9,1.5c-4.1,5.7-10.8,9.4-18.4,9.4C295.5,63.9,288.3,59.5,284.3,52.9z"/>
	<path class="st3" d="M304.3,29.8c3.9,0.2,7.1,3.3,7.5,7.2C305,35.8,304.3,31.5,304.3,29.8z M296,36.9c0.4-4,3.8-7.1,7.9-7.1
		c0.1,0,0.2,0,0.4,0C303.3,34.7,298.5,36.4,296,36.9z"/>
	<path class="st4" d="M267.9,48.4h-40.6v5.9h40.6V48.4z M264.5,36h-37.2v5.9h37.2V36z M272.5,23.7h-45.2v5.9h45.2V23.7z"/>
	<path class="st4" d="M303.5,108.7h-60.1v4.9h60.1V108.7z M292.8,99h-49.3v4.9h49.3V99z M303.5,88.9h-60.1v4.9h60.1V88.9z"/>
	<rect x="243.5" y="119.8" class="st4" width="60.1" height="4.9"/>
	<path class="st4" d="M306.1,160H246v4.9h60.1V160z M292.8,149.9H246v4.9h46.7V149.9z"/>
	<rect x="227.1" y="70.5" class="st4" width="94" height="8.8"/>
	<rect x="229.2" y="135.6" class="st4" width="94" height="8.8"/>
	<rect x="107.7" y="5.1" class="st2" width="119.6" height="161.4"/>
	<circle class="st1" cx="193.6" cy="36.2" r="22.7"/>
	<path class="st5" d="M175,49.2c5.6-4,21.1-12.7,37.4-0.2c-4.1,6-11,9.9-18.8,9.9C186,58.9,179.1,55.1,175,49.2z"/>
	<path class="st5" d="M194.3,22.1c4.4,0,8,3.6,8,8s-3.6,8-8,8c-4.4,0-8-3.6-8-8S189.9,22.1,194.3,22.1z"/>
	<path class="st3" d="M208.1,25.8c3.2,0,5.8,2.6,5.8,5.8c0,3.2-2.6,5.8-5.8,5.8s-5.8-2.6-5.8-5.8C202.3,28.4,204.9,25.8,208.1,25.8z
		"/>
	<path class="st3" d="M186.3,30.5c0-0.1,0-0.2,0-0.3c0-4.4,3.6-8,8-8c4.4,0,8,3.6,8,8c0,0.3,0,0.5,0,0.8c-6-0.8-7.7-6.1-7.7-6.1
		C192.7,29.5,188.8,30.4,186.3,30.5z"/>
	<path class="st6" d="M155.8,43.4h-38.6v5.9h38.6V43.4z M162.4,31.1h-45.2v5.9h45.2V31.1z M152.9,18.8h-35.7v5.9h35.7V18.8z"/>
	<path class="st6" d="M193.8,101.7h-60.1v4.9h60.1V101.7z M193.8,92h-60.1v4.9h60.1V92z M193.8,81.8h-60.1v4.9h60.1V81.8z"/>
	<path class="st6" d="M193.8,149.9h-60.1v4.9h60.1V149.9z M193.8,140.2h-60.1v4.9h60.1V140.2z M193.8,130.1h-60.1v4.9h60.1V130.1z"
		/>
	<rect x="117" y="65.5" class="st6" width="94" height="8.8"/>
	<rect x="117" y="114.7" class="st6" width="94" height="8.8"/>
	<rect x="0" y="0" class="st7" width="119.6" height="161.4"/>
	<path class="st1" d="M86,8.3c12.5,0,22.7,10.2,22.7,22.7S98.5,53.8,86,53.8c-12.5,0-22.7-10.2-22.7-22.7S73.5,8.3,86,8.3z"/>
	<path class="st4" d="M66.3,42.3c4.2-5.2,11.5-8.7,19.8-8.7c8.3,0,15.6,3.5,19.7,8.7c-3.9,6.9-11.3,11.5-19.8,11.5
		C77.5,53.8,70.2,49.2,66.3,42.3z"/>
	<path class="st3" d="M83.1,33.7c1-0.1,2-0.1,3-0.1c1.4,0,2.7,0.1,4.1,0.3c-0.2,1.3-1.1,2.2-2.1,2.7l2.6,16.8
		c-1.5,0.3-3,0.5-4.6,0.5c-1.4,0-2.7-0.1-4-0.3l3.4-16.9C83.8,35.9,83.2,34.5,83.1,33.7z"/>
	<path class="st4" d="M85.9,15.1c4.4,0,7.9,3.5,7.9,7.9s-3.5,7.9-7.9,7.9S78,27.4,78,23S81.5,15.1,85.9,15.1z"/>
	<path class="st3" d="M78,23c0-4.4,3.6-7.9,7.9-7.9c4.4,0,7.9,3.5,7.9,7.9c0,0.3,0,0.7-0.1,1c-5.3-0.6-7.5-6.1-7.5-6.1
		C84.4,21.9,80.2,22.8,78,23z"/>
	<path class="st8" d="M38.5,38.3H9.5v5.9h28.9V38.3z M54.8,25.9H9.5v5.9h45.2V25.9z M54.8,13.6H9.5v5.9h45.2V13.6z"/>
	<path class="st8" d="M86.1,96.5H26.1v4.9h60.1V96.5z M86.1,86.8H26.1v4.9h60.1V86.8z M86.1,76.7H26.1v4.9h60.1V76.7z"/>
	<path class="st8" d="M86.1,144.8H26.1v4.9h60.1V144.8z M86.1,135.1H26.1v4.9h60.1V135.1z M86.1,124.9H26.1v4.9h60.1V124.9z"/>
	<rect x="9.4" y="60.4" class="st8" width="94" height="8.8"/>
	<rect x="9.4" y="109.6" class="st8" width="94" height="8.8"/>
	<path class="st1" d="M123.1,11.9c11.2-1.7,22.4,11,25,28.4s-4.4,32.8-15.6,34.5c-11.2,1.7-22.4-11-25-28.4
		C104.9,29.1,111.9,13.6,123.1,11.9z"/>
	<path class="st4" d="M110.2,56.7c4.7-5,11.4-8.6,19.2-9.8c6.8-1,13.5,0,19.3,2.5c-0.5,13.4-6.9,24.2-16.1,25.5
		C123.7,76.2,114.8,68.5,110.2,56.7z"/>
	<path class="st3" d="M129.6,75l-0.1-23.7c-2.4-0.5-3.5-2.6-4-3.6c1.3-0.3,2.6-0.6,3.9-0.8c1.8-0.3,3.7-0.4,5.5-0.4
		c0.1,2-0.9,3.5-2.1,4.3l7,20.7c-2.1,1.8-4.6,3-7.2,3.4C131.5,75,130.5,75.1,129.6,75z"/>
	<path class="st4" d="M124.1,19.8c5.8-0.9,11.6,3.6,12.8,10c1.2,6.4-2.5,12.3-8.4,13.2c-5.8,0.9-11.6-3.6-12.8-10
		S118.3,20.7,124.1,19.8z"/>
	<path class="st3" d="M115.7,32.9c-1.2-6.4,2.6-12.3,8.4-13.2c5.8-0.9,11.6,3.6,12.8,10c0.1,0.5,0.2,1,0.2,1.5
		c-7.2,0.2-11.7-7.5-11.7-7.5C124,30.1,118.6,32.2,115.7,32.9z"/>
	<path class="st9" d="M131.4,75.9l4.9,34.1c0.2,1.2,1.3,2,2.5,1.8c1.2-0.2,2-1.3,1.8-2.5l-4.9-34.1c-0.2-1.2-1.3-2-2.5-1.8
		C132,73.6,131.2,74.7,131.4,75.9z"/>
	<path class="st3" d="M132.4,83l-1-7.2c-0.2-1.2,0.7-2.3,1.8-2.5c1.2-0.2,2.3,0.7,2.5,1.8l0.8,5.4C135,82,133.6,82.7,132.4,83z"/>
	<path class="st9" d="M132.2,73c-3.9,0.5-7.8-1-11.2-3.9c-5.5-4.8-9.8-13.1-11.1-23s0.5-19.1,4.5-25.2c2.5-3.7,5.8-6.3,9.7-6.8
		c1.2-0.2,2-1.3,1.9-2.4c-0.2-1.2-1.3-2-2.4-1.9c-5.1,0.7-9.5,3.8-12.7,8.7c-4.5,6.8-6.7,17.1-5.2,28.1c1.5,11.1,6.4,20.4,12.6,25.7
		c4.4,3.8,9.5,5.7,14.6,5c1.2-0.2,2-1.3,1.9-2.4C134.5,73.7,133.4,72.8,132.2,73z"/>
	<path class="st9" d="M124.1,14.1c3.9-0.5,7.8,1,11.2,3.9c5.5,4.8,9.8,13.1,11.1,23c1.3,9.9-0.5,19.1-4.5,25.2
		c-2.5,3.7-5.8,6.3-9.7,6.8c-1.2,0.2-2,1.3-1.9,2.4c0.2,1.2,1.3,2,2.4,1.9c5.1-0.7,9.5-3.8,12.7-8.7c4.5-6.8,6.7-17.1,5.2-28.1
		s-6.4-20.4-12.6-25.7c-4.4-3.8-9.5-5.7-14.6-5c-1.2,0.2-2,1.3-1.9,2.4C121.8,13.4,122.9,14.3,124.1,14.1z"/>

		<linearGradient id="SVGID_1_" gradientUnits="userSpaceOnUse" x1="-96.3133" y1="384.6677" x2="-95.3133" y2="384.6677" gradientTransform="matrix(-6.3756 138.9298 -138.9298 -6.3756 53003.6523 16008.9961)">
		<stop  offset="0" style="stop-color:#FFCCC5"/>
		<stop  offset="1" style="stop-color:#F49387"/>
	</linearGradient>
	<path class="st10" d="M157,167.6c0,0-34.8,66.3-42.4,82.8c0,0-8.5,0.9-12.3,6.3h58.4l14.1-24.5c0,0,10.4,13.8,19.9,18.2
		c0,0-5.5,3.2-6.1,6.3h53.6l-38.3-59.7c0,0,27.4-51.5,0-66.4C196.1,126.3,177.1,127.1,157,167.6z"/>
	<path class="st11" d="M171,144.9L161,167.8c-7.5,17-5.6,36.7,5.1,52l0.1,0.1l41.6-17l0.8,1.3L167,221.2c4.6,6.5,8.8,12.4,11,14.9
		l0.1,0.1c-2.1-2.4-3.4-4.1-3.4-4.1l-1,1.7c-2.5-3.3-5.8-8-9.3-12.9c-3.1-4.4-5.5-9.2-7.1-14.2l-20-1.6l0.3-0.6l0.4-0.8l18.8,1.5
		c-3.7-12.4-3-25.9,2.3-38.1l6.6-15.1C167.6,149.4,169.3,147,171,144.9z M204.4,197.9L204.4,197.9c0,0-3.3-5.2-5.2-8.2
		c-0.2-0.3-0.2-0.7,0.1-1s0.6-0.4,0.9-0.2l6.4,2.5c-1.6,3.7-2.8,5.9-2.8,5.9L204.4,197.9z"/>
	<path class="st12" d="M255.4,36.6c2.2-1.9,5.3-5.4,5.9-7.2c0.9-2.6-1-3-2-2.2c-4.2,3.3-10,5.8-10,5.8
		c-10.8,4.7-37.5,33.7-37.5,33.7c-15.7,15.3-40.5,16.4-47.4,16.4c-2.4,0-4.7,0.5-6.8,1.5c-7.3,3.5-11.7,10.8-11.7,10.8
		s-2.8-3-5.2-4.3c-1-0.6-2.3-0.4-3.1,0.4c-2.4-0.4-4.7,0.9-5.5,3.1c-0.2,0.5-0.3,1-0.4,1.3c0,0-2.2,0.9-2.3,3.2c0,0-2.6,1.1-2.6,3.6
		c0,0-3.8,3.9,0,7.8c0,0,2.6,1.5,3.2-1.8c0,0,0.9,30.5,1.4,45.4c0.2,5.1,2.5,9.9,6.4,13.3c4.8,4.1,11.8,4.5,17,1.1
		c0.4-0.2,0.7-0.5,1-0.7c2.4-1.5,4.4-3.5,5.9-5.9c2.6-3.9,5.9-10.2,6.2-17.8v-15.8c0,0,12.2,4.9,20.9-13.8c0,0,5.8,1,13.7-0.9
		c4.7-1.1,10.1-3.3,15.5-7.3c3.8-2.8,7-6.2,9.6-10.2c5-7.7,18-27.4,21.7-33.1c0,0,4.5-6.5,8.3-9.8c0,0,3.7,3.6,6.8-4
		c0,0,1.5-3.6-2.6-5.2c0,0,0.3-4-3.5-4.1C258.7,37.1,257.3,36.4,255.4,36.6z"/>
	<path class="st11" d="M224.9,53.2c3.9,2.3,11.4,7.5,19.4,17.4c-5.4,8.3-13.1,20-16.7,25.4c-2.6,3.9-5.8,7.4-9.6,10.2
		c-5.4,4-10.8,6.2-15.5,7.3c-7.9,1.9-13.7,0.9-13.7,0.9c-8.7,18.6-20.9,13.8-20.9,13.8V144c-0.3,7.6-3.6,14-6.2,17.8
		c-1.6,2.3-3.6,4.3-5.9,5.9c-0.3,0.2-0.7,0.4-1,0.7c-5.3,3.5-12.2,3-17-1.1c-3.9-3.3-6.2-8.1-6.4-13.3l-0.9-30.6h12.8
		c-0.2-3.2,0-20.1,1.3-24.4c0.5-1.7,1-2.9,1.6-4c1-1.5,5.2-7.4,11.5-10.4c2.1-1,4.5-1.5,6.8-1.5c6.9,0,31.7-1.1,47.4-16.4
		C211.8,66.7,217.6,60.4,224.9,53.2z"/>
	<path class="st13" d="M143.2,122.8L143.2,122.8l0,29.7c0,0.2-0.2,0.4-0.4,0.4c-0.2,0-0.4-0.2-0.4-0.4l-2.6-29.2h3.4
		C143.2,123.2,143.2,123,143.2,122.8z M168,129.1l-1.1-23.5c0-0.1,0.1-0.3,0.2-0.3c0.1,0,0.3,0.1,0.3,0.2c1.1,3.7,3.4,12,4.9,23.3
		c-2.6,0.1-4.4-0.6-4.4-0.6V129.1z M188.5,115.2c0.8-2.1,3.6-10.8-1.6-20.3c-0.1-0.2-0.1-0.5,0.1-0.6c0.2-0.1,0.5-0.1,0.6,0.1
		c2.5,2.6,6.4,8.4,9.2,20.1c-4.9,0.5-8.1,0-8.1,0C188.8,114.7,188.6,115,188.5,115.2z"/>
	<path class="st11" d="M130.2,107.8c-0.1,0.7-0.4,1.5-0.4,1.5l-2.2-1.2c-0.4-0.2-0.5-0.6-0.3-1c0.2-0.4,0.6-0.5,1-0.3L130.2,107.8z
		 M127.3,100.8c0.3-0.1,0.6-0.1,0.9-0.1c1.4,0,3.6,1,6.1,4.9c0.2,0.3,0.1,0.8-0.2,1s-0.8,0.1-1-0.2c-2.1-3.3-3.7-4.2-4.9-4.2
		c-0.9,0-1.4,0.6-1.4,0.6l0-0.1C126.7,101.9,127,101.3,127.3,100.8z M129.8,97.4c0.3,0,0.6,0,1,0c1.3,0.2,3.4,1.1,5.9,4.3
		c0.3,0.3,0.2,0.8-0.1,1.1s-0.8,0.2-1.1-0.1c-4.2-5.2-6.3-3.5-6.3-3.5C129.4,98.4,129.6,97.9,129.8,97.4z M132.2,94.2
		c0.3,0,0.7-0.1,1.1,0c1.4,0.1,3.5,0.8,5.7,3.4c0.3,0.3,0.2,0.8-0.1,1.1c-0.3,0.3-0.8,0.2-1.1-0.1c-3.1-3.5-5.6-2.9-6.2-2.7
		c0.1-0.4,0.2-0.8,0.4-1.3C132.1,94.4,132.1,94.3,132.2,94.2z M139,90.7c1,0.7,2.4,1.8,3.7,3.8c0.2,0.3,0.1,0.8-0.2,1
		c-0.3,0.2-0.8,0.1-1-0.2c-1.8-2.7-4.1-3.9-3.9-3.9C138,91,138.5,90.8,139,90.7z M257.6,53.1c-0.4,0.4,3.6-4.1,3.6-4.1
		c0.8-0.6,1.7,0.3,1.1,1l-3.5,3.8C258.1,53.5,257.6,53.1,257.6,53.1z M261.7,42.4c0.2,0.8,0.1,1.4,0.1,1.4c0.1,0-1.5,0.3-2.3,0.7
		c-1.5,0.8-2.8,2.1-2.8,2.1c-0.3,0.3-0.8,0.3-1.1,0c-0.3-0.3-0.3-0.8,0-1.1c0,0,1.4-1.4,3.2-2.3C259.7,42.7,260.7,42.4,261.7,42.4z
		 M258.3,38.2c0.1,0.4,0.1,0.9,0,1.6c-0.9,0.3-2.7,1.1-5,3.1c-0.3,0.3-0.8,0.3-1.1-0.1c-0.3-0.3-0.3-0.8,0.1-1.1
		C255.1,39.3,257.3,38.5,258.3,38.2z M257.2,34.8c-0.6,0.7-1.3,1.3-1.8,1.8c0.1,0-3.7,1.4-5.6,2.7c-0.3,0.2-0.8,0.1-1-0.2
		c-0.2-0.3-0.1-0.8,0.2-1C251.7,36.2,254.7,34.9,257.2,34.8z"/>
	<path class="st12" d="M164.8,53.6c6,0,10.8,4.8,10.8,10.8s-4.8,10.8-10.8,10.8c-6,0-10.8-4.8-10.8-10.8S158.8,53.6,164.8,53.6z"/>
	<path class="st3" d="M167.2,53.9c4.8,1.1,8.4,5.4,8.4,10.6c0,6-4.9,10.8-10.8,10.8c-0.2,0-0.4,0-0.5,0c-1.8-3.9,0.9-5.6,1.7-5.9
		c0.4,0.4,1,0.6,1.6,0.6c1.4,0,2.5-1.1,2.5-2.5c0-1.4-1.1-2.5-2.5-2.5c-0.6,0-1.1,0.2-1.5,0.5C162,59.9,165.3,55.6,167.2,53.9z"/>
	<path class="st3" d="M178,66.1c-0.1,0,0.7-0.5,0.9-0.6c0.6-0.4,1.2-0.8,1.7-1.3c1.7-1.4,2.7-3,3.9-4.8c3.9-6.1,10.3-12.2,17.9-12.5
		c13.5-0.5,21,14.8,19,26.5c-1.5,8.9-10.9,13.6-19.4,12.3c-5-0.7-9.9-3.6-13.2-7.4c-2-2.2-3.5-4.8-5.1-7.3
		C182.4,68.9,180.8,66.4,178,66.1z"/>
</g>
</svg>
