<?xml version="1.0" encoding="UTF-8" standalone="no"?>
<!-- Generator: Adobe Illustrator 23.1.1, SVG Export Plug-In . SVG Version: 6.00 Build 0)  -->

<svg
   version="1.1"
   id="Layer_1"
   x="0px"
   y="0px"
   viewBox="0 0 383.60001 415.89999"
   xml:space="preserve"
   sodipodi:docname="open-vault.svg"
   inkscape:version="1.1.2 (0a00cf5339, 2022-02-04)"
   width="383.60001"
   height="415.89999"
   xmlns:inkscape="http://www.inkscape.org/namespaces/inkscape"
   xmlns:sodipodi="http://sodipodi.sourceforge.net/DTD/sodipodi-0.dtd"
   xmlns="http://www.w3.org/2000/svg"
   xmlns:svg="http://www.w3.org/2000/svg"><defs
   id="defs200" /><sodipodi:namedview
   id="namedview198"
   pagecolor="#ffffff"
   bordercolor="#666666"
   borderopacity="1.0"
   inkscape:pageshadow="2"
   inkscape:pageopacity="0.0"
   inkscape:pagecheckerboard="0"
   showgrid="false"
   inkscape:zoom="1.55"
   inkscape:cx="40.322581"
   inkscape:cy="116.12903"
   inkscape:window-width="1920"
   inkscape:window-height="947"
   inkscape:window-x="0"
   inkscape:window-y="32"
   inkscape:window-maximized="1"
   inkscape:current-layer="Layer_1" />
<style
   type="text/css"
   id="style2">
	.st0{fill:#F7B85C;}
	.st1{fill:#EEF2F4;}
	.st2{enable-background:new    ;}
	.st3{fill:#212552;}
	.st4{fill:#92D6E9;}
	
		.st5{opacity:0.3;fill:#0A1E2B;stroke:#0A1E2B;stroke-width:6;stroke-linecap:round;stroke-linejoin:round;stroke-miterlimit:10;enable-background:new    ;}
	.st6{fill:none;stroke:#212552;stroke-width:6;stroke-linecap:round;stroke-linejoin:round;stroke-miterlimit:10;}
	.st7{fill:#CBEDF9;}
	.st8{fill:#E8F9FF;}
	
		.st9{opacity:0.23;fill:#0A1E2B;stroke:#0A1E2B;stroke-width:6;stroke-linecap:round;stroke-linejoin:round;stroke-miterlimit:10;enable-background:new    ;}
	.st10{fill:#53ADBC;}
	.st11{fill:#5F9E71;stroke:#212552;stroke-width:6;stroke-linecap:round;stroke-linejoin:round;stroke-miterlimit:10;}
	.st12{fill:#90C49E;}
	.st13{fill:#FFFFFF;}
	.st14{fill:#A78B75;}
	.st15{fill:#FFE07D;}
	.st16{fill:#FFE8A6;}
	.st17{fill:#9FBDCA;stroke:#9FBDCA;stroke-width:6;stroke-linecap:round;stroke-linejoin:round;stroke-miterlimit:10;}
	.st18{fill:#3CA4B5;}
	.st19{fill:none;stroke:#212552;stroke-width:10;stroke-linecap:round;stroke-linejoin:round;stroke-miterlimit:10;}
	.st20{fill:none;stroke:#212552;stroke-width:9;stroke-linecap:round;stroke-linejoin:round;stroke-miterlimit:10;}
	.st21{fill:#FFEA9E;}
	
		.st22{opacity:0.23;fill:none;stroke:#0A1E2B;stroke-width:8;stroke-linecap:round;stroke-linejoin:round;stroke-miterlimit:10;enable-background:new    ;}
</style>


<ellipse
   id="XMLID_75_"
   class="st3"
   cx="182.60001"
   cy="393.10001"
   rx="182.60001"
   ry="22.799999"
   style="fill:#2e3039;fill-opacity:1" />
<path
   id="XMLID_20_"
   class="st4"
   d="m 142.10001,377.00001 v -7.4 c 0,-3.3 -2.7,-6 -6,-6 H 70.100006 c -3.3,0 -6,2.7 -6,6 v 22 c 0,3.3 2.7,6 6,6 h 43.900004 c 4.8,0 9.4,-1.9 12.8,-5.3 z" />
<path
   id="XMLID_50_"
   class="st5"
   d="M 136.10001,363.60001 H 70.100006 c -3.3,0 -6,2.7 -6,6 v 20.4 h 65.000004 l 13,-13 v -7.4 c 0,-3.3 -2.7,-6 -6,-6 z" />
<path
   id="XMLID_18_"
   class="st4"
   d="m 223.10001,377.00001 v -7.4 c 0,-3.3 2.7,-6 6,-6 h 66 c 3.3,0 6,2.7 6,6 v 22 c 0,3.3 -2.7,6 -6,6 h -43.9 c -4.8,0 -9.4,-1.9 -12.8,-5.3 z" />
<path
   id="XMLID_51_"
   class="st5"
   d="m 295.10001,363.60001 h -66 c -3.3,0 -6,2.7 -6,6 v 7.4 l 13,13 h 65 v -20.4 c 0,-3.3 -2.7,-6 -6,-6 z" />
<path
   id="XMLID_27_"
   class="st6"
   d="m 142.10001,377.00001 v -7.4 c 0,-3.3 -2.7,-6 -6,-6 H 70.100006 c -3.3,0 -6,2.7 -6,6 v 22 c 0,3.3 2.7,6 6,6 h 43.900004 c 4.8,0 9.4,-1.9 12.8,-5.3 z"
   style="stroke:#2e3039;stroke-opacity:1" />
<path
   id="XMLID_26_"
   class="st6"
   d="m 223.10001,377.00001 v -7.4 c 0,-3.3 2.7,-6 6,-6 h 66 c 3.3,0 6,2.7 6,6 v 22 c 0,3.3 -2.7,6 -6,6 h -43.9 c -4.8,0 -9.4,-1.9 -12.8,-5.3 z"
   style="stroke:#2e3039;stroke-opacity:1" />
<path
   id="XMLID_2_"
   class="st7"
   d="M 312.60001,377.10001 H 52.600006 c -22.1,0 -40,-17.9 -40,-40 V 77.100006 c 0,-22.1 17.9,-40 40,-40 H 312.60001 c 22.1,0 40,17.9 40,40 V 337.10001 c 0,22.1 -17.9,40 -40,40 z" />
<path
   id="XMLID_38_"
   class="st8"
   d="M 312.60001,37.100006 H 52.600006 c -22.1,0 -40,17.9 -40,40 v 23.000004 c 0,-22.100004 17.9,-40.000004 40,-40.000004 H 312.60001 c 22.1,0 40,17.9 40,40.000004 V 77.100006 c 0,-22.1 -17.9,-40 -40,-40 z" />
<path
   id="XMLID_45_"
   class="st4"
   d="M 312.60001,354.10001 H 52.600006 c -22.1,0 -40,-17.9 -40,-40 v 23 c 0,22.1 17.9,40 40,40 H 312.60001 c 22.1,0 40,-17.9 40,-40 v -23 c 0,22.1 -17.9,40 -40,40 z" />
<polygon
   id="XMLID_143_"
   class="st9"
   points="473.1,669.5 517,669.2 508.3,604.1 368.7,628.6 405.1,669.5 "
   transform="translate(-317.39999,-292.39999)" />
<path
   id="XMLID_13_"
   class="st4"
   d="m 64.600006,341.10001 c -8.8,0 -16,-7.2 -16,-16 V 89.100006 c 0,-8.8 7.2,-16 16,-16 H 300.60001 c 8.8,0 16,7.2 16,16 V 325.10001 c 0,8.8 -7.2,16 -16,16 z" />
<path
   id="XMLID_135_"
   class="st6"
   d="M 316.60001,89.100006 V 325.10001 c 0,8.8 -7.2,16 -16,16 H 64.600006 c -8.8,0 -16,-7.2 -16,-16 V 89.100006 c 0,-8.8 7.2,-16 16,-16 H 192.00001 c 4.5,2.1 7.6,6.8 7.6,11.9 v 10.3 h 82.6 c 2.6,0 5,1.1 6.7,2.8 l 20.7,-22.2 c 4.2,2.8 7,7.7 7,13.2 z"
   style="stroke:#2e3039;stroke-opacity:1" />

<path
   id="XMLID_7_"
   class="st10"
   d="m 309.60001,75.900006 -20.7,22.2 c -1.7,-1.7 -4.1,-2.8 -6.7,-2.8 h -82.6 v -10.3 c 0,-5.1 -3.2,-9.8 -7.6,-11.9 h 108.6 c 3.3,0 6.5,1 9,2.8 z" />
<path
   id="XMLID_131_"
   class="st6"
   d="m 309.60001,75.900006 -20.7,22.2 c -1.7,-1.7 -4.1,-2.8 -6.7,-2.8 h -82.6 v -10.3 c 0,-5.1 -3.2,-9.8 -7.6,-11.9 h 108.6 c 3.3,0 6.5,1 9,2.8 z" />
<path
   id="XMLID_128_"
   class="st6"
   d="m 288.90001,98.000006 c 1.7,1.7 2.8,4.100004 2.8,6.700004 v 198.9 c 0,5.8 -4.7,10.4 -10.4,10.4 h -81.7"
   style="stroke:#2e3039;stroke-opacity:1" />









<path
   id="XMLID_116_"
   class="st15"
   d="m 196.00001,277.70001 h -33.3 c -6.2,0 -10,-5.1 -8.5,-10.9 l 4.9,-19.6 c 0.8,-3.4 4.9,-5.9 9.1,-5.9 h 22.4 c 4.2,0 8.2,2.5 9.1,5.9 l 4.9,19.6 c 1.4,5.7 -2.4,10.9 -8.6,10.9 z" />
<path
   id="XMLID_114_"
   class="st6"
   d="m 196.00001,277.70001 h -33.3 c -6.2,0 -10,-5.1 -8.5,-10.9 l 4.9,-19.6 c 0.8,-3.4 4.9,-5.9 9.1,-5.9 h 22.4 c 4.2,0 8.2,2.5 9.1,5.9 l 4.9,19.6 c 1.4,5.7 -2.4,10.9 -8.6,10.9 z" />











<path
   id="XMLID_142_"
   class="st9"
   d="m 300.60001,73.100006 h -162.2 v 0 l 4.7,145.600004 h 87.9 l 67.6,-37.1 18,-66.8 V 89.100006 c 0,-8.9 -7.2,-16 -16,-16 z"
   style="stroke:#2e3039;stroke-opacity:1" />



<path
   id="XMLID_82_"
   class="st4"
   d="M 61.500006,328.10001 V 85.900006 c 0,-9.1 5.1,-17.4 11.4,-18.7 l 80.900004,-16.2 c 8.1,-1.6 14.7,5.6 14.7,16 V 347.00001 c 0,10.5 -6.7,17.6 -14.7,16 l -80.900004,-16.2 c -6.3,-1.2 -11.4,-9.6 -11.4,-18.7 z" />
<path
   id="XMLID_3_"
   class="st6"
   d="M 61.500006,328.10001 V 85.900006 c 0,-9.1 5.1,-17.4 11.4,-18.7 l 80.900004,-16.2 c 8.1,-1.6 14.7,5.6 14.7,16 V 347.00001 c 0,10.5 -6.7,17.6 -14.7,16 l -80.900004,-16.2 c -6.3,-1.2 -11.4,-9.6 -11.4,-18.7 z"
   style="stroke:#2e3039;stroke-opacity:1" />
<path
   id="XMLID_48_"
   class="st7"
   d="M 48.600006,325.10001 V 89.100006 c 0,-8.8 4.9,-17.2 11.1,-18.6 l 80.900004,-18.9 c 8.2,-1.9 15.1,5 15.1,15.5 V 347.10001 c 0,10.5 -6.8,17.4 -15.1,15.5 l -80.800004,-18.9 c -6.3,-1.5 -11.2,-9.8 -11.2,-18.6 z" />
<path
   id="XMLID_154_"
   class="st4"
   d="m 140.60001,346.50001 -80.800004,-18.9 c -6.2,-1.5 -11.1,-9.8 -11.1,-18.6 v 16 c 0,8.8 4.9,17.2 11.1,18.6 l 80.800004,18.9 c 8.2,1.9 15.1,-5 15.1,-15.5 v -16 c 0,10.6 -6.9,17.5 -15.1,15.5 z" />
<path
   id="XMLID_152_"
   class="st8"
   d="m 140.60001,51.600006 -80.800004,18.9 c -6.2,1.5 -11.1,9.8 -11.1,18.6 v 12.000004 c 0,-8.800004 4.9,-17.200004 11.1,-18.600004 l 80.800004,-18.9 c 8.2,-1.9 15.1,5 15.1,15.5 v -12 c 0,-10.5 -6.9,-17.4 -15.1,-15.5 z" />
<ellipse
   id="XMLID_14_"
   class="st3"
   cx="143.10001"
   cy="125.39999"
   rx="4.6999998"
   ry="10.6"
   style="fill:#2e3039;fill-opacity:1" />
<path
   id="XMLID_1_"
   class="st6"
   d="M 48.600006,325.10001 V 89.100006 c 0,-8.8 4.9,-17.2 11.1,-18.6 l 80.900004,-18.9 c 8.2,-1.9 15.1,5 15.1,15.5 V 347.10001 c 0,10.5 -6.8,17.4 -15.1,15.5 l -80.800004,-18.9 c -6.3,-1.5 -11.2,-9.8 -11.2,-18.6 z"
   style="stroke:#2e3039;stroke-opacity:1" />
<ellipse
   id="XMLID_141_"
   class="st17"
   cx="98.200012"
   cy="214.20001"
   rx="27.9"
   ry="54.599998" />
<ellipse
   id="XMLID_145_"
   class="st17"
   cx="97.200012"
   cy="265.89999"
   rx="8.6000004"
   ry="7.8000002" />
<ellipse
   id="XMLID_11_"
   class="st7"
   cx="99.399994"
   cy="207.60001"
   rx="29.799999"
   ry="55.5" />
<ellipse
   id="XMLID_12_"
   class="st4"
   cx="97.200012"
   cy="207.60001"
   rx="23.4"
   ry="46" />
<polyline
   id="XMLID_146_"
   class="st9"
   points="388.7,500 432.5,501.7 419.5,555.3 405.1,551.1 387,500 "
   transform="translate(-317.39999,-292.39999)" />
<ellipse
   id="XMLID_5_"
   class="st6"
   cx="99.399994"
   cy="207.60001"
   rx="29.799999"
   ry="55.5"
   style="stroke:#2e3039;stroke-opacity:1" />
<path
   id="XMLID_46_"
   class="st9"
   d="m 48.600006,169.60001 v 0 c -4.4,0 -8,-3.6 -8,-8 v -24 c 0,-4.4 3.6,-8 8,-8 v 0 c 4.4,0 8,3.6 8,8 v 24 c 0,4.4 -3.6,8 -8,8 z" />
<path
   id="XMLID_52_"
   class="st9"
   d="m 48.600006,300.10001 v 0 c -4.4,0 -8,-3.6 -8,-8 v -24 c 0,-4.4 3.6,-8 8,-8 v 0 c 4.4,0 8,3.6 8,8 v 24 c 0,4.4 -3.6,8 -8,8 z" />
<path
   id="XMLID_36_"
   class="st4"
   d="m 48.600006,161.60001 v 0 c -4.4,0 -8,-3.6 -8,-8 v -24 c 0,-4.4 3.6,-8 8,-8 v 0 c 4.4,0 8,3.6 8,8 v 24 c 0,4.4 -3.6,8 -8,8 z" />
<path
   id="XMLID_33_"
   class="st4"
   d="m 48.600006,292.60001 v 0 c -4.4,0 -8,-3.6 -8,-8 v -24 c 0,-4.4 3.6,-8 8,-8 v 0 c 4.4,0 8,3.6 8,8 v 24 c 0,4.4 -3.6,8 -8,8 z" />
<path
   id="XMLID_15_"
   class="st6"
   d="m 48.600006,161.60001 v 0 c -4.4,0 -8,-3.6 -8,-8 v -24 c 0,-4.4 3.6,-8 8,-8 v 0 c 4.4,0 8,3.6 8,8 v 24 c 0,4.4 -3.6,8 -8,8 z"
   style="stroke:#2e3039;stroke-opacity:1" />
<path
   id="XMLID_17_"
   class="st6"
   d="m 48.600006,292.60001 v 0 c -4.4,0 -8,-3.6 -8,-8 v -24 c 0,-4.4 3.6,-8 8,-8 v 0 c 4.4,0 8,3.6 8,8 v 24 c 0,4.4 -3.6,8 -8,8 z"
   style="stroke:#2e3039;stroke-opacity:1" />
<g
   id="XMLID_6_"
   transform="translate(-317.39999,-292.39999)">
	<line
   id="XMLID_22_"
   class="st6"
   x1="698"
   y1="347.29999"
   x2="677.79999"
   y2="344.5"
   style="stroke:#2e3039;stroke-opacity:1" />
	<line
   id="XMLID_21_"
   class="st6"
   x1="649.90002"
   y1="315.60001"
   x2="646.90002"
   y2="295.39999"
   style="stroke:#2e3039;stroke-opacity:1" />
	<line
   id="XMLID_16_"
   class="st6"
   x1="669.90002"
   y1="322.89999"
   x2="684.40002"
   y2="308.39999"
   style="stroke:#2e3039;stroke-opacity:1" />
</g>
<path
   id="XMLID_29_"
   class="st18"
   d="m 94.000006,187.10001 h -15.7 v 41.1 h 15.7 c 6.900004,0 12.400004,-9.2 12.400004,-20.5 0,-11.3 -5.6,-20.6 -12.400004,-20.6 z" />
<path
   id="XMLID_58_"
   class="st6"
   d="m 94.000006,187.10001 h -15.7 v 41.1 h 15.7 c 6.900004,0 12.400004,-9.2 12.400004,-20.5 0,-11.3 -5.6,-20.6 -12.400004,-20.6 z" />
<ellipse
   id="XMLID_9_"
   class="st19"
   cx="94"
   cy="207.60001"
   rx="12.4"
   ry="20.5"
   style="stroke:#2e3039;stroke-opacity:1" />
<line
   id="XMLID_8_"
   class="st20"
   x1="113.60001"
   y1="207.60001"
   x2="93.100006"
   y2="207.60001"
   style="stroke:#2e3039;stroke-opacity:1" />
<polyline
   id="XMLID_72_"
   class="st6"
   points="398.9,479.5 411.4,479.5 411.4,463.4 398.9,479.5 "
   transform="translate(-317.39999,-292.39999)"
   style="stroke:#2e3039;stroke-opacity:1" />
<polyline
   id="XMLID_39_"
   class="st3"
   points="398.9,479.5 411.4,479.5 411.4,463.4 398.9,479.5 "
   transform="translate(-317.39999,-292.39999)"
   style="fill:#2e3039;fill-opacity:1" />
<polyline
   id="XMLID_10_"
   class="st3"
   points="398.9,520.5 411.4,520.5 411.4,536.6 398.9,520.5 "
   transform="translate(-317.39999,-292.39999)" />
<polyline
   id="XMLID_101_"
   class="st6"
   points="398.9,520.5 411.4,520.5 411.4,536.6 398.9,520.5 "
   transform="translate(-317.39999,-292.39999)"
   style="stroke:#2e3039;stroke-opacity:1" />
<ellipse
   id="XMLID_34_"
   class="st21"
   cx="78.300018"
   cy="207.60001"
   rx="12.4"
   ry="20.5" />
<ellipse
   id="XMLID_4_"
   class="st15"
   cx="77.300018"
   cy="207.60001"
   rx="6.0999999"
   ry="10" />
<ellipse
   id="XMLID_37_"
   class="st6"
   cx="78.300018"
   cy="207.60001"
   rx="12.4"
   ry="20.5"
   style="stroke:#2e3039;stroke-opacity:1" />
<path
   id="XMLID_83_"
   class="st7"
   d="m 187.90001,342.20001 -20.3,2 V 69.900006 l 20.3,2 c 6.5,0.6 11.7,6.5 11.7,13 V 329.10001 c 0,6.6 -5.2,12.5 -11.7,13.1 z" />
<path
   id="XMLID_130_"
   class="st9"
   d="m 200.20001,174.20001 v -28.6 h -22.3 v 30.3 h 0.1 c 0,6.2 5,11.2 11.2,11.2 6.2,0 11.2,-5 11.2,-11.2 0,-0.6 -0.1,-1.1 -0.2,-1.7 z" />
<path
   id="XMLID_132_"
   class="st6"
   d="M 199.60001,84.900006 V 329.10001 c 0,5.1 -3.1,9.8 -7.4,11.9 -1.2,0.6 -2.6,1 -4,1.1 l -19.6,2 V 69.900006 l 19.6,2 c 1.4,0.1 2.7,0.5 4,1.1 4.3,2.2 7.4,6.8 7.4,11.9 z"
   style="stroke:#2e3039;stroke-opacity:1" />
<line
   id="XMLID_107_"
   class="st6"
   x1="287.89999"
   y1="311.69998"
   x2="312.10001"
   y2="336.19998"
   style="stroke:#2e3039;stroke-opacity:1" />
<path
   id="XMLID_102_"
   class="st4"
   d="m 189.50001,132.40001 c -6.2,0 -11.2,5 -11.2,11.2 0,6.2 5,11.2 11.2,11.2 h 10.9 v -22.3 h -10.9 z" />
<path
   id="XMLID_125_"
   class="st6"
   d="m 189.50001,132.40001 c -6.2,0 -11.2,5 -11.2,11.2 0,6.2 5,11.2 11.2,11.2 h 10.9 v -22.3 h -10.9 z"
   style="stroke:#2e3039;stroke-opacity:1" />
<circle
   id="XMLID_104_"
   class="st7"
   cx="200.39999"
   cy="143.60001"
   r="11.2" />
<circle
   id="XMLID_32_"
   class="st6"
   cx="200.39999"
   cy="143.60001"
   r="11.2" />
<circle
   id="XMLID_124_"
   class="st6"
   cx="200.39999"
   cy="143.60001"
   r="11.2"
   style="stroke:#2e3039;stroke-opacity:1" />
<path
   id="XMLID_136_"
   class="st9"
   d="m 200.20001,301.90001 v -28.6 h -22.3 v 30.3 h 0.1 c 0,6.2 5,11.2 11.2,11.2 6.2,0 11.2,-5 11.2,-11.2 0,-0.6 -0.1,-1.2 -0.2,-1.7 z" />
<path
   id="XMLID_134_"
   class="st4"
   d="m 189.50001,260.10001 c -6.2,0 -11.2,5 -11.2,11.2 0,6.2 5,11.2 11.2,11.2 h 10.9 v -22.3 h -10.9 z" />
<path
   id="XMLID_133_"
   class="st6"
   d="m 189.50001,260.10001 c -6.2,0 -11.2,5 -11.2,11.2 0,6.2 5,11.2 11.2,11.2 h 10.9 v -22.3 h -10.9 z"
   style="stroke:#2e3039;stroke-opacity:1" />
<circle
   id="XMLID_129_"
   class="st7"
   cx="200.39999"
   cy="271.19998"
   r="11.2" />
<circle
   id="XMLID_127_"
   class="st6"
   cx="200.39999"
   cy="271.19998"
   r="11.2"
   style="stroke:#2e3039;stroke-opacity:1" />
<path
   id="XMLID_126_"
   class="st4"
   d="m 133.60001,279.90001 c -2.2,0 -4,-1.8 -4,-4 v -142 c 0,-2.2 1.8,-4 4,-4 h 8.2 v -9 h -9.2 c -6.6,0 -12,5.4 -12,12 v 144 c 0,6.6 5.4,12 12,12 h 9.2 v -9 z" />
<ellipse
   id="XMLID_137_"
   class="st3"
   cx="143.10001"
   cy="283.69998"
   rx="4.6999998"
   ry="10.6"
   style="fill:#2e3039;fill-opacity:1" />
<path
   id="XMLID_138_"
   class="st6"
   d="m 133.60001,279.90001 c -2.2,0 -4,-1.8 -4,-4 v -142 c 0,-2.2 1.8,-4 4,-4 h 8.2 v -9 h -9.2 c -6.6,0 -12,5.4 -12,12 v 144 c 0,6.6 5.4,12 12,12 h 9.2 v -9 z"
   style="stroke:#2e3039;stroke-opacity:1" />
<path
   id="XMLID_19_"
   class="st6"
   d="M 312.60001,377.10001 H 52.600006 c -22.1,0 -40,-17.9 -40,-40 V 77.100006 c 0,-22.1 17.9,-40 40,-40 H 312.60001 c 22.1,0 40,17.9 40,40 V 337.10001 c 0,22.1 -17.9,40 -40,40 z"
   style="stroke:#2e3039;stroke-opacity:1" />
<line
   id="XMLID_144_"
   class="st22"
   x1="142.10001"
   y1="134.10001"
   x2="143.10001"
   y2="311.69998" />
<line
   id="XMLID_148_"
   class="st6"
   x1="141.20001"
   y1="51.300018"
   x2="156.70001"
   y2="50.800018"
   style="stroke:#2e3039;stroke-opacity:1" />
<line
   id="XMLID_149_"
   class="st6"
   x1="142.60001"
   y1="362.80002"
   x2="156.89999"
   y2="363.19998"
   style="stroke:#2e3039;stroke-opacity:1" />
</svg>
