<?xml version="1.0" encoding="UTF-8" standalone="no"?>
<!-- Generator: Adobe Illustrator 23.1.1, SVG Export Plug-In . SVG Version: 6.00 Build 0)  -->

<svg
   version="1.1"
   id="Layer_1"
   x="0px"
   y="0px"
   viewBox="0 0 717.56317 681.84497"
   xml:space="preserve"
   sodipodi:docname="piranha.svg"
   inkscape:version="1.1.2 (0a00cf5339, 2022-02-04)"
   width="717.56317"
   height="681.84497"
   xmlns:inkscape="http://www.inkscape.org/namespaces/inkscape"
   xmlns:sodipodi="http://sodipodi.sourceforge.net/DTD/sodipodi-0.dtd"
   xmlns="http://www.w3.org/2000/svg"
   xmlns:svg="http://www.w3.org/2000/svg"><defs
   id="defs284" /><sodipodi:namedview
   id="namedview282"
   pagecolor="#ffffff"
   bordercolor="#666666"
   borderopacity="1.0"
   inkscape:pageshadow="2"
   inkscape:pageopacity="0.0"
   inkscape:pagecheckerboard="0"
   showgrid="false"
   inkscape:zoom="0.775"
   inkscape:cx="354.19355"
   inkscape:cy="440"
   inkscape:window-width="1920"
   inkscape:window-height="947"
   inkscape:window-x="0"
   inkscape:window-y="32"
   inkscape:window-maximized="1"
   inkscape:current-layer="Layer_1" />
<style
   type="text/css"
   id="style2">
	.st0{fill:#FCFCFC;}
	.st1{fill:#372E42;}
	.st2{fill:#E4EFEF;}
	.st3{fill:none;stroke:#272130;stroke-width:6;stroke-linecap:round;stroke-linejoin:round;stroke-miterlimit:10;}
	.st4{opacity:0.83;fill:#2D2638;}
	.st5{fill:none;stroke:#272130;stroke-width:4;stroke-linecap:round;stroke-linejoin:round;stroke-miterlimit:10;}
	.st6{fill:#FFFFFF;}
	.st7{fill:#1E1826;}
	.st8{fill:none;stroke:#204751;stroke-width:6;stroke-linecap:round;stroke-linejoin:round;stroke-miterlimit:10;}
	.st9{fill:#4DC1C4;}
	.st10{fill:#23AFAB;}
	.st11{fill:#FFFFFF;stroke:#FFFFFF;stroke-width:4;stroke-linecap:round;stroke-linejoin:round;stroke-miterlimit:10;}
	.st12{opacity:0.78;fill:#6D87AC;}
	.st13{opacity:0.39;fill:#6D87AC;}
</style>


<path
   id="XMLID_46_"
   class="st2"
   d="m 529.70788,56.744954 c -55.7,-83.8 -265.5,-64.1999997 -283.5,-9.4 -7.9,24.2 26.9,39.4 17.7,67.999996 -10.8,33.6 -63.6,27.6 -154.9,96.2 -15.500001,11.7 -110.00000137,82.6 -109.00000137,177.9 0.9,88.9 74.50000037,175.9 154.30000137,192.8 81.7,17.3 113.5,-50.2 196.4,-33.9 103.1,20.4 115.3,133.5 177.7,133.5 120.9,0.1 246.7,-427 160.9,-482.5 -33.9,-21.9 -87.9,22.6 -125.8,-9.4 -36.6,-30.8 -2.3,-85.9 -33.8,-133.199996 z"
   style="fill-opacity:1;fill:#2e3039" />
<path
   id="XMLID_47_"
   class="st2"
   d="m 285.90788,601.54495 c -13.6,14.9 -5,39.9 12.7,53.9 14.6,11.6 39.2,18.7 56.6,10.2 21.7,-10.5 23.9,-41.1 4.3,-59.8 -20,-19.2 -58.2,-21.3 -73.6,-4.3 z"
   style="fill:#2e3039;fill-opacity:1" />
<path
   id="XMLID_48_"
   class="st2"
   d="m 147.50788,67.544954 c -17.1,4.7 -21.6,52.599996 -10,61.999996 31.5,25.4 53.6,0.7 40,-33.999996 -6.2,-15.9 -19.3,-31 -30,-28 z"
   style="fill:#2e3039;fill-opacity:1" />
<path
   id="XMLID_50_"
   class="st2"
   d="m 588.70788,103.64495 c -17.1,1.9 -21.6,21 -10,24.8 31.5,10.1 53.6,0.3 40,-13.6 -6.2,-6.3 -19.3,-12.3 -30,-11.2 z"
   style="fill:#2e3039;fill-opacity:1" />
<path
   id="XMLID_15_"
   class="st3"
   d="m 222.40788,507.94495 c 0,0 -8.1,9.2 34.7,51.9 0,-16.5 -5,-35.2 17.8,-42.4 -27.4,-3.7 -52.5,-9.5 -52.5,-9.5 z" />
<path
   id="XMLID_107_"
   class="st1"
   d="m 222.40788,507.94495 c 0,0 -8.1,9.2 34.7,51.9 0,-16.5 -5,-35.2 17.8,-42.4 -27.4,-3.7 -52.5,-9.5 -52.5,-9.5 z" />
<path
   id="XMLID_106_"
   class="st1"
   d="m 421.90788,495.44495 c 0,0 32.6,11.4 47.6,11.4 15,0 27,-5.7 27,-5.7 l -15,-5.7 c 22,0 38.5,-16.6 38.5,-16.6 l -17.5,-4 c 21.5,-3.7 31,-26 31,-26 -4,0 -32.6,-4.6 -32.6,-11.3 -25.8,25.8 -65.9,52.6 -79,57.9 z" />
<path
   id="XMLID_183_"
   class="st4"
   d="m 500.90788,437.54495 c -25.8,25.8 -65.9,52.6 -79,57.9 0,0 22.9,8 39.1,10.6 2.9,-3.6 5.6,-6.8 7.3,-8.5 5.2,-5.2 26.9,-8.3 26.9,-14.5 0,-6.2 -5.3,-9.3 7.4,-16.4 12.7,-7.1 11.4,-12.9 11.4,-12.9 l 1.4,-8 c -7.4,-2.1 -14.5,-4.9 -14.5,-8.2 z" />
<path
   id="XMLID_41_"
   class="st5"
   d="m 446.40788,483.04495 c 0,0 9.7,10.9 16.7,10.9" />
<path
   id="XMLID_42_"
   class="st5"
   d="m 487.40788,483.04495 c -12.7,0 -19.1,-14.4 -19.1,-14.4" />
<path
   id="XMLID_43_"
   class="st5"
   d="m 487.40788,457.84495 c 0,0 3.7,0 15.7,0" />
<path
   id="XMLID_19_"
   class="st3"
   d="m 421.90788,495.44495 c 0,0 32.6,11.4 47.6,11.4 15,0 27,-5.7 27,-5.7 l -15,-5.7 c 22,0 38.5,-16.6 38.5,-16.6 l -17.5,-4 c 21.5,-3.7 31,-26 31,-26 -4,0 -32.6,-4.6 -32.6,-11.3 -25.8,25.8 -65.9,52.6 -79,57.9 z" />
<ellipse
   id="XMLID_68_"
   class="st6"
   cx="155.60788"
   cy="241.34496"
   rx="33"
   ry="36" />
<ellipse
   id="XMLID_129_"
   class="st7"
   cx="144.90787"
   cy="244.64494"
   rx="11.5"
   ry="11.8" />
<ellipse
   id="XMLID_122_"
   class="st6"
   cx="142.10788"
   cy="240.64494"
   rx="5.0999999"
   ry="5.1999998" />
<circle
   id="XMLID_71_"
   class="st6"
   cx="147.80786"
   cy="250.84496"
   r="1.9" />
<ellipse
   id="XMLID_28_"
   class="st8"
   cx="155.60788"
   cy="241.34496"
   rx="33"
   ry="36" />
<path
   id="XMLID_70_"
   class="st1"
   d="m 326.10788,195.54495 c 0,0 30,-55.6 106.5,-55.6 -10.5,10.5 -10.5,21 -10.5,21 0,0 28.1,-10.8 52.5,-3 -16.5,16.5 -16.5,25.5 -16.5,25.5 16.5,-16.5 51.8,4.7 57.9,10.9 -32.8,12 -23.3,13.9 -23.3,13.9 0,0 19.8,-0.1 38.7,18.8 -19.2,5.9 -41.2,14.4 -37.8,38.9 -20.4,-18.9 -22.1,-35.8 -167.5,-70.4 z" />
<path
   id="XMLID_174_"
   class="st4"
   d="m 502.70788,240.44495 -7.4,-12.7 c 0,0 -18,-7 -26.9,-15.9 -8.9,-8.9 -13.3,-10.3 -21.9,-18.9 -8.6,-8.6 -17.9,-10.4 -29.4,-10.4 -11.5,0 -22,-11.1 -27.6,-16.7 -2.8,-2.8 -18.5,-2.8 -33.5,-2.1 -20.8,15.1 -29.8,31.8 -29.8,31.8 145.3,34.6 147,51.5 167.3,70.3 -1.6,-11.5 2.5,-19.5 9.2,-25.4 z" />
<path
   id="XMLID_37_"
   class="st5"
   d="m 367.10788,199.24495 c 0,0 18.6,-24.3 37.1,-33.4" />
<path
   id="XMLID_38_"
   class="st5"
   d="m 397.00788,205.34495 c 0,0 15.9,-18.6 49.5,-30.5" />
<path
   id="XMLID_39_"
   class="st5"
   d="m 428.70788,219.54495 c 0,0 19.6,-22.7 53.4,-24" />
<path
   id="XMLID_40_"
   class="st5"
   d="m 455.40788,235.94495 c 0,0 28.2,-16.4 47.7,-16.4" />
<path
   id="XMLID_21_"
   class="st3"
   d="m 326.10788,195.54495 c 0,0 30,-55.6 106.5,-55.6 -10.5,10.5 -10.5,21 -10.5,21 0,0 28.1,-10.8 52.5,-3 -16.5,16.5 -16.5,25.5 -16.5,25.5 16.5,-16.5 51.8,4.7 57.9,10.9 -32.8,12 -23.3,13.9 -23.3,13.9 0,0 19.8,-0.1 38.7,18.8 -19.2,5.9 -41.2,14.4 -37.8,38.9 -20.4,-18.9 -22.1,-35.8 -167.5,-70.4 z" />
<path
   id="XMLID_93_"
   class="st1"
   d="m 514.20788,317.54495 c 0,0 15.3,13.4 39.3,5 24,-8.4 84.7,-72.4 129.3,-61 0,0 -23.3,20.7 -18,49.3 5.3,28.7 -14,51.3 -14,51.3 0,0 16,10.7 0,26.7 -16,16 -42.3,11.7 -39.3,33 3,21.3 18.7,22.3 22,41 3.3,18.7 -4,60.7 16,70 0,0 -21.3,39.3 -82,-74.7 -28,-53.1 -35.3,-61.3 -53.3,-61.3 -6,-16 0,-79.3 0,-79.3 z" />
<path
   id="XMLID_172_"
   class="st4"
   d="m 514.20788,317.54495 c 0,0 -6,63.3 0,79.3 18,0 25.3,8.2 53.3,61.3 0.1,0.2 0.2,0.4 0.3,0.6 6.8,-17.2 7.3,-52 7.3,-63.6 0,-15.7 18.2,-23.8 22,-46 2.2,-12.8 -5.4,-32.3 -12.3,-46.6 -12.9,9.4 -23.9,17.4 -31.4,20 -23.9,8.4 -39.2,-5 -39.2,-5 z" />
<path
   id="XMLID_110_"
   class="st5"
   d="m 531.30788,351.24495 c 0,0 24.3,5.6 57.3,-10.3 33,-15.9 39,-33.4 54,-33.4" />
<path
   id="XMLID_1_"
   class="st5"
   d="m 530.30788,371.54495 c 0,0 26.5,0 56.7,0 30.2,0 49.1,-9.2 49.1,-9.2" />
<path
   id="XMLID_35_"
   class="st5"
   d="m 530.30788,384.44495 c 0,0 38.9,-0.6 66.9,21.4" />
<path
   id="XMLID_36_"
   class="st5"
   d="m 525.80788,391.84495 c 0,0 55.4,15.1 86.9,102.1" />
<path
   id="XMLID_20_"
   class="st3"
   d="m 514.20788,317.54495 c 0,0 15.3,13.4 39.3,5 24,-8.4 84.7,-72.4 129.3,-61 0,0 -23.3,20.7 -18,49.3 5.3,28.7 -14,51.3 -14,51.3 0,0 16,10.7 0,26.7 -16,16 -42.3,11.7 -39.3,33 3,21.3 18.7,22.3 22,41 3.3,18.7 -4,60.7 16,70 0,0 -21.3,39.3 -82,-74.7 -28,-53.1 -35.3,-61.3 -53.3,-61.3 -6,-16 0,-79.3 0,-79.3 z" />
<path
   id="XMLID_62_"
   class="st9"
   d="m 304.30788,192.94495 c -9.3,0 -18.5,0.4 -27.5,1.2 l 1.2,0.2 c -1.2,0 -2.4,0 -3.6,0 -9.2,0.9 -18.2,2.1 -26.9,3.8 v 315.7 c 18.2,3.4 37.2,5.2 56.8,5.2 125.4,0 227,-73 227,-163 0,-90 -101.6,-163.1 -227,-163.1 z" />
<path
   id="XMLID_181_"
   class="st10"
   d="m 379.30788,202.04495 c 72.2,27.3 121.5,81.7 121.5,144.3 0,90 -109,167.2 -234.4,167.2 -8.9,0 -3.6,2.1 -12.2,1.4 l -6.7,-1.2 c 18.2,3.4 37.2,5.2 56.8,5.2 125.4,0 227,-73 227,-163 0,-71.2 -63.5,-131.7 -152,-153.9 z" />
<path
   id="XMLID_32_"
   class="st8"
   d="m 304.30788,192.94495 c -9.3,0 -18.5,0.4 -27.5,1.2 l 1.2,0.2 c -1.2,0 -2.4,0 -3.6,0 -9.2,0.9 -18.2,2.1 -26.9,3.8 v 315.7 c 18.2,3.4 37.2,5.2 56.8,5.2 125.4,0 227,-73 227,-163 0,-90 -101.6,-163.1 -227,-163.1 z" />
<path
   id="XMLID_65_"
   class="st9"
   d="m 274.90788,194.34495 c 0,0 0,0 0,0 -14.1,1.3 -27.6,3.5 -40.7,6.5 -57.8,17.8 -104.9,75.3 -104.9,137 l -28.4,-3 c -12.500001,-1.3 -23.500001,8.3 -23.500001,20.9 0,0.1 0,0.2 0,0.2 0,82.8 86.100001,151.3 197.500001,161.6 32,-44.1 51.2,-100.4 51.2,-161.6 0,-61.3 -19.2,-117.5 -51.2,-161.6 z" />
<path
   id="XMLID_60_"
   class="st10"
   d="m 147.80788,314.74495 c 0,0 40.9,17.2 76.9,17.2 36,0 47.4,-2.7 51.7,-16.6 0,0 2.1,9.3 -1.6,16.6 -3.7,7.3 -18.3,29.7 -93.8,14.3 -75.4,-10.9 -47.6,-8 -47.6,-8 0,0 -1.7,-29.4 14.4,-23.5 z" />
<path
   id="XMLID_34_"
   class="st10"
   d="m 168.10788,346.34495 c 0,0 34,16.5 68.6,16.5 20.2,0 36.7,-7.2 43.5,-11.6 20.5,-13.4 6.6,-44.1 0,-33.7 -3.7,5.8 -9.3,21.4 -13,25.2 -3.7,3.8 -55.9,8.5 -62.5,8.5 -6.6,0 -36.6,-4.9 -36.6,-4.9 z" />
<g
   id="XMLID_177_"
   transform="translate(-145.49212,-162.15505)">
	<path
   id="XMLID_179_"
   class="st10"
   d="m 294.8,500 c 0,-61.6 47.1,-119.1 104.9,-137 7.3,-1.7 14.7,-3.1 22.2,-4.3 -0.5,-0.8 -1.1,-1.5 -1.6,-2.3 0,0 0,0 -0.1,0 -14,1.3 -27.6,3.5 -40.7,6.6 -57.1,17.6 -103.9,74 -104.9,134.8 z" />
	<path
   id="XMLID_180_"
   class="st10"
   d="m 242.9,518.1 c 0,-0.1 0,-0.2 0,-0.2 0,-9.2 6,-16.8 14,-19.7 l -10.6,-1.1 c -12.5,-1.3 -23.5,8.3 -23.5,20.9 0,0.1 0,0.2 0,0.2 0,82.8 86.1,151.3 197.5,161.6 0.5,-0.8 1.1,-1.5 1.6,-2.3 -102.2,-15.9 -179,-81.2 -179,-159.4 z" />
</g>
<path
   id="XMLID_33_"
   class="st8"
   d="m 274.90788,194.34495 c 0,0 0,0 0,0 -14.1,1.3 -27.6,3.5 -40.7,6.5 -57.8,17.8 -104.9,75.3 -104.9,137 l -28.4,-3 c -12.500001,-1.3 -23.500001,8.3 -23.500001,20.9 0,0.1 0,0.2 0,0.2 0,82.8 86.100001,151.3 197.500001,161.6 32,-44.1 51.2,-100.4 51.2,-161.6 0,-61.3 -19.2,-117.5 -51.2,-161.6 z" />
<path
   id="XMLID_24_"
   class="st11"
   d="m 208.20788,349.14495 c -6.3,-0.6 -12.1,-1.3 -17.3,-2 -0.3,-1.7 -0.4,-3.4 -0.4,-5.1 0,-12.7 7.3,-23.5 17.3,-27.2 -3,4.7 -4.8,10.6 -4.8,16.9 0,6.5 1.9,12.6 5.2,17.4 z" />
<path
   id="XMLID_23_"
   class="st11"
   d="m 143.00788,340.94495 c -8.5,-1.1 -16.4,-2.2 -23.4,-3.3 -0.3,-2.3 -0.4,-4.6 -0.4,-7 0.5,-17.3 10.7,-31.7 24.5,-36.5 -4.3,6.3 -7,14.2 -7.2,22.9 -0.2,8.9 2.2,17.2 6.5,23.9 z" />
<path
   id="XMLID_30_"
   class="st8"
   d="m 290.50788,327.54495 c 0,-9.3 -26,-20 -26,-20" />
<ellipse
   id="XMLID_66_"
   class="st6"
   cx="204.70789"
   cy="237.54497"
   rx="40"
   ry="42" />
<ellipse
   id="XMLID_29_"
   class="st8"
   cx="204.70789"
   cy="237.54497"
   rx="40"
   ry="42" />
<ellipse
   id="XMLID_27_"
   class="st7"
   cx="201.50787"
   cy="249.34496"
   rx="16"
   ry="16.5" />
<ellipse
   id="XMLID_67_"
   class="st6"
   cx="197.60788"
   cy="243.84496"
   rx="7.0999999"
   ry="7.3000002" />
<ellipse
   id="XMLID_69_"
   class="st6"
   cx="205.60788"
   cy="258.14493"
   rx="2.5999999"
   ry="2.7" />
<path
   id="XMLID_26_"
   class="st11"
   d="m 180.10788,294.34495 c 0.3,-0.3 0.6,-0.6 0.9,-0.9 -4.2,2 -8.3,4.7 -11.8,7.9 -13.3,12.1 -17.2,29 -11.2,42.6 l 17.6,2.4 c -10.8,-16.2 -9.6,-37.3 4.5,-52 z" />
<path
   id="XMLID_25_"
   class="st11"
   d="m 233.20788,328.04495 c 0.1,-0.1 0.2,-0.3 0.4,-0.4 -1.8,1.1 -3.5,2.4 -4.9,4 -5.1,5.8 -5.1,13.1 -0.8,18.6 l 8.8,0.1 c -6.9,-6.4 -8.7,-15.3 -3.5,-22.3 z" />
<path
   id="XMLID_92_"
   class="st1"
   d="m 377.50788,370.14495 c 0,0 -45.2,39.7 -32.7,79.3 0,0 6.7,19.3 28.7,22.7 21.3,3.2 25.7,-7 30.7,-12 -20.2,-8.1 -11.2,-34.3 -6.7,-38.9 -9.3,0 -20,-7.9 -23.8,-16.4 -3.7,-8.5 -1.6,-16.6 3.8,-34.7 z" />
<path
   id="XMLID_160_"
   class="st4"
   d="m 344.80788,449.54495 c 0,0 6.4,18.5 27.4,22.4 -10.2,-24.3 -14.5,-54.8 -16.3,-76.1 -9.5,14.8 -17.2,34.2 -11.1,53.7 z" />
<path
   id="XMLID_17_"
   class="st3"
   d="m 377.50788,370.14495 c 0,0 -45.2,39.7 -32.7,79.3 0,0 6.7,19.3 28.7,22.7 21.3,3.2 25.7,-7 30.7,-12 -20.2,-8.1 -11.2,-34.3 -6.7,-38.9 -9.3,0 -20,-7.9 -23.8,-16.4 -3.7,-8.5 -1.6,-16.6 3.8,-34.7 z" />
<path
   id="XMLID_31_"
   class="st8"
   d="m 280.20788,317.54495 c 0,0 1.2,37.6 -52.7,33.4 -60.9,-4.8 -117.2,-15.1 -117.2,-15.1" />
<circle
   id="XMLID_109_"
   class="st12"
   cx="198.30786"
   cy="445.04495"
   r="23.6" />
<circle
   id="XMLID_118_"
   class="st12"
   cx="257.10788"
   cy="257.04495"
   r="7.4000001" />
<circle
   id="XMLID_125_"
   class="st12"
   cx="275.70789"
   cy="229.14494"
   r="11.1" />
<circle
   id="XMLID_158_"
   class="st12"
   cx="267.20789"
   cy="368.44492"
   r="5.5999999" />
<circle
   id="XMLID_120_"
   class="st13"
   cx="276.50787"
   cy="273.64493"
   r="3.7" />
<circle
   id="XMLID_112_"
   class="st12"
   cx="373.4079"
   cy="260.84494"
   r="23.6" />
<circle
   id="XMLID_159_"
   class="st13"
   cx="446.4079"
   cy="299.24493"
   r="29.4" />
<circle
   id="XMLID_156_"
   class="st12"
   cx="499.50787"
   cy="350.24496"
   r="12" />
<circle
   id="XMLID_111_"
   class="st12"
   cx="249.80786"
   cy="466.64493"
   r="8.8000002" />
<path
   id="XMLID_162_"
   class="st5"
   d="m 354.50788,427.54495 c 0,0 10,-6.3 14.3,-10.7" />
<path
   id="XMLID_164_"
   class="st5"
   d="m 354.50788,440.14495 c 0,0 20,-4.3 25,-9.3" />
<path
   id="XMLID_168_"
   class="st5"
   d="m 358.80788,449.54495 c 0,0 13.3,5.3 23.3,8.3" />
<path
   id="XMLID_170_"
   class="st5"
   d="m 236.70788,517.54495 c 0,0 5.9,15.3 13,18.6" />
</svg>
