<?xml version="1.0" encoding="UTF-8" standalone="no"?>
<!-- Generator: Adobe Illustrator 23.1.1, SVG Export Plug-In . SVG Version: 6.00 Build 0)  -->

<svg
   version="1.1"
   id="Layer_1"
   x="0px"
   y="0px"
   viewBox="0 0 766.97131 626.5426"
   xml:space="preserve"
   sodipodi:docname="wacom.svg"
   inkscape:version="1.1.2 (0a00cf5339, 2022-02-04)"
   width="766.97131"
   height="626.5426"
   xmlns:inkscape="http://www.inkscape.org/namespaces/inkscape"
   xmlns:sodipodi="http://sodipodi.sourceforge.net/DTD/sodipodi-0.dtd"
   xmlns="http://www.w3.org/2000/svg"
   xmlns:svg="http://www.w3.org/2000/svg"><defs
   id="defs385" /><sodipodi:namedview
   id="namedview383"
   pagecolor="#ffffff"
   bordercolor="#666666"
   borderopacity="1.0"
   inkscape:pageshadow="2"
   inkscape:pageopacity="0.0"
   inkscape:pagecheckerboard="0"
   showgrid="false"
   inkscape:zoom="0.775"
   inkscape:cx="399.35484"
   inkscape:cy="236.12903"
   inkscape:window-width="1920"
   inkscape:window-height="947"
   inkscape:window-x="0"
   inkscape:window-y="32"
   inkscape:window-maximized="1"
   inkscape:current-layer="Layer_1" />
<style
   type="text/css"
   id="style2">
	.st0{fill:#1478C9;}
	.st1{fill:#EEF2F4;}
	
		.st2{opacity:0.5;fill:#232323;stroke:#232323;stroke-width:8;stroke-linecap:round;stroke-linejoin:round;stroke-miterlimit:10;enable-background:new    ;}
	.st3{fill:#43597A;}
	.st4{opacity:0.7;fill:#6A87AD;}
	.st5{fill:#394E6B;}
	.st6{fill:none;stroke:#202454;stroke-width:8;stroke-linecap:round;stroke-linejoin:round;stroke-miterlimit:10;}
	.st7{fill:#2F3F56;}
	.st8{fill:none;stroke:#283356;stroke-linecap:round;stroke-linejoin:round;stroke-miterlimit:10;}
	.st9{opacity:0.8;}
	.st10{opacity:0.8;fill:#B4C7E7;enable-background:new    ;}
	.st11{fill:none;stroke:#22293F;stroke-width:6;stroke-linecap:round;stroke-linejoin:round;stroke-miterlimit:10;}
	.st12{fill:none;stroke:#202454;stroke-width:5;stroke-linecap:round;stroke-linejoin:round;stroke-miterlimit:10;}
	.st13{fill:none;stroke:#707A99;stroke-width:3;stroke-linecap:round;stroke-linejoin:round;stroke-miterlimit:10;}
	.st14{opacity:0.4;}
	.st15{fill:#232323;stroke:#232323;stroke-width:8.0001;stroke-linecap:round;stroke-linejoin:round;stroke-miterlimit:10.0001;}
	.st16{fill:#232323;stroke:#232323;stroke-width:8;stroke-linecap:round;stroke-linejoin:round;stroke-miterlimit:10;}
	.st17{fill:none;stroke:#232323;stroke-width:8;stroke-linecap:round;stroke-linejoin:round;stroke-miterlimit:10;}
	.st18{opacity:0.5;fill:#6A87AD;}
	.st19{fill:none;stroke:#202454;stroke-width:8.0001;stroke-linecap:round;stroke-linejoin:round;stroke-miterlimit:10.0001;}
	.st20{fill:#6A87AD;}
	.st21{fill:#334665;}
	.st22{opacity:0.4;fill:#43597A;enable-background:new    ;}
	.st23{fill:#81A0C1;}
	.st24{fill:#E2E9F2;}
</style>


<path
   id="XMLID_276_"
   class="st2"
   d="m 664.07129,339.17129 -456.9,279 c -14.1,8.6 -32.6,4.2 -41.2,-10 l -157.6000036,-258.1 c -8.60000001,-14.1 -4.2,-32.6 9.9999996,-41.2 L 475.27129,29.971286 c 14.1,-8.6 32.6,-4.2 41.2,10 l 157.6,258.100004 c 8.6,14 4.1,32.5 -10,41.1 z" />
<g
   id="g373"
   transform="translate(-100.92871,-159.42871)">
	<path
   id="XMLID_74_"
   class="st3"
   d="M 767.7,477 310.8,755.9 c -14.1,8.6 -32.6,4.2 -41.2,-10 L 112,487.9 c -8.6,-14.1 -4.2,-32.6 10,-41.2 L 578.9,167.8 c 14.1,-8.6 32.6,-4.2 41.2,10 l 157.6,258.1 c 8.6,14 4.2,32.5 -10,41.1 z" />
	<path
   id="XMLID_148_"
   class="st4"
   d="m 571.4,172.3 -9.9,6.1 c 18.3,-11.2 42.2,-5.4 53.4,12.9 l 148.4,243 c 11.2,18.3 5.4,42.2 -12.9,53.4 l 9.9,-6.1 c 18.3,-11.2 24.1,-35.1 12.9,-53.4 l -148.4,-243 c -11.2,-18.3 -35.1,-24 -53.4,-12.9 z" />
	<path
   id="XMLID_147_"
   class="st5"
   d="m 277.7,730.7 -148.4,-243 c -11.2,-18.3 -5.4,-42.2 12.9,-53.4 l -14.9,9.1 c -18.3,11.2 -24.1,35.1 -12.9,53.4 l 148.4,243 c 11.2,18.3 35.1,24.1 53.4,12.9 l 14.9,-9.1 c -18.3,11.2 -42.2,5.4 -53.4,-12.9 z" />
	<path
   id="XMLID_1_"
   class="st6"
   d="M 767.7,477 310.8,755.9 c -14.1,8.6 -32.6,4.2 -41.2,-10 L 112,487.9 c -8.6,-14.1 -4.2,-32.6 10,-41.2 L 578.9,167.8 c 14.1,-8.6 32.6,-4.2 41.2,10 l 157.6,258.1 c 8.6,14 4.2,32.5 -10,41.1 z" />
	<path
   id="XMLID_234_"
   class="st7"
   d="M 746.1,462.9 388,681.5 c -8.5,5.2 -19.6,2.5 -24.7,-6 L 217.5,436.8 c -5.2,-8.5 -2.5,-19.6 6,-24.7 L 581.6,193.5 c 8.5,-5.2 19.6,-2.5 24.7,6 l 145.8,238.8 c 5.2,8.4 2.5,19.4 -6,24.6 z" />
	<g
   id="XMLID_21_">
		<line
   id="XMLID_56_"
   class="st8"
   x1="270"
   y1="383.60001"
   x2="434.5"
   y2="653.09998" />
		<line
   id="XMLID_58_"
   class="st8"
   x1="323"
   y1="351.29999"
   x2="487.5"
   y2="620.79999" />
		<line
   id="XMLID_59_"
   class="st8"
   x1="376"
   y1="318.89999"
   x2="540.59998"
   y2="588.40002" />
		<line
   id="XMLID_60_"
   class="st8"
   x1="429"
   y1="286.5"
   x2="593.59998"
   y2="556" />
		<line
   id="XMLID_62_"
   class="st8"
   x1="482.10001"
   y1="254.2"
   x2="646.59998"
   y2="523.70001" />
		<line
   id="XMLID_63_"
   class="st8"
   x1="535.09998"
   y1="221.8"
   x2="699.59998"
   y2="491.29999" />
		<line
   id="XMLID_64_"
   class="st8"
   x1="241.8"
   y1="476.60001"
   x2="630.70001"
   y2="239.2" />
		<line
   id="XMLID_66_"
   class="st8"
   x1="274.20001"
   y1="529.59998"
   x2="663"
   y2="292.29999" />
		<line
   id="XMLID_67_"
   class="st8"
   x1="306.60001"
   y1="582.70001"
   x2="695.40002"
   y2="345.29999" />
		<line
   id="XMLID_68_"
   class="st8"
   x1="338.89999"
   y1="635.70001"
   x2="727.79999"
   y2="398.29999" />
	</g>
	<path
   id="XMLID_4_"
   class="st6"
   d="M 746.1,462.9 388,681.5 c -8.5,5.2 -19.6,2.5 -24.7,-6 L 217.5,436.8 c -5.2,-8.5 -2.5,-19.6 6,-24.7 L 581.6,193.5 c 8.5,-5.2 19.6,-2.5 24.7,6 l 145.8,238.8 c 5.2,8.4 2.5,19.4 -6,24.6 z" />
	<g
   id="XMLID_75_"
   class="st9">
		<path
   id="XMLID_78_"
   class="st3"
   d="M 328.4,696.7 303.3,712 c -2.8,1.7 -6.5,0.8 -8.2,-2 l -9.9,-16.3 c -1.7,-2.8 -0.8,-6.5 2,-8.2 l 25.1,-15.3 c 2.8,-1.7 6.5,-0.8 8.2,2 l 9.9,16.3 c 1.7,2.8 0.8,6.5 -2,8.2 z" />
		<path
   id="XMLID_76_"
   class="st3"
   d="m 301.4,652.5 -25.1,15.3 c -2.8,1.7 -6.5,0.8 -8.2,-2 l -9.9,-16.3 c -1.7,-2.8 -0.8,-6.5 2,-8.2 L 285.3,626 c 2.8,-1.7 6.5,-0.8 8.2,2 l 9.9,16.3 c 1.8,2.8 0.9,6.5 -2,8.2 z" />
	</g>
	<g
   id="XMLID_7_">
		<path
   id="XMLID_11_"
   class="st6"
   d="M 328.4,696.7 303.3,712 c -2.8,1.7 -6.5,0.8 -8.2,-2 l -9.9,-16.3 c -1.7,-2.8 -0.8,-6.5 2,-8.2 l 25.1,-15.3 c 2.8,-1.7 6.5,-0.8 8.2,2 l 9.9,16.3 c 1.7,2.8 0.8,6.5 -2,8.2 z" />
		<path
   id="XMLID_13_"
   class="st6"
   d="m 301.4,652.5 -25.1,15.3 c -2.8,1.7 -6.5,0.8 -8.2,-2 l -9.9,-16.3 c -1.7,-2.8 -0.8,-6.5 2,-8.2 L 285.3,626 c 2.8,-1.7 6.5,-0.8 8.2,2 l 9.9,16.3 c 1.8,2.8 0.9,6.5 -2,8.2 z" />
	</g>
	<g
   id="XMLID_14_"
   class="st9">
		<path
   id="XMLID_16_"
   class="st3"
   d="m 230.4,536.2 -25.1,15.3 c -2.8,1.7 -6.5,0.8 -8.2,-2 l -9.9,-16.3 c -1.7,-2.8 -0.8,-6.5 2,-8.2 l 25.1,-15.3 c 2.8,-1.7 6.5,-0.8 8.2,2 l 9.9,16.3 c 1.7,2.7 0.8,6.4 -2,8.2 z" />
		<path
   id="XMLID_15_"
   class="st3"
   d="m 203.4,492 -25.1,15.3 c -2.8,1.7 -6.5,0.8 -8.2,-2 L 160.2,489 c -1.7,-2.8 -0.8,-6.5 2,-8.2 l 25.1,-15.3 c 2.8,-1.7 6.5,-0.8 8.2,2 l 9.9,16.3 c 1.8,2.8 0.9,6.5 -2,8.2 z" />
	</g>
	<g
   id="XMLID_193_">
		<path
   id="XMLID_227_"
   class="st6"
   d="m 230.4,536.2 -25.1,15.3 c -2.8,1.7 -6.5,0.8 -8.2,-2 l -9.9,-16.3 c -1.7,-2.8 -0.8,-6.5 2,-8.2 l 25.1,-15.3 c 2.8,-1.7 6.5,-0.8 8.2,2 l 9.9,16.3 c 1.7,2.7 0.8,6.4 -2,8.2 z" />
		<path
   id="XMLID_213_"
   class="st6"
   d="m 203.4,492 -25.1,15.3 c -2.8,1.7 -6.5,0.8 -8.2,-2 L 160.2,489 c -1.7,-2.8 -0.8,-6.5 2,-8.2 l 25.1,-15.3 c 2.8,-1.7 6.5,-0.8 8.2,2 l 9.9,16.3 c 1.8,2.8 0.9,6.5 -2,8.2 z" />
	</g>
	
		<circle
   id="XMLID_79_"
   transform="matrix(0.9951,-0.09853759,0.09853759,0.9951,-56.8153,27.0363)"
   class="st10"
   cx="245.3"
   cy="588.70001"
   r="31.1" />
	
		<circle
   id="XMLID_8_"
   transform="matrix(0.9951,-0.09853759,0.09853759,0.9951,-56.8153,27.0363)"
   class="st11"
   cx="245.3"
   cy="588.70001"
   r="31.1" />
	
		<circle
   id="XMLID_141_"
   transform="matrix(0.9951,-0.09853759,0.09853759,0.9951,-56.8153,27.0363)"
   class="st6"
   cx="245.3"
   cy="588.70001"
   r="31.1" />
	<path
   id="XMLID_143_"
   class="st12"
   d="m 232,596.8 c -4.5,-7.3 -2.1,-16.9 5.2,-21.3" />
	<g
   id="XMLID_25_">
		<g
   id="XMLID_253_">
			<g
   id="XMLID_270_">
				<line
   id="XMLID_272_"
   class="st13"
   x1="663.90002"
   y1="432.79999"
   x2="667.90002"
   y2="439.39999" />
				<line
   id="XMLID_271_"
   class="st13"
   x1="669.20001"
   y1="434"
   x2="662.59998"
   y2="438.10001" />
			</g>
			<g
   id="XMLID_267_">
				<line
   id="XMLID_269_"
   class="st13"
   x1="610.90002"
   y1="465.10001"
   x2="614.90002"
   y2="471.79999" />
				<line
   id="XMLID_268_"
   class="st13"
   x1="616.20001"
   y1="466.39999"
   x2="609.59998"
   y2="470.5" />
			</g>
			<g
   id="XMLID_264_">
				<line
   id="XMLID_266_"
   class="st13"
   x1="557.79999"
   y1="497.5"
   x2="561.90002"
   y2="504.10001" />
				<line
   id="XMLID_265_"
   class="st13"
   x1="563.20001"
   y1="498.79999"
   x2="556.5"
   y2="502.79999" />
			</g>
			<g
   id="XMLID_261_">
				<line
   id="XMLID_263_"
   class="st13"
   x1="504.79999"
   y1="529.90002"
   x2="508.89999"
   y2="536.5" />
				<line
   id="XMLID_262_"
   class="st13"
   x1="510.20001"
   y1="531.20001"
   x2="503.5"
   y2="535.20001" />
			</g>
			<g
   id="XMLID_258_">
				<line
   id="XMLID_260_"
   class="st13"
   x1="451.79999"
   y1="562.20001"
   x2="455.79999"
   y2="568.90002" />
				<line
   id="XMLID_259_"
   class="st13"
   x1="457.10001"
   y1="563.5"
   x2="450.5"
   y2="567.59998" />
			</g>
			<g
   id="XMLID_255_">
				<line
   id="XMLID_257_"
   class="st13"
   x1="398.79999"
   y1="594.59998"
   x2="402.79999"
   y2="601.20001" />
				<line
   id="XMLID_256_"
   class="st13"
   x1="404.10001"
   y1="595.90002"
   x2="397.5"
   y2="599.90002" />
			</g>
		</g>
		<g
   id="XMLID_233_">
			<g
   id="XMLID_250_">
				<line
   id="XMLID_252_"
   class="st13"
   x1="631.5"
   y1="379.70001"
   x2="635.59998"
   y2="386.39999" />
				<line
   id="XMLID_251_"
   class="st13"
   x1="636.79999"
   y1="381"
   x2="630.20001"
   y2="385.10001" />
			</g>
			<g
   id="XMLID_247_">
				<line
   id="XMLID_249_"
   class="st13"
   x1="578.5"
   y1="412.10001"
   x2="582.5"
   y2="418.70001" />
				<line
   id="XMLID_248_"
   class="st13"
   x1="583.79999"
   y1="413.39999"
   x2="577.20001"
   y2="417.39999" />
			</g>
			<g
   id="XMLID_244_">
				<line
   id="XMLID_246_"
   class="st13"
   x1="525.5"
   y1="444.5"
   x2="529.5"
   y2="451.10001" />
				<line
   id="XMLID_245_"
   class="st13"
   x1="530.79999"
   y1="445.79999"
   x2="524.20001"
   y2="449.79999" />
			</g>
			<g
   id="XMLID_241_">
				<line
   id="XMLID_243_"
   class="st13"
   x1="472.5"
   y1="476.79999"
   x2="476.5"
   y2="483.5" />
				<line
   id="XMLID_242_"
   class="st13"
   x1="477.79999"
   y1="478.10001"
   x2="471.20001"
   y2="482.20001" />
			</g>
			<g
   id="XMLID_238_">
				<line
   id="XMLID_240_"
   class="st13"
   x1="419.39999"
   y1="509.20001"
   x2="423.5"
   y2="515.79999" />
				<line
   id="XMLID_239_"
   class="st13"
   x1="424.79999"
   y1="510.5"
   x2="418.10001"
   y2="514.5" />
			</g>
			<g
   id="XMLID_235_">
				<line
   id="XMLID_237_"
   class="st13"
   x1="366.39999"
   y1="541.59998"
   x2="370.5"
   y2="548.20001" />
				<line
   id="XMLID_236_"
   class="st13"
   x1="371.70001"
   y1="542.90002"
   x2="365.10001"
   y2="546.90002" />
			</g>
		</g>
		<g
   id="XMLID_212_">
			<g
   id="XMLID_230_">
				<line
   id="XMLID_232_"
   class="st13"
   x1="599.09998"
   y1="326.70001"
   x2="603.20001"
   y2="333.29999" />
				<line
   id="XMLID_231_"
   class="st13"
   x1="604.5"
   y1="328"
   x2="597.90002"
   y2="332.10001" />
			</g>
			<g
   id="XMLID_226_">
				<line
   id="XMLID_229_"
   class="st13"
   x1="546.09998"
   y1="359.10001"
   x2="550.20001"
   y2="365.70001" />
				<line
   id="XMLID_228_"
   class="st13"
   x1="551.5"
   y1="360.39999"
   x2="544.79999"
   y2="364.39999" />
			</g>
			<g
   id="XMLID_223_">
				<line
   id="XMLID_225_"
   class="st13"
   x1="493.10001"
   y1="391.5"
   x2="497.10001"
   y2="398.10001" />
				<line
   id="XMLID_224_"
   class="st13"
   x1="498.39999"
   y1="392.70001"
   x2="491.79999"
   y2="396.79999" />
			</g>
			<g
   id="XMLID_220_">
				<line
   id="XMLID_222_"
   class="st13"
   x1="440.10001"
   y1="423.79999"
   x2="444.10001"
   y2="430.5" />
				<line
   id="XMLID_221_"
   class="st13"
   x1="445.39999"
   y1="425.10001"
   x2="438.79999"
   y2="429.20001" />
			</g>
			<g
   id="XMLID_217_">
				<line
   id="XMLID_219_"
   class="st13"
   x1="387.10001"
   y1="456.20001"
   x2="391.10001"
   y2="462.79999" />
				<line
   id="XMLID_218_"
   class="st13"
   x1="392.39999"
   y1="457.5"
   x2="385.79999"
   y2="461.5" />
			</g>
			<g
   id="XMLID_214_">
				<line
   id="XMLID_216_"
   class="st13"
   x1="334"
   y1="488.60001"
   x2="338.10001"
   y2="495.20001" />
				<line
   id="XMLID_215_"
   class="st13"
   x1="339.39999"
   y1="489.89999"
   x2="332.79999"
   y2="493.89999" />
			</g>
		</g>
		<g
   id="XMLID_192_">
			<g
   id="XMLID_209_">
				<line
   id="XMLID_211_"
   class="st13"
   x1="566.79999"
   y1="273.70001"
   x2="570.79999"
   y2="280.29999" />
				<line
   id="XMLID_210_"
   class="st13"
   x1="572.09998"
   y1="275"
   x2="565.5"
   y2="279" />
			</g>
			<g
   id="XMLID_206_">
				<line
   id="XMLID_208_"
   class="st13"
   x1="513.79999"
   y1="306.10001"
   x2="517.79999"
   y2="312.70001" />
				<line
   id="XMLID_207_"
   class="st13"
   x1="519.09998"
   y1="307.39999"
   x2="512.5"
   y2="311.39999" />
			</g>
			<g
   id="XMLID_203_">
				<line
   id="XMLID_205_"
   class="st13"
   x1="460.70001"
   y1="338.39999"
   x2="464.79999"
   y2="345.10001" />
				<line
   id="XMLID_204_"
   class="st13"
   x1="466.10001"
   y1="339.70001"
   x2="459.39999"
   y2="343.79999" />
			</g>
			<g
   id="XMLID_200_">
				<line
   id="XMLID_202_"
   class="st13"
   x1="407.70001"
   y1="370.79999"
   x2="411.79999"
   y2="377.39999" />
				<line
   id="XMLID_201_"
   class="st13"
   x1="413.10001"
   y1="372.10001"
   x2="406.39999"
   y2="376.10001" />
			</g>
			<g
   id="XMLID_197_">
				<line
   id="XMLID_199_"
   class="st13"
   x1="354.70001"
   y1="403.20001"
   x2="358.70001"
   y2="409.79999" />
				<line
   id="XMLID_198_"
   class="st13"
   x1="360"
   y1="404.5"
   x2="353.39999"
   y2="408.5" />
			</g>
			<g
   id="XMLID_194_">
				<line
   id="XMLID_196_"
   class="st13"
   x1="301.70001"
   y1="435.5"
   x2="305.70001"
   y2="442.20001" />
				<line
   id="XMLID_195_"
   class="st13"
   x1="307"
   y1="436.79999"
   x2="300.39999"
   y2="440.89999" />
			</g>
		</g>
	</g>
	<g
   id="XMLID_139_"
   class="st14">
		
			<rect
   id="XMLID_138_"
   x="455.39999"
   y="340.5"
   transform="matrix(0.3877,-0.9218,0.9218,0.3877,-142.4644,723.6895)"
   class="st15"
   width="36.200001"
   height="257.10001" />
		<path
   id="XMLID_137_"
   class="st16"
   d="m 597.6,505.7 -11.1,26.5 11,3.7 c 1.9,0.6 3.9,-0.3 4.7,-2.1 l 7.5,-17.9 c 0.8,-1.8 0,-3.9 -1.8,-4.8 z" />
		
			<rect
   id="XMLID_136_"
   x="537.79999"
   y="482.29999"
   transform="matrix(0.3877,-0.9218,0.9218,0.3877,-123.3121,823.8091)"
   class="st15"
   width="41.200001"
   height="44.900002" />
		<path
   id="XMLID_135_"
   class="st16"
   d="m 470.5,450.4 -0.6,1.3 c -1.2,2.8 -4.4,4.1 -7.2,2.9 l -67.5,-28.4 c -2.8,-1.2 -4.1,-4.4 -2.9,-7.2 l 0.6,-1.3 c 1.2,-2.8 4.4,-4.1 7.2,-2.9 l 67.5,28.4 c 2.8,1.2 4.1,4.4 2.9,7.2 z" />
		<polygon
   id="XMLID_116_"
   class="st16"
   points="348,435.9 362,402.5 320.4,399.2 316.5,408.5 " />
		<polygon
   id="XMLID_115_"
   class="st16"
   points="319.7,400.9 317.2,406.9 309.3,400 " />
		<line
   id="XMLID_114_"
   class="st17"
   x1="301.79999"
   y1="396.79999"
   x2="309.10001"
   y2="399.89999" />
	</g>
	<g
   id="XMLID_2_">
		
			<rect
   id="XMLID_254_"
   x="448.89999"
   y="326.10001"
   transform="matrix(0.3877,-0.9218,0.9218,0.3877,-133.1178,708.853)"
   class="st3"
   width="36.200001"
   height="257.10001" />
		
			<rect
   id="XMLID_9_"
   x="456.5"
   y="337.60001"
   transform="matrix(0.3877,-0.9218,0.9218,0.3877,-146.6813,711.452)"
   class="st5"
   width="11.3"
   height="257.10001" />
		
			<rect
   id="XMLID_110_"
   x="466.20001"
   y="314.60001"
   transform="matrix(0.3877,-0.9218,0.9218,0.3877,-119.5542,706.2537)"
   class="st18"
   width="11.3"
   height="257.10001" />
		
			<rect
   id="XMLID_12_"
   x="448.89999"
   y="326.10001"
   transform="matrix(0.3877,-0.9218,0.9218,0.3877,-133.1178,708.853)"
   class="st19"
   width="36.200001"
   height="257.10001" />
		<path
   id="XMLID_274_"
   class="st20"
   d="m 591.1,491.3 -11.1,26.5 11,3.7 c 1.9,0.6 3.9,-0.3 4.7,-2.1 l 7.5,-17.9 c 0.8,-1.8 0,-3.9 -1.8,-4.8 z" />
		<path
   id="XMLID_17_"
   class="st6"
   d="m 591.1,491.3 -11.1,26.5 11,3.7 c 1.9,0.6 3.9,-0.3 4.7,-2.1 l 7.5,-17.9 c 0.8,-1.8 0,-3.9 -1.8,-4.8 z" />
		
			<rect
   id="XMLID_273_"
   x="531.29999"
   y="467.89999"
   transform="matrix(0.3877,-0.9218,0.9218,0.3877,-114.0742,808.9932)"
   class="st21"
   width="41.200001"
   height="44.900002" />
		
			<rect
   id="XMLID_10_"
   x="540.20001"
   y="481.29999"
   transform="matrix(0.3877,-0.9218,0.9218,0.3877,-129.8927,812.0058)"
   class="st7"
   width="12.1"
   height="44.900002" />
		
			<rect
   id="XMLID_145_"
   x="551.40002"
   y="454.29999"
   transform="matrix(0.3877,-0.9218,0.9218,0.3877,-98.0165,805.918)"
   class="st22"
   width="12.5"
   height="44.900002" />
		
			<rect
   id="XMLID_19_"
   x="531.29999"
   y="467.89999"
   transform="matrix(0.3877,-0.9218,0.9218,0.3877,-114.0742,808.9932)"
   class="st19"
   width="41.200001"
   height="44.900002" />
		<path
   id="XMLID_3_"
   class="st23"
   d="m 464,436 -0.6,1.3 c -1.2,2.8 -4.4,4.1 -7.2,2.9 l -67.5,-28.4 c -2.8,-1.2 -4.1,-4.4 -2.9,-7.2 l 0.6,-1.3 c 1.2,-2.8 4.4,-4.1 7.2,-2.9 l 67.5,28.4 c 2.7,1.2 4.1,4.4 2.9,7.2 z" />
		<path
   id="XMLID_20_"
   class="st6"
   d="m 464,436 -0.6,1.3 c -1.2,2.8 -4.4,4.1 -7.2,2.9 l -67.5,-28.4 c -2.8,-1.2 -4.1,-4.4 -2.9,-7.2 l 0.6,-1.3 c 1.2,-2.8 4.4,-4.1 7.2,-2.9 l 67.5,28.4 c 2.7,1.2 4.1,4.4 2.9,7.2 z" />
		<polygon
   id="XMLID_275_"
   class="st21"
   points="341.4,421.5 355.5,388.1 313.9,384.8 310,394.1 " />
		<polygon
   id="XMLID_134_"
   class="st22"
   points="345.8,411.1 311.9,389.4 310,394.1 341.4,421.5 " />
		<polygon
   id="XMLID_144_"
   class="st22"
   points="351.1,398.5 311.9,389.4 313.9,384.8 355.5,388.1 " />
		<polygon
   id="XMLID_23_"
   class="st6"
   points="341.4,421.5 355.5,388.1 313.9,384.8 310,394.1 " />
		<polygon
   id="XMLID_18_"
   class="st6"
   points="313.2,386.4 310.7,392.4 302.8,385.6 " />
		<line
   id="XMLID_22_"
   class="st6"
   x1="295.20001"
   y1="382.39999"
   x2="302.5"
   y2="385.5" />
	</g>
</g>
<g
   id="g380"
   transform="translate(-100.92871,-159.42871)">
	<path
   id="XMLID_53_"
   class="st2"
   d="M 820.1,769.6 H 801.4 C 778,769.6 759,750.6 759,727.2 L 757.5,626.5 C 758.3,606.6 776.6,591 798.4,591 H 823 c 21.8,0 40.1,15.6 40.9,35.5 l -1.5,100.7 c 0.1,23.4 -18.9,42.4 -42.3,42.4 z" />
	<path
   id="XMLID_51_"
   class="st24"
   d="M 810.1,755.1 H 791.4 C 768,755.1 749,736.1 749,712.7 L 747.5,612 c 0.8,-19.9 19.1,-35.5 40.9,-35.5 H 813 c 21.8,0 40.1,15.6 40.9,35.5 l -1.5,100.7 c 0.1,23.4 -18.9,42.4 -42.3,42.4 z" />
	<path
   id="XMLID_65_"
   class="st10"
   d="m 816.8,576.7 -1.4,92.3 c 0,23.4 -19,42.4 -42.4,42.4 h -18.7 c -1.8,0 -3.6,-0.1 -5.4,-0.4 v 1.7 c 0,23.4 19,42.4 42.4,42.4 H 810 c 23.4,0 42.4,-19 42.4,-42.4 L 854,612 c -0.8,-18.7 -17.1,-33.6 -37.2,-35.3 z" />
	<path
   id="XMLID_32_"
   class="st6"
   d="M 810.1,755.1 H 791.4 C 768,755.1 749,736.1 749,712.7 L 747.5,612 c 0.8,-19.9 19.1,-35.5 40.9,-35.5 H 813 c 21.8,0 40.1,15.6 40.9,35.5 l -1.5,100.7 c 0.1,23.4 -18.9,42.4 -42.3,42.4 z" />
	<line
   id="XMLID_52_"
   class="st6"
   x1="800.70001"
   y1="576.5"
   x2="800.70001"
   y2="634.70001" />
</g>
</svg>
