<svg id="Layer_1" data-name="Layer 1" xmlns="http://www.w3.org/2000/svg" viewBox="0 0 302.13 388.28"><defs><style>.cls-1{fill:#fff;}.cls-2{fill:#0cc87e;}</style></defs><path class="cls-1" d="M125.34,154.9c0,55.06-4.23,110.57,1,165.17,8,84.31,91.83,145.09,171.41,129.89,90.58-17.3,144-96.65,123.9-184.07-22.27-96.91-148.76-146.26-225.11-89,4.22,13.09,9.85,25.49,11.93,38.46,2,12.64.44,25.86.44,42,7.5-7.08,11.44-11.22,15.8-14.85,29.53-24.57,70.92-24.65,101-.32,28.59,23.16,36.62,64.91,18.74,97.41-16.9,30.72-50.87,45.94-86.56,38.78-32.27-6.47-58.15-34.56-60.27-68.51-1.76-28.13-.35-56.45-1.22-84.67C195,183,165.88,154.05,125.34,154.9ZM161,135.13c19.28-.41,34.65-16.66,34.44-36.4A34.69,34.69,0,0,0,159.55,64c-19.73.58-35.25,16.72-34.74,36.13S141.77,135.55,161,135.13Z" transform="translate(-123.72 -64.01)"/><path class="cls-2" d="M125.34,154.9c40.54-.85,69.7,28.06,71,70.22.87,28.22-.54,56.54,1.22,84.67,2.12,33.95,28,62,60.27,68.51,35.69,7.16,69.66-8.06,86.56-38.78,17.88-32.5,9.85-74.25-18.74-97.41-30.05-24.33-71.44-24.25-101,.32-4.36,3.63-8.3,7.77-15.8,14.85,0-16.12,1.59-29.34-.44-42-2.08-13-7.71-25.37-11.93-38.46,76.35-57.21,202.84-7.86,225.11,89,20.09,87.42-33.32,166.77-123.9,184.07-79.58,15.2-163.38-45.58-171.41-129.89C121.11,265.47,125.34,210,125.34,154.9Z" transform="translate(-123.72 -64.01)"/><path class="cls-2" d="M161,135.13c-19.21.42-35.66-15.49-36.17-35s15-35.55,34.74-36.13a34.69,34.69,0,0,1,35.87,34.7C195.63,118.47,180.26,134.72,161,135.13Z" transform="translate(-123.72 -64.01)"/></svg>